<?xml version="1.0" encoding="UTF-8"?>
<svg xmlns="http://www.w3.org/2000/svg" version="1.1" viewBox="0 0 165.4 201.6">
  <defs>
    <style>
      .cls-1 {
        fill: #fdcb68;
      }

      .cls-2 {
        fill: #fff7bf;
      }

      .cls-3 {
        fill: #e4b560;
      }

      .cls-4 {
        fill: #fffadd;
      }

      .cls-5 {
        fill: #ce9e4f;
      }

      .cls-6 {
        fill: #fff3dc;
      }

      .cls-7 {
        fill: #fff8a6;
      }

      .cls-8 {
        fill: #ffefc2;
      }

      .cls-9 {
        fill: #edc65c;
      }

      .cls-10 {
        fill: #ffeec5;
      }

      .cls-11 {
        fill: #b6844e;
      }

      .cls-12 {
        fill: #d3374e;
      }

      .cls-13 {
        fill: #fffbdf;
      }

      .cls-14 {
        fill: #fdd39f;
      }

      .cls-15 {
        fill: #fff2a3;
      }

      .cls-16 {
        fill: #3b1a3f;
      }

      .cls-17 {
        fill: #c79b5a;
      }

      .cls-18 {
        fill: #441731;
      }

      .cls-19 {
        fill: #602a3e;
      }

      .cls-20 {
        fill: #dfab60;
      }

      .cls-21 {
        fill: #ffe56a;
      }

      .cls-22 {
        fill: #976841;
      }

      .cls-23 {
        fill: #deac5f;
      }

      .cls-24 {
        fill: #ffcf68;
      }

      .cls-25 {
        fill: #ffeb74;
      }

      .cls-26 {
        fill: #fbc85e;
      }

      .cls-27 {
        fill: #ffcd63;
      }

      .cls-28 {
        fill: #fff7cd;
      }

      .cls-29 {
        fill: #fffbff;
      }

      .cls-30 {
        fill: #fff5cc;
      }

      .cls-31 {
        fill: #ffe46a;
      }

      .cls-32 {
        fill: #ffeb8c;
      }

      .cls-33 {
        fill: #fff06e;
      }

      .cls-34 {
        fill: #fff687;
      }

      .cls-35 {
        fill: #ffeaab;
      }

      .cls-36 {
        fill: #ffdaae;
      }

      .cls-37 {
        fill: #9c2e37;
      }

      .cls-38 {
        fill: #e3364c;
      }

      .cls-39 {
        fill: #e5be9d;
      }

      .cls-40 {
        fill: #eab863;
      }

      .cls-41 {
        fill: #fffcee;
      }

      .cls-42 {
        fill: #f4c566;
      }

      .cls-43 {
        fill: #f2c261;
      }

      .cls-44 {
        fill: #ffdf6b;
      }

      .cls-45 {
        fill: #ffa8d2;
      }

      .cls-46 {
        fill: #d2994b;
      }

      .cls-47 {
        fill: #f5bf5e;
      }

      .cls-48 {
        fill: #f7c86e;
      }

      .cls-49 {
        fill: #ffd669;
      }

      .cls-50 {
        fill: #fff7c5;
      }

      .cls-51 {
        fill: #f0bf62;
      }

      .cls-52 {
        fill: #ffd866;
      }

      .cls-53 {
        fill: #eab05c;
      }

      .cls-54 {
        fill: #ffda6e;
      }

      .cls-55 {
        fill: #f2bc5f;
      }

      .cls-56 {
        fill: #ffdfc5;
      }

      .cls-57 {
        fill: #fff6dd;
      }

      .cls-58 {
        fill: #ffeab5;
      }

      .cls-59 {
        fill: #ffe470;
      }

      .cls-60 {
        fill: #ffe7b1;
      }

      .cls-61 {
        fill: #5b374c;
      }

      .cls-62 {
        fill: none;
        stroke: #000;
        stroke-linecap: round;
        stroke-linejoin: round;
      }

      .cls-63 {
        fill: #fffc79;
      }

      .cls-64 {
        fill: #ffedc8;
      }

      .cls-65 {
        fill: #ffda6c;
      }

      .cls-66 {
        fill: #ffe5cd;
      }

      .cls-67 {
        fill: #ffe2c8;
      }

      .cls-68 {
        fill: #ecbc68;
      }

      .cls-69 {
        fill: #ffe6c9;
      }

      .cls-70 {
        fill: #b9854c;
      }

      .cls-71 {
        fill: #ffefc6;
      }

      .cls-72 {
        fill: #ffe16a;
      }

      .cls-73 {
        fill: #ffe099;
      }

      .cls-74 {
        fill: #fcca83;
      }

      .cls-75 {
        fill: #ffd665;
      }

      .cls-76 {
        fill: #d29f58;
      }

      .cls-77 {
        fill: #fffcd3;
      }

      .cls-78 {
        fill: #fecc66;
      }

      .cls-79 {
        fill: #f94150;
      }

      .cls-80 {
        fill: #ffe288;
      }

      .cls-81 {
        fill: #fffeff;
      }

      .cls-82 {
        fill: #aa4e3e;
      }

      .cls-83 {
        fill: #e2b671;
      }

      .cls-84 {
        fill: #ffd79e;
      }

      .cls-85 {
        fill: #f53f5b;
      }

      .cls-86 {
        fill: #cb9857;
      }

      .cls-87 {
        fill: #fff2ff;
      }

      .cls-88 {
        fill: #dfae59;
      }

      .cls-89 {
        fill: #fff27b;
      }

      .cls-90 {
        fill: #ffebb2;
      }

      .cls-91 {
        fill: #ffee9f;
      }

      .cls-92 {
        fill: #ffeda7;
      }

      .cls-93 {
        fill: #f0c173;
      }

      .cls-94 {
        fill: #fff5b8;
      }

      .cls-95 {
        fill: #fff16c;
      }

      .cls-96 {
        fill: #f7ceb4;
      }

      .cls-97 {
        fill: #d1a76e;
      }

      .cls-98 {
        fill: #f1bd60;
      }

      .cls-99 {
        fill: #be986c;
      }

      .cls-100 {
        fill: #ddac54;
      }

      .cls-101 {
        fill: #fbce69;
      }

      .cls-102 {
        fill: #ebbe78;
      }

      .cls-103 {
        fill: #bd2c45;
      }

      .cls-104 {
        fill: #e0b375;
      }

      .cls-105 {
        fill: #ffd164;
      }

      .cls-106 {
        fill: #dbac53;
      }

      .cls-107 {
        fill: #dcaf64;
      }

      .cls-108 {
        fill: #ffeed5;
      }

      .cls-109 {
        fill: #bf9156;
      }

      .cls-110 {
        fill: #fffbc1;
      }

      .cls-111 {
        fill: #fbcc7b;
      }

      .cls-112 {
        fill: #f3d0f8;
      }

      .cls-113 {
        fill: #fdc663;
      }

      .cls-114 {
        fill: #fffcf3;
      }

      .cls-115 {
        fill: #462447;
      }

      .cls-116 {
        fill: #f6c665;
      }

      .cls-117 {
        fill: #fff3ba;
      }

      .cls-118 {
        fill: #fff9db;
      }

      .cls-119 {
        fill: #ffddc5;
      }

      .cls-120 {
        fill: #deaf59;
      }

      .cls-121 {
        fill: #ffcc61;
      }

      .cls-122 {
        fill: #ffcd64;
      }

      .cls-123 {
        fill: #fffcd1;
      }

      .cls-124 {
        fill: #eabb62;
      }

      .cls-125 {
        fill: #fddbe9;
      }

      .cls-126 {
        fill: #ffe0bc;
      }

      .cls-127 {
        fill: #ffdebd;
      }

      .cls-128 {
        fill: #f0b961;
      }

      .cls-129 {
        fill: #d82e4b;
      }

      .cls-130 {
        fill: #eab25f;
      }

      .cls-131 {
        fill: #ffd7a1;
      }

      .cls-132 {
        fill: #ffdd69;
      }

      .cls-133 {
        fill: #d3aa50;
      }

      .cls-134 {
        fill: #ffd166;
      }

      .cls-135 {
        fill: #5e3b58;
      }

      .cls-136 {
        fill: #ffe66c;
      }

      .cls-137 {
        fill: #ffecb5;
      }

      .cls-138 {
        fill: #ffe189;
      }

      .cls-139 {
        fill: #cea874;
      }

      .cls-140 {
        fill: #b73743;
      }

      .cls-141 {
        fill: #ffdd6d;
      }
    </style>
  </defs>
  <!-- Generator: Adobe Illustrator 28.6.0, SVG Export Plug-In . SVG Version: 1.2.0 Build 709)  -->
  <g>
    <g id="Layer_2">
      <g id="Layer_1-2">
        <g>
          <path class="cls-33" d="M93.2,8.7c3-3.4,6.5-5.4,11.2-5.1,3.9.2,6.2,3,8.9,5.1.4.4.4.8.2,1.3-1.5,1.8-3.8.5-5.5,1.2-3.6,1.3-5.6,4.6-8.4,6.9-.8.3-1.4.9-2.2,1.2-2,1-2.9,2.3-2,4.6.5,1.4.2,2.8-1,3.7-1.4,1-1.2,2.1-.6,3.6,1.8,4.6,3.3,9.3,5.1,13.9.4,1.1.7,2.2,1.5,3.1,2,2.4,1.9,2.4.4,5.3,2-2,4.5-2.8,7.3-2.9,1.5,0,2.8-.7,4-1.7.5-.2.9-.1,1.3.3h0c1.1,1,0,2.8,1.2,3.8,2.1,5.7,3,11.6,3,17.6-.3.2-.6,0-.8-.2-.5-.9-.7-2-1-3-.2-1.1-.6-2.1-.8-3.2-1.3-2.2-2.3-2.5-4.4-1-1.9,1.3-3.3,3.2-5,4.7-2.8,2.6-4.6,2.9-7.9,1.3-3.3-1.6-7-2-10.6-2.6-2.1-.4-4.3-.7-6.5-1.2-1.1-.3-2.3-.4-3.4,0-2.1.7-4.1.3-6.1-.7-.9-.7-.7-1.9-1.2-2.8-.6-1.2-1.6-1.9-2.6-2.6-1.3-.8-1.9-1.9-1.4-3.3.2-.8.5-1.5.8-2.2.7-2.8.4-5.6.2-8.4-.1-2.2-1.4-3.8-3.7-4.5-2.3-2.3.4-4.3.5-6.4.4-.4.8-.5,1.2-.1.3.4.4,1,.6,1.4,1.2,3,2.8,3.4,5.1,1,1.6-1.6,3.1-3.2,4.1-5.2,2.7-5.2,6.9-8.9,11.1-12.8.6-.6,1.7-.4,2.2-1.2,1.2-2.1,2.5-4.3,3.7-6.4,1-.4.5-1.8,1.4-2.3h0Z"/>
          <path class="cls-95" d="M147.4,116c.8,1.6,1.7,3.1,1.1,5-1.5,1.6-2.8,3.5-4.5,4.8-7.2,5.4-7.6,13.3-8.3,21.1-.2,2.1-.4,4.2-1,6.2-.3,1.1-.6,2.4-1.9,2.7-1.4.3-2-.9-2.7-1.8-.3-.3-.5-.7-.7-1.1-.5-1-.4-2.1-.8-3.1-.1-.3-.2-.5-.3-.8-1-1.6-1.8-.5-2.4.3-1.2,1.6-2.5,3-3.8,4.5-1,1.2-2.4,2.4-4,1.5-1.6-.9-.8-2.6-.4-3.9.4-1.4,1.2-2.7,1.2-4.2.1-.7.2-1.4.7-2-.5.2-.7.6-1.2.9-1.5,1.1-2.3,3-4,3.9-.9.5-1.9,1-2.9.3-.9-.6-.9-1.6-.8-2.5.2-1.4.5-2.8.5-4.3.2-1.7,1.1-3.2,1.9-4.7.4-.6.7-1.2.6-2-.4-1.4-1.7-1.4-2.8-1.5-1.8-.2-3.8-.3-4.2-2.4-.4-2,1.4-3.1,2.9-4,.6-.3,1.3-.3,2-.4,2.7-.2,5.4.3,8-.3,2.9,0,4.9-1.5,6.2-4.1.6-.8,1.1-1.6,1.5-2.6.4-.8.7-1.6,1.3-2.2.7-.6,1.4-1.1,2.2-1.4,1.1-.5,2.4-.7,3.4-1.4.2-.7-.3-.8-.7-.9-1.3-.3-2.6-.8-2.6-2.3,0-1.5,1.4-1.6,2.5-1.8,1.8-.4,1.6-1.4.8-2.5-.7-1-1.6-2-2.3-3-.5-.9-1.3-1.8-.3-2.8.7-.3,1.2-.1,1.8.3h0c.5.9,1.9.4,2.3,1.4.2.2.5.4.7.6.2.2.4.4.7.7,1.3.8,2.4,1.8,3.9,2.2,1,.7,1.6,1.8,2.5,2.7.3,1.3,1.2,2.2,2.4,2.7,1,.5.5,1.9,1.3,2.5h0Z"/>
          <path class="cls-105" d="M38.9,80.5c2.2,1.1,3.8,3.3,6.3,3.9,3.1,1.2,6.1,2.6,8.9,4.5.8.7,1.8,1,2.8,1.2.8.3,1.3.8,1.3,1.8,0,.3-.2.6-.4.9-.8.5-1.9,0-2.6.8-.1.4,0,.7.2.9,4.3,2.2,6.8,6.1,9.8,9.6.8.9,1.6,1.7,2.4,2.4,1.6,1.4,3.2,1.5,5.1.2,4.1-2.8,8.6-3.8,13.7-3.1,4.3.6,8.8-.1,13,1.7,2.2,1,4.4,2,6.6,3,2.8,1.3,5.5,1.1,8.1-.3,3.2-1.9,3.4-5.9,5.7-8.4.4-.4.5-1.2,1-1.6,1.8-.7,2.9.2,3.5,1.7.7,1.5.3,3-1.1,3.8-1.5.9-2.4,2.2-3.2,3.7-2.2,3.9-9.4,6.5-13.5,5-1.2-.4-2.4-.7-3.5-1.3-5.1-2.6-10.3-4.2-16.1-4.6-3.9-.3-6.9.5-10,2.5-.7.4-1.3,1-2,1.6-4.1,3.1-6.8,2.8-10-1.1-2-2.5-4.3-4.8-7.5-6.4-.5,4,.2,7.2,3.5,9.3,2.5,1.6,4.2,3.8,5.4,6.4.7,1.7,1.9,2.8,3.6,3.3,1,.4,1.9.9,2.7,1.6,2.3,2.8,3.9,5.8,3.5,9.5-1.9.4-2.3-1.2-2.9-2.3-1.4-2.6-3.8-4.5-5.5-6.7-3.9-4.9-9.1-8.1-13.7-12.1-.8-.7-1.6-1.3-2.4-2-1.7-1.6-3.4-3.4-3.4-5.8,0-4.1-1.6-7.8-2.2-11.7-.4-2.5-1.7-4.5-3.7-6-1.1-1-2-2.3-3.4-3-.5-.5-.8-1-.8-1.7,0-.5.2-1,.7-1.3h0Z"/>
          <path class="cls-42" d="M39.5,83.2c1.7,0,2.1,1.7,3.2,2.5,3.6,3,3.7,7.5,5,11.6.3.8.2,1.8-.4,2.4-2.2,1.8-.8,3.4,0,5.3.8,2,3.4,3,3.1,5.5-2.2.7-3.4-1.6-5.3-1.9-3-3-6-6.1-9-9.1-5.1-5-11.4-8.4-17.3-12.4-.6-.9-1.7-.8-2.6-1.3-3.9-1.4-8.1.1-11.9-1.4,0-.2,0-.5,0-.7-.5-.8-.1-1.2.6-1.3.9-.2,1.9,0,2.8,0,4.1-.1,5.4-1.7,5.2-6.1-2.2-2.4-4.8-4.3-6.7-7-.4-.4-.3-.9,0-1.3,1.5-.7,2.4.5,3.2,1.3,3.6,3.5,7.6,5.6,12.7,3.3.6-.3,1.3-.4,1.9-.2,4.2,1.3,8.4,2.4,12,5.2,0,.3,0,.6-.2.8-3.1,1.2-6.1.6-8.8-1.1-2-1.2-4-1.5-5.9,0,2.1,2,3,5.3,6.4,6,2,1.4,3.5,3.3,4.9,5.2,2,2.6,4.7,4.4,7.1,6.6,1,.9,2.3,1.3,3.4.4,1.3-1,.7-2.3,0-3.4-1.4-2.3-2.8-4.6-3.4-7.4-.1-.6-.4-1.2.2-1.7h0Z"/>
          <path class="cls-129" d="M127.2,78.7c-.4,3.5-2.9,5.9-4.5,8.8-.9,1.7-1.3,2.9.4,4.3,1.7,1.3,2.1,3.2,2.1,5.3-.4.8-1,1.2-1.9,1.1-1.5-.5-3.1-.9-4.7-.8-1.1.3-2.2.8-3.3,1.1-2.2.5-4,2-6.3,2-.3,1.9,2.3,3.3.1,5-2.8-1.1-4.2-3.1-4.1-6.2,0-5.5-1.5-10.8-2-16.3-.3-.7,0-1.3.3-1.9.8-1,1.6-2,3.1-2,1.5.7.5,1.7.4,2.6-.3,1.9-.8,4,2.1,4.4,1.5-1.2,2.5-2.8,3.8-4.2.7-1.5,2.8-1.7,3-3.6.6-1.9.4-4.1,2.2-5.4,2-.3,3.7,1.1,5.7,1,.8,0,1.2.7,1.1,1.6,0,.2-.6.7.2.6,2.7-.3,2.7-.3,2.3,2.7h0Z"/>
          <path class="cls-75" d="M129.8,152.5c1.5.4,1.3,3.2,3,2.6,1.3-.5,1.3-2.5,1.5-3.9.6-5.6,1.1-11.1,2.4-16.6.2-.8,0-1.8.5-2.4,2.9-4,6.7-7.3,10.1-11,.2-.2.8-.1,1.2-.2,0,.7,0,1.3,0,2-.5.8.5,2.2-.9,2.7-1.4-.3-2.1.7-2.9,1.5-1.8,1.6-3.2,3.6-5.1,5.2-.8.7-1.7,1.8-.8,2.7,1.1,1,1.9-.3,2.5-1.1,1.6-1.9,3-4,4.3-6.2.4-.7.6-2.3,2.2-1.6.7,1.4,1.7,2.1,3.4,2.3,1.8.2,3.7.5,5.2,1.7,1,.4,2,.2,3,.4,2.9,2.6,3.4,5.8,1.9,9.3-.2,0-.3-.1-.5-.2-1.8-4.1-1.9-4-5.9-2.2-2.3,1-3.2,2.6-2.1,5,.4,1,.7,2,.2,3-.4.7-.8,1.4-.8,2.3-.3,3.1-1.2,3.5-3.9,2-2.8-1.6-5-3.7-7.2-6-.6-.6-1.1-1.2-1.9-1.8-.2.9.2,1.9-.7,2.5-1.7.7-1.8,2.3-2.1,3.9-.5,3.3-.5,6.6-1,9.9-.9,1.9-2,3.5-4.5,2.9-2-1.1-1.9-3.1-2-5,.2-1.3-.2-2.7.9-3.7h0Z"/>
          <path class="cls-44" d="M112.1,49.1c0,3.1-2.9,2.1-4.3,2.3-2.4.3-4.5.5-6.1,2.6-.7.9-2,1.3-2.8.4-1.2-1.3.6-1.3,1.1-1.9.8-.8,1.9-1.9.8-2.6-3.6-2.5-3.1-6.9-5-10.2-1.7-2.9-1.9-6.6-3.6-9.6-.7-1.1-.6-2.1,1-2.7,1.1-.4,1.9-1.2,1.6-2.7-.8-5-.6-5.2,4.7-7.2.8,2.7-1.7,4.4-2,6.8,0,.5-.3,1.1.4,1.3,2.9,1,3.1,3,2,5.4-.4.8-.3,1.6.2,2.4,2.8,4.2,4.9,5.3,8.2,4.4.9.5,1.1,1.3,1.3,2.3.7.7.3,2,1.2,2.6h0c.8.7.4,1.9,1.2,2.6,0,.4.1.8.2,1.1.6.9.6,1.7,0,2.6h0Z"/>
          <path class="cls-72" d="M35.7,78.1c-3.6-2.4-7.8-3.3-11.7-4.9-.6-.3-1.5,0-2.1.2-5.2,2.5-9.1.3-12.8-3.2-.9-.8-1.7-1.8-2.9-2.2-1-1.2-.8-2.5-.1-3.8,1.3-2.3,3.3-.9,5.1-1.2.7.8,1.9.3,2.5,1.3h0c.7.6,1.6.9,2.4,1.7-.4-2.9-1-5.5.2-8.1,0-.7.5-1.2,1.3-1.3,1.3-.8,2.6-.8,3.8,0,.7.1,1.1.6,1.2,1.3.9.6.4,1.9,1.3,2.5h0c.9.6.4,1.9,1.3,2.5.9,1.6,1.7,3.3,2.6,4.9,0,2.1.7,3.5,2.9,4.2,1.2.3,2.3,1.4,3.3,2.2,1.6.7,2.1,2.3,2.7,3.7-.2.2-.5.2-.8,0h0Z"/>
          <path class="cls-51" d="M131,160.8c2,.3,2.7-1.4,3.8-2.6.6-.7.3-1.6.6-2.4,1-2.3,2.1-2.7,4-1.1,2.7,2.3,5.9,3.6,9.4,3.9,2,.1,3.8.6,5.1,2,1,1.1,1.4,2.3.3,3.7-.5,1.9-1,3.7-3,4.6-5.7,3.4-11.2,2.9-16.7-.5-.3-.3-.7-.6-.6-1,0-2.7-.9-4.9-2.9-6.7Z"/>
          <path class="cls-104" d="M134.8,167.7c4.4,2.7,9.1,3.6,14.1,1.6.7-.3,1.6-.2,2.4-.3-3.4,4.5-8.3,4.8-13.2,4.3-3.6-.4-7.2-1.3-10.5-2.7-.9.3-1.6,0-2.1-.8-1.5-1.3-2.8-3.2-5.3-2.3-1.8,0-3.7-.3-4.8,1.7-.3.1-.5.2-.8.1-.8-.8-1.7-1.4-2.9-1.3-.5,0-.9-.1-1.4-.3-4.7-.5-9.4-.2-14,0-1-.4-.9-1.3-.3-1.7,2.2-1.5,3.1-4.1,4.8-5.9.5-.2,1-.2,1.5-.1,6.9,2.4,13.8,2.7,21,1,3.2-.8,4.2-.2,4.9,3,.4,2,1.5,2.9,3.4,3,1.2,0,2.3.3,3.3,1h0Z"/>
          <path class="cls-1" d="M90.7,177.7c-.5-2.1-1.4-4-1.4-6.2-.4-1.2-.8-2.3-.3-3.5,1-1.1,2.2-.4,3.3-.3,4.9,2.1,8,6.1,11.1,10.2.7,1.6,1.4,3.2,1.3,5.1-.1,3.7-3,5.3-6.2,3.6-.9-.5-1.7-1.1-2.6-1.7-1.7-1.2-2.6-3.1-4-4.5h0c-.9-.6-.5-1.8-1.2-2.5h0Z"/>
          <path class="cls-76" d="M128.5,180.9v3.8c-.8,1.4-.2,3.1-1,4.5-2.4,1.7-5.4,2.1-7.8,3.8-1.9,1.3-6.1-2.4-6.3-5.2.2-.4.5-.8.8-1.1,2.8-2.4,4.4-5.6,5.6-9,1.3-2.5,3.3-2,5.4-1.3,1.9.6,3.5,1.3,3.1,3.8,0,.3.2.6.4.8h0Z"/>
          <path class="cls-93" d="M114.6,187.3c-.2.2-.4.4-.6.6-1.7,2.2-.7,5.6,2.2,7.1.7.3,1.4.4,2.1.7.7.4,1,1,1.3,1.7.2.4.2.8.1,1.2-4.8,1.8-10.4-.7-13.5-6.6-.6-1.2-1.1-2.2-2.6-2.4-3.1-.5-5.5-2.3-7.8-4.3-.4-.4-.5-.8,0-1.2.4.2.8.3,1.1.6,1.7,1.4,3.6,2.9,5.8,1.2,2.1-1.6,1.2-3.9.6-6-.2-.7-.5-1.4-.7-2.1,1.6-.3,2.5.8,2.8,1.9,1,3.4,3.6,4.3,6.6,5,1.2.3,3.2.2,2.5,2.5h0Z"/>
          <path class="cls-78" d="M108.3,37.9c0,2-1.2,1.9-2.6,1.3-2.7-1-5-2.6-6.3-5.3-.6-1.1-.3-2.2.2-3.2.7-1.3,1-2.5,0-4-1.1-1.7.5-2.3,1.7-2.9,3.9-1.7,7.5-7.4,7.2-11.3,0-.8-.8-1.2-1-1.9,1.8-1.3,3.8.4,5.6-.6.8,0,.9.8,1.3,1.3,1.5,3.3,1.4,6.7,0,10.1-1.4-1.3-.4-3.2-1.3-5.2-3,5.6-6.7,10.5-9.6,15.8-.5,1-.4,1.8.5,2.5,1,.7,1.7.5,2.3-.5.2-.4.5-.7,1-.6.4,1.5-.2,3.2.8,4.6h0Z"/>
          <path class="cls-63" d="M54.1,17.5c0-.4,0-.8,0-1.2.9-1.6,2.2-2.8,3.8-3.8h0c2.1-1,4.2-1,6.3,0h0c.6.8,1.9.4,2.5,1.3,2.1,1.2,3.8,2.9,5.1,5,.3.4.5.8.4,1.3-.5,1.5-1.8,1.8-3.1,2-1.1.2-2,.9-3,1.4-.3.1-.5.2-.8.3-2.4.9-4.2.4-5.3-2.1-1.1-2.4-3.2-3.7-5.7-4.2h0Z"/>
          <path class="cls-124" d="M107.5,33.4c-1.1.7.2,2.7-1.3,2.8-1.3,0-2.6-.7-3.5-1.8-1.2-1.4,0-2.3.6-3.3,2.6-5,6.4-9.3,8.7-14.5.4-.9.9-2,1.9-1.8,1.2.3.6,1.6.7,2.5,0,1.4,0,2.7,0,4.1-.1,3.7-2.7,6.1-4.5,8.9-.7,1.1-1.7,2.1-2.5,3.1h0Z"/>
          <path class="cls-27" d="M154.3,164.4c-.2-3.5-1.7-4.7-5.4-4.9-4-.2-7.7-1.4-10.4-4.6-.8-1-1.3-.7-1.8.2-.6,1.1-1.3,2.1-1.9,3.2-.2-4.2.4-8.4,1.1-12.6.3-2,1.1-2.2,2.7-1.3.1,0,.2.2.3.3,2.1,6.3,6.7,10.1,12.7,12.5,1.5.6,3.3.9,3.9,2.8.1,1.4.1,2.7-.6,3.9-.2.2-.4.3-.6.5h0Z"/>
          <path class="cls-59" d="M54.1,17.5c3-1.1,4.6.7,5.8,2.9,1.2,2.3,2.7,3.8,5.5,2.8.3.6-.3,1.1,0,1.7.2.3.4.6.6,1,2.5,3.6,2.5,3.7-.5,6.7-.2.2-.4.3-.7.5-.6.2-1.2.5-1.7,1-.2.2-.5.3-.7.3-.6,0-1.1,0-1.6-.4-.8-1.3-1-2.9-1.9-4.2-1.3-2.9-4.2-4.8-4.9-8-.2-1.4-.2-2.9,0-4.3h0Z"/>
          <path class="cls-48" d="M45,108.5c2.3-.9,3.4,1.6,5.3,1.8,2,0,3.2,1.4,4.6,2.5,2.3,1.7,5,3.2,7.1,5,4.2,3.7,8.2,8,10.1,13.6.1.4,0,.8-.2,1.2-.4.3-.8.5-1.3.5-.5,0-.9-.3-1.3-.6-1.2-1.7-2.5-3.4-3.7-5.1-1.2-2.2-3.2-3.5-5.1-5-.4-.4-.9-.8-1.3-1.2-.5-1-1.8-.5-2.4-1.4-3.6-3.1-7.4-6.1-10.6-9.7-.4-.5-.7-1-1.1-1.5h0Z"/>
          <path class="cls-25" d="M138.6,144.4c.3-1.4-1-2.5-1-4.1,1.4-.2,2,1,2.7,1.7,2.6,2.5,5.1,5.3,8.3,7.2,1.8,1.1,3.1,1.9,2.7-1.3-.1-.9-.2-2,1.2-2.2.2.1.4.3.5.6.3.8-.1,1.9.8,2.6h0c1.2,1,.1,2.8,1.2,3.9,0,.4,0,.8.1,1.2.9,1.2.6,2.6.5,3.9-.4.9-1.1,1-1.8.6-5.9-3.7-11.7-7.5-15.1-14h0Z"/>
          <path class="cls-68" d="M152.5,146.4c0-.3,0-.5,0-.8,0-1.1-.1-2-.6-3-1.4-2.7-.5-4.8,2.4-5.9.5-.2,1-.3,1.5-.5,3.3-1.2,5,0,4.9,3.5-.7,2.2-2.2,3.8-3.8,5.2-.7.7-1.8.7-2.5,1.3h0c-.6.5-1.2.6-1.8.2h0Z"/>
          <path class="cls-141" d="M12.8,76.3c2,3.5.2,6.5-4.1,6.9-1.5.2-3.2-.9-4.6.5-.2-.2-.4-.3-.7-.5-.8-1.7-1-3.3.1-5,1.8-1.3,3.8-1.4,5.9-1.4,1.1,0,2.3.5,3.3-.5h0Z"/>
          <path class="cls-14" d="M89.4,167.7c0,1.3,0,2.5,0,3.8-.9-.7-1.2-1.8-1.1-2.8.4-3.6-1.3-6-3.7-8.4-2.6-2.6-5.3-5.3-6.5-9-.3-.4-.3-.9-.1-1.3.8-.6,1.4-.3,1.9.3,3.3,5,7.9,8.6,12.7,12,1.4,1.6,1.6,3-.9,3.7-1,.3-1.5,1.1-2.2,1.7h0Z"/>
          <path class="cls-128" d="M118.3,73c-1.2,1.7-1.1,3.8-1.9,5.6-2.6.7-4.5-1.2-6.9-1.5-.4-2.6,2.7-8,4.9-8.6,1.9-.6,1.8,1.3,2.7,2,.1,0,.3,0,.4,0,.3.4.6.9.8,1.3.4.4.4.8,0,1.1Z"/>
          <path class="cls-50" d="M61,33.9c.6,0,1.3,0,1.9,0,.6.6.7,1.4.4,2-1.6,2.6-.7,5.6-1,8.4-.4,2.4.1,4.8-.9,7.1-.8-.4-1.2-1.5-1.2-3.4,0-.4-.5,0-.1-.1.3,1.1,0,2.3.1,3.4-1.2,2.4-2.3,4.9.6,7,0,1.5-1.2,1.6-2.3,1.7-1.1-.2-2.5-.3-1.8-2.1,0-2.1,0-4.2,0-6.3,1.4-1.9,0-4.3,1-6.3,1.8-3,2.4-6.4,2.2-9.9.1-.7.5-1.3,1.2-1.5h0Z"/>
          <path class="cls-89" d="M125.9,169.6c.6.3,1.1.6,1.6.9-.2.7-.3,1.5-.4,2.2-.7.6-1.2.2-1.7-.2-3.1-2.6-5-2.1-6.3,1.8-.7,2.2-1.8,3-3.8,1.3-.3-2.2-1.7-4.4-.2-6.6.4-4,3-2.4,5.1-2,2.4-.2,3.8,1.7,5.6,2.6h0Z"/>
          <path class="cls-40" d="M125.9,172.1c.3.5.7.6,1.2.6,1.3,2.6,1.7,5.3,1.4,8.2-.4-3-2.8-3.6-5.1-4.2-1.4-.4-2.9-.3-3.2,1.7-.5,1.1-1,2.5-2.6,2-1.7-.6-2.3-2-1.4-3.8.9-.5,2.1.1,2.8-1.4,1.4-3.3,3.1-3.9,6.9-3.1h0Z"/>
          <path class="cls-85" d="M118.3,73c0-.4,0-.8,0-1.1,2.3-1.7,4.8-3,7.4-.8,2.4,2.1,2.6,4.8,1.4,7.7v-3.2c-2,0-1.8,2.6-3.5,2.8-.9-1.3.4-2.3.5-3.7-2.2.3-4.1-.3-5.9-1.6h0Z"/>
          <path class="cls-138" d="M51.5,76.8c0-.4,0-.8,0-1.2-1-3-1.1-5.9,1.3-8.4,1.3-1.3,2.6-2.4,4.6-2,1.7.7,1.7,2.5,2.4,3.8.2,1.1.7,2.1.4,3.3-.2.5-.4.8-1,.9-.7-.1-1.1-.6-1.5-1.1-.6-.6-.5-2.1-1.9-1.6-1,.4-1.6,1.3-2,2.3-.5,1.4.1,3-1.1,4.2-.5.2-.9.1-1.3-.2h0Z"/>
          <path class="cls-74" d="M61,33.9c-.2.4-.4.9-.6,1.3-.4.3-.8.3-1.2-.1-2.1-3.6-5.7-6.4-5.1-11.2,2.5.4,2.7,3.1,4.1,4.5.5.5.2,1.9,1.5,1.2.6,1.4,1.7,2.7,1.3,4.4h0Z"/>
          <path class="cls-13" d="M56.5,57.9c0,1.3,1,1.3,2,1.3.2.2.3.5.4.7,0,.3,0,.6-.2.8-.4.7-.8,1.5-1.2,2.3-1.6,1.9-3.2,3.7-6,3.8.3-3.7,2.9-6.1,5-8.9Z"/>
          <path class="cls-83" d="M119.6,198.6c-.2-.2-.4-.4-.5-.7.6-1-.5-2.3.5-3.3,2.5-1.1,4.6-2.9,7.4-3.2.1,0,.2.2.3.3-1.2,3.9-3.7,6.2-7.7,6.9h0Z"/>
          <path class="cls-15" d="M51.5,66.8c1.9-1.4,4.2-2.3,5.5-4.3,1.1.9,1.1,2,.2,3-5,1.7-6.3,5.4-5.8,10.2-2.3-3-1.3-6,0-8.9Z"/>
          <path class="cls-34" d="M33.8,74.3c-2.6-.3-4.4-2.9-7.3-2.7-.9,0-1.2-1.1-.3-1.5,1-.5,1.3-1.2,1.4-2.2,2.4,1.8,4.8,3.7,6.2,6.4h0Z"/>
          <path class="cls-137" d="M16.2,57.9c0,3.3-.2,6.5,1.1,9.7-1.6-.8-3-1.7-3.6-3.3,1.9-.3,1.1-1.8,1.3-2.9.2-1.2-.8-3,1.3-3.5Z"/>
          <path class="cls-32" d="M71.7,20.1v-1.3c.2,0,.6,0,.6-.2.9-5.5,5-3.5,8.2-3.6.4.3.4.8.2,1.2-1,1-2.3.9-3.5.8-2.1,0-3,.9-3,2.9-.8.8-1.7.8-2.6,0h0Z"/>
          <path class="cls-41" d="M59.1,35.1c.4,0,.8,0,1.2.1.2,3.2,0,6.3-1.3,9.2-.3.5-.6.8-1.2.9-.2-.1-.2-.3-.2-.5s0-.3.1-.3c-.3-3.3,2.1-6.2,1.3-9.5h0Z"/>
          <path class="cls-87" d="M161.1,139.9c0-3.2,1-6.5-2.4-8.8-.4-.4-.4-.8,0-1.2,3.9,1.6,5.1,6.6,2.4,10Z"/>
          <path class="cls-20" d="M59.7,29.6c0,.4,0,1-.2,1.2-.7.6-.8-.2-1.1-.6-1.4-2.2-2.4-4.6-4.4-6.3-.3-.7-1-1.3,0-2,2,2.5,4,4.9,5.7,7.7Z"/>
          <path class="cls-6" d="M154.9,158.2c0-1.5,0-2.9,0-4.4,1.8,1.9,1.8,7.4,0,10.1v-4.4c-.3-.4-.3-.8,0-1.3h0Z"/>
          <path class="cls-114" d="M57.8,44.6c0,.2,0,.5,0,.7-.7,2,1.3,4.6-1.3,6.3,0-1.6,0-3.3,0-4.9,0-1,0-1.9,1.2-2.1h0Z"/>
          <path class="cls-126" d="M51.5,76.8c.4,0,.8,0,1.2,0,1.4,1.4,2.2,3,2,5,0,.5-.3,1-.8,1.3-2-1.7-2.3-4-2.5-6.4h0Z"/>
          <path class="cls-56" d="M60.3,122.3c2.4.9,4.9,1.8,5.1,5-1.1-.8-2.1-1.6-3.2-2.5-.3-1.1-2-1.2-1.9-2.5Z"/>
          <path class="cls-123" d="M57.8,12.5c-.8,1.7-2.1,3-3.8,3.8-.1-2.6,1.1-3.9,3.8-3.8Z"/>
          <path class="cls-123" d="M64.1,12.5c-2.1,0-4.2,0-6.3,0,1.7-1.8,4.6-1.8,6.3,0Z"/>
          <path class="cls-127" d="M95.8,184.1c0,.4,0,.8,0,1.2-2.2-1-3.1-2.9-3.8-5,1.8.8,2.8,2.3,3.8,3.8h0Z"/>
          <path class="cls-118" d="M88.1,17.5c.1,1.5-1,1.2-1.9,1.4-1.5,0-2.8-.5-3.4-2,0-.3.2-.5.4-.7,1.9-.3,3,1.9,4.9,1.3Z"/>
          <path class="cls-108" d="M3.7,78.2c0,1.7,0,3.3-.1,5-1.8-1.7-2.2-3.4.1-5Z"/>
          <path class="cls-7" d="M133.5,103.3c-.6,0-1.3,0-1.9,0-1.5,0-2.2-.8-2.1-2.3,0-.1.2-.2.3-.3,1.8,0,3.2.8,3.8,2.6Z"/>
          <path class="cls-69" d="M74.1,143.8c-1.4-1.7-2.2-3.6-2.4-5.8.7-.3,1.1,0,1.6.5.7,1.5,1.9,2.8,1.4,4.6-.1.3-.3.5-.6.7Z"/>
          <path class="cls-83" d="M127.2,189.2c.3-1.5.3-3.1,1.3-4.4.1,2.4.1,4.8-1.2,7h-.2c-.7-1-.5-1.8,0-2.6h0Z"/>
          <path class="cls-60" d="M6,64.2c0,1.3,0,2.6.1,3.8,0,.4,0,.8,0,1.2-1.4-1.7-2.3-3.3,0-5.1h0Z"/>
          <path class="cls-90" d="M123.4,97.7c.6-.2,1.2-.4,1.8-.6.1,1.3,2,1.1,2.1,2.4-.1.5-.4.8-.9,1-1.7-.1-2.7-1-3-2.7Z"/>
          <path class="cls-57" d="M114.6,52.9c-2.2-.7-1-2.5-1.2-3.8,2.2.7.9,2.5,1.2,3.8Z"/>
          <path class="cls-110" d="M21.2,56.7c-1.3,0-2.5,0-3.8,0,1.3-1.9,2.6-2,3.8,0Z"/>
          <path class="cls-42" d="M35.7,78.1c.3,0,.5,0,.8,0,1.2.4,2.1,1.2,2.4,2.5,0,.5,0,.9,0,1.4-.9.4-1.1-.4-1.6-.8-.6-.7-1.3-1.3-1.7-2.2,0-.3,0-.5.2-.7,0,0,0,0,0,0Z"/>
          <path class="cls-6" d="M154.9,152.6c-2-.8-1-2.5-1.2-3.9,2.2.7.9,2.5,1.2,3.9Z"/>
          <path class="cls-131" d="M72.9,138.7c-.4-.2-.8-.4-1.2-.7-.5-1-1.5-1.8-1.4-3.1.1-.1.3-.2.4-.3,2.2.5,2.8,2,2.2,4Z"/>
          <path class="cls-117" d="M126.6,100.2c.3-.2.5-.5.8-.7,1,0,2.1-.2,2.4,1.3v.3c-.9.6-1.7.6-2.5.4-.5-.2-.8-.5-.7-1.1h0Z"/>
          <path class="cls-6" d="M152.5,146.4c.6,0,1.2-.1,1.8-.2-.2.8-.4,1.7-.6,2.5-1.6-.2-1.1-1.5-1.2-2.4Z"/>
          <path class="cls-69" d="M76.7,149.5c-1.2-.7-1.3-1.9-1.4-3.1.1-.1.3-.2.4-.3,1.9,0,1.7,1.3,1.6,2.6-.1.3-.3.6-.6.8h0Z"/>
          <path class="cls-8" d="M112,45.4c-1.6-.3-1.1-1.6-1.2-2.6,1.6.3,1.2,1.6,1.2,2.6Z"/>
          <path class="cls-58" d="M110.8,42.8c-1.7-.3-1.2-1.5-1.2-2.6,1.5.3,1.2,1.6,1.2,2.6Z"/>
          <path class="cls-131" d="M69.1,132.4c.4,0,.9,0,1.3,0,.7.8.8,1.6.1,2.4l-.2.2c-1.4-.4-1.2-1.6-1.2-2.6h0Z"/>
          <path class="cls-64" d="M23.7,60.5c-1.5-.3-1.2-1.5-1.3-2.5,1.6.2,1.2,1.5,1.3,2.5Z"/>
          <path class="cls-92" d="M158.7,129.9c0,.4,0,.8,0,1.2-.9,0-1.8.2-2.5-.7-.2-.2-.2-.3-.1-.5,0-.1.1-.2.2-.2.6,0,1.2,0,1.8,0,.2,0,.4,0,.6,0h0Z"/>
          <path class="cls-10" d="M25,63c-1.6-.3-1.2-1.5-1.3-2.5,1.6.2,1.2,1.5,1.3,2.5Z"/>
          <path class="cls-84" d="M54,83.2c0-.5,0-.9,0-1.4,2.4,0,1.9,1.2,1.2,2.6-.4,0-.8,0-1.2,0,0-.4,0-.8,0-1.2h0Z"/>
          <path class="cls-66" d="M90.7,177.7c1.5.3,1.1,1.6,1.2,2.6-1.7-.2-1.2-1.5-1.2-2.6Z"/>
          <path class="cls-7" d="M135.9,104.7c-1-.1-2.2.2-2.3-1.4,1,.1,2.3-.4,2.3,1.4Z"/>
          <path class="cls-69" d="M75.3,146.4c-1.4-.4-1.1-1.6-1.2-2.6,0,0,.2-.1.2-.2,2.1,0,2,1.2,1.2,2.6,0,0-.2.2-.2.2h0Z"/>
          <path class="cls-28" d="M13.6,64.3c-1,0-2.3.3-2.5-1.3,1,0,2.3-.4,2.5,1.3Z"/>
          <path class="cls-4" d="M80.6,16.3c0-.4,0-.8,0-1.2,1.1,0,2.2-.4,2.7,1.1,0,0-.1.2-.2.2-.8.6-1.6.6-2.4-.2h0Z"/>
          <path class="cls-77" d="M66.6,13.8c-1,0-2.3.4-2.5-1.3,1,0,2.3-.4,2.5,1.3Z"/>
          <path class="cls-123" d="M93.2,8.7c-.1,1,.4,2.4-1.4,2.3.2-1-.2-2.3,1.4-2.3Z"/>
          <path class="cls-67" d="M76.7,149.5c0-.3,0-.6,0-.8,1.2-.3,1.7.1,1.2,1.4,0,.5,0,.9,0,1.4-1.1-.2-1.2-1-1.2-1.9h0Z"/>
          <path class="cls-8" d="M112.1,49.1c0-.9,0-1.7,0-2.6,1.6.3,1.1,1.6,1.2,2.6-.4,0-.8,0-1.2,0Z"/>
          <path class="cls-71" d="M114.6,11.3c-.4-.4-.9-.8-1.3-1.3,0-.4,0-.8,0-1.2,1.7.2,1.3,1.5,1.3,2.5Z"/>
          <path class="cls-6" d="M154.3,146.2c.5-1,1.4-1.3,2.5-1.3-.4,1.2-1.3,1.4-2.5,1.3Z"/>
          <path class="cls-95" d="M156.3,129.8c0,.2,0,.5,0,.7-2.3-.4-4.4-1.3-6.8-1.3-2.2,0-2.1-1.6-2.1-3.1-.2-.2-.2-.4,0-.6.9-.6.3-1.8,1-2.4-.5,3.1,2.1,3.4,4,4.3.6.9,1.9.4,2.5,1.3.7,0,1.2.4,1.3,1.2h0Z"/>
          <path class="cls-2" d="M141,107.2v1.3c-1.9.1-3.1-.8-3.8-2.5,1.6-.6,2.5.9,3.8,1.2h0Z"/>
          <path class="cls-94" d="M155,128.6c-1,0-2.3.3-2.5-1.3,1,0,2.3-.4,2.5,1.3Z"/>
          <path class="cls-30" d="M147.4,116c-1.6-.2-1.2-1.5-1.3-2.5,1.8,0,1.3,1.4,1.3,2.5Z"/>
          <path class="cls-119" d="M56.7,119.7c1,.2,2.3-.2,2.4,1.4-1.1,0-2-.2-2.4-1.4Z"/>
          <path class="cls-96" d="M16.1,85.7c1,0,2.3-.4,2.6,1.3-1,0-1.9-.5-2.6-1.3Z"/>
          <path class="cls-122" d="M59.1,73c.2-.2.4-.4.6-.6,2.7.8,3.3,3.5,4.9,5.3.8.9,1.3,2.1,2.2,3,.3.3.5.7.7,1.1.4,1.3.9,2.6,1.7,3.8,2.6,3.2,4.9,3.1,7.3-.2,1.2-1.6,1.5-3.7,3.5-4.8,3.6-.3,5.2-2.5,6-5.8.3-1.4.1-3.3,2.1-3.8,2.6,2.7,1.4,6.2,1.8,9.3.2,1.8-.7,4.2,1.2,5.2,1.8,1,3.6-.8,5.1-1.8,5.2-3.7,9.9-7.8,13.3-13.3,1-1.6,2.3-3,3.8-4.2,1.5-1.1,2.7-.8,3.3,1.1.6,1,.7,2,.7,3.1-2.3-2.3-3.8-1-4.9,1.2-.9,1.8-2.5,3.1-2.6,5.3-.6,1.4-1.9,1.9-3.2,2.4-.8.7-1.6,1.4-2.4,2-2.8,1.6-4.7,4.1-7.3,6-5.8,4.1-12,6.9-19.3,6.8-6.4-.1-11-3.2-13.8-8.9-1.3-2.5-2.3-5.1-4.1-7.4-1.1-1.4-2-3.1-.5-4.8h0Z"/>
          <path class="cls-132" d="M71.1,64.2c7.6,0,15.2.8,22.6,2.6,1.6.4,3.2.5,4.7,1.6,2,1.5,4.1,1.4,5.9-.5,1.9-1.9,3.8-3.9,5.8-5.7,1.2-1.1,2.7-1.5,4.4-.8,1.4.5,1.4,1.7,1.3,2.9-5.6,3.7-9.3,9.2-13.9,14-1.5,1.6-2.9,3.3-4.9,4.4-2.5,1.3-4.4.7-5.6-1.9-1.2-2.6-1.6-5.4-2.1-8.2-.9-4.4-2.8-5.6-7.1-4.6-1.2.3-2.5.6-3.6,1-3.6,1.3-6.6.6-8.7-2.8-.2-.5-.2-.9,0-1.3.3-.3.8-.5,1.3-.5h0Z"/>
          <path class="cls-121" d="M80.6,16.3c.8,0,1.6.1,2.4.2.6,1.5,2.4,1.3,3.3,2.5,0,.7-.3,1.3-.8,1.6-5.9,3.7-8.6,10.1-12.8,15.3-.4.5-.8,1-1.3,1.4-1.1,1-2.2,2.8-3.9,2-1.7-.8-3-2.3-2.6-4.6,1.1-.7,2.1.7,3.3,0-.7-1.3-2.5-.8-3.3-1.9,2.7-2.1,2.6-4.4.6-6.9,3-.3,5.7.9,9.1,1.6-3.3-2.3-6.6-2-9.8-2.3-2.3-1.5.8-1.1.7-1.9h0c2.3-1.1,4.7-1,7-.7,1.9.2,2.5-.4,2.2-2.2,1.9-1.7,3.1.7,5.2,1-1.8-1.7-3.3-2.5-5.3-2-.1,0-.2.1-.4.2-.9-1.7-1.1-3,1.5-3,1.6,0,3.3-.2,4.9-.3h0Z"/>
          <path class="cls-134" d="M69.9,65.5c2.6,3.4,5.9,3.9,9.7,2.2,1.3-.6,2.8-.8,4.3-.9,3.7-.2,5.4,1.1,6.1,4.8.5,2.7.9,5.3,1.9,7.9,1.3,3.5,2.9,4.3,5.7,1.7,3.9-3.5,7.2-7.5,10.8-11.3,2.2-2.4,4-5.1,7.5-5.6.2,1,.4,2.1.6,3.1-1-1.4-2.1-1.5-3.3-.2-1.3,1.4-2.5,2.7-3.6,4.3-3.9,6-9.1,10.6-15.2,14.1-1.3.8-3,2.1-4.3.9-1.2-1.1-1.4-3.2-1.2-5,.4-3.6,0-7-.7-10.5-.4-.3-.8-.6-1.2-1-.7-.7-1.4-1.3-2.4-1.3-2.3,0-4.1,1.4-6.1,2.2-.8.3-1.4.9-2.2,1.2-2.2,1-4.5,2.5-6.8,1-2-1.3-1-3.8-1.1-5.8.2-.9.5-1.7,1.5-1.9h0Z"/>
          <path class="cls-16" d="M69.9,65.5c-.4.5-.9,1-.8,1.7-.4,1.3-1.2,2.4-2.6,2.8-3.3,1-5.8-.5-7.7-2.8-1.6-2-2-4.5-.5-6.9,0-.2,0-.3,0-.5,2.2-.8,4.3-2,6.8-2,.8.4,1.7,0,2.4.7,1.1.7,2.2,1.2,2.8,2.4.3,1.3.7,2.5-.2,3.7-.1.2-.2.5-.3.7h0Z"/>
          <path class="cls-46" d="M107.6,10.5c1,0,1.8.1,1.9,1.5.4,4.2-3.5,10.6-7.6,12.5-.3-1.5,1-2.2,1.7-3.2,1.7-2.3,3.5-4.6,3.6-8-4.3,1.8-6.1,5.3-7.7,9-.5,1-.6,2.3-1.5,3.1-1.1.9-1.4.4-1.2-.8.3-2.6,2-4.6,2.7-7,2.1-3,4.7-5.5,8.1-7h0Z"/>
          <path class="cls-115" d="M81.7,51.6c-.5,1.5-1.5,2.6-2.6,3.6-.6.5-1.2.2-1.8,0-1.9-1.2-2.3-2.9-1.7-5,.8-.5,1.1-1.4,1.3-2.3,1.8-1.3,3.4-.8,4.8.8.2,1,.9,1.9.1,2.9h0Z"/>
          <path class="cls-139" d="M78,54.9c.4,0,.8.2,1.2.3-1.7,2.5-3.5,1-5-.2-4.2-3.4-3.4-13.1,1.2-15.9,3.1-1.9,5.4-.5,7,4.3-.2.2-.5.3-.8.2-.7-.2-.9-.8-1.3-1.3-1.9-2.7-3.9-2.7-5.6,0-2.3,3.8-2.3,11.8,3.3,12.4h0Z"/>
          <path class="cls-135" d="M67.3,54.2c-.2.6-.5,1.2-.7,1.7-.6,1.5-1.5,2.1-3,1.2-.3-.2-.5-.5-.7-.8-1.4-4.4-.2-6.8,3.3-6.9,2.1,1.2,1.5,3,1,4.8h0Z"/>
          <path class="cls-97" d="M67.3,54.2c-.2-1.5.7-3.3-1.1-4.3-.5-1.1-.4-2.2-.4-3.3,0-2.2-.7-3.8-3-4.4-1.5-1.2-.2-1.4.6-1.8,1.9-.2,3.1.9,3.6,2.4,1.2,3.8,1.5,7.6.2,11.5h0Z"/>
          <path class="cls-91" d="M63.5,40.2c0,.6-1.4.6-.6,1.5.1,1.1-.4,1.8-1.3,2.3-.5-2.5,0-4.9.6-7.4.2-.9.8-1.7.7-2.6v-.2c.3-.2.6-.3.9-.2.2,0,.3.3.3.5,0,1.4.3,2.8-.8,4-.6.6-.5,1.5.2,2.1h0Z"/>
          <path class="cls-5" d="M64.8,32.7c.2,0,.4,0,.6,0,1.7-.2,3.1.5,4.1,1.7.3.3.2.9-.2,1.1-1.8.9-3.2.1-4.6-.9-.2-.2-.4-.3-.7-.5h0c-.3-.9.3-1.1.7-1.4h0Z"/>
          <path class="cls-99" d="M81.7,43.4c.2,0,.4,0,.6,0,.5,2.8.8,5.5-.6,8.2-.1-.9-.3-1.7-.4-2.6-.2-1.9-1-3.9.4-5.6h0Z"/>
          <path class="cls-39" d="M64.2,56.7c1.1.5,1.7-.2,2.4-.8-.5,1.3.3,2,1.1,2.8-.8,0-1.6-.1-2.4-.2-.7-.4-2.1-.3-1.2-1.7Z"/>
          <path class="cls-133" d="M80.3,33.7c2,.2,2.3,1.5,2.2,3.1-.7-1-1.5-2-2.2-3.1Z"/>
          <path class="cls-9" d="M85.3,38c-.8,0-.8-.4-.9-.8,0-.4,0-.9.5-1,.6-.1.7.4.7.8s-.2.7-.3,1h0Z"/>
          <path class="cls-134" d="M70.2,64.8l.2-3.7c1.1.9.5,2.1.7,3.1-.3.2-.6.4-.9.6h0Z"/>
          <path class="cls-52" d="M126.6,100.2c.2.2.4.4.6.6.8.5,1.6.9,2.1,1.9,1.2,2.3.4,4.4-2.2,4.6-3.2.3-5.3,2-7.4,4.3-1.5,1.7-.9,2.4.9,2.7,2.4.4,4.9.1,7.2,1,1.5.6,3.3,1,3.2,3.2-.6.4-1.3.8-1.9,1.3-3.4.3-6.9,0-10.3.9-2.9.8-4.9,2.2-5.6,5.3-.2,1.2-.8,2.4-1.8,3.3-.6,0-1.3,0-1.9,0-.4.3-.9.4-1.3.1-1.3-1.9-.2-3.6.5-5.3,2-5.1,1.6-6.6-3.2-9.1-6.1-3.2-12-7-19.3-7.3-1.8,0-3.3,0-4.7,1.2-3.7,3-7.6,5.7-12.6,6-.5,0-1.1,0-1.2.7,0,.6.3,1,.7,1.3s.6.6,1,.7c5.8,1.1,7.6,6.2,10.1,10.4,2.1,3.5,4.3,6.7,8,8.6,1.5.8,2.9.9,4.5.4,3.2-1.1,6.3-2.4,8.9-4.5,1.6-1.3,3.3-1.8,5,0,.5.8,1.4,1.4,1,2.5-2.7,1.3-4.8,3.6-7.5,5.1-6.2,3.5-11.4,4-16.9-2.1-3-3.4-6.1-6.7-7.8-11-.6-1.4-1.9-2.2-2.6-3.5-1-.1-1.9-.4-2.5-1.3-1.7-.5-2.8-1.7-3.8-3.2-1.7-2.7-3.6-5.2-6.5-7-3.3-2.1-3-6-3.3-9.4-.1-1.4,1.5-1.7,2.6-.7,2.4,2.2,5.1,3.9,7,6.7,2.3,3.4,4.9,3.7,8.2,1.3,1.7-1.2,3.1-2.8,5.1-3.6,6.3-2.4,12.5-.9,18.5,1,2.9.9,5.5,2.6,8.4,3.6,5.4,1.8,11.5-.6,14.1-5.9.4-.9.9-1.6,1.9-1.9,1.3-.3,2.4-1,2.1-2.6-.3-1.7-1.4-2.5-3.1-2.4-1-.3-2.2-.3-2.4-1.7,1.9-.5,3.4.2,5,1.1,1,.9,1.8,2,3.1,2.5h0Z"/>
          <path class="cls-101" d="M71.7,132.4c-1.8-5.5-5.2-10.4-9.6-13.6-3.9-2.8-7.7-5.9-11.8-8.5-2-2.2-3.6-4.5-5-7.1-.8-1.5-1-2.5.7-3.3,1.5-.7,1.4-2.1,1.1-3.2-1.2-3.4-1.3-7.3-4.1-10-.2-.2-.1-.6-.2-.9,2.9,1.8,3.5,4.8,4.6,7.8,1.7,4.5.3,9.8,3.4,13.7,2.7,3.5,6.1,6.6,10.1,8.6.6.3,1.6.5,1.9,1,3,5.6,9.5,8.2,11.9,14.3.3.8.7,1.5,1.6,1.9,2.6,3,4.1,6.8,6.9,9.6,1,1,1.8,2.1,2.8,3,3.1,3,3.6,2.6,7.5.9,4.8-2,7.9-5.7,11.1-9.4,1.2-1.5,2.8-1.8,4.5-1.8,1.7,0,3.3-.1,5,.3.5.2.8.6.9,1.1,0,.7,0,1.4-.6,1.9-4.3-1.5-4.3-1.5-6.4,2.7-1.3,2.5-2.8,5-5,6.8-1.4,1.2-2.4,2.6-2.8,4.4-2.4,5.4-8.5,6.3-12.9,1.6-2.2-2.3-4.1-4.7-6.1-7.2-.3-.3-.6-.7-.8-1-.4-1-1.1-1.9-2-2.4-1-.7-1.5-1.7-1.9-2.7-.4-1.4-1.7-2.3-2.4-3.4-.4-1.8-2.9-2.7-2-5h0Z"/>
          <path class="cls-107" d="M134.8,167.7c-1.4,0-2.7.1-4.1,0-2.1-.2-3.7-1.1-3.5-3.6.2-2.7-1-3.5-3.4-2.7-4.2,1.5-8.5,1.2-12.7,1.2-3.3,0-6.3-1-9.1-2.5.1-3,.9-6,2.2-8.7.9-1.8,2-3.6,4.5-3,1,.6.9,1.8,1.3,2.7.8,1.9,1.9,2.1,3.2.5,1.8-2.2,3.4-4.5,5.2-6.6.5-.3,1.5-.8,1.5-.8.6.9-.4,1.7-.3,2.6-.7,2.2-2,4.1-2.2,6.5-.1,1.6-.6,3.4,1.3,4.1,2,.8,3-.9,4-2.3,1.3-1.8,2-3.9,3.1-5.8.8-1.3,1.8-2.6,3.3-.6,0,.2,0,.4,0,.6.8,2.3-.2,4.7.6,7,0,1.6-.1,3.2,1.3,4.4,2.7.8,4.7,2.1,3.3,5.5-.1.3.3,1,.5,1.4h0Z"/>
          <path class="cls-31" d="M131,118.5c-1.6-2.8-4.5-2.7-7.1-3.1-.9-.1-1.9.1-2.8,0-1.4-.3-3.2-.2-3.7-1.8-.6-1.7,1.5-1.7,2.1-2.7,1.9-3.2,4.8-4.4,8.4-4.3,1.6,0,1.5-1.4,1.2-2.3-.4-1.2-1.2-2.2-1.8-3.3.8,0,1.6,0,2.4.1.3,1.1,1.3,1.6,2,2.4.5,2,2,3.4,3.3,4.8.8,1,1.4,1.9,1,3.1-.4,1.2-1.6.8-2.4.9-.8,0-1.9-.1-2,1,0,.9.9,1.3,1.7,1.5,1,.2,2.8-.5,2.9,1s-1.8,1.8-3,2.3c-.7.2-1.4.4-2.1.6h0Z"/>
          <path class="cls-98" d="M108.9,148.8c-3.6.3-4.3,3.1-5,5.9-.5,1.9-.6,3.9-1.9,5.5h-1.3c-1.3.9-2.4.7-3.4-.4-1.2-2.9,1-4.9,2.1-7.2-.1-1.8.5-3.1,2-4.3,3-2.4,4.9-5.7,6.4-9.2,1.3-3,3.9-3.1,6.2-.3-.7,1.4-1.3,2.9-2,4.3-1.2,1.8-.5,4.7-3.1,5.7h0Z"/>
          <path class="cls-26" d="M111.4,129.2c1.3-7.6,4.2-10.2,11.8-10,1.9,0,4-1.3,5.8.5-.4.6-.8,1.3-1.2,1.9-3.1.2-6,1.6-9.1,1.6-1.6,0-2.3,1.4-2.4,2.8-.2,1.8,1.2,1.6,2.3,1.7.7,0,1.3.3,1.7.9-2.9,1.2-5.9.3-8.8.6h0Z"/>
          <path class="cls-49" d="M129.1,148.8c-1.6-1.1-2.2,0-2.8,1.2-1.1,2.5-2.1,5-3.9,7.1-1.2,1.3-2.4,2.3-4.3,1.3-1.9-1-1.5-2.4-1.2-4,.4-2.7,1-5.3,2.9-7.5.3,1.9-1,3.4-1.4,5.1-.2,1-1.1,2.2,0,2.8,1.1.6,2.2-.3,2.9-1.2,1.5-1.8,2.9-3.8,4.6-5.6,1.4-1.6,2.7-1.6,3.2.8h0Z"/>
          <path class="cls-109" d="M120.3,128.6c-.6,0-1.3,0-1.9,0-1.2-.6-1.5-1.6-1.3-2.9.3-1.6,1.5-2.6,3-2.7,2.2-.2,4.4-1.8,6.5,0,.3.3.2.8-.1,1.1-1.2,2.8-2.8,4.9-6.3,4.5h0Z"/>
          <path class="cls-65" d="M108.9,148.8c1.3-1.8,1.3-4.2,3.1-5.7.2,1.7-.1,3.3-.5,5-.2.6-.2,1.3.4,1.7.6.4,1.1,0,1.7-.3,2.1-.9,2.6-3.5,4.8-4.4-1.6,2.6-3.2,5.3-5,7.8-1.2,1.7-2.6,1.4-3.8-.1-.9-1.2-.7-2.6-.7-3.9h0Z"/>
          <path class="cls-120" d="M126.6,124.2c-2.4-2.5-4.8-1.2-7.2-.1-2.3,1-1.8,2.8-.9,4.5-1.1-.2-2.7.7-3.1-1.1-.4-1.7.1-4.1,1.6-4.4,3.6-.7,7.1-2.7,11-1.4-.1,1-.5,1.9-1.3,2.5h0Z"/>
          <path class="cls-21" d="M114.6,136.8c-.2-.2-.4-.4-.7-.6-1.4-.7-2.8-.2-4.2-.3-1,0-2.1.3-2.7-.9-.4-.6-.8-1.3-1.3-1.9-.8-2.9-.5-3.3,2.5-3.8.4,0,.8,0,1.3,0-.2.3-.3.5-.5.8-.6,1-2.4,1.4-1.6,3,.6,1.3,1.9,1.4,3.2,1.3,1.3,0,2.4.4,3.6.9.7.3,1.2.9.3,1.6h0Z"/>
          <path class="cls-27" d="M129.7,156.4c-1.2-2.2-.3-4.6-.6-7,1,.9.5,2.1.6,3.1,0,1.3,0,2.6,0,3.8h0Z"/>
          <path class="cls-49" d="M107,134.9c2.1,1.5,4.8-.3,6.9,1.3-6-1.2-10.1,1.4-13.1,6.4-1.1,1.8-3.1,2.8-5,3.6-1,.4-2.3.6-2.8,1.3-2,3.1-4.3,1.8-6.1.2-4.6-4.1-8.8-8.7-10.8-14.7-.7-3.4-2.1-6.5-3.8-9.5,3.8,2.3,4.6,6.8,7.4,9.9,2.1,2.3,4.3,4.6,6.5,6.7,2.2,2.1,5.1,2.1,7.7,1.4,3.9-1.2,7.6-2.8,10.3-6.1.9-1.1,1.8-.8,2.8-.6h0Z"/>
          <path class="cls-55" d="M35.7,78.1c0,.2,0,.4,0,.6-.9,1.6-2.7,2.3-3.7,3.8-.6.9-1.2,1.8-.5,2.9.7,1,1.6,1.8,2.9,1.6,1.3-.1,1.5-1.3,1.8-2.3.5-1.4.3-3,1.4-4.1.4.4.8.8,1.3,1.3,0,.5.1,1,.6,1.3,1.1,3.1,2.2,6.2,4.1,8.9,1,1.4,1.7,3.2-.2,4.4-1.7,1.1-3.2.6-4.8-.6-4.5-3.5-7.8-8-11.7-12.1.6-2.6-.4-4.5-3-5.6-1.5-.6-3-.7-4.6-.7-.5-.4-.6-1,.1-1.1,2.7-.6,5.5-1.9,8.2.5,2.3,2,5.3,1.2,8.1,1.3h0Z"/>
          <path class="cls-113" d="M114.6,108.4c-1.9,1.8-4.2,2.1-6.6,1.4-2.2-.7-4.3-1.6-6.4-2.6-3.1-1.6-6.3-3-9.9-2.6-4.1.5-8-1.4-12.1,0-2.6.9-5.2,1.6-7.3,3.5-1.3,1.2-2.4,1.1-3.9,0-2.9-1.9-4.7-4.7-6.8-7.3-1.6-1.9-3.2-3.8-5.5-5-1.1-.6-3.2-.8-2.4-2.6.8-1.7,2.6-1.4,4.1-.6.7,0,1.3.2,1.7.9,1.8,3.6,4.5,6.6,7.2,9.5,1.7,1.8,3.6,2,6,1.1,11.1-3.8,22.2-3.9,32.7,2,2.9,1.6,6,.8,8.8,1.9.1.1.2.2.3.4h0Z"/>
          <path class="cls-113" d="M118.5,96.6c.8.6,2.1.5,2.4,1.7-.2,2.5-4.4,9.2-6.3,10.1h0c-.6-1.1,1-2.3-.2-3.4-.1-2.5,0-4.9.8-7.3,1.1-.4,2.1-.7,3.2-1.1h0Z"/>
          <path class="cls-73" d="M59.1,93.3c-.4-.2-.8-.5-1.3-.7,0-.2,0-.5,0-.7.9,0,1.8.4,2.5-.6.7-.3,1.2,0,1.7.4,1.4,1.3,2.8,2.5,4.4,3.5.5.3,1.1.9.9,1.5-.3.9-1.1.8-1.8.7-2.4-1-4.6-2.3-6.4-4.2Z"/>
          <path class="cls-49" d="M66,119.1c1.3,1,2.5,2.1,3.8,3.2-2.1,0-3.3-1.2-3.8-3.2Z"/>
          <path class="cls-35" d="M54,89.5c1,0,2.3-.4,2.5,1.3-1.1,0-2-.2-2.5-1.3Z"/>
          <path class="cls-3" d="M19.3,77.5c3.7-1.3,7.7.4,8.9,3.9.5,1.5-.5,1.8-1.3,2.4-2.2-1-5-1.2-5.2-4.7,0-.6-1.6-1.1-2.4-1.6h0Z"/>
          <path class="cls-43" d="M61.6,92c-.4-.2-.8-.4-1.2-.6-1.3-1.5-2.5-3-3.7-4.5-1-.5-.4-1.9-1.3-2.4h0c0-1,.3-2.3-1.2-2.6.3-1.9-1.7-3.1-1.3-5,.2-2.3-.6-4.8,1.8-6.6,1.7-1.2,3-2.4,3.4.9,0,.6.8,1.2,1.2,1.8,0,1.2-.3,2.5.6,3.6,2.4,2.7,3.5,6.1,5.2,9.2,3.4,6.2,9.9,8.7,17.2,7.2,7.3-1.4,13.4-5.2,18.7-10.2.9-.9,1.8-1.8,3.3-1.5-.2.4-.3.8-.5,1.2,0,.3,0,.7-.1,1-.7,1-1.7,1.8-2.4,2.9-3.4,5.4-8.3,8-14.6,8.1-3.5,0-7.1.5-10.6.8-3.3.3-6.4-.4-9.4-1.9-1.5-.7-2.9-1.6-4.7-1.5h0Z"/>
          <path class="cls-79" d="M106.4,79.3c.7-1.3,2-1.8,3.2-2.4,2.6-.6,4.6.8,6.8,1.7.6,2.5-2.9,1.9-3,3.9-.9-.8-1.8-1.2-2.5.1-.8,1.3-1.6,2.7-1.4,4.3-1.1,1.2-1.9.4-2.5-.4-1.4-1.6-1.6-3.5-.9-5.5.2-.6,1.1-1,.3-1.8h0Z"/>
          <path class="cls-103" d="M103.2,83.2c.1-.2.2-.4.3-.6.3.3.9.5.9.8-.6,5.8,2.4,11.3,1.6,17.2-.3,2,1.9,3.5,3.6,4.8,1.6-.2,3.4-.9,4.6,1.1-.2.3-.4.5-.8.7-1.2.4-2.4.3-3.6.3-1.8-.2-3.2-1-4.3-2.4-1.1-2.1-3.2-3.8-3.2-6.5.8-4.6-.3-9.3.3-13.9,0-.5.3-1,.6-1.4h0Z"/>
          <path class="cls-38" d="M113.9,106.3c-1.3-1.1-3.2.3-4.4-1.1,0-1.6-.7-2.8-1.6-3.9-.6-.7-1.2-1.8.3-1.7,2.7.3,4.7-1.6,7.1-2-.4.7-.2,1.3,0,2.1.4,1.4,1.6,2.9-.7,3.9-.3.1.3.8.8,1.1.2,1.1.1,2-1.4,1.6h0Z"/>
          <path class="cls-45" d="M109.5,87c-1.5-2.2,0-3.9,1.1-5.5.5-.7,1.2-1.3,2.1-1.1,1.1.3.6,1.4.7,2.1-1.3,1.5-2.6,3-3.9,4.5h0Z"/>
          <path class="cls-116" d="M147.4,125.4c0,.2,0,.4,0,.6-1.8,3.4-3.9,6.6-6.4,9.5-.7.8-1.6,1.3-2.7.7-1.2-.7-1.2-1.8-.5-2.7,2.3-3.2,5.2-5.9,8.1-8.5.5-.5,1.2-.2,1.6.4h0Z"/>
          <path class="cls-24" d="M96.8,24.5c.7,1.6,1,.3,1.1-.2.7-2,1.5-4,2.6-6,1.3-2.4,3.2-4.1,5.4-5.5.6-.4,1.3-1.1,1.9-.6.7.5.4,1.5.2,2.3-.7,3-2.3,5.5-4.3,7.8-.6.7-1.2,1.4-1.9,2.1-1.5.3-2.4.6-1.4,2.6,1.2,2.3-1.5,4.4-1.1,6.8-1.2-1.4-.5-2.7,0-4,.9-2,.3-3.2-1.9-3.3-2.2,0-1.2-1.2-.9-2.2h0Z"/>
          <path class="cls-23" d="M116.5,176.6c0,1.3,0,2.6,1.3,3.2,1.3.6,1.7-.8,2.5-1.4-1.5,3.2-2.4,6.8-5.7,8.8-.4-1.8-2-1.5-3.2-1.8-2.9-.7-5.9-1.3-6.4-5.2-.1-1.1-1.3-1.8-2.3-2.4-3.1-3.5-6-7.1-10.1-9.5-1.6-1.3-1.1-2.1.7-2.4,1-.1,1.8.3,2.5,1.1,5-.9,10.1-1.1,15.1,0-1.8,1.6-4,.7-6,.9-1.2.1-2.5,0-3.7.1-.3.1-.6.2-.9.3-.7.2-1.4,0-2.2.4,2.5,2,5.3,3.3,8.2,4.6,2.7,1.2,4.7,2.9,5.9,5.7.4,1,.8,2.6,2.2,2.3,1.4-.3.7-1.9.9-3,.1-.6.2-1.2.6-1.7.3-.2.5-.2.8,0h0Z"/>
          <path class="cls-86" d="M115.9,176.5c0,1.4,0,2.7,0,4.1,0,.9-.1,1.7-1.1,2.1-1.1.4-1.7-.4-2.4-1.1,0,0-.1-.2-.2-.3-1.4-5.7-6.5-7.2-10.9-9.4-2-1-3.7-2.2-5.8-4.2h4.5c4.7,1.4,9.5,2.2,13.3,6.2,1.1-1.8-.2-3.7,1.3-4.9.2,0,.4,0,.6,0,.3,2.3.5,4.6.8,6.9.2.2.2.3.1.4s-.1.2-.2.2h0Z"/>
          <path class="cls-102" d="M95.7,167.1c-.7-.1-1.4-.2-2.1-.4-1.9-.4-1.6.6-1.1,1.7-1.1,0-2.2,0-3.1-.6,0-1.2-.3-2.6,1.7-2.5,3.1,0,1.4-1.4.8-2.5-.7-1.1-.8-2.1.4-2.9,1.7-.6,3.5-1.4,5.3-.2,1,.6,2,.7,3.2.6-.3,3.3-2.9,4.9-5,6.9h0Z"/>
          <path class="cls-11" d="M114.6,169c0,1.5.1,2.9.3,4.3,0,.7.1,1.2-.5,1.6-.6.3-1,0-1.4-.3-3-2.9-6.5-4.7-10.8-5.3-.9-.1-1.8-.7-2.2-1.6h0c2.9-.7,5.8-.1,8.6-.3,1.1,0,2.3.3,3.3-.3,1.4,0,2.7-.1,2.5,1.9h0Z"/>
          <path class="cls-17" d="M125.9,169.6c-2.4.2-3.7-1.9-5.6-2.6,0,0,0-.3,0-.3,1.6-1.1,5.3.8,5.6,2.9Z"/>
          <path class="cls-86" d="M112.1,167.1c-3.9,1.4-8,.3-12,.6,3.5-1.4,7.2-.2,10.7-.7.4,0,.8,0,1.3,0h0Z"/>
          <path class="cls-23" d="M127.2,189.2c0,.8,0,1.6,0,2.4-2.5,1-4.5,3.2-7.5,3.3-.9,0-.9.9-1.3,1.3-2.8-.1-6.1-2.8-6.7-5.5-.4-1.7.9-2.4,2.3-2.7-.4,3.2,2.8,3.1,4.3,4.5,1.1,1.1,1.9-.3,2.5-1,1.8-1.9,4.3-1.5,6.4-2.3h0Z"/>
          <path class="cls-76" d="M118.3,196.2c.1-.8-.3-2,1.3-1.3-.7.9,1.7,2.5-.6,3.1-.2-.6-.5-1.2-.7-1.8h0Z"/>
          <path class="cls-136" d="M74.9,20c.3,1,1.8,1.7.8,3.1-.9,1.3-2.1.2-3.1.2-2.4,0-4.8,0-7.2,0,1.4-2.4,4.6-1.3,6.3-3.1.9,0,1.8.2,2.5-.6h0c.5-.2.7,0,.7.5Z"/>
          <path class="cls-75" d="M154.9,158.2c0,.4,0,.8,0,1.3-3.7-1.7-7.7-2.9-10.9-5.8-2.8-2.5-5.3-5.3-5.4-9.4,4.2,5,9.2,9.1,14.4,12.9.6.4,1.1,1,1.9.9h0Z"/>
          <path class="cls-100" d="M64.7,25.1c3.7-1.6,7.1-.2,10.4,1.4.5.2.9.7.4,1.3-.4.5-.9,1-1.6.6-2.7-1.6-6-1-8.6-2.6-.2-.2-.4-.4-.7-.7Z"/>
          <path class="cls-121" d="M64.8,32.7c-.2.4-.5.9-.7,1.3-.4,0-.8,0-1.2-.1.1-1.2,1-1.2,1.9-1.2Z"/>
          <path class="cls-111" d="M92.5,160.1c-.9.7-.6,1.6-.6,2.5-5.5-3-9.9-7.2-13.3-12.4,0-.1-.4-.1-.6-.2,0-.8-.5-1.2-1.2-1.4,0-1,.2-2.1-1.2-2.5-.1-1,.2-2.2-1.2-2.6.3-1.9-1.6-3.1-1.4-4.9-.5-1.5-.9-3.1-2.4-3.9,0-.8,0-1.6-.1-2.4.4,0,.9,0,1.3,0,.2,2,2.6,2.9,2.5,5,.7,1.2,1.8,2,2.5,3.2.5.9.8,2.1,1.9,2.5.6.9,1.3,1.6,1.9,2.5.2.2.4.4.6.6,2.3,4.5,6.1,7.8,9.7,11.2.8.7,2,1.2,1.6,2.7h0Z"/>
          <path class="cls-81" d="M61.5,44c0-1,.8-1.6,1.3-2.3,1.8-.7,2.9.4,3.3,1.9.6,2,1.3,4.2,0,6.2-3-.1-2.9,2.2-3.2,4.2,0,.9.3,1.8.5,2.7-.3.2-.6.2-1,.1-1.7-1.3-2.7-2.9-1.7-5.2.2-2.5-.1-5.1.7-7.6h0Z"/>
          <path class="cls-80" d="M60.4,57.9c-1-.2-2.3.4-2.5-1.2-.2-2-.3-4,1.8-5.3,1.2,1.8,1.8,3.8,2.3,5.9-.3.7-.8,1.1-1.6.6h0Z"/>
          <path class="cls-39" d="M61.7,57.4c-.7-2-1.4-4-2-5.9v-5c1.2,2,.1,3.8,1.3,5.1.3,1.8.6,3.6,2.1,4.9.2.5.2,1-.2,1.3-.5.3-.9,0-1.2-.4Z"/>
          <path class="cls-125" d="M61.7,57.4c.8.3,1.3,0,1.3-.9.2,0,.3,0,.5.1.2,0,.4,0,.6,0-.2,1,.8,1.1,1.2,1.7-2.2.8-4.5,1.2-6.9,1.4,0-.2,0-.5,0-.7.9,0,1.8,0,1.9-1.3.4-.2.9-.3,1.3-.5h0Z"/>
          <path class="cls-54" d="M115.9,176.5c0-.2,0-.4,0-.6,1.7.2,2.5-.4,2.5-2.2s1.7-3.4,3.6-3.8c1.6-.3,3.3.3,3.9,2.3-.9.2-1.8.6-2.7.6-2,0-3.2.7-3.7,2.7-.4,1.7-1.5,2.1-3,1.2-.2,0-.4,0-.6,0h0Z"/>
          <path class="cls-36" d="M55.3,84.5c1.6.2,1.2,1.4,1.3,2.4-1.7-.1-1.3-1.4-1.3-2.4Z"/>
          <path class="cls-43" d="M66.7,69.3c.8-.7,1.6-1.4,2.4-2.1,0,.5,0,1,0,1.6,0,4.6,1.2,5.4,5.5,3.4,2.2-1,4.2-2.2,6.3-3.3,1.6-.9,3-1,4.7-.7.2,3.6-2.2,5.5-4.7,7.1-3.3,2-6.9,3.6-10.8,3.8-1.7,0-2.6,1.2-3.5,2.3-2.8-2.6-4.4-6-6.9-8.8,0-1.1-.9-2.1-.6-3.2,2.5.2,5,2.4,7.5,0h0Z"/>
          <path class="cls-61" d="M66.7,69.3c-2.8,2.6-3.6,2.6-7.5,0-.7-1.3-1.3-2.5-2-3.8,0-1-.1-2-.2-3,.4-.7.5-1.7,1.4-2.1-1.2,6.1,2.5,10.1,8.3,9Z"/>
          <path class="cls-3" d="M37.6,80.6c.2,1.6-.3,3.1-.7,4.6-.3,1.3-.6,2.8-2.4,2.9-1.8,0-3.1-1.1-4.1-2.5-.9-1.3-.2-2.3.7-3.3,1.3-1.5,2.5-3.1,4.6-3.6.8.4,1.5,1,1.9,1.9h0Z"/>
          <path class="cls-12" d="M79.8,81.2c-1,1.7-1.8,3.5-2.9,5.1-2.7,3.9-6,3.6-8.3-.6,0-1.1.7-1.8,1.4-2.6.2-.2.4-.3.7-.5,1-.3,1.8-.8,2.6-1.4,2.1-1.3,4.3-1.9,6.8-1.3.3.5.3.9-.2,1.3h0Z"/>
          <path class="cls-130" d="M79.8,81.2v-1.1c-.8-.9-.6-1.8-.1-2.7,1.5-2.7,4.3-4.4,5.7-7.2.5-1.1,1.4-.5,2.1-.3.5.3.6.7.6,1.3-1,1.2-1.1,2.6-1.3,4.1-.8,4.4-2.8,6-7,6h0Z"/>
          <path class="cls-22" d="M87.5,69.9c-2.8,1.1-3.8,4-5.7,5.9-.5.5-.5,1.4-1.3,1.7-1-.6-1.8.2-2.6.6-3.1,1.5-6.6,1.7-9.7,3-.2.4-.5.7-.9.9-.2-.2-.4-.4-.6-.6-.5-2.1.7-2.9,2.5-3,3.6-.3,6.8-1.5,10-3,3.3-1.6,5.1-4,6.6-7.1.6.6,1.2,1.2,1.8,1.8h0Z"/>
          <path class="cls-19" d="M67.3,81.9c0-.4,0-.8.1-1.3,1.4.4,2,1.8,3.1,2.6-.2,1.2-1.4,1.6-1.9,2.5-.7-1.2-1.6-2.3-1.3-3.8h0Z"/>
          <path class="cls-106" d="M74.9,20c-.2-.2-.4-.4-.7-.7,0-.5,0-1.4.4-1.3,2,.3,4.2.7,5.6,2.3.4.5,1.1,1.2.4,1.9-.6.6-1.4.4-2-.1-1.1-.9-2.2-1.9-3.7-2.1Z"/>
          <path class="cls-29" d="M81.7,43.4c-.2,1.9.5,3.8-.4,5.6-1.3-1.3-2.8-1.7-4.4-.5-.5.3-.3,1-.8,1.2-.3,2.1-.3,4,1.9,5.1-2.4,1.3-3.5-.7-4.5-2.1-1.9-2.7-1.2-8.9,1-11.5,2.5-2.9,4.7-2.6,6.5.8.2.5.5.9.7,1.4Z"/>
          <path class="cls-112" d="M76.1,49.7c0-.6,0-1.1.8-1.2.5.6,2.3.2,1.5,1.6-.7,1.2-1.5,0-2.3-.4Z"/>
          <path class="cls-132" d="M108.3,129.2c-1.5.8-3.1,1.6-2.5,3.8-1.4-1.3-2.7-1.3-4.1,0-2.9,2.9-6.8,4.1-10.6,5.3-3.1,1-5.1-1.7-7.4-3.2-1.9-1.2-3.1-3.2-4-5.2-1.5-3.4-3.9-6.2-5.9-9.3-.7-1.1-1.5-1.7-2.8-1.6-1.2.1-2-.5-2.8-1.1-1-.8-2.2-1.8-1.9-3,.3-1.5,1.9-.8,3-.9,4.3-.3,7.8-2.4,10.9-5.1,2.4-2.2,4.6-2.2,7.7-2,7.9.7,14.1,5.1,20.5,8.8,3,1.7,3.3,4,1.8,7.2-.9,2-2,3.9-1.9,6.2h0Z"/>
          <path class="cls-48" d="M92.5,160.1c-2.8-2.9-5.7-5.9-8.5-8.8-1.4-1.4-2.4-3.1-2.8-5.1,2.1,1.7,3.2,4.3,5.2,6.2,5.7,5.5,7.7,5.6,13.1,0-.6,2.3-1.8,4.5-1.9,6.9-1.7.2-3.4.4-5,.6h0Z"/>
          <path class="cls-48" d="M76.7,140.6c-1.2-.8-2.4-1.6-2.5-3.2,1.2.8,2.4,1.6,2.5,3.2Z"/>
          <path class="cls-48" d="M80.5,145.6c-1-.6-1.8-1.2-1.9-2.5,1,.6,1.8,1.3,1.9,2.5Z"/>
          <path class="cls-47" d="M113.9,106.3c.9-.2,1.1-.9,1.4-1.6,1.3,1.6-.2,2.5-.8,3.7-4.3.5-8.2-.4-11.9-2.7-3.7-2.4-8-3.1-12.3-2.9-2.6,0-5.4-.8-7.7-.4-3.1.6-6.5.9-9.2,2.5-2.9,1.7-5.4,1.2-7.3-1.2-2.6-3.3-6.4-5.7-7-10.3,2.4.8,4.2,2.4,6.3,3.7,1.1,2.3,2.9,3.3,5.4,2.6,3.7.4,7.3.4,11,.4,4.5,0,9-.2,13.4,0,4.1.2,7.8,1.3,10.5,4.6,1.2.8,2.1,1.9,3.7,2,1.3.4,2.5.4,3.8,0,.2,0,.4-.1.6-.2h0Z"/>
          <path class="cls-88" d="M69.9,100c-2.5,1.2-4.6-.2-4.4-3,.4,0,1,0,1.2-.2.6-.7-.3-.9-.6-1-1.8-.9-3.3-2.1-4.4-3.8.3-1.7,1.4-1.3,2.3-.7,7.1,4.9,14.9,2.4,22.5,2.3,7.2,0,11.2-4.2,15.1-9.2.4-.6.7-1.3,1.6-1.3,0,.4,0,.8,0,1.2-.5.9-.5,2-.8,3-1,3.3-2.9,6.1-5.9,7.9-.9.5-1.8.7-2.8.9-2.9.8-5.8,1.3-8.7,1.7-4.4.4-8.7,1-13.1.7-1.2,0-1.7.6-2,1.5h0Z"/>
          <path class="cls-53" d="M105.8,104.6c-7.4-5.2-15.9-3.4-24.1-3.8-.2-.4,0-.7.3-.9,5.1-1.3,10.4-1.4,15.4-2.8,1-.3,2-.3,3-.4,1.6-.1,2.6.4,2.3,2.3,1,1.9,2.1,3.8,3.1,5.7Z"/>
          <path class="cls-37" d="M102.7,98.9c-1-3.2-3.5-.4-5.1-1.2-.7,0-2.2,1.3-1.6-1,0-.2,0-.3-.4-.3-.8-.1-1.7,0-1.8-1.2l2.4-.8c4.3-.7,5.2-3.9,5.7-7.5.2-1,.4-1.9,1.2-2.6-.6,4.8,1.3,9.8-.5,14.6Z"/>
          <path class="cls-38" d="M113.4,106.5c-1.3,1-2.5.9-3.8,0,1.3,0,2.5,0,3.8,0Z"/>
          <path class="cls-18" d="M70.5,83.2c-2.1.4-2.6-1.1-3.1-2.6-.1-1.2.7-1.4,1.6-1.3,3.7.3,6.8-1.3,10-2.8,1.3-.6,1.6-.6,1.5.9-.9.7-.3,1.8-.7,2.7-2.3.5-4.6.8-6.7,1.8-.7.7-1.8.6-2.6,1.2h0Z"/>
          <path class="cls-19" d="M70.5,83.2c.6-.9,1.5-1.2,2.6-1.2-.4,1.4-1.6,1.1-2.6,1.2Z"/>
          <path class="cls-21" d="M90.1,109.6c6.7,1.3,12.3,4.9,17,10.1.5.6.6,1.3.4,2.1-.9,4.5-6.7,9.5-11.3,9.4-1.8,0-3.6.5-5.5.3-8.5-1-9.3-8-11.6-13.9-.8-2.1,2.1-6.1,4.8-6.9,1.9-.5,3.9-.7,6.2-1h0Z"/>
          <path class="cls-82" d="M81.9,100.3c0,.2,0,.3,0,.5-4,0-8,.6-11.9-.8-.3-.7-.7-1.5-1.2-2.5,5.6.5,11,0,16.3-.4.6,1.8-.8,1.8-1.8,2-1.7.3-3.5.1-5.1.1,1.1.4,2.8-.3,3.8,1.1Z"/>
          <path class="cls-140" d="M81.9,100.3c-2.2-.5-4.7.7-6.6-2,2.3,0,4.6,0,6.9,0,1.1,0,2.4.5,2.8-1.2,3-.6,5.9-1.2,8.9-1.8,1.6,1.2,3.6-.2,5.3.9-.8,1.3-2,.4-2.9,1,.3.6.9.3,1.3.5-5.1,1.6-10.4,2.3-15.8,2.6Z"/>
          <path class="cls-70" d="M102,87c0,.6,0,1.3,0,1.9-.1,4.6-.9,5.4-5.7,5.6,2.9-1.8,4.3-4.6,5.7-7.5h0Z"/>
        </g>
      </g>
    </g>
    <g id="Layer_3">
      <path class="cls-62" d="M59.8,35.5c-1.7-3.4-5.1-7-5.6-9-.3-1-.2-1.2-.2-5.8,0-5-.2-5.7.6-6.7,1-1.3,2.5-1.7,4-2.1.9-.2,2.7-.7,4.8-.2,2.2.5,3.6,1.9,4.6,2.8,2.4,2.3,2.9,4.4,3.9,4.2.9-.2.6-2,2-3.2,1.6-1.4,4.3-.9,5.6-.6,5,1.1,6.1,4.2,8.2,3.7,2-.6,1.3-3.6,4.3-7.6,2.9-3.9,6.9-5.4,8.2-5.9,2-.7,4.3-1.6,7.1-.9,3.7.9,5.7,3.8,6.2,4.5,3,4.3,3,10.6.8,15.1-2.4,4.9-6.1,5.3-6.5,9.5-.1,1.4.6,3.2,2.1,6.8,2.4,5.9,3.7,6.6,5,11.2,0,.3.5,2,1.3,5.6.8,3.8,1.1,4.9,1.3,6.5.2,1.8.3,3.3.3,4.3,0,1.1-.3,5.1-.3,5.9"/>
      <path class="cls-62" d="M64.9,95.3c-2.3-1.7-10.5-8.8-12.3-13.8-.2-.4-.7-2.5-1.8-6.8-.5-2-.7-2.7-.6-3.8,0-1.3.5-2.6,1.5-5.1.7-1.9,1.1-2.8,1.7-3.8,1.6-2.7,2.5-2.5,3.2-4.1,1.4-3-1.3-4.3-.4-8.8.3-1.8.8-2,1.7-5.6.2-1,.3-1.2.7-3.2.7-3.2,1.1-4.8,1.3-4.8"/>
      <path class="cls-62" d="M102.5,84.6c.5-1.4,1.7-3.7,3.9-5.5,1.2-1,2.6-2.1,4.5-2.2,0,0,.8,0,4.8,1.3,0-.7.4-5,3.8-7.2.6-.4,2.3-1.5,4.2-1,2.9.7,4,4.2,4,4.5.8,2.9-.7,5.7-1.7,7.6-1,1.9-1.4,1.7-2,3.3-1.4,3.4-.6,6.5-1,6.5-.3,0-1-3.2-.9-3.3.1,0,.3,3.5,2.8,6.6,1.2,1.5,2.6,2.4,2.5,2.7-.2.3-2.3-.8-2.3-.7,0,.2,7.2,3.3,14,9.1,4.6,3.9,7.1,7.3,8.6,10.7,1.1,2.4,1.8,4,1.7,6.2-.4,5.3-5.4,9.3-7.1,10.7-3.3,2.7-5.3,2.8-5.9,5.1-.4,1.8.7,2.4,1.1,6.2.3,2.6,0,4.7-.4,6.2-.5,2.7-.7,4.3-1.8,5.9-1,1.6-3.2,4.2-4.5,3.7-.6-.2-.9-1-1.9-8.7-.3-2-.4-3-.9-3.1-.8-.2-1.6,2.2-4.4,6.1-2.4,3.3-3.5,3.8-4.4,3.8-.8,0-1.9-.4-2.5-1.3-1.1-1.8,1-4.2,2.7-10.6.5-2,.5-2.6.3-2.6-.6-.3-3.1,3.2-4.9,6.2-1.2,2-1.8,3.3-2.9,3.4-1.2.1-2.2-1-2.4-1.2-1.4-1.6-.8-3.8-.7-3.9.5-1.5,1.7-2.3,2.1-2.4.5-1.2,1.1-2.7,1.7-4.7.9-3,1.1-5,1.2-5,0,0,0,1.9-.6,2-.5.1-.6-3-2.2-3.5-.9-.3-1.3.5-2.3.2-1.3-.4-2.2-2.3-1.9-3.9,0-.3.3-1.4,1.4-2.1.9-.5,1.8-.3,3.2-.2,1.5.1,2.9,0,4.4,0,4.2,0,7.9-2.4,8.7-2.9,3.9-2.7,3.9-3.5,3.7-3.7-.2-.2,6.1-6.3,2.8-4.2"/>
      <path class="cls-62" d="M64.9,95.3c-4.4-2.9-8.1-5-10.7-6.3-4.6-2.4-7-3.7-7.8-4.1-2.7-1.3-4.9-2.2-7.4-4.3-1.3-1.1-2.2-2.2-2.4-2.4-2.4-2.8-2.2-3.8-3.7-5.3-1.5-1.5-4.5-3.1-7.1-2.1-1.8.7-3.6,2.9-3,4.9.5,1.5,2.1,2.2,2.4,2.3"/>
      <path class="cls-62" d="M127.1,172.7c.5,2,1.1,4.8,1.4,8.2.5,4.9.7,7.5-.4,10.3-.4,1-1.8,4.3-5.5,6.4-.8.5-4.1,2.2-8,1.4-2.8-.6-4.6-2.3-7.3-5-1.8-1.7-3-3.3-3.8-4.4"/>
      <path class="cls-62" d="M120.3,178.4c-.3,1.6-1.2,4.6-3.9,7.3-3.9,3.9-9.7,5-14.2,3.6-2.7-.8-4.6-2.4-6.4-4-1.2-1-3.4-3-5.1-6.1-2.3-4.2-2.5-8.2-2.4-10.5"/>
      <path class="cls-62" d="M148.7,125.4c4.2,1.5,4.7,2.6,7.4,3.7,2.5,1.1,4,1.9,5,3.5,1.6,2.6.7,5.6.7,5.8,0,.3-.5,1.5-1.8,3.1-3.1,3.6-7.5,4.5-7.3,4.9"/>
      <path class="cls-62" d="M150,139.7c-.4.9-.8,2.3-.5,3.8.5,2.8,2.8,3.5,4.7,6.4,2.4,3.6,2.1,7.7,2.1,9-.3,4.9-2.9,8.2-4.1,9.5-1.2,1.3-3.3,3.3-6.6,4.5-6.4,2.3-12.6-.3-14-.9-4.2-1.8-5.1-3.7-9.9-4.9-2.1-.5-3.8-.6-5.3-.6-5.1-.2-6.8.9-11.6,1.4-4.6.5-10.6,1.2-15.2-2.1-.8-.5-1.9-1.8-4.1-4.4-1.8-2.1-4.8-5.6-7.1-9-3.5-5.2-2.8-6.5-6.7-14.4-2.4-4.9-4.3-8.6-7.5-12.6-4.5-5.4-6.2-4.4-13.6-11.1-6.7-6-5.7-7.1-13.5-13.9-2.2-1.9-4.9-4-10.3-8.2-9.8-7.6-3.4-2-9.5-6.6-.9-.6-1.5-1.1-2.6-1.4-2.8-.7-4.2,1.2-7.5.7-.8-.1-2.6-.4-3.7-1.9-.9-1.1-1.4-3-.6-4.4.8-1.4,2.8-1.7,5.2-2,2.9-.4,4.5,0,4.7-.6.2-.4-.6-.8-2.5-3.2-.3-.4-.7-.9-1.1-1.5-.3-.4-3.6-1.4-4.6-3.2-1.4-2.5,1-3.1,1.3-4,0,0,0,0,0-.1.6-1.2,2.5-1.3,2.7-1.3,2.8-.2,6.2,4.7,6.7,4.3.3-.3-.9-3.9-.6-5.8.2-1-.9-1.5,0-2.6,1.2-1.3,2.5-2.7,4.1-2.7,1,0,3.2,2.9,4.7,4.4,2.9,3,3.7,7,4.5,10.1"/>
    </g>
  </g>
</svg>