<?xml version="1.0" encoding="UTF-8"?>
<svg xmlns="http://www.w3.org/2000/svg" version="1.1" viewBox="0 0 247.8 258.4">
  <defs>
    <style>
      .cls-1 {
        fill: #ff6f90;
      }

      .cls-2 {
        fill: #7c5a74;
      }

      .cls-3 {
        fill: #ff8cab;
      }

      .cls-4 {
        fill: #ff5173;
      }

      .cls-5 {
        fill: #94728e;
      }

      .cls-6 {
        fill: #d68ba3;
      }

      .cls-7 {
        fill: #dd8ca4;
      }

      .cls-8 {
        fill: #ffcae7;
      }

      .cls-9 {
        fill: #ff8c60;
      }

      .cls-10 {
        fill: #ff3a5e;
      }

      .cls-11 {
        fill: #ff8bab;
      }

      .cls-12 {
        stroke-miterlimit: 10;
      }

      .cls-12, .cls-13 {
        fill: none;
        stroke: #000;
      }

      .cls-14 {
        fill: #ff92b1;
      }

      .cls-15 {
        fill: #785671;
      }

      .cls-16 {
        fill: #ff6687;
      }

      .cls-17 {
        fill: #ec3456;
      }

      .cls-18 {
        fill: #ff7d9d;
      }

      .cls-19 {
        fill: #df4263;
      }

      .cls-20 {
        fill: #ff294c;
      }

      .cls-21 {
        fill: #fff8ff;
      }

      .cls-22 {
        fill: #e13253;
      }

      .cls-23 {
        fill: #ff486a;
      }

      .cls-24 {
        fill: #ff7f9f;
      }

      .cls-25 {
        fill: #fa4969;
      }

      .cls-26 {
        fill: #ff97b6;
      }

      .cls-27 {
        fill: #ff2b4e;
      }

      .cls-28 {
        fill: #ffafcd;
      }

      .cls-29 {
        fill: #c98ba5;
      }

      .cls-30 {
        fill: #ffe9ab;
      }

      .cls-31 {
        fill: #ff7c9c;
      }

      .cls-32 {
        fill: #f3d2f0;
      }

      .cls-33 {
        fill: #ad8aa5;
      }

      .cls-34 {
        fill: #ff5476;
      }

      .cls-35 {
        fill: #ff4f71;
      }

      .cls-36 {
        fill: #ffb2d0;
      }

      .cls-37 {
        fill: #ff6282;
      }

      .cls-38 {
        fill: #ff88a7;
      }

      .cls-39 {
        fill: #ff7a9b;
      }

      .cls-40 {
        fill: #83617c;
      }

      .cls-41 {
        fill: #fdd5f3;
      }

      .cls-42 {
        fill: #92708b;
      }

      .cls-43 {
        fill: #eb294b;
      }

      .cls-44 {
        fill: #b391ac;
      }

      .cls-45 {
        fill: #ff5a7b;
      }

      .cls-46 {
        fill: #ff385a;
      }

      .cls-47 {
        fill: #ff7191;
      }

      .cls-48 {
        fill: #b593af;
      }

      .cls-49 {
        fill: #714f6a;
      }

      .cls-50 {
        fill: #76556f;
      }

      .cls-51 {
        fill: #ff3759;
      }

      .cls-52 {
        fill: #b78ca9;
      }

      .cls-53 {
        fill: #ff90b0;
      }

      .cls-54 {
        fill: #bc9ab6;
      }

      .cls-55 {
        fill: #ff83a3;
      }

      .cls-56 {
        fill: #ebcbea;
      }

      .cls-57 {
        fill: #ffe152;
      }

      .cls-58 {
        fill: #775670;
      }

      .cls-59 {
        fill: #d94564;
      }

      .cls-60 {
        fill: #8f6e8a;
      }

      .cls-61 {
        fill: #f3d2ef;
      }

      .cls-62 {
        fill: #a0acc8;
      }

      .cls-63 {
        fill: #ff93b3;
      }

      .cls-64 {
        fill: #8e6c87;
      }

      .cls-65 {
        fill: #a886a1;
      }

      .cls-66 {
        fill: #ffefff;
      }

      .cls-67 {
        fill: #ffa771;
      }

      .cls-68 {
        fill: #ffeb77;
      }

      .cls-69 {
        fill: #ff7293;
      }

      .cls-70 {
        fill: #ff6787;
      }

      .cls-71 {
        fill: #ff4668;
      }

      .cls-13 {
        stroke-linecap: round;
        stroke-linejoin: round;
      }

      .cls-72 {
        fill: #f6d7f5;
      }

      .cls-73 {
        fill: #775570;
      }

      .cls-74 {
        fill: #f6d4f1;
      }

      .cls-75 {
        fill: #b191ae;
      }

      .cls-76 {
        fill: #ff9cbb;
      }

      .cls-77 {
        fill: #ff3a5c;
      }

      .cls-78 {
        fill: #db4262;
      }

      .cls-79 {
        fill: #ac3a55;
      }

      .cls-80 {
        fill: #ff5b7c;
      }

      .cls-81 {
        fill: #ff5779;
      }

      .cls-82 {
        fill: #f23457;
      }

      .cls-83 {
        fill: #ed294b;
      }

      .cls-84 {
        fill: #ff88a8;
      }

      .cls-85 {
        fill: #ff6182;
      }

      .cls-86 {
        fill: #ffe47d;
      }

      .cls-87 {
        fill: #c09bb7;
      }

      .cls-88 {
        fill: #e5c5e3;
      }

      .cls-89 {
        fill: #e6c6e4;
      }

      .cls-90 {
        fill: #ff81a1;
      }

      .cls-91 {
        fill: #ffe5ff;
      }

      .cls-92 {
        fill: #fff0fc;
      }

      .cls-93 {
        fill: #ff6788;
      }

      .cls-94 {
        fill: #d34060;
      }

      .cls-95 {
        fill: #ff4d6f;
      }

      .cls-96 {
        fill: #ff799a;
      }

      .cls-97 {
        fill: #f7d5f1;
      }

      .cls-98 {
        fill: #ff8ead;
      }

      .cls-99 {
        fill: #ffdefb;
      }

      .cls-100 {
        fill: #74526d;
      }

      .cls-101 {
        fill: #60719b;
      }

      .cls-102 {
        fill: #ff4c6e;
      }

      .cls-103 {
        fill: #d6a671;
      }

      .cls-104 {
        fill: #d7b0ca;
      }

      .cls-105 {
        fill: #febddb;
      }

      .cls-106 {
        fill: #ffa1c0;
      }

      .cls-107 {
        fill: #ff365a;
      }

      .cls-108 {
        fill: #7b5974;
      }

      .cls-109 {
        fill: #462749;
      }

      .cls-110 {
        fill: #f3d3f1;
      }

      .cls-111 {
        fill: #ff8eab;
      }

      .cls-112 {
        fill: #bc5562;
      }

      .cls-113 {
        fill: #ff6b8c;
      }

      .cls-114 {
        fill: #ff98b7;
      }

      .cls-115 {
        fill: #ffa4c4;
      }

      .cls-116 {
        fill: #ff385c;
      }

      .cls-117 {
        fill: #dd8e6d;
      }

      .cls-118 {
        fill: #94728d;
      }

      .cls-119 {
        fill: #66445f;
      }

      .cls-120 {
        fill: #ffe479;
      }

      .cls-121 {
        fill: #ffa0bc;
      }

      .cls-122 {
        fill: #93718c;
      }

      .cls-123 {
        fill: #ffb0cc;
      }

      .cls-124 {
        fill: #ed3052;
      }

      .cls-125 {
        fill: #f3ceeb;
      }

      .cls-126 {
        fill: #ff9ab9;
      }

      .cls-127 {
        fill: #fff1f4;
      }

      .cls-128 {
        fill: #ff4a6c;
      }

      .cls-129 {
        fill: #d3b2d0;
      }

      .cls-130 {
        fill: #e4c2de;
      }

      .cls-131 {
        fill: #e2c0db;
      }

      .cls-132 {
        fill: #ff7999;
      }

      .cls-133 {
        fill: #c493af;
      }

      .cls-134 {
        fill: #cba6c3;
      }

      .cls-135 {
        fill: #a69dba;
      }

      .cls-136 {
        fill: #bf9db8;
      }

      .cls-137 {
        fill: #ff9eba;
      }

      .cls-138 {
        fill: #f1bc53;
      }

      .cls-139 {
        fill: #ff8dad;
      }

      .cls-140 {
        fill: #7f5d77;
      }

      .cls-141 {
        fill: #dab3d0;
      }

      .cls-142 {
        fill: #ff9bbb;
      }

      .cls-143 {
        fill: #ffc26a;
      }

      .cls-144 {
        fill: #eb3959;
      }

      .cls-145 {
        fill: #ffdf60;
      }

      .cls-146 {
        fill: #ff96b5;
      }

      .cls-147 {
        fill: #cda8c5;
      }

      .cls-148 {
        fill: #ff698a;
      }

      .cls-149 {
        fill: #ff7292;
      }

      .cls-150 {
        fill: #fa2b4e;
      }

      .cls-151 {
        fill: #ff4567;
      }

      .cls-152 {
        fill: #ff96b6;
      }

      .cls-153 {
        fill: #ff4163;
      }

      .cls-154 {
        fill: #6c4a66;
      }

      .cls-155 {
        fill: #e9c8e6;
      }

      .cls-156 {
        fill: #e0bfdc;
      }

      .cls-157 {
        fill: #ff7c9d;
      }

      .cls-158 {
        fill: #ff7693;
      }

      .cls-159 {
        fill: #ab89a5;
      }

      .cls-160 {
        fill: #ff9fbe;
      }

      .cls-161 {
        fill: #7a5974;
      }

      .cls-162 {
        fill: #ff8dac;
      }

      .cls-163 {
        fill: #ffceeb;
      }
    </style>
  </defs>
  <!-- Generator: Adobe Illustrator 28.6.0, SVG Export Plug-In . SVG Version: 1.2.0 Build 709)  -->
  <g>
    <g id="Layer_2">
      <g>
        <path class="cls-127" d="M173.1,161v2.8c2.3,2.1,5.2,4.1,7.4,6.3,1.5,1.5,2.4,3.1,3.7,4.5,1.6,1.6,3.8,3,5.2,4.8,3.1,4.1,5.6,9.4,4.3,14.6-.4,1.5-2.4,2.3-2.7,3.6-.2.7.2,1.4.1,2-.5,3.1-1,5.6-2.4,8.5-1.1,1.6-2.3,2.9-4,3.8-3.1,1.8-12,3.4-6.7-2.7-1.6,1-5.4,3.3-1.9,3.9l.3.8c1.3,2.8,3.5,9,2.8,11.9-.2.9-1.2,2.1-1.7,2.9-.4,1.9-1.7,4.1-3.8,3.5l-2.6,3.6c-.6,0-1,.3-1.4.7,0,1.3-3.1,4.5-4.4,4.1l-1,1.5c-3,2.3-5.6,3.9-9.3,3.3-.4.9-3.1,2.9-4.1,2.2-4.9,2.4-9.5.8-14.2-1.2-6-2.5-11.3-5.9-15.4-11.1-1-1.7-6.7-8.1-6.7-9.5,0-.4.3-.4.4-.5,0-1,.2-2.1.8-3.3.1-2.3-4.7-3-2.2.4l-.4.7c-.2.7-1.4-.8-1.5-.9-4.6-5.9-9.4-15-12.1-21.9-1.2-3.1-2.1-7.9-3.5-10.6-.9-1.7-3.2-2.6-2.5-5.5l-.5-.7c1.1-4.5,13.1-11,17.4-12.6,6.7-2.5,16.3-5,21.2,1.8,1.6,0,2.8,4.2,2.5,5.5,0,.6-.6,1.8-1.1,2.3-.4,2.9-.5,5.5-.1,8.5,1.2,9.7,3,11.6,10.2,17.7,5.6,4.7,6.8,4.4,13.8,1.8-3.1-6.9-5.4-14.3-6.5-21.7l.5-1.1c-1.7-3.1-4.4-4.7-7.4-6.3l-5.3-2.7c-.8-.5-.8-1.1.1-1.4,1.4-1.5,3.4-2.2,5.9-2.2,0-1.1.4-1.2,1.1-.4v-.6c3-2.4,5.6-5.1,7.8-8.1l1.1-.2c.4-1.3,1.1-3.4,2.6-3.3l1.1-.3c5,2.2,10,1.6,15.1.7h0Z"/>
        <path class="cls-127" d="M150.5,100.3c7.9,2.2,15.8,4.2,23.7,5.9,1,.2,1.2.6.6,1.5-5.3,4.1-5.2,4.4.1.8h1c1.4-1.3,6.2-1.1,8.1-.2.9.4,2.5,1.3,1.7,2.4.8,1.1,0,1.4-1.1.7l-.6.6c-4.6-.2-7.3,5.2-8.9,8.9h-.8c0,1.2.2,2.4.3,3.7,1.6-.1,3.2-.4,4.9-.6,2.4-1.7,4.4-3.9,5.9-6.7-.9-.6-.2-2.3.7-2.2l.3-2.1c3.8-1.1,5.5,1.4,5.7,4.8.6,1.4,5.3-.9,5.8-2l-.6-.6c.8-2.2,1.8-4.3,3-6.3h.9c1.9,1.6,2.8,7,2.1,9.3-.3.9-2.2,1.7-1.8,3.3,0,.3,3.8,2.8,4.5,3.4.9.8,5,4.6,5.4,5.4.5.9-.2.7-.9,1.5.2,1-.4,1.9-1.7,2.8-4.2,2.5-6.4,5.8-6.4,10.2l-.7.8c.7.1.7.4,0,.7.5,1,.5,1.8,0,2.2.9,2.9-2.6,4.2-4.9,4.9-7.8,2.2-18.7,3-25.2-2.6-1.5-1.3-3.6-4.2-1.6-5.8,3.1-1.6,6.1-6.1,0-4.7-6.7,2.1-13.5,3.2-20.4,3.4-1.3,0-3.4-.3-3.1-1.9l-.7-.4c.4-4-3.6-3.3-1.8-.3l-.4.7-.8.7c-9-.4-16.4-3.2-20.6-11.4l-1.1-.3c-1.6-3-2.7-6.1-3.4-9.3-.6,1.3-1.8-.3-.4-.7l1-.7c12.1-1.3,23.6-10.2,30.6-19.7h.9c.1-.9.3-.8.7.1h0Z"/>
        <path class="cls-127" d="M52,92.9c.2,0,.4,0,.4.4.9,0,1.9,1.5,1.1,2.2,3.8,4.4,8.2,8.3,13.3,11.6v.6s0,1.3,0,1.3c-2.2,3.6-4,7.4-5,11.5l-1,.9c.9.5.7,3.1-.4,3.3l-.4,4.4c.4.3.6.9.4,1.9,1.1.3,1.2,1.2.4,1.9l-.5,1.3c-5,3.6-11.1,5.6-17.2,4.4-1-.2-7.5-2.1-7.1-3.4.1-.3.4-.6.7-.7-.4-.5-.2-1.1.4-1.9-.9,0-1.7-.7-2.5-2.3-.9.3-1.6.3-2-.3,0,.9-.3,1.3-.7,1.1-.4.1-.5,0-.4-.4-.7-.3-1.5-1.4-1.5-2.2-1.5,1.8-3.4-1-3-2.6-3.2-3.3-1.6,1.9-2.6,2.8-.3.3-4.9,2-5.6,2.2-6.3,1.7-8.8-.6-10.5-6.6-1.1-4-1.4-7.5,1.8-10.6,1.7-1.7,7-5.4,9.1-6.8,7.2-4.8,16.3-7.8,24.5-3.9,1.5.7,3.5,3.4,4.3.3-3.3-.5-3.4-6.9-2.9-9.4.4-1.9,3.7-7.9,5.8-8l.5.6c-.4,2.1-.5,4.4.2,6.4h0Z"/>
        <path class="cls-93" d="M183.4,11.5l-.7.6c-3.4-.6-6.7-.9-10.1-1.1l-.6.8c-2.3-.1-4.1,0-5.6.3-2.2.4.3.6.7,0,5.9-.5,11.9.2,17.8,2.2,9.7,3,19.2,5.9,28.7,8.7.7.4.7.8.1,1.4.3,0,.3.2,0,.4-.3,1.6-1.7,1.5-2.3,0-1.2,1.1-2.6,1.8-4,2.1-7.5-3.8-15.6-6.6-23.8-8.7-5.6-1.5-13.7-3.5-19.4-3.6-.3,0-.6.2-.9.4l-.8.7c-4.2,0-8.3.4-12.5,1l-.9-.6c-.5,0-.8.4-1,.9-2.3.5-7.6,1.9-3,1,7.5,0,14.9,0,22.4,0l6.7,1.3.5.8c.3.1.3.2,0,.4-2.1.5-4.4.5-6.8-.1-.1-.5-19.2-.9-16.9.4,5.1,2,2.3,4.8-1.2,6.6-2.5,1.3-4.8,2-7.3.9v.8c-1.6,1.7-2.9,3.6-3.9,5.7h.9c2.6-1.8,6.6.9,8.7,2.7,3.5,3,4.9,6.2,2.6,10.5,0,1.6-.4,2.6-1.3,2.9-.3,1,0,2.2,1.1,1.5-.8-.9,0-2,1.1-1.5.7-1.9,1.6-2.6,3.6-2.4.6,0,10.4,4.2,10.9,4.6.8,1.3,1.1,2.9.9,4.8,1.3-1.3,2.6-2.2,3.6,0,1,2.2-1.8,9.2-2.8,11.5,0,.9-.4,1.5-.9,1.8-.6.6-1.2.4-1.5-.4l-.6-.6c.7-2.8,1.2-5.5,1.5-8.3-1.2-1.3-1.8-2.8-1.9-4.3-4.3-1.8-9-2.9-13.7-3.1-1.9,2-3.3.9-4.1-1.3-1.2-.8-7,.7-7.5,2.4,0,1.9-.6,5.2-2.6,5.6-2.2.4-6.2-1.1-7.4-3l1.7-5.6.9-.3c.9-.9.9-5.3.2-3.1l-.9.5c.7.9,0,2.2-1.1,2.2-1.2,2.2-1.9,2.8-4.4,2.1-5.5-1.5-3.3-14.4-.4-17.9-.1-1.5-.7-2.5-1.8-3.2.3-1.3,0-2.1-.8-2.2,3.4-4.1,6.9-5.5,10.7-8.7,1.4-1.1,2.8-3.2,4.1-4.5,3.1-2.9,12.8-7.5,17-7.9,8.6-1.9,17.5-1.1,26,.5,1-.4,2.8-.4,2.9,1h0Z"/>
        <path class="cls-10" d="M218.6,24.4c0,1.4.3,3.4-.4,4.4-.7-.2-1-1-.9-2.2.4-1.7-2-1-2-.8-.3,3.5-.6,7-.9,10.4l3.9-1.2c-1.5-2.6-1.5-4.4-.1-5.4,2.1,4.3,4.8,8.5,6.7,13,.4,2.1-1.1,1.1-2,0-3.2-.1-6.1,2.3-6.6,5.5-.8,1.3-2.9,4.1-4.4,3.8l-.5-.4c-2.3,1.6-6.1,5-6.4,7.9,0,5.5-.3,9-5,12.7-1.7,1.3-5.5,3.7-7.3,2.4l-.4.8c-2.9.2-5.8.1-8.7,0l-.5-.8-.4-.4c-.1-.3-.2-.6-.3-.9s-.1-.6,0-.8c4.4-15.8,13.3-31.3,29.3-36.7.7-3.4,1.1-6.9,1.4-10.4l.7-.4c0-.1,0-.3,0-.4.2-1.8,3.8-1,4.8,0h0Z"/>
        <path class="cls-80" d="M87.2,70.7c1,.1,3.1,1.9,3,3-.6.8-1.6.8-3.1-.1-3.2-1.8-11.3-6.1-5.8,1.2.6,1.1.3,2-.7,2.7,4.7,3.7,9.3,7.5,13.8,11.4.1.8-1.3,3.1-1.9,3.4-.4.2-3.7-.1-3.4-1.2-.7-.5-1.8-.6-3.3-.3v-.4c-1.2-.7-.5-1.2.3-1.7-1.8-1.5-2.1-1.3-2.8.6h-.6s-.8.4-.8.4c-1.9,0-15.8-10.2-16.6-13.5.8,3.5.5,4.5-3.1,4.9,3.9,3.3,8.3,6.2,13.2,8.6,1.3.8,2.6,1.7,3.8,2.7.7.6,1.4,1.2,2,1.8.9,1.1,1.2,1.5.4,2.8.4.4.5.7.2,1.1,2.4-2.1,3.1-2.7,5.9-1.1.8.5,3,2.8,3.1,3.7v.9c-3,.9-4.7,3.2-3.8,6.3l-.6.6c-1.3,1.1-6.5-.5-7.2-2v-1.7c.1,0-1.3,0-1.3,0-.2.3-.4.7-.8.7-1.4.3-9.5-5.2-11.1-6.3-4.2-3.2-8.4-6.2-12.8-8.9.2,1.4,0,2.4-.8,3-.1-.1-.3-.2-.4-.4-.8-2.7-.8-5.7.7-7.8,1.5-5.4,5.4-8.6,10.4-10.7l.2-.9c2.3-.5,4.2-1.6,5.6-3.2h.9c2.6-1.8,2.8,1,.4,1.9.9,1.2,7.1,1.1,5.1-.8-5.5-2.4,2.7-4.6,5.1-3l5.6,1.1,1.2,1.2h0Z"/>
        <path class="cls-35" d="M108.6,123.3c.9,1,1.6,4.5.7,5.6,1.9,6.8,5.1,12.9,9.3,18.5.3,0,.3.2,0,.4,1.7,4.3-.3,8.5-4.5,10.3,4.6,0,7.9-.7,11.7-3.2l.9.4c.9-.7,3.8,1.4,3.7,2.6-.2,1-1.2,1.3-3.2,1l-.5.5-.4.4c-2.9-.6-5.9-1-8.8-.4,0,.7-.6,1.2-1.5,1.5,2.5,0,5,.4,7.5.9.8-1.2,2.1-1.6,4-1.3l.4-.4c1.8.6,3.5,1.1,5.2,1.5,1.3-1.2,3,1.7,2.3,2.9-.5.9-6.1,1.4-5.6-.7,0-.7.4-.7.9-.7-2.1-1-4.7-1.7-1.1-.1l.2.9c-.4.6-1.3.8-2.5.7l-3.2,1.1c-12.3.7-24.3,5.8-34.4,12.6-.8,1.1-1.6,1.8-2.5,2.2-.9-1-1-2.5-1.5-3.7.9-2.8,2.5-5.2,4.7-7.3-3.5-.6-8.2-4.9-8.1-8.6,0-1.6,1.7-5.8,3.4-5.9l.6.7c-1.4,4.7,4.3,7.8,8.2,8.5,2.3-.5,5.7.8,3.9,3.3-.2,0-6.3,4.8-5.5,4.7,3.2-1,6.3-2,9.5-2.8-.2-.3-.2-.5,0-.8l5.2-2.7c-1.9-1.5-2.2-2.5-.7-3l-.3-.5c-1.1-1.4.8-3.1,2-3.9-.8-5.7-.9-9.5,4.1-13.2.6-.8.5-1.7-.3-2.9l-4-7.3c-.3-2.2-.7-4.5-1-6.7-2.6-2.9-3.1-3.9,1-5.3.2-.2.3-.1.4.4h0Z"/>
        <path class="cls-153" d="M73.1,116.6c.7.9,0,2-1.1,1.9.7.9-.8,2.9-1.9,2.6l.3.8c-2.6,3.7-4,6.5-.9,10.5.2.6,2.1,6.6,2.5,6.5,1-1.6,2-3.1,3.1-4.6,2.9-2.5,5.2,4.5,1.3,3.3-.3.5-1.2,5-1.1,5.6,0,1.8,5.2,11.5,6.3,11.5l.9-.7c.9,1.4,3.6-3.2,3.4-3.4-.9-.9-1.3-1.4-1.9-2.8l-3.7-4.8c-.4-1.5,1-2,2-.9l4.2,5.8c2.7,2,1.9,5.8-.9,6.9-1.3,2.4-3.5,5.1-2.3,8,.1.3,2.3,2.9,2.7,3.3,1.8,1.8,3.4,2.5,5.9,2.6-2,2.4-3.9,4.1-5.3,6.9-.3.5,0,1.2-1,1-3.1-7.7-9.8-15-12.2-21.8-2.3-4.7-3.5-9.7-4.7-14.6-.4-1.1-1.5-2.2-2.3-1.6-2.6-.7-2.2-4.4-1.9-6.6.5-1.8.9-3.7,1.2-5.5-.3-.2-4.7,3.1-4.4,4.4l-.8.3c0-.6-.3-.9-.4-1.9l.4-4.4c0-1.3.1-2,.4-3.3l.6-.6c3.4.4,5.7-2.2,7.7-4.6,1.1-1.3,4.3-1.6,3.9.4h0Z"/>
        <path class="cls-80" d="M125.7,69.6c1.2.4,1.6.9,1.5,1.5-7.2-1.8-14.4-4.7-20.9-8.2-2.4-1-2-.5,1.2,1.6l12.4,8.2c1.4,1.9-.8,2.4-2.5,2.2l4.8,2.1v.9c12.7,5.8,25.4,11,38.2,15.6,1.2.5,1.7,1.7.5,2.5l-5.9-.7c-21-5.2-42.9-13.2-61.3-24.6-2.3-2.1-4.4-4.2-6.3-6.3-.7.7-1.3,1-2,.9-.6-3.5,0-7.9,3.3-10,2.6-2.7,4.6-2.9,5.9-.5,2,1.3,4.3,2.2,6.8,2.6,8.2,3.7,16.7,7.6,24.3,12.4Z"/>
        <path class="cls-28" d="M236.7,74c0,2.3-2.1,5.7-4,7s-12.7,3.4-14.8,3.7c-15.2,2.6-29.7,4.3-45,.3-3.4-1.7-7.1-3.1-11-4.1-1.9-.3-4.2-2.4-1.5-2.2.5-1,1.6-.7,1.9.4.9.5,1.9.7,3,.7,1.6-.7,3.3-.2,4.4,1.1,3.6.6,7.2,1,10.7,1.1l.9-.7c4.6,0,9.1-.1,13.7-.2l1,.9.6-.7c2,.4,4,.7,6,.7.6-.8,1.2-1.2,2.1-.6,2.1-.9,4.6-1.3,6.8-1.4,1.2.2,2.2,0,3-.7-.5-.5-.3-.7.4-.4,2-1,3.9-2.2,5.7-3.7l1,.3c.2,1.6-.4,3.2-1.7,4.9.4.1,7.8-2.1,8.5-2.5,3.9-2.4,6.1-7.3,1.2-10.2-.2-.7,0-1,.8-.7,3,2.2,4.3,3.5,6.3,6.7h0Z"/>
        <path class="cls-88" d="M127.5,139.2h1.1c2.7,2.9,5.7,5.1,9.8,5.2,10.3.2,20.4-.8,30.3-3.9,7-1.2,2.4,4.7-2,5-.8.3-.7,1,.4,2.1l3,3.3-.3.9c-.7.6-1.4.3-2.2-.7-.6.4-1,.3-1.4-.2l-3.7-5.2c-.5-.3-1,0-1.5.6l-.8.3c-2.8-1.8-6.3,1.8-3.5,4.3l-.2,1c-.8.7-1.9,0-2.3-.8-4.7,1.2.1,5.3,2.5,6.3,4.6,1.9,12.2,3.6,16.9,2.2.3-1,1.9-1.6,2.6-.7,0,.8-2.1,1.8-3,2.2-5.3,2.6-10.9,1.9-16.3-.4-.9.5-1.5-.2-1.5-1.1-.2.7-.5.7-.7,0-.7,0-1.4-.6-1.3-1.3-4.5-2.5-9-5-13.5-7.6-2.3-.9-13-9.4-12.8-10.7,0-.3.3-.5.6-.7h0Z"/>
        <path class="cls-71" d="M183.4,11.5c3.4-.7,7.8.5,10.8,2.1,4.2.9,8.4,2,12.5,3.5,3.3,1.2,6.7,2.3,10,3.3.4.4,1.7,2.2,1.9,2.7.3.7-.1,1,0,1.4-1.7.3-3.3-.9-4.8,0-.3-1.7-4-1.5-5.6-2-14-4.2-25.9-9.5-41.1-10.2-.1.6-.4.5-.7,0-.2-1.1.6-.7,1.3-.7,1,0,2.9.2,3.7,0,.6-.2.3-1,1.1-1.1,1.7-.2,8.8.8,10.9,1.1h0Z"/>
        <path class="cls-51" d="M130.5,157.7c1-.8,2.9.4,3,1.5,1.1-.4,3.7.6,4.4,1.5l.6.7c-1.8,1.6-.6,4.2.7,5.8,0,2.1,0,4.5-2.9,3.5-9.1-3.5-16.2-4.7-25.5-1-7.7,3-14.7,7-21.6,11.7-.6.3-1.3.4-2,.4,0-.3,0-1.2,0-1.5.7-2.6,5.1-4.8,7.4-6.1,6.1-3.4,14.6-7.2,21.5-8.5,2.7-.5,5.7-.4,8.3-1,2.2-.5,2.4-1.5,5.4-1,.4,0,1,.7,2,.7,1.1,0,2-.2,3.1-.4-.2-1.5-.6-2-1.9-2.6-.1.1-.3.2-.4.2-1.5-.4-4.4-1.3-5.7-1.9-.1,0-.2-.3-.2-.5-1-1.6,2.5-1,3.7-1.5h0Z"/>
        <path class="cls-17" d="M147.5,161.8v.8c-2.6.6-4.4,1.6-5.9,3.7.8.6.3,2-.7,1.9l-.4,1c.5,1,.2,2.5-.6,3.5l4-.3c.6,0,.7.5.4,1.1-1.9.9-3.9,1.6-5.9,2.2.3,1-1.5,1.3-1.5.7l-.7.4c.9.5-2.1,4.8-2.4,4.8-.8.2-1.1-.2-.6-.8,1.1-2.8-.3-5.3-1.5-7.8-4.8-6.8-14.9-4.3-21.5-1.7-6.3,2.5-12.8,6.1-17.4,11.1-1.6,1.8-3.6,1.4-5.2-.1,0-.1-.3-.3-.4-.4,6.9-4.6,14-9,21.9-12,5.6-2.2,11-3.6,17.2-2.8,3.9.5,8.1,2.7,12.1,3.3-.3-.9.3-2.2.3-2.8,0-.2-.6-.1-.7-.4-.3-.9-1.2-3.2-1.2-4,0-1.2,1.1-1.3,1.1-2.4,0-.2,0-.4.2-.5.3-.4,8.6.6,9,.8l.4.8h0Z"/>
        <path class="cls-45" d="M122.7,31.1l2.6-1.1c-.5,1.1-1.3,2.1-1.1,3.3h1.5c-.8,1.3.4,2.4.4,3.2,0,.5-1.1,1.8-1.5,2.6-1.3,3.1-2.9,12.2.6,14.2,2.3,1.3,3.2.5,5-1.1l.6.7c-.6,1.5-1.1,3.1-1.4,4.8l-.7.5-1,.4c-3.2-1.4-6.3-2.8-9.1-4.8l-.2-1.1-.3-.5c.4-1.3.3-1.4-.5-.3-2-1-4.6-4-3-6.3.8-4.1,5.4-11.1,8.1-14.4h0Z"/>
        <path class="cls-111" d="M127.1,67c.7.1,1.3.3,1.9.7,7.6,1.6,15.3,4.2,22.2,7.8,2.5-.3,5.2.5,7,2.2,1.6-.2,2.3.2,2.2,1.1l-.9.4c3.4,1.9,7.5,2.1,10.8,4,1.4.8.9,1.2,3.4,1.8,18.2,4.4,33.8,1.7,51.4-2.6,2.9-.7,5.8-.1,8.2-2.6l3.3-5.7c.2.4.5.6.7,1.1.4,4.4-3.6,6.9-7.5,8-16,4.7-32.3,6-48.4,3.8-.6.6-2.5.3-3-.4l-5.6-1.1c-.5.6-1.6.4-1.9-.4-5.3-1.4-10.6-3.2-15.9-5.2-.8.5-1.9.1-2.2-.7-5.6-2.6-11.5-4.8-17.7-6.7-1.4-.5-10.2-3.7-10.5-5.3,0-.3.2-.7.4-.9.9-.4,1.5-.2,1.9.7h0Z"/>
        <path class="cls-99" d="M230.4,67.4c-.7.2.4.9.6,1.1,1.1,1.1,2.5,2.1,2.4,3.9,0,2.2-3.9,7-6.4,7.4l-11,2.9,3-1.7c.9-1.6,1.8-3.3,2.6-5-.7-.8-.3-1.5.7-1.1.2-.5.5-.7.9-.3-.7-2.2-.9-4.3-.5-6.3-1.5-.7.1-4.2,1.5-4.4,2.2,1,4.4,2.3,6.3,3.7h0Z"/>
        <path class="cls-89" d="M27.2,125.8c.8.9,1.3,2,2,3l.2-1.1c.4,0,.5.5.7.7,0,.5.6,1.9,1.5,2.2,0,.1.3.2.4.4.4-.2.8.3,1.1,1.5l.5-.2c.9.7,1.9,1.4,2.8,2,.1-.3.2-.3.4,0-.1,1.6,1.1,1.9,2.3,2.3,8,3,15.1,1.2,21.8-3.8,1.1,0,1.6,1.6.7,2.2,0,1.6-3,3.7-4.4,4.5-6.3,3.6-14.3.9-20-2.6-2.1-1-3.8-2.6-5.1-4.5-5.6,1.4-13.9,2.4-19-.5,1-.4,1.9.5,3,.5,3,0,6.7-2,9.7-2.6,1.8-.9-1.6-4.2,1.4-4h0Z"/>
        <path class="cls-41" d="M211.9,51.8c.9-.9,2.9-2.7,3.5-3.7.6-.9.5-1.9,1-2.7,1-1.9,4.6-4.1,6.7-3.5.6.2,1.9,2.3,1.7.7.9,2.1.8,2.3,1.1,4.4l-.7.5c-2.8-.5-6.4,2.9-6.6,5.7h-.9c-2.2,2.1-3.8,4.7-4.7,7.9-1,2-2.6,2-2.7-.5-.7-.2-.7-.5,0-.7.1-.8.3-1.5.4-2.2-.3-1.4,0-3,.4-4.4-.8-.8-.4-1.8.7-1.5h0Z"/>
        <path class="cls-5" d="M226,47c.2,1.6.3,2.9.4,4.4-.1,1.6-.6,4.8-2.2,5.2-.1.3-.2.3-.4,0l-.6-.5c.4-1.7.4-3.2,0-4.7-.2-.1-.3-.3-.3-.3-1.2,1.8-1.8,4.2-2,6.3-3.9-.5-6.8,6.5-1.8,6.9-1.5,2.9-2.1,10.6,1.8,4.4-1-1.1,1.5-2.4,1.5-.7.3.5.4,1.6-.4,1.5-.3,2.2-1.3,5.4-3.7,5.6-2.2,1.9-2.6-1-2.2-2.6l-1-.6c-1.4-5.7-2.4-14.8,2.9-18.6.7-1.4.5-2.1.9-3,0-.2,2.6-2.3,3-2.6,1.4-1,2.4-1.7,4.2-.7h0Z"/>
        <path class="cls-149" d="M101.6,48.5l.3.8c-6.5,5,6.3,11.5,10.8,10.8l1.5.7c.9-1.2,2.9.3,2.2,1.5l.4.6c3.6,2.1,7.6,4.5,11.8,7l.7.9c-1.2.4-2.4,0-3.7-1.1-7.7-3.2-15.4-8.1-23.1-11.2-2.7-1.1-5.7-1.1-8.4-3.1-1.1-.8-.8-2.3-3.1-1.6-.6.2-.9.9-1.4,1.2-.4.2-1,.1-1.1.2.7-1,1.7-2,2.7-2.7,2.6-1.7,7.3-3.2,10.2-4h0Z"/>
        <path class="cls-102" d="M154.9,95.1c4.8.5,9.5,1.1,14,2.6l1.1,1.1c-.6.2-1.1.3-1.6.2-19.2-3.2-38.4-10-56.2-17.5-8.2-3.5-16.3-7.8-23.2-12.6.2.8,0,1.4-.4,1.8-.4.6-.8.4-.7-.4-.7-1.2-1.4-2.4-2.2-3.7-.9.3-1,0-.4-.7,0-.2,0-.5,0-.7,2.6-4.1,4.1.4,6.1,2.6,4.7,5,11.9,8,18.1,10.8,13.6,6.1,31,13.5,45.4,16.6h0Z"/>
        <path class="cls-21" d="M62.7,54.8c.6-.2.9,0,.9.6-1.1,4.9-.6,5.9,1.6,3.2,1-.7,3-.3,2.7,1.1,1.7.9.7.5,1.1,1.5.4,1.1-.6,1.4-1.1.4l-.6.6c-1.5-.5-1.5.3-.1,2.6-1.6,2.4-1.6,3.4,1.7,2.9l.6.7c-.1-1.1,1.4-1.5,1.9-.4.6.4,1.3.3,1.1,1.1,0,.8-.7,1.3-1.3.8l-1.3.7c-2.5,3.2-3.6,2.8-6.7,4.1-.5-2.6-2.2-6.1-2.3-8.7,0-1,.4-1.9.4-2.9,0-2.5-.7-6.3,1.5-8h0Z"/>
        <path class="cls-119" d="M213.8,143.2c-1.5,4.6-5,7.5-8.9,10-.8.3-1.3.4-1.9-.3l-1.5-6.8c0-.2,0-.5,0-.7,2-2.7,4.9-4,8.3-4.1,4-2.9,5.3-2.3,3.9,1.8h0Z"/>
        <path class="cls-59" d="M237.8,90.7c-5.6,12.6-23.2,15.1-35.5,16.3-1.4,1.3-4.4,1.4-5.9.4-.9,1.2-4.9,1.4-5.9.4-5.2.9-11.4.4-16.3-1.5-8-1.1-16.1-3-23.7-5.9.7-.3,1.4-.4,2.1-.3,26.2,7.4,56.5,10.5,80.4-4.5-.3-1.2,2.1-3.7,3.3-3.7-.3-1.1,0-1.6,1.1-1.5.5-.5.6-.3.4.4h0Z"/>
        <path class="cls-108" d="M213.8,143.2l-.2-3.3c-1.3.8-2.4,2-4,2.3-1.2.3-2.5,0-3.4.3-.7.2-3.3,2.8-4.7,2.9-.2-8.6,4.1-8.2,8.9-13.7,3.4-1.2,5,5.7,4.7,7.9-.1.9-.9,2.8-1.4,3.6h0Z"/>
        <path class="cls-19" d="M131.6,172.9c-7.3-6.4-17.1-3.4-24.8.6-3.9,2-12.2,6.7-13.3,10.9,0,.1-.3.3-.3.6-.1.7.4,2.7-.6,2.4-2-.6-4.2-3.3-5-5.2,1-.3,2,.6,2.8.6,1.3,0,3.6-3.1,4.8-4,7.1-5.8,26.9-15.6,35.1-8.5,1.2,1.1.9,1.6,1.4,2.5h0Z"/>
        <path class="cls-85" d="M238.9,78.5c.1.3.3,1.1.4,1.5.3,2,.3,4,0,5.9-.1,1-.5.9-.7,0-1-.1-.9-.4,0-.7l-.6-.7c.8-1.5-.2-2.3-1.5-1.2-15.9,5.9-33.7,7.3-50.5,5.2-.3.2-.7.3-1.1.4-1.7.4-12.4-1.4-14-2.3-.3-.2-.6-.4-.9-.7l-4.4-1.3v-.5c1.8-.2,3.8.3,5.5,1.1.6.1,1.2.3,1.9.4l5.6,1.1c1.1.2,2,.2,3,.4,17.1,2.2,34.9,1,51.2-4.8,1.4-.5,2.8-1.9,3.7-3.1,1-1,1.8-1.2,2.5-.6h0Z"/>
        <path class="cls-156" d="M204.9,153.2c-5.7,3.8-11.2,6.7-18.3,6.3-2.4-.1-7-1.9-8.7-1.5h-3.8c-.6-.2-1-.7-1.4-1.5-.9,1.1-5.5-1.2-4.4-2.6l.3-.5c-.9-.6-1.9-1.5-1-2.4.7.2,1.6.4,2.2.7l1-.3c8.7,7,21.8,8,30.9,1.6,0-1.5,0-3,0-4.6,0-.7,0-1.5,0-2.2,1.7,2,.1,6.2,3.3,7h0Z"/>
        <path class="cls-158" d="M113.8,45.9c.5,0,.4.9,0,1.1l-.4.6c-2.6.3-9.2,1.3-10.4,4-1.4,3.1,5.7,7.3,5.9,5.1-.5-1.8-.2-2.6.9-2.4.9.1,1.4.9,1.5,2.5l3.1,2.9v.9c-1.3-.2-2.6.5-4.2.2-1.5-.3-7.2-3.2-8.3-4.3-.7-.6-2.3-2.4-2.4-3.1-.1-.8,0-1.8,0-2.5l2.1-2.5c4-1.1,8.1-1.8,12.2-2.6Z"/>
        <path class="cls-31" d="M238.9,78.5c-2.8,1.1-3.8,3.3-6.8,4.5-16,5.9-33.8,6.4-50.5,4.1l15.3,1.1c10.3-1.1,21.2-1.8,31.1-4.8,2.5-.8,5.8-1.5,7.4-3.7,1-1.4,1.1-3.1,2.1-4.4.7,1.3,1,1.8,1.5,3.3Z"/>
        <path class="cls-46" d="M66.4,138.4c1.2,0,1.7,1.9.7,2.6-1.3-.9-3.9-3.2-4.8-4.4-1,.5-1.5-.8-.7-1.5-.4-.8-.5-1.4-.7-2.2-.2-.8-.3-1.1-.4-1.9.6-3.5,3.7-4.4,6.3-6.3-.2,3.1-1.5,5.5-1.7,8.8-.2,3.3.3,2.7,1.3,4.9h0Z"/>
        <path class="cls-123" d="M154.5,10c.9-.4,2.2-.9,3.2-1.1,3.5-.5,11-.9,14.4-.4.4,0,2.1.6,3.3.8,1.6.3,3.8,1,5.3,1.1.7,0,.4-.7.7-.7.6,0,11.3,2.2,11.9,2.5.8.4.2,1,.7,1.2,2.1.9,6.3,1.4,8.7,2,1.6.4,3.3,1.1,4.8,1.7h-.7c-7.5-1.9-15.8-4.4-23.3-5.6-1.4-.6-3.2-.9-4.7-1.1-7.7-1-16.7-1.2-24.2-.4h0Z"/>
        <path class="cls-27" d="M218.2,29.6c0,.7-.4,1.4-.4,2,0,1,1.7,2.7,1,3.9-.2.3-3.9,1.5-4.6,1.5-.9,0-.6-.6-.6-1.3,0-3.3.6-6.9.9-10.2,3.3-2.2,3.5.6,3.5,3.3v.7h0Z"/>
        <path class="cls-32" d="M150.8,247.6c.3.7-.2,1.2-1.3,1.5l.2.7c-10.1,1.9-22.4-6.9-28.9-14.3l.4-.2c2.4,2,4.7,4.5,7.3,6.2,2.9,1.9,11.8,5.9,15.1,6.3,2.3.3,4.9,0,7.2-.3h0Z"/>
        <path class="cls-18" d="M79.4,67c2,.6,4.1.9,6.4,1l.6.8c.7-.4,1.1,1,.7,1.5.3.1.3.2,0,.4-3.2-1.2-9.5-3.2-12.6-1.7-2,1,.8,1.2,1.5,2.2,2.3,3.4-7.2,3.1-6.7.8.1-.5,1.9-.9,1.9-1.9l-1.5.2c1.2-1.6.7-.8,2.6-1.5,2.8-1,4.2-1.3,7-1.9h0Z"/>
        <path class="cls-29" d="M157.5,152.5l1.5-.2c4.4,2,8.9,3.6,13.4,4.8l.3-.5c.6.2,1.2.6,1.7.7,1.2.2,2.9-.5,3.5.8-.7.1-1.2.5-1.9.7-1,.3-1.3.5-2.6.7-.1.6-.7.7-.7,0l-4.1-.4-1,.5c-3.9-1.1-7-3.6-10-6.1v-1c-.1,0-.1,0-.1,0Z"/>
        <path class="cls-89" d="M62.4,136.6c-6,8-18.4,6.2-25.2.4,4.9,2.3,11.6,4.6,17.1,3.2,2.8-.7,5.2-3.2,7.4-5,.2.4.6,1.3.7,1.5h0Z"/>
        <path class="cls-56" d="M202.3,107c0,.8-.7,1.2-1.1,1.9-1,1.6-2.8,5.2-3.3,7-.9,1.5-3.2,0-3.5-1.6-.3-1.4,1.1-5.9,2-7,1.9-.2,4-.2,5.9-.4h0Z"/>
        <path class="cls-134" d="M222.7,59.6c1.4-.8,1.9.3,1.5,3.3,0,.2,0,.6,0,.7-.3,1.4-1.5,2.2-1.5,4.4-.1.3-.2.3-.4,0-.3-.6-1.1.4-1.5.7-3.1,5.6-3.8-.2-2-3.8-.1-1.7,2-5.4,3.9-5.5h0Z"/>
        <path class="cls-110" d="M176.4,214c-.5-.1-1.4-.2-1.7-.5,0,0-1.2-1.5-1.2-1.6,0-.3,4.5-3.7,5-3.9,1.2-.3.1,1.9,0,2.2-.2.3-2.5,2.3-1.1,2.6.7.1,5.5-.9,6.5-1.3,1.9-.8,3.2-2.3,4.8-3.5-1.1,2.3-1.6,3.3-4.1,4.7-2.7,1.5-5.1,2-8.2,1.3h0Z"/>
        <path class="cls-64" d="M62.7,54.8c3-2.4,5.1,1,5.8,3.7.2.7.6,1.3-.6,1.1-3.1-1.8-1.8.4-3.7.9-3.9,1.1-.4-4.1-1.5-5.7h0Z"/>
        <path class="cls-81" d="M73.5,154.7c-2.2-3.8-3.5-8-5.2-12-.3-.6-.8-1.2-1.1-1.7s-.4-1.8-.7-2.6c-.2-1.2.9-.8,1.5-.6,2.3,1.2,2.4,6.9,3.1,9.1.7,2.5,1.6,5.3,2.5,7.7h0Z"/>
        <path class="cls-7" d="M154.9,245.4c2.5-.7,4,.4,1.5,2.2-2,.9-4.5,1.8-6.7,2.2h-1.5c0-1.3,1.6-1.6,2.6-2.2,1.3-.8,2.5-2,4.1-2.2h0Z"/>
        <path class="cls-74" d="M171.2,237.3l-1.5-.7c.7-.9,3.1-4.6,3.7-5,.7-.4,1.5.5,2.2,0,.2-.1,1.5-2.3,1.9-2.8.7.4-.1,1.6-.4,2-1.6,2.5-3.8,4.5-5.9,6.5h0Z"/>
        <path class="cls-58" d="M114.9,225.4c-.4-.8-1.4-1.5-1.9-2.2-.3-.6-1.5-2.8-1.1-3.3,1.8-1,4.8,0,4.4,2.4,0,.1-.9,2.7-.9,2.8-.1.3-.5.3-.6.4h0Z"/>
        <path class="cls-125" d="M165.3,240.6c.5.2.3.9-.4,1.9-2.7,1.9-5.5,3.8-8.5,5.2,1.2-1.7.6-2.5-1.5-2.2,1.5-.5,2.7-.5,4.3-1,1.5-.5,4.8-2.8,6-3.8h0Z"/>
        <path class="cls-44" d="M69,61.1c.9,2.2,1.5,4.6,3,6.5,0,.3-.5.2-.7.2-1.1,0-1,.2-1.9.4-1.7-.5-3.2-5.7-1.5-6.7.4,0,.8-.2,1.1-.4Z"/>
        <path class="cls-121" d="M85.7,66.6c.6.5,1.4,1.6.7,2.2l-6.1-.7-.9-1.1c2-.4,4-.7,5.9-1.1,0,.1.3.4.4.7h0Z"/>
        <path class="cls-6" d="M169.7,236.5c1.1-.6,1.8-.6,1.5.7-2.2,2-3.9,3.4-6.3,5.2l-.4-.2.7-1.7c1.4-1,3.2-3.4,4.4-4.1h0Z"/>
        <path class="cls-87" d="M224.9,59.2c-1.3,1.8-1.3-.4-.7-1.9-.6,0-.4-.4,0-.7.4-1.8,2.2-3.4,2.2-5.2.2,3.4-.7,4.6-1.5,7.8Z"/>
        <path class="cls-106" d="M207.5,17c1.8.5,3.4,1.2,5.1,1.7s2.4-.1,4.1,1.6l-3.7-.6-6.3-2.8c.2,0,.5,0,.7,0h0Z"/>
        <path class="cls-105" d="M52,92.9c-1-1.1-1-3.1-1.1-4.6,0-.7.3-1.7.3-2.4.2,0,.7.5,1.1.4l.4-1.1c-.7,2.4-.8,5.3-.7,7.8h0Z"/>
        <path class="cls-67" d="M114.6,45.5c-.7,3.8,1.3,3.9,3,6.3.7-.3.8.2.4.7-1.3,1.6-4.8-3-4.4-4.4-.9-.6-.6-.9.4-1.1,0-.3,0-.8,0-1.1.1,0,.5-.4.7-.4h0Z"/>
        <path class="cls-5" d="M224.1,57.4c0,.6,0,1.2,0,1.9h.7c-.3,1.1-.3,2.6-.7,3.7,0,0-.3-.3-.3-.6-.1-1.4.6-2.4-1.1-2.7-.2-.7.8-1.8,1.5-2.2Z"/>
        <path class="cls-23" d="M239.3,85.9c.4.3.2,1,0,1.5-.2,1.6-1,2.2-1.5,3.3l-.4-.4c-.8-.6-.4-3.4.7-3.3-.1-.9,0-1.2.4-1.1h.7Z"/>
        <path class="cls-31" d="M239.3,87.4c0-.5,0-1,0-1.5.1-2,0-4,0-5.9.4,2,.4,3.3.4,5.4,0,.6.2,1.6-.4,2Z"/>
        <path class="cls-100" d="M108,184.2c1.1.9,2.9-.4,3.8,3.1.6,2.5-1.4,3.7-1.3,4.2.1.7,2,1.3,1.8,3.3-.3,2.6-3.1,1.9-4.1,2.6s-2,7.3-5.7,1.6c-1.6-2.5-1.6-4.2-2.2-6.7-.2-1-1.3-2-1.4-3.1,0-.9.4-1.7.4-2.6,0-1.9-1.5-6,1.3-6.5,2-.4,2.8,1,3.3,1,1.1,0,1.1-1.6,2.9.9.4.6.8,1.9,1,2.1h0Z"/>
        <path class="cls-73" d="M106.4,206.2c2.7-3.6,4.1,4.1,4.4,4.3.6.5,2-.9,2.3.7,0,.2,0,3.1,0,3.2-.6,3.2-4.2,3.4-5.7.2-.3-.6-.1-1-.2-1.5l-.4-2.2c-.2-.7-.2-1.2-.4-1.9-.3-1-.3-2,0-3h0Z"/>
        <path class="cls-133" d="M149.4,163.2l.3.8c-2.4,2.1-3.9,4.8-4.7,8.1.7-.1.9.2.4.7-.2.1-.7.2-1.1.4-.4-.7-1.3-.2-1.9-.2-1.6.1-3.2.1-4.8.6-.2-1.3,1.6-1.3,2-1.9.5-.6.4-2.3.7-3.1.2-.5.6-.6.6-.6.8.7,1.3.7,1.7,0,1.3-2.6,3.8-4.1,6.4-5.1,0,0,.2.1.4.3h0Z"/>
        <path class="cls-117" d="M144.9,172.1c.3-2,2.3-5.8,4.5-5.7l2.5-4.4c.8-1.2,2.8-3.5,3-1l.4.3c-.5.9-.9,1.8-1.2,2.7-2.5,3.1-5.4,7-8.9,8.9-.1-.3-.3-.5-.4-.7h0Z"/>
        <path class="cls-61" d="M138.3,175.5c-.2.9.5.8,1,1,4.1,2.2,10.4,4.8,11.6,9.3-1.2-.6-1.4-1.8-2.5-2.5-3.3-2.5-8.9-4.1-12.3-6.7,0,0-.1-.5,0-.7,0,0,1.5-.2,2.2-.4h0Z"/>
        <path class="cls-144" d="M156.8,160.6c-.9,1.1-1.7,2.2-2.6,3.3-.6-.4.4-2.1.7-3-.9-.6-.6-1.2.4-1.5.8.2,1.3,1,1.5,1.1h0Z"/>
        <path class="cls-75" d="M118.3,227.3l-.2,1.9c-1.1-.9-1.6-2.2.2-1.9Z"/>
        <path class="cls-92" d="M106.4,209.1c-.2-1-.9-1.7,0-3v3Z"/>
        <path class="cls-92" d="M107.2,213.2c-.2-.7-.7-1.3-.4-2.2.2.6.7,1.3.4,2.2Z"/>
        <path class="cls-72" d="M143.4,141.8c.8-.3,1.8-.3,3,0,.6.3,1.1.9,1.7,1,2,.4,9.7-.3,12-.8,3.8-.7,9.4-3.5,13.4-2.5,1,.2.3,2.6,0,3.2-1.6,3.1-6.1,2-2.3,6.6,4.8,5.8,16.7,5.5,23.4,3.8,2.2-.6,7.3-1.9,7-4.7.2,1.8,2,4,.2,5.6-4.5,3.8-14,4.4-19.6,3.7-5.1-.6-8.2-3.9-12.4-5.9-.7-1.2-6-5.4-3.8-6.7,1.5-.9,5.6-1.1,5.7-4-.8,0-1.5,0-2.3.1-5.4.7-11.5,3.1-16.8,3.6-4.1.4-8.2,0-12.6.4-5.7.4-8.7-2.1-12.4-5.9-1,.6-3-1.7-2.2-2.6l-1.1-1.5c-.5.5-.7.3-.4-.4-1.8-1.2-2.4-2.4-1.9-3.7,1.8,2.6,6.1,6.9,9,8.2,3.4,1.6,8.7,2.2,12.5,2.5h0Z"/>
        <path class="cls-68" d="M117.2,120.7v.6c0,.3.3.1.4.2,1.4,5,2.9,10.2,5.2,14.8h.5c3.9,4.7,8.1,9.6,13.4,13.2l-.2.9c-.7,0-1.4,0-2-.2l-8.8-4.5c-4.8.2-6.6-.6-9.5-4.4l-4-6.5c-1.2-.2-1.6-2.8-1.8-4.2l-.8-1.8c-.3-1.9-.9-3.6-.7-5.6-.9-1.2-.4-3.3.7-4.1,0-.2.2-.3.3-.4.3-.2,6.2.9,7,1.2l.5.8h0Z"/>
        <path class="cls-22" d="M233,95.5c-12,10.8-38.7,12.5-54.2,10.7-9.8-1.1-18.8-4.1-28.3-5.9-.2,0-.5,0-.7,0-1,.8-2.3.2-2.2-1.1-15.5-5.2-31-10.9-45.8-18.1-2.2-1.2-4.3-2.5-6.3-3.9-.3-.2-.4-.5-.5-.9l.3-.2c40.9,18.9,91.8,40.2,135.9,19.6h1.8c0-.1,0-.1,0-.1Z"/>
        <path class="cls-155" d="M147.5,99.2c.7.3,1.3.9,2.2,1.1-2,1.8-3.8,5.3-5.7,6.9-1.3,1.2-4.7,3.7-6.4,4.9-5.9,4.4-12.9,8.6-20.5,8.5-1.7,0-5.8-1.1-7.8-1.5-.3,1-.8,1-1.1,0-1.9.8-5.3-.3-6.7-1.9-1.3.3-2.2,0-2.6-.7-.6.9-1.6.7-1.9-.4-.5.8-.8.7-.7-.4-1.1.8-4.1-.4-4.1-1.9-1.9,0-5.6-2.1-5.2-4.1l1.6.2c14.3,8.1,34.5,12.5,47.6.1,3.7-3.5,7.1-7.2,10.4-11h.8Z"/>
        <path class="cls-91" d="M196.4,107.3c.3,3.4-4.1,8.2,1.5,8.5-.1.4.2,1.1,0,1.4-.2.3-4.3,1.9-5,1.9-3.1,0-.4-4.8-4.1-5.5-1.9-.4-2.3-.3-2.8,1.5l-.7-.5c-.2-1.1-.4-2.2-.8-3.2.7.1.9-.6,1.1-.7,0-2,3-2.9,4.8-3,1.7-.2,4.1-.2,5.9-.4h0Z"/>
        <path class="cls-15" d="M147.9,124c-.4.8-1.1,1.6-2,2.3,1.2,1.4,2.1,3,2.8,4.7,0,.7-.7,2.3-1.4,2.5-1.2.4-1.9-.6-2.6-.6-.5,0-1.6,1-3.3.7-.9-.2-2.3-2.9-2.4-3.9-.2-2.8,1.7-2.5,2.1-3.8.4-1.2,0-3.7,1-4.5,1.8-1.3,5.4.5,5.7,2.6h0Z"/>
        <path class="cls-129" d="M190.5,107.7c-1.7.2-3.3,1.9-4.8,3-1.8-2.7-4.8-2.1-7.6-2.6l.6.7-2.2-.4c1,1.6-1.4.6-1.8.8,0,0-.1.6-.3.7-3.7,1.8-7.5,3.8-10.1,7-.1-1,.4-1.5.9-2.2,1.9-2.5,6.3-4.9,8.7-7.2.5-.4.9-.7.4-1.3,5.4.7,10.8,1.3,16.3,1.5h0Z"/>
        <path class="cls-101" d="M184.5,111.4c1.3.4,1.6,2.5,1.5,3.7,0,.8-.5,1.5-.7,2.2l-2.8,4.1c-.4.6-.8.8-1.2.7-.2,0-.3-.1-.5-.2-.1,0,.1-2.1.2-2.6,0-.2.1-.3.3-.5l.4-.7c1.6-.3,2.3-1.7,1.5-3-.5-.9.9-.6.7-.4-3.4-.2-5.4,3.4-6.2,6.3l-.8.4c-1.1,1.3-3.4,2.1-2.6-.4,1.4-3.8,5.5-10.9,10.4-9.6h0Z"/>
        <path class="cls-88" d="M122,131l1.9,3.7c-.4.4-.8.9-1.1,1.5-.6-.3-.9-.7-1.2-1.2-2.1-3.9-4-9.2-4-13.6,0,0,.4-.6.4-.2,1.1,3.2,2.2,7.1,4.1,9.8h0Z"/>
        <path class="cls-62" d="M174.2,121v1.1c.8-.5,1.6-.9,2.6-.7.5.3.9.9.9,1.6.7.1,1.2.4,1.3.9.1-.1.2-.1.4,0-3.9,1.8-7.3,3-5.2-3h0Z"/>
        <path class="cls-49" d="M146.4,141.8c-.3,1.3-2.5.5-3,0,0,0-1.1-2.2-1.1-2.3.1-.6,1.7-1.7,2.4-1.7,1.2,0,1.9,3,1.6,4.1h0Z"/>
        <path class="cls-65" d="M148.6,131c-1.7-3.3-6.6-4.6-.7-7,.2,1.2-.3,2.5-.3,3.5,0,1.2,1.1,2,1,3.6h0Z"/>
        <path class="cls-135" d="M179.3,124h-.4c-.8-1.1,1.1-2.4,2.2-1.9,1.7-1.6,1.8-3.9,4.1-4.8-1.4,3.8-2.3,5-5.9,6.7h0Z"/>
        <path class="cls-77" d="M77.9,104.8c.7.1.3,5.3.2,5.5-.3.6-1.7.8-2.3.6-6.2-3-13.4-8.5-18.9-12.7-.9-.7-1.8-1.4-2.6-2.2-.3.1-.5,0-.7-.4-.3-.7-1-1-1.1-2.2-.2-1.3.1-2.8,0-4.1h.9c5.1,3.1,9.6,7,14.6,10.3,2.2,1.5,5.8,3.8,8.1,4.8.7.3,1.3.5,2,.4h0Z"/>
        <path class="cls-118" d="M58.7,121.4c-1.9,0-3.2,1.4-4,3.1l-.8.3c-1.9-.2-3,1.3-4.8-.5-1.9-1.9-.5-3.7-.8-4.8-.1-.4-1.2-.7-1.5-1.4-1-2.1.6-4.9,2.3-6,1-.6,2.6-.6,3.2-1,.5-.4.7-1.7,1.7-2.2,2.7-1.3,2.3,1.9,3.1,3.1.5.7,2.8,1.3,3.1,3.2.6,3.3-1.2,4-1.5,6.5h0Z"/>
        <path class="cls-81" d="M75.7,113.6c.9,1-1.4,4.4-2.6,3-2.8-2.5-4.3,2-6.4,3.4-1.7,1.2-3.8,2-5.8,1.4,1-4.7,3.3-9.7,5.9-13.7.3,0,.5-.1.7,0,.6,0,6.6,4,7.6,4.8l.6,1.2h0Z"/>
        <path class="cls-78" d="M54.2,95.9c4.3,3.4,8.7,6.8,13.2,9.9,2,1.4,7.9,5.4,9.8,6,.4.1.7,0,1.2-.2,2.2,2.5,3.7,3.6,7.1,4.4,3.7.9,7.3.8,10.8-.2.3,0,.5.3.7.4,1.1.6.9,1.3-.7,2.2-1.5,3.3-7.2,3.1-10.4,2-1.5-.5-4.9-2.6-6.1-3.6l-.2-1c-1.4.5-3.9-.8-4.1-2.2-2.8-1.8-6.1-4-8.9-5.9-4.5-3.2-11.1-7.3-13.3-12.2.2.1.5.2.7.4h0Z"/>
        <path class="cls-40" d="M45.6,128.3c-.8,1.5-.2.8-.3,2.1-.3,2.7-1.1,1.7-2.2,2.2-1,.4-1.6,2-2.8.4-.7-.8-.6-2.3-.9-2.6-.4-.5-2.6-.5-2.5-2.8,0-1.9,1.4-2.4,2.6-3.4.7-.6.6-1.7,2-1.7.2,0,3.6,1,3.7,1.1,1.4,1.3,1.3,3.2.4,4.7h0Z"/>
        <path class="cls-50" d="M53.9,124.7c-.2-1.2,3.8-5.5,4.8-3.3-.1,1.1.2,2.5,0,3.5-.4,2.1-4.6,1.2-4.8-.2Z"/>
        <path class="cls-161" d="M37.2,132.5c-.3.5-.6,1.2-.7,1.9-2,.3-2.2-.7-3.3-1.9-.6-.9-.7-1.8-.4-2.6.1,0,2-.7,2.2-.6.2,0,2,2.7,2.2,3.2h0Z"/>
        <path class="cls-60" d="M31.6,130.7l-.2.4c-.7-.7-1.5-1.4-1.7-2.4l.4-.2c.6.7,1,1.6,1.5,2.2h0Z"/>
        <path class="cls-92" d="M33.1,132.5c-.7-.7-.7-.9-1.1-1.5.3-.3.4-.9.7-1.1l.4,2.6Z"/>
        <path class="cls-81" d="M60.2,129.2c0-1.3-.2-3.4.4-4.4,0,1.4.4,3.3-.4,4.4Z"/>
        <path class="cls-89" d="M37.2,132.5c0,0,.4.1.4.5,0,.2-.5.2-.7.5-.1.2,0,.7,0,.8,0,0-.2,0-.4,0-.1-.9-.1-1.5.7-1.9h0Z"/>
        <path class="cls-95" d="M164.5,32.2c2-2.8,3.4-3.8,7-3.5,1.2,0,10.9,1.8,11.3,2.2.8.7.7,1.7-.5,2.9v1.4c-2.4,2.4-15.3,18.8-14,20.5,2.8-4.7,5.9-9.2,9.2-13.6h1.1c.8-1.4,1.8-2.6,2.8-3.7,3-3.1,3.5-3.3,7.8-2.5,4.8.9,5.8,1.4,4.2,6.7,2.4,1.9,1.6,3.9.2,6.2-5.4,7.4-9.3,15.8-11.7,24.5l.7.9c.2,0,.3.2.4.4-.6,1.1-2.9.8-3.3-.4,0-.3-.2-.7-.2-1s0-.7,0-1c2.6-7.8,6.3-15,10.3-21.9.8-1.6-.8-1-1.7-.5-9.4,5.1-13.2,12.8-16.8,22.4l-2-.2c-.5.9-2.2.8-2.2-.4-.3-1.8,1.1-3.8,1.7-5.5s2.2-6.9,1.1-8.1c-1-1.1-1.6,1.2-2.5,1.1-2-.3.3-3.6-1.4-5l-10.4-4.4c-1.3-.6-2.8.7-3.6,1.6-.7-.2-.7-.6,0-.7-.1-.1-.2-.3-.2-.4-.1-.7.4-1.8.8-2.4,1-2,9.9-15,11-15.3.4-.1.7-.1,1,0h0Z"/>
        <path class="cls-128" d="M174.9,20.7c0-.3.5-.2.7,0-1.3,1.5-2.9,2.8-4.9,3.9-5.5,4.2-8.6,8.3-12.7,13.7-2.4,3.2-5.7,8.1-6,12,0,.2,0,.5,0,.7-.4.5-.8.9-1.1,1.5-1,1-1.6-.3-1.1-1.5.4-2.1,1.6-5.4,1.8-7.3,0-.6,0-.8-.3-1.3-.7-1.3-3.2-4.4-4.4-5.2-2.1-1.4-4.5-2.4-7-2.1v-1c-.1,0,3.1-5.2,3.1-5.2v-.5c1.4-.8,1.8,0,3.2-.1,1.2-.2,5.7-2.2,6.5-3.2,1.1-1.3.4-3.7-1.5-3.4-.8.1-1.9,2-2.4.6-.2-.6,2-1.5,2.2-2.2.4-.3,1-.6,1.5-.7,2.2-.4,10.4,0,13.1.1,3.1.2,6.4.7,9.4,1.1h0Z"/>
        <path class="cls-71" d="M163.4,15.2c-1.2-.9-2.9-.2-4.2-.1l-3.2-1c17.8-.6,35.4,4.9,51.4,12.1,1.4.5,3.4-2.7,4.5-2,.4.3.1,1.7,1.8.6,0,1.2-1.1,10.6-1.5,11.3-.6.9-5.1,2.2-6.6,3-5.8,3.1-13,11-16.1,16.8s-5.4,12-6.8,18.1c-.5,0-1,0-1.5,0-.6-.7,2.9-9.6,3.5-11.1,2.5-6.1,6.2-10.3,8.8-15.7,2.1-4.4-.6-2.9-.8-4.9-.1-1.3,1.5-3,.4-4.7-.5-.7-6.9-1.8-7.8-1.6-2,.4-5.3,4.2-6.7,5.8-.3-1.5.4-2.9,2-4.4,1.3-1.6,3.8-4.4,5.7-4.5l2.2-1.6c4.8-.2,9.6.3,14.4,1.5,1.5,1,5.1-2.5,4.8-3.3,0-.3-3.1-1.7-3.7-1.9-.2-1.3-1.4-2.2-3.4-2.6v-.5c-3-.9-5.7-2-8.3-3.1.4,1.6-2.4.7-1.9,0-7-1.1-13.9-2.6-20.8-4.6-2.3-.2-4.4-.8-6.2-1.7h0Z"/>
        <path class="cls-86" d="M117.9,52.6c.1-.3.2-.3.4,0,3.9,2.8,6.1,3.6,10.4,5.6.7-.7.9-.6.7.4,2.6,1.2,4.7,1.9,7.4,3,1-.8,3.4.2,3.7,1.5.7-.9,1.4-.3,1.5.7l.8.7c1.5,3.6,4.4,6.4,7.7,8.4,1,.8,2.2,2.1.7,2.7-7.4-2.5-14.9-5.1-22.2-7.8-.5-.4-1.2-.6-1.9-.7-.6-.2-1.2-.5-1.9-.7-3.1.2-6.6-2.1-8.9-4.1-.5-.3-.6-1.2-2.2-1.5l-3.6-3.5-.9-2.8c-1.1-.5-.4-2,.2-2.8.7-1.1,2.4-3.4,3.5-3.5,1.1,1.2,2,2.9,3.3,3.9.5.4,1,.4,1.1.5h0Z"/>
        <path class="cls-120" d="M165.7,71.1c.5.1,1,.2,1.5.4.9.2,1.6.2,2.2.4,2-.4,3.3,0,4.1,1.1,1.6-1.1,4.1.2,5.6,1.1,0-.3.2-.3.4,0,2.6.2.8,3.7-.2,5.2-1.1,1.8-2.2,2.2-4.3,2.2-1.7.2-3.4,0-5.2-.4-1.5-.3-3-.7-4.4-1.1-1.1,0-2.1-.2-3-.7-.5-.1-1.1-.1-1.9-.4-.7-.2-1.8-1-2.2-1.1l.4-.8c2.8-.6,4-3.5,4.7-6l.8-.3c.1-.3.2-.3.4,0,.5-.8.9-.7,1.1.4h0Z"/>
        <path class="cls-47" d="M136.8,61.4c.5-1.1,1.2-2.2,1.6-3.4.3-1,0-2.2.4-2.9.8-1.6,7-3.4,8.6-2.3.6.4.6,2,1.5,2.2s1.2-.8,1.9-1c1.5-.5,9.1,1.3,10.9,1.9.5.1,3.4,1.3,3.5,1.5.3.4.3,1.6.6,2.2.4.8,1.4,1.6,1.6,2.5.5,2.3-2.3,6.4-1.7,8.9-.4-.1-.8-.3-1.1-.4l-.7-.6c1.7-6,2.1-10.3-5.1-11.8-3.7-1.1-7.5-1.5-11.1-.1-1.9-1.3-2.9-1.6-4.3.4l-1.9,4.2-.9.2c-1.3-.5-2.6-1-3.7-1.5h0Z"/>
        <path class="cls-96" d="M130.8,35.6c4-.7,4,.2,6.8,1.9,1.5.9,3.6.3,2.9,3.6-.3,1.3-3.4,3.9-4.5,4.4-1,.4-2,.2-2.9.7-1.7,1-1.5,3.7-5.1,2.8-4.7-1.1-3.8-12.4,3-13.5h0Z"/>
        <path class="cls-8" d="M163.4,15.2c9.4.5,18.9,5.5,27,6.3l.2.5c-1,0-2.1-.1-3.2-.5,0,.3-.2.3-.4,0-11.4-2.1-22.3-3.9-33.6-3.2-1.9,0-7.6-.1-4.1-2,3.8-.7,10.2-1.3,14.1-1.1h0Z"/>
        <path class="cls-26" d="M149.4,16.3c-.6.4-1.2.6,0,1,4.5,1.5,13.6.2,18.8.4,6.4,1,12.8,2,19,3.7l-1.3.4c-3.7-.3-7.3-.8-10.9-1.5-2.1-.2-5-1.3-7.2-1.5-6.2-.5-15.6-.6-21.8,0-3.1.3-6.1,1.5-9.1,2.2.8-1.1,2.8-1.9,4.1-2.4,2.6-1.1,5.7-1.9,8.5-2.4h0Z"/>
        <path class="cls-38" d="M146.8,23.7c-.2,2.2-2.1,2.7-3.6,4l-15.2,6c-1.5,0-1.8-1-1.2-2.3,1.7-3.3,10.7-6.8,14.3-7.5,1.9-.4,3.8-.8,5.6,0h0Z"/>
        <path class="cls-26" d="M209,22.9c.7.7-.9,1.7-1.7,1.8-1.7.2-9.1-3.1-11.1-4-.6-.3-2.2-.7-2-1.5l14.8,3.7h0Z"/>
        <path class="cls-53" d="M167.1,12.2c.2,1.1-.6.7-1.3.7-3.4.1-7-.3-10.3,0-2.5.2-6.3,1.8-8.6,1.8-.3,0-1.2-.4-.7-.7h2.8l-1.5-.7c4.2-1.2,9.8-3.2,14.3-2.6.5,0,1.2.3.5.7h-5.3s-5,1.5-5,1.5c4.8-.8,9.6-.9,14.4-.7.2,0,.5,0,.7,0h0Z"/>
        <path class="cls-148" d="M187.1,21.5c.1,0,.2,0,.4,0l2.2.5c1.5,0,3.8.6,4.9,1.7-1.6.8-2.9.5-4.5,0-3.5-.4-7-1-10.5-1.5-.3,0-.7-.2-1-.4s-.7-.4-1-.7c-1.2.5-1.8.4-1.9-.4-.2,0-.5,0-.7,0v-.4c4.1.3,8,.7,12.2,1.1h0Z"/>
        <path class="cls-151" d="M131.2,50c2.1-2.6,1.7,1,.7,2.6-.4,1.4-1.1,3.4-1.6,4.9-.2.6-.2,1.2-1,1-.3-.1-.5-.3-.7-.4-.3-.8.2-2.3.5-3,.3-.9.7-2.1,1-2.9.4-1.1.6-1.3,1.1-2.2h0Z"/>
        <path class="cls-82" d="M139.7,35.2c-.6.7-1.5,1.3-2.2.6,1.3-1.9,3-6.2,5.2-7.2.6,0,1.3.1.7.9-1.3,1.8-2.3,4.1-3.7,5.7h0Z"/>
        <path class="cls-45" d="M132,52.6c.1-.5.5-2.8.4-3l-1.1.4c.3-.4.2-1.6,1-1.8,2.2-.7.6,3.7-.2,4.4Z"/>
        <path class="cls-95" d="M149.7,51.1c-.2,1.1.2,1.2,1.1,1.5-.3.5.5,1-1.5.7-.3-.9.2-1.6.4-2.2Z"/>
        <path class="cls-20" d="M192.7,74.4c3.7-.5,7.4-2.8,9.6-5.7,3.4-4.4.6-8.2,2.9-12.3.5-.9,5.8-5.7,6.6-6,1-.4.3,1.3.2,1.5-.2.4-.5.7-.7,1.5-.3,1.5-.5,3-.7,4.4.3.6.3,1.5,0,2.2v.7c.7,1.8,1,3.8.7,6,.3,1.8.2,3.4-.4,4.8l.9,1.5c.2,2.1,1.1,3.5,2.4,4.8l1.1.2c1.5-.5,1.1,1.2-.3,1.3,0,.1-.3.2-.4.4-.5.7-2.2,1-3,.7-.3,0-.2,1.2-1.3.4l.2.7-1.7-.4.2.7-1.9-.4.4.7c-2.3-1.1-2.2.5-3.2.7-.3,0-.1-.7-.2-.7-.7-.6-.7.6-.8.6-.9.6-6-.4-7.3-.6-2-.8-3.5-5-3.9-7.1l.5-.7h0Z"/>
        <path class="cls-145" d="M183.1,74.4c2.6.1,7.2.3,9.6,0l1.4,4.3,1.9,3.4c-3.9-.6-10.6.4-15.5,0-2,0-3.9-.2-5.6-.7,1-.4,2.6-1.3,3.3-2.1.6-.8,2.9-4.8,1.2-5.3,0-.3.2-.3.4,0,1.1.1,2.1.3,3.3.4Z"/>
        <path class="cls-4" d="M192.7,71.8c-1.7-4.6,4.7-6.8,4.4-11.1,1.6,1.2,5.4,1.6,4.2,4.3-3,2.7-3.9,7-8.6,6.8h0Z"/>
        <path class="cls-132" d="M216.6,37.8c1-.2,1.8,0,2.5.7.7,2.2-5.9,6.7-7.1,6.6-2.2-.2,1.6-6.8,4.5-7.3Z"/>
        <path class="cls-70" d="M199.3,55.5c-.2.1-.3,2.2-1.5,1.8,0-.7-.5-1.7-.4-2.3,0-.3.7-.2.8-.4,0-1.4-.6-1.6.5-3.5,1.5-2.7,1.8,0,2.8.6.7.4,2.4-.6,2.2,1.9,0,.8-1.4,2.6-2.2,2.7-.8.2-1.7-1.1-2.3-.7h0Z"/>
        <path class="cls-92" d="M221.1,36c.3.4.6.8.5,1.4l-1.5-1.3c-.3-1,.9-.2,1,0h0Z"/>
        <path class="cls-127" d="M103.5,82.5l.5.9c-3.3,3-3.6,12.9,1.5,4.3,1.6-.4,2.1-1.4,1.5-3l.6-.7c3.1,1.2,6.3,2.5,9.4,4l.6.8.3,1c-1.9,1.9-2.3,4.3-1,7.3-1.3,4.9-.4,8.5,2.7,10.8l.2.9h1.6c1.3-1.1,2.6-1.9,4-2.2.9,0,2.3.6,2.6,1.5,1.4-.8,2.6-1.9,3.3-3.3-1.4-1.1,1-3.6,2.2-2.2,1.9-1,3.1-2.3,3.7-3.9-1.1-1.5,0-2.4,1.1-1.6.2-.2.4-.6.6-.5,2.7.6,5.4,1.7,7.9,2.8.6.7,0,.8-.4,1.3-12.1,15.3-21.7,21.3-41.8,16.7-6.4-1.5-11.9-3.6-17.4-7.2-1.1.4-1.7-.8-.7-1.5-.3-.9-.5-1.8-.4-2.8,0-.3,1.1-2.9,1.2-3.1.1-.2,2.9-1.6,3.6-1.9v-.9c4.6-1.5,6.2-5.3,7.7-9.4l2.5-8.1.9-.4c.8-.4,1.3-.1,1.5.7h0Z"/>
        <path class="cls-116" d="M90.1,73.7h.6c3.4,2.8,7.1,5.4,11.1,7.5v.6c-1.5,5-3.1,13.3-7.3,16.9-1.1.9-2.5,1.3-3.7,2-1.5-.6-3.6-3.8-5-4-1.9-.2-3.7,2.6-4.4,2.5-1.1-.2-.1-1.8.2-2.2v-1.3c.6-.5,2.7-2.9,2.3-3.4-1.1-.3-1.5-1.2-.7-2.1,1.8.6,3.5.7,5.2.3l.6.6c.8,0,2.9.8,3.7.4,0,0-.3-.5-.1-.7.3-.6,1.3-.9,1.1-1.5l-14.3-11.7c-.3-.8,1.5-.6,1.4-1.8-.1-1.2-4.3-5.3-1.1-5.7,3.4-.5,7.1,3.5,10.5,3.6h0Z"/>
        <path class="cls-151" d="M81.6,97c.1-1.3-.8-2.2-1.7-2.9-5-4.7-12.3-7.2-17.2-11.3-3.7-3.1,1.4-2.3,2-3.1.5-.7-.3-2.5-.2-3.5.2-3.8,2,1.1,2.4,1.6,1.9,2.6,12.6,10.2,15.7,11.5.6-.9,3,.1,3,1.1.2,0,.5.4.9.3,1.1,0,1.8-1.9,2.4.4-1.9-.1-3.7.2-5.6-.4-.3,1.1.8.6,1.1,1.3.5,1.6-2.1,3.6-2.9,5h0Z"/>
        <path class="cls-124" d="M54.2,95.9c4.4,2.2,8.1,5.8,12.1,8.4,3.1,2.1,6.6,3.7,9.7,5.8.3.1,1.3,0,1.4-.3.1-.2.3-4.3.4-5.1,0-.2.4-1.1.6-1.1.8,0,.7.6.9,1.1,0,2,0,4,.2,6l3.1,1.3c3.4,1.4,6,1.6,9.6,1.9,1.4.8,2.6,1.3,4.1,1.9.2,1-.5.7-1.1.9-4.2,1.4-10.9.4-14.7-1.9-1.1-.7-1.3-1.8-2.1-2.7-.3-.1,0,.7-.4.8-.7.1-9-5.2-10.3-6-1.7-1.1-3.1-2.6-4.7-3.8-3-2.2-7-4-8.9-7.3h0Z"/>
        <path class="cls-24" d="M57.8,81.5c.6-.2,1-.1,1.6.1,1.4.6,4.9,3.5,6.6,4.5,3.5,2.2,8.5,4.5,11,7.8,2.8,3.7-2.1,2.4-4.1,1.6-2.6-1-14.5-7.7-16-9.5-1.2-1.4-.7-4.1,1-4.6h0Z"/>
        <path class="cls-94" d="M87.9,70.3c.2,0,.6.3.7.4.7-.9,1.6.2,1.1,1.1.9-.5,3.1,1.6,3,2.6.9.6,1.7,1.2,2.2,1.9,15.1,11,36,15.1,52.6,22.9-.2,0-.5,0-.7,0-1.1-.2-8.2-1.9-8.5-2.2-.6-.4-1.1-.4-1.1.5-3.8-.7-7.2-2.8-10.3-5-3.1,0-7.1-1.5-9.3-3.7-3.4-1.5-6.7-3.2-10-4.8-.7.9-4.4-.3-4.1-1.5-.5-.2-1-.5-1.5-.7-3.8-1.9-8.7-5.3-11.8-8.1-1-.9-2.3-1.9-3-3,0,0,0-.3,0-.4.1-1,.3-.9.7,0h0Z"/>
        <path class="cls-77" d="M86.4,108.4c.2.6.4,1,.7,1.5.9,1.4,3.7,3.2,5.2,4.1-1.7.4-3.5.6-5.3.3-.9-.1-7.5-2.5-8-3-.9-1-.5-5.3.3-6.6,0,.2,0,.6.2,1.1,1,1.9,5,2.1,6.8,2.6h0Z"/>
        <path class="cls-18" d="M71.4,78c-1.1-1.3-1.5-3.1.8-2.8,1.7.2,10.7,7.1,10.9,8.8.1,1.5-1.2,1.8-2.4,1.3-1-.4-8.4-6.3-9.2-7.2Z"/>
        <path class="cls-63" d="M81.5,100.4c1.6-.1,5.8,4.2,3.5,5.3-2.7,1.3-7.5-4.9-3.5-5.3Z"/>
        <path class="cls-3" d="M82.7,89.2c.7-.4.1-1.6.7-2.1.9-.7,3.4.4,3.4,1.5s-1.4.6-1.1,1.7c-1.4-.3-1.8-.6-3-1.1h0Z"/>
        <path class="cls-114" d="M62.7,76.2c.2,2.4-3,3.2-4.8,3.3-.8-.7,4.2-3.9,4.8-3.3Z"/>
        <path class="cls-81" d="M70.1,121l.8-.5c2.7,2.6,5.7,2,8.9-1.6l1.1-.2c2.7,2,5.6,3.7,8.6,4.9,1.2.5,1.9,1.4.7,2.3-11,3.4-7.6,9.1-1.2,15.4,2.3,3.3,2.6,5.8,2.7,9.8.3,2.9,1.9,5.1,4.7,6.8l.3.9c-.7,4.4,1.3,5.4,6,3-.2-1,.2-1.3,1.1-.7,1.6-1,3-2.3,2.7-4.3-1.7-5.1-.6-10,3.7-13.3.8-1.4-1.1-4.8-2.8-4.9-2.8.2-3.7-.6-2.9-2.5,1.5-2.6,3.8-7.5-.5-8.6l-6.2-1c-1.9-1.1-.5-2.3,1.3-2.3,2.6,0,5.1-.4,7.3-1.4,1-.8,2.4-1.4,1.8.3-4.2,3.1-2.2,2-.8,4.7,1,1.9.7,4.7,1.4,6.8.7,2.3,4.9,8,4.8,9.8,0,2-4.1,3.5-4.8,6.8-.6,2.6.6,5.9.2,7.5,0,.3-1.5.9-1.9,1.6-.4.6,0,1.4-.7,2,.1.4,0,.5-.4.4-.9.4-1,.1-.7-.7-1.1.1-1.7.5-1.9,1.1,1-.2,1.1,0,.4.7,1.6,1.2.8,2.3-2.3,3.3-2.1,1.2-1.9,1.3.4,1.5l.5.8c-3.3,1.6-6.6,3.2-10.4,3.7-.7-2.6,6.3-5.6,6.3-6.8,0-.3-.5-.1-.6-.3-.1-.3.3-.8-.4-1-.8-.2-2,0-2.9,0-2.3-.3-4.3-1.3-6.1-2.8-2.7-2.2-3.5-3.7-2.6-7.2.8-1.5,2.3-3.2,1.8-4.9-1.7-1.1-4.8-7-6-7.7-.2,0-.6,0-.6.2,1.4,2.5,4.5,4.7,4.8,7.6l1.1-.4c.6.8-2.8,5.4-3.5,6.3l-.2-1.5c-1.5.9-1.3,1.5-2.6.2-1.6-1.7-5.9-9.3-5.9-11.5s.9-5.3,1.2-5.8c.5-1.2,1.8,0,2.1-.3.2-.2-.6-2.4-.8-2.5-2-1.2-3.6,4.8-5,5.1-1.3.3-2.9-5.9-3.3-7-.6-1.6-2.2-3.1-2-5,0-.9,1.9-4.7,2.5-5.7.3-.5.7-.7.8-.8h0Z"/>
        <path class="cls-16" d="M96.4,118.4c.7-1,1.6-1.6,2.6-1.9.9.3,1.7.5,2.6.7l-.2.8-3.9,1.3c.9.4.9,1.2.6,2.1,0,.5,9.9,1.1,9.4-2.2l.8-.2c.3,0,.8,0,1.1,0-.1,1.4-.7,2.7-.7,4.1-.1,0-.3-.3-.4-.4,0,0,0-.4-.5-.3-.8.2-2,1.5-3.5,1.7-2.1.4-4.6.2-6.8.8,0,.5.7.5,1,.6,4.2,1.2,9.5-.5,8.6,6.2-.3,2.2-2.1,3.6-2.2,5.8,2.8-.2,4.1-.1,5.5,2.5,2.3,4.4-1.1,4-2.7,7.1-.4.9-1.1,3-1.2,4-.4,4.2,3.5,7.3-2.7,9.7-.3-.7,0-1.5,1.1-2.4-1.4-5.5-8.5,4.8-3,2.6l.7.5c-1.4,1-3.5,2.2-5.4,1.9-2.1-.4-.8-4-1.6-5.5-.3-.7-2.3-1.4-3.2-2.7-2.6-3.7-1-7.5-2.5-11.2-1.9-4.7-10.6-9.3-6.8-15,1.7-2.6,4.6-2.9,7.2-4.3-1.5-1.2-3.4-1.4-5.1-2.3-1.2-.7-3.8-3.3-4.7-3.3-1,0-4,4.7-8,3.4-1-.3-1.4-1.6-2.6-1.7.6-1,1.2-1.7,1.9-2.6.6-.8,1.3-.6,2.4.7,1.8.6,4.6-.9,4.7-2.9l.7-.4c4.6,2.7,6.1,5,12,4.4,2.4-.2,2.8-.9,4.6-1.8h0Z"/>
        <path class="cls-138" d="M146.8,156.2c.8-.6,4.1.5,4.4,1.5,1,1.6-2.9,2.2-4.2,2.4-5.2.7-8.3.4-13-1.3-.3,0-.4,0-.6.3-.8-.4-2.2-1-3-1.5-1-.6-2.7-1.9-3.7-2.6-1.1,0-2-.4-2.8-1.4-1.9-1.5-4.5-3.8-5.3-6,0-.1,0-.2,0-.4-.4-.5-.4-.9,0-1.1h1c4.4,4.6,11.5,10.6,18.2,10.3,2.8-1,6-.8,8.9-.3h0Z"/>
        <path class="cls-90" d="M126.8,155.1c-1.8.6-3.9,2.3-5.5,2.9-2.4.8-6.4.3-9,1.2.6-2.3,4.2-2.9,5.3-4.8.8-1.4.7-4.7,1-6.6,2.8,2.3,5.3,5.2,8.1,7.4h0Z"/>
        <path class="cls-39" d="M106.4,162.1c2.4-.2,4.6-2,7-1.7-2.3,1.1-4.9,2.3-7.4,2.8l2.6,2.4c0,.4-5.5,3.1-6.3,3.5-6.7-.2-1.2-3.4,1.9-4.1-1-.8-.4-1.4-.4-1.5.1-.8,1.5-1.6,2.2-1.1.1-.1.2-.2.4-.4h0Z"/>
        <path class="cls-51" d="M127.5,160.3c-.5.6-1.5.2-2.2.6-.7.3-1,1.5-2,1.6-1.5,0-3.5-.8-4.9-1s-3.5.5-4.2-.8c1.1-.1,2.3-1.3,3.3-1.5,3.1-.6,6.8-.3,9.8.6.1,0,.1.2.2.5h0Z"/>
        <path class="cls-143" d="M112,134.7c2,3.4,4.2,6.7,6.4,10l.3,1.5c0,.4,0,.7,0,1.1-5-5.2-7.9-11.5-9.3-18.5l1.1,1.7c-.2,1.9.8,2.7,1.5,4.2h0Z"/>
        <path class="cls-69" d="M121.2,163.2c0,.3,0,1,0,1.1-.3.3-7.1,1-8.1,1.1,0-1.2,1.4-1.4,2.2-1.7,2-.6,3.8-.6,5.9-.6Z"/>
        <path class="cls-157" d="M129.7,163.6c-.4,0-4.1-1.8-4.1-2,0-1.5,5.7.3,6.3,1.5s-1.9.6-2.2.6h0Z"/>
        <path class="cls-157" d="M126.8,159.2c2,.4,4.6,1.3,6.3,2.2,0,1.3-.2.5-.9.3-1.8-.7-2.8-1-4.7-1.4-2.8-.6-7.2-1.6-10-1.1,2.9-1,6.3-.6,9.3,0h0Z"/>
        <path class="cls-84" d="M79.8,115.9c.3,2.8-3.2,4.7-5.7,4-.8-.2-1.1-1.5-2.1-1.4.4-.6.8-1.4,1.1-1.9.1-.1.8-.2,1.1-.6.4-.5,1-1.8,1.5-2.4,1.3.8,2.8,1.4,4.1,2.2h0Z"/>
        <path class="cls-102" d="M127.1,71.1c1-.2,1.9.1,2.8.5,9.2,3.4,18.3,6.7,27.6,9.9.5-.4,1.9.1,2.2.7.7.2,1.3.4,1.9.7.1-.3.2-.3.4,0l2.2.7c.3-.6,1.2-.2,1.5.4l4.4,1.9c-.3.1-.6.3-.9.4-1.8.5-11-2.4-13.3-3.3l-1.3-1.2c-12.5-4.1-25-8.3-37.6-12.6,1.5.8,7.8,4.6,7.6,6.5,0,.3-.1.6-.4.8,13.5,5.9,27.5,10.7,41.9,14.3,7.5,2.5,14.9,4.5,22.5,6.2,1.5.5,2.6,1.5,1.4,2.9-.6.7-4.6,1.4-5,.4,0-.7.5-1.1,1.4-1.3-6.4-2.2-13.2-3.7-20.5-4.4-14.9-4.1-29.4-10.4-43.5-16.9-1-.4-7.1-3-7.4-3.3,0,0-.1-.7.2-.7.6,0,4.6,1.1,4.6-.2,0-1-16.2-9.8-16.3-11.5,0-.9,1.6-.3,2-.2,1.8.5,3.9,2,5.7,2.8,5.3,2.3,10.6,4.4,15.9,6.5h0Z"/>
        <path class="cls-113" d="M99,62.2l-.2.5c-9.1-2.7-7.5,1.6-.9,4.4.7-.8,1-.7,1.1.4,2.5,1.2,5.3,1.9,7.9,2.1l-.2.9c-2.1,0-1,.6,0,1.5-.1.2-.4.2-.7,0-.7.7-1,.7-1.1-.4-.4-.1-5.1-1.5-5.2-1.2,0,.2,3.1,2.7,3.5,2.9,6.2,3.9,14.4,6.1,21.5,7.9-.3-.4-.1-.7.2-1.1,3.9,1.8,7.6,4.1,11.5,5.7,2.8,1.2,20.1,6.7,20.7,7.6,0,.1,0,.9,0,1-.7,1.1-8.9-1.5-10.4-1.9-12.1-3.7-23.5-9.5-35.1-14.5-3.5-1.5-8.5-3.3-12-5.8-3.1-2.3-1.8-2.3-3.2-4.6-.7-1.1-7.7-4.1-5.2-6.3,1.4-1.2,6.4-.4,7.8.9h0Z"/>
        <path class="cls-34" d="M184.9,100.3c-.5.8-3.1.6-3.7,0-3.2-.2-6.4-.5-9.6-1.1-.5.5-1.6.4-1.5-.4-5.4-1.6-9.7-2.5-15.2-3.7,2.1-.1,3.9.6,5.9,0,.2-.8-.4-.9-.9-1.2-4.4-3-16.2-6.3-22-8.8-5.3-2.3-10.5-5-15.7-7.5,12.1,5.1,27.1,12,39.7,15.3,6.5,1.7,13.4,2.1,20,3.7,1.9.5,4.1.8,5.5,2.3,0,.5-2.1,1.2-2.6,1.3h0Z"/>
        <path class="cls-1" d="M99,62.2c2.8.8,10,5.1,12.4,7,.5.4,3,2.5,1.2,2.5-1.4,0-4.4-1-5.8-1.4,0,0-.3-.4-.7-.6-2.3-.7-5.3-1-7-2.4l.6-.6c6.9,2.2,8,2,3.5-.6-2.8-2-15-6.3-5.3,0v.9c-1.6,0-6.7-3.2-6.2-5,.4-1.4,6.2-.2,7.4.1h0Z"/>
        <path class="cls-1" d="M104.9,71.4c-.1.6-.6.8-1.6.4,4.3,2.6,9.1,4.6,13.9,5.9l-11-5.1-.2-.9c.2,0,.5,0,.7,0,3.6.6,14.1,6.3,18.1,8.1l1.1,1.8c-.7,0-1.3,0-1.9,0-5-.9-17.1-5.8-21.5-8.5-7.5-4.5-2.6-4.8,2.3-1.8h0Z"/>
        <path class="cls-85" d="M129.4,70.7c.5,0,1-.1,1.4,0,7.5,2.5,15.1,5.3,22.3,8.5.7.2,1.5.5,2.2.7,1.1.4,1.8.9,2.2,1.5-10.4-2.6-20.4-6.5-30.4-10.4l-1.5-1.5c1,.4,2.7.7,3.7,1.1h0Z"/>
        <path class="cls-25" d="M222.3,74.8c0,0-.5.5-.7,1.1-2.1.8-4.1,4.1-6.7,3.3.1-.3.8-1,.7-1.1-.7.2-1-.2-1.5-.4,1.2-.8,2.3-1.6,3.4-2.3l.7-.3c1.7-1.8,2.7-3.2,3.7-5.6.6,1.1,1.7,4.5.4,5.2h0Z"/>
        <path class="cls-9" d="M174.9,81.4c1.7.2,3.7.6,5.6.7h-5c-2-.2-3.8-.7-5.7-1.1,1.7,0,3.5.2,5.2.4h0Z"/>
        <path class="cls-25" d="M214.5,79.6c0,0,.1.5,0,.7-.4.4-2.1.2-2.7.8l-.2-.7c.9-.3,2-.4,3-.7h0Z"/>
        <path class="cls-111" d="M165.3,80c-1,0-2.3.2-3-.7.9.3,2,.5,3,.7Z"/>
        <path class="cls-104" d="M123.8,134.7c0,0,.2.3.4.4l1.1,1.5c.8,1,1.2,1.6,2.2,2.6,0,.7.5,1,.9,1.5,7.8,8.4,14.1,10,23,15.9,1.1.7,2.9,1.5,3.1,3,0,.4-.4.6-1,.6-1.1,1.9-2.5,2.9-4.1,3.1-1.2.7-3.3,1.7-4.3,2.6-1.3,1.1-1.8,3.5-3.7,3.7-1,.1-.4-1-.6-1.5.3-.7.2-.9.7-1.9,1.5-1.9,3.5-3.2,6.1-3.8.9-.4,2.2-1.3,2.8-2.1l-.2-.5c1.4-.8,1.7-1.5.9-2.1-2.1-.4-2.5-.4-4.4-1.5-3.7-.7-7.8-3.2-10.4-5.9-1-1.3-2.8-2-4.1-3.1-2.1-1.8-8.7-8.7-9.6-10.9-.2-.4-.5-2-.4-2.2.6-.1,1,.4,1.5.7h0Z"/>
        <path class="cls-112" d="M160.8,146.2h.9c1.9,2.4,4,4.8,6.3,6.9v.9c1,1.3,3.1,2.1,4.6,2.6,1,1.3,0,1.3-1.2,1-4.9-1.1-9.3-3.4-14-5.1-.8.7-1.4.3-1.1-.7-1.1-1.3-2.3-2.8-1.3-4.4,1.3-2.1,3.8-3,5.7-1.1h0Z"/>
        <path class="cls-66" d="M156.4,151.8c.4.3.8.5,1.1.7,4.2,3.2,5.5,5.1,11.1,6.7l4.1.4c.2,0,.5,0,.7,0,.2.9-.7,1-1.3,1.1-4.5.6-14.3-1-17.9-3.8-2.8-2.2-4.9-5.7.1-6.4.6.7,1.5,1,2.1,1.4h0Z"/>
        <path class="cls-79" d="M154.5,159.5c.2,0,.6,0,.7,0,0,.6-.2,1-.4,1.5l-1.1-.7c-1.1,1.6-2.7,5.5-3.9,6.7-.4.4-1.3-.2-1.7.5l-3.3,4.7c-.2-.4-.5-.4-.3-1.2,0-.4,2.2-5.1,2.4-5.4.3-.4,1.8-1.7,2.4-2.2,1.2-1.2,1.4-1.3,2.8-2.2,1-.7.7-1.4,2.4-1.5h0Z"/>
        <path class="cls-72" d="M167.5,151c.3.3.4,1,.9,1.5.7.8,2.8,1.5,2.2,2.6-.6-.7-1.8-.8-2.4-1.1-2.7-1.5-5.2-5.6-7.4-7.8.2-.4-.6-1.4-.2-1.5.5-.1,1.6,0,2,.2.5.3,2.9,4.2,3.7,5.2.4.4.9.7,1.1.9h0Z"/>
        <path class="cls-103" d="M150.5,160.3c-.6.9-1.9,2.1-3,1.5l-9.6-1.1c-1.6-.4-2.9-.8-4.4-1.5-.5-.5-.3-1.1.4-1,1,.3,2,1,3.5,1.3,3.8.6,7.6.4,11.3-.5.8-.2,2.2-.5,2.6-1.3.7.1,1.4.3,1.8.9,0,.3-2.1,1.4-2.6,1.7h0Z"/>
        <path class="cls-163" d="M150.5,160.3c.7.2-.4.9-.6,1.1-2.5,2.5-2.6,1.6-5.3,2.8-1.2.5-1.8,1.8-3,2,.1-.3.1-.8.4-1.2,1.7-2.4,3.4-2.1,5.5-3.2,1-.5,2-1,3-1.5h0Z"/>
        <path class="cls-150" d="M117.5,51.8c.4-3.5,1.8-6.8,3.2-10,.7-1.6,1.5-4,2.4-5.4.3-.6.7-1.4,1.5-1.3l-6.3,17.4c0,0-.3,0-.4,0-.1-.2-.2-.5-.4-.7h0Z"/>
        <path class="cls-30" d="M149,65.9c4.8.4,9.9,2.1,14.1,4.4.7-.8.9-.6,1.1.4-.8,3.1-2.3,6.7-5.9,7-2.3-.7-4.7-1.4-7-2.2.4-1.8-2.4-2.7-3.7-3.9-2.3-2-5.2-4.9-5.6-8,2.3-.4,5.5.5,7,2.2Z"/>
        <path class="cls-158" d="M125.3,66.2c.3,1.4,2.5,2.5,3.7,3.1,6.9,3.3,16,5.2,22.9,8.6.6.3,1.2.3,1.2,1.2-8.2-2.6-15.7-5.3-23.7-8.5-4.2-2.2-8.5-4.6-12.5-7.3-.5-.3-1.2-.5-.5-1.2,2.8,1.5,6,2.8,8.9,4.1h0Z"/>
        <path class="cls-31" d="M171.2,85.1c-1.9-.3-3.7-.7-5.6-1.1-.5-.1-1.1-.3-1.5-.4l-2.2-.7c-.1,0-.3,0-.4,0l-1.9-.7c-1.1-.2-1.2-.3-2.2-.7-.6-.3-1.6-1-2.2-1.5,3.7,1.2,7.4,2.4,11.1,3.5,1.7.5,3.6.3,4.8,1.7h0Z"/>
        <path class="cls-31" d="M178.6,86.6c-1.8-.3-3.9-.1-5.6-1.1,1.7.3,3.9.2,5.6,1.1Z"/>
        <path class="cls-158" d="M129,67.7c-.6-.2-1.3-.5-1.9-.7.7,0,1.5.1,1.9.7Z"/>
        <path class="cls-36" d="M222.7,68.1c0,2.5,1.3,5.3,1.5,7.8l-1.8-1.1c.3-1.4-.8-3.6-.4-5.2.2-.5.4-.9.4-1.5h.4,0Z"/>
        <path class="cls-141" d="M217.8,53.3c-.7,1.3-1.8,2.1-2.1,3.2-1.3,4.8-1.5,11.4.3,16,.6,3.5-4.9,1.5-5.2-1.1-.5-3.7-.4-7.1-.4-10.7.2.7.5,1.6,1.5.9s2.8-8.2,5.9-8.3h0Z"/>
        <path class="cls-10" d="M210.8,57.7c-.1.3-.2.3-.4,0,.2-2.1,0-2.3.7-4.4-.3,1.5-.3,2.9-.4,4.4h0Z"/>
        <path class="cls-141" d="M210.4,60c0-.7,0-1.5,0-2.2h.4c0,.7.3,1.8-.4,2.2Z"/>
        <path class="cls-154" d="M223,51.4l.5.7c-1.1.9-2.8,7.2-.6,4.5h.9s.4,0,.4,0c0,.2,0,.5,0,.7-.3,1.2-.9,1.5-1.5,2.2-2.6,3.1-5,6.9-4.4,11.1,1.4.3,1.8-1.2,2.6-1.9.9.3,0,1-.4,1.3-.8.9-2,2.5-2.8.9-.8-1.8.4-4.5.9-6.3-4.7.4-3.3-5.5-.6-7.4,1.6-1.1,2.3-.3,2.4-.4.3-.3.9-6,2.8-6.7.5.2,0,.8-.2,1.1h0Z"/>
        <path class="cls-52" d="M210.8,71.4c.8,1.1,4.6,3.8,5.2,1.1.1.3.4.6.6,1.1.5,1.2-.5,1.8,1.6,1.5-1.1,1.2-2,3.1-4.1,2.6-.2,0-.7,0-1.1-.2-1.7-1.2-2-4.2-2.2-6.1h0Z"/>
        <path class="cls-134" d="M223,51.4c1.3,0,1-.2,1.1.9,0,.7-.2,3.7-.4,4.3,0,.1-1.5,2.2-1.7,2.2-2.2-2.5-.3-5.1.9-7.4h0Z"/>
        <path class="cls-151" d="M154.5,81.8l-1.8.3c-8.4-2.5-16.8-5.2-25.1-7.9,4.7,3.8,12,6.7,18.4,9,12.3,4.3,26.1,8,38.8,9.8,7.2-1,14.8-1.4,22.4-1.7.4,0,.8,0,1.2.1s.8.2,1.2.4c.3.1.3.2,0,.4-5.9.4-11.6,1.2-17.2,2.6,9.9,4.2,22,3,32.2.3l.5.4-.4.7c-7.2,2.2-14.7,3.4-22.5,3.5-17.8,4.7-35.6,1-53.1-3.8-20.3-5.6-40.5-13.4-58.3-23.8l-1.1-.2c-.3-.3-1-1-1.1-1.1-.4-.9-.8-2.9.8-2.4.8.2,4.3,3.3,5.6,4.1,6.8,4.3,15.1,7.7,22.6,10.8,17,6.9,34.4,12.8,52.6,15.7.6.2.9.2,1.5.4,3.2.6,6.4.9,9.6,1.1,1.1,0,2.6.1,3.7,0,1.1.5,5.1-.3,4.8-1.7-.4-1.5-12.7-3.5-14.8-4.1-3.4-.9-6.4-2.3-9.7-3.2-14.5-4.2-29.1-8.2-42.9-14.7l1.5-.7c.4-.4-2.2-2.7-2.6-3.1-2.4-1.9-5.7-3-7.7-5.4h.6l40.5,14.4h0Z"/>
        <path class="cls-80" d="M87.9,70.3c-.2,0-.5,0-.7,0-.2-.4-.6-1.1-.7-1.5-.3-.8-.5-1.4-.7-2.2,1.5.2,1.8,2.5,2.2,3.7h0Z"/>
        <path class="cls-2" d="M67.9,61.4c-.3,2.5.6,4.5,1.5,6.7-1.2.2-3.5.8-4-1-.4-1.4,1.1-1.7,1.1-2.5s-2.7-3,.3-3.5c.6-.1,1,.3,1.2.3h0Z"/>
        <path class="cls-23" d="M92.7,74.4h1.6c25.7,12.5,54.3,23.7,82.9,27.2,13.2,1.6,28.8-.6,41.7-3.7,5.4-1.3,10.5-3,14.8-6.5,1.3-.9,3.9-1.7,2.6.4-1.2,1.7-1.8,2.3-3.3,3.7-5,2.7-9.9,4.8-15.5,6.2-33.8,8.7-67.7-2-98.9-14.5-6.9-2.8-14.2-6.1-20.7-9.6-.9-.5-1.9-1-3-1.3-.7-.5-1.6-1-2.2-1.9h0Z"/>
        <path class="cls-116" d="M225.2,95.5v-.5c2.8-.9,5.2-2.4,7.2-4.4h.9c.2-.3.5-.5.7-.3l2-3.8c.9-1.5,2.8-1.5,2.1.5-.3,1.2-.2,2.1-.7,3.3-.4.9-.8,1-1.1,1.5.1-1.1-.3-.8-1-.5-2.3,1-4.6,3.1-7.3,4.2-9.9,4.2-31.1,7.4-41.9,7.4-25.1,0-71-16.6-93.5-28.5-1.7-.9-1.8-1.5-3-2.6.4-1.2,1.5-.5,2.2-.2,3.4,1.4,7.3,4.4,10.9,6.2,21.7,10.7,62.4,24.8,86.3,23.2,4.6-.3,9.1-1.7,13.7-2.2,7.9-.9,14.7-.4,22.4-3.3h0Z"/>
        <path class="cls-54" d="M207.2,139.8c-1.2-1.2,1.7-4.3,3.4-4.3,3,0,1.9,6-1,5.5-.3,0-2.3-1-2.4-1.2h0Z"/>
        <path class="cls-116" d="M154.5,81.8c5.1,1.5,10.3,3.2,15.5,4.1,5.3,1,10.6,2.1,15.9,2.6,11.9,1.4,23.8,1.2,36-.7,2.6.4,1,2.1-.7,2.2l-4.9,1.1c0,.3-.2.3-.4,0-2,.8-4.2.8-6.3.7-5.9.6-12,.6-18,1.1-4,.3-5.5,1.3-9.9.6-6.3-.9-15.1-3.5-21.4-5.3-12.2-3.4-26.1-7.3-35.9-15.4,7.3.8,14.3,4.3,21.4,6.6,2.8.9,5.7,1.5,8.6,2.3h0Z"/>
        <path class="cls-23" d="M186,88.5c16.8,1.7,34.2,0,50-5.7.5-.2,1-.8,1.4-.9.3,0,1.5.7,1.6.9.3,1.1-.3,1.8-.4,2.3-.8.2-1.5.5-2.2.9l-2.2,4.2c-.2.1-.5.2-.7.4-.4-.6-.4-1.6,0-2.9-5.6,1.6-11.3,2.7-17.1,3.3,2-1.2,5.1-.8,6.7-2.6-7.1.1-14.2,1.2-21.3,1.3-5.1,0-10.8,0-15.7-1.3h0Z"/>
        <path class="cls-151" d="M238.6,85.1c0,.2,0,.5,0,.7,0,.6-.3.9-.4,1.1.2-.9-.5-1-1-.7-.6.4-1.5,3-3,4,.8-2.2,1.1-6.7,4.4-5.2h0Z"/>
        <path class="cls-98" d="M113.8,47c0,.2-.3.9-.4,1.1-1.2,2.8-3.2,2.7-3.7,6.3,0,0-.3.3-.4.6-.1,1.1.9,2.4-.9,3.2-.9.4-4.3-1.8-5-2.6-5.7-6.2,6.1-8.7,10.3-8.6h0Z"/>
        <path class="cls-88" d="M172.7,159.5c-1.9.2-2,.2-4.1-.4,1.3.2,3.1-.4,4.1.4Z"/>
        <path class="cls-88" d="M125.3,136.6c-.6-.3-1.1-.7-1.1-1.5.8.8.7,1,1.1,1.5Z"/>
        <path class="cls-57" d="M136.4,150.3c3.5,1.8,6.9,4.1,10.4,5.9-1.8.7-4.1.3-6.1.4-1.1,0-2.2.7-3.4.7-6.3,0-14.8-6.5-18.7-11.1-2.9-3.4-4.9-7.4-6.7-11.5,2.6,2.4,5.9,9.7,9.8,10,3.1.3,2.7-.7,6.2,1.2,2.8,1.5,5.6,2.9,8.4,4.4h0Z"/>
        <path class="cls-142" d="M108.3,119.2c-.4,1.6-1.2,2.9-2.9,3.2-1.3.2-8.3.2-9-.7-.8-1,2-.6,1.1-1.5-.1-.1-1.8.1-1.5-1.1l5.6-1.9c2.2.6,4.4,1.4,6.7,1.9h0Z"/>
        <path class="cls-124" d="M99,116.6c.1,1.2-1.8,1.4-2.6,1.9.6-.6.9-1.3.7-2.2.6.2,1.3.2,1.9.4h0Z"/>
        <path class="cls-109" d="M176.8,121.4c0-2.8,4.4-9.5,7.4-6.7-.4,0-.8.1-1.1.4.3,1-1.1,2.8-1.9,3.7,0,.2.5.6.6.9,0,.7-.5,1.7-.6,2.4-.7.6-1.7,1-2.2,1.9-2.1.2-2.3-.8-2.2-2.6h0Z"/>
        <path class="cls-97" d="M181.2,118.8c-.2-1.3.8-2.9,1.9-3.7,2.6.6,0,4.3-1.9,3.7Z"/>
        <path class="cls-136" d="M58.9,118.7c-.4.4-1.5.6-2.1,1-1.3,1-2.7,2.6-4,3.4-3,1.9-2.7-.6-1.7-2.8.4-1,5.1-7,5.7-7.3,1.6-.7,2.9,4.7,2,5.6h0Z"/>
        <path class="cls-14" d="M70.3,110.7c1-.2,1,1.1.8,1.9-.3,1.1-3.8,6-3.5,2.8.1-.9,1.9-4.5,2.7-4.7Z"/>
        <path class="cls-107" d="M194.5,23.7c.3.1.3.2,0,.4,0,.6-.3.8-.8.8l-10.6,9-.9-.2c0-.6.7-1.9.2-2.3-3.9-.3-11.8-3.3-15.2-1.5-.8.4-2,1.6-2.7,2.3-.3,0-.7-.3-.7-.5.4-1.9,10.1-9.7,12.2-10.4l1.5-.2c4.2.7,8.2,1.4,12.4,1.9,1.6.2,3,1,4.6.7h0Z"/>
        <path class="cls-37" d="M179.7,74c-.1,0-.3,0-.4,0s-.3,0-.4,0c-.6-.2-1.2-.5-1.7-.9,2.9-7.2,6.2-14.2,10.1-20.8-7.2,4-10.7,12.4-13,19.9l-1,.7c-1.4-.3-2.7-.8-4.1-1.1.7,0,1.1.3,1.6-.5,1.5-2.4,2.3-6.5,3.8-9.2,2.2-4.2,5.9-8.2,9.7-11,1-.7,6.2-4.6,6.4-1.7,0,1.3-3,5.1-3.8,6.6-3.1,5.7-5.3,11.8-7.3,18h0Z"/>
        <path class="cls-43" d="M194.5,24.1c0-.8.6-.8.7,0,1.6.3.7,1.8-.2,2.6-2.8,2.3-5.7,4.3-8.7,6.3-2.8,2.6-6.3,5.4-7.8,8.9-.9,1-1.9,1.9-2.7,3.1-1.2,1.6-6.4,11-7,11.3-2.1,1.2-1.2-1.7-.7-2.8,2.9-6.9,9.6-13.8,14.1-19.7l10.9-9.3c.4-.4.9-.3,1.3-.3h0Z"/>
        <path class="cls-83" d="M177.5,21.1c-4.2,2.7-8.7,5.9-12,9.6-.4.5-.9.8-.9,1.5-2.6,2.5-11.6,15-12.6,18.1-1.7-.8.4-4.2,1-5.4,1-1.9,2.7-4.6,4-6.4,4.8-7.2,10.9-13.9,18.7-17.8.7.1,1.3.3,1.9.4h0Z"/>
        <path class="cls-10" d="M192.3,21.5c1-.2,10.5,3.6,12,4.5.2.1.7.5.6.7l-.7.4c.7,0,4.3,2.1,4.4,2.3.3.6-1.5,2.8-2,3.3-2.4,2.1-4.6.7-7.1.4-2.8-.4-7-1.2-9.6-1.2s-2.3.9-3.5,1.1c.7-.6,1.3-1.5,2-2.2,1.7-1.5,4.8-3.3,6.3-4.8.5-.5,1.1-1.2.5-1.9,0-.7.5-.5.7,0,1.1-.3,2.1.4,3,1.1.6-.3.3-.6-.7-.7-.4,0-1.3-.3-1.5-.7-.5.4-5.2-1.3-5.1-1.6l.7-.7h0Z"/>
        <path class="cls-26" d="M190.5,21.5s0-.4.4-.4c0,1.4.9.5,1.5.4-.2,1,.5.7,1.1.9,1.2.5,2.2.8,3.4,1.3.3.4.1.5-.7.4-.2,0-.5,0-.7,0-.2,0-.5,0-.7,0v-.4l-7-2.2c1,0,2.3.7,3,0h0Z"/>
        <path class="cls-55" d="M164.5,70.7c-.1,0-.3,0-.4,0-.4-.1-.8-.3-1.1-.4-.9-.3-.9-1-.6-1.8,4.8-7.3-12.4-9.6-12.5-2.9l-1,.2c-2.3-.8-4.7-1.4-7-2.2-.7-.2-1.2-.6-1.5-.7,1.1-2.1,1.9-6.2,4.7-6.6,1.6-.2,1.6,1,2.5,1.1.8,0,1.5-.7,2.2-.7,2.9-.3,6,0,8.8.8,1,.3,5.3,1.9,5.6,2.5s1.3,3.5,1.3,4.2c.1,2.3-1.2,4.2-1.1,6.5h0Z"/>
        <path class="cls-11" d="M173.4,72.9c2-7.3,6.1-16.9,12.9-20.9.9-.5,1.9-1.1,1.7.6-4.2,6.4-6.7,13.8-10.2,20.6l1.1.9c-2.1-.3-3.6-.7-5.6-1.1h0Z"/>
        <path class="cls-160" d="M130.8,37.1c1.9-.3,5.2,1.2,4.8,3.4-.4,2.4-5.7,6-7.7,4.2-2.6-2.4-.2-7,2.9-7.5Z"/>
        <path class="cls-115" d="M141.6,25.5c.1.7-.3.9-.8,1.3-1.5,1.3-8.4,4.7-10.2,5-3.4.5-1.3-1.7.1-2.9,2.9-2.4,7.2-3.6,10.9-3.3h0Z"/>
        <path class="cls-122" d="M126.8,92.5c1.5,1,3,2,4.7,2.8-1.1,5-3.4,8.2-7.2,11.5-.2.2-1.9,1.6-2,1.7-.9.5-1.4.6-2.4.3-2.4-.7-3.7-3.3-4-5.8-.3-2.2.4-4,.4-5.9,0-1.7-1.1-2.6-.8-4.8.2-1.4,1.6-2.3,2.2-3.5,3,1.3,6.2,2.4,9.3,3.7Z"/>
        <path class="cls-33" d="M126.8,92.5c2.3,1,8,4,10,4.3.5,0,1.1-.9,1.5-.6.1,0,0,.6,0,.7-1.9-.4-.5,1-.7,2.4-.5,2.2-2.4,2.6-4.1,3.2-.5-.3-.7-.6-.3-1,2.8-2.6,3.3-3.7,1.3-3.3-2.2,2-4.1,4.2-5.8,6.7-1.2,1.8-2.3,2.4-3.3,1.7-.6.5-.9.9-1.5,1.3-1.7,1.4-2,1.5-4.1.9,2.4.6,1.7-1,2.8-1.9.5-.4,1.3-.4,1.8-.8,3.4-2.4,4.7-6.6,6.5-10.2.2-1.5-4-1.8-4-3.5h0Z"/>
        <path class="cls-140" d="M107.5,84c.3,1,.7,2.6,0,3.5-.3.4-1.1.3-1.5.8-.8.9-.9,2.2-2.4,3.2-1.2.8-2.6.7-2.8-.9,0-.3.3-3.6.4-4,.3-2,1.9-2.1,2.2-3.9,1,.5,2.9.9,4.1,1.5h0Z"/>
        <path class="cls-131" d="M125.3,106.6c0,0,.6-.1.9-.3,2.4-1.5,6.5-9.2,8.8-8.8.3,0,2,.6,1.8,1.2-.3.7-3,2.7-3.3,3.9-1.6.6-1.6.4-2.2,2.2-.7,1.4-1.8,2.5-3.3,3.3-1.1,0-2.1-.5-2.6-1.5h0Z"/>
        <path class="cls-42" d="M106.1,97.7c0,0-.6-.2-.7-.9-.6-3.1.6-2.3,2-3.2.6-.4.8-1.3,1.6-1.8,2.4-1.4,4,1.5,2.5,3.6-1,1.5-1.1.1-1.2,2.7v.6c-1.2.3-2.6,0-4.1-.9h0Z"/>
        <path class="cls-48" d="M110.1,98.1s.3.2.2.7c-.2,1.5-2.6,3.5-3.7,1.8-.7-1.1-.4-2-.6-2.9,1.4-1.1,3,1.2,4.1.4Z"/>
        <path class="cls-159" d="M127.9,108.1c.3-1.6,2.2-2.3,3.3-3.3-.2.6.1,1.4-.6,2.2-.5.6-1.9,1.1-2.8,1.1Z"/>
        <path class="cls-126" d="M57.8,82.6c.6-.2,1,0,1.5.3.9.3,9.6,5.8,10.5,6.6.5.4.8.9,1.1,1.5-.5.8-.6.4-1,.3-2.4-.3-11.5-4.6-12.5-6.8-.3-.6-.4-1.6.4-1.8h0Z"/>
        <path class="cls-76" d="M72.4,76.6c1-1,9.6,5.4,9.1,6.7-.3.3-.5.7-1,.6-.8-.2-7-4.9-7.6-5.7-.4-.5-.7-.8-.5-1.5Z"/>
        <path class="cls-152" d="M103.8,161c-.3.3-.8.5-1.1.7-6.8,2.9-2.4-5.9.9-5.6,1,.1,2.3,1.7,2,2.7,0,.2-1.5,1.9-1.8,2.1h0Z"/>
        <path class="cls-35" d="M106.1,162.5c-.6.4-1.6.7-2.2,1.1,0-.1-.3-.7-.4-.7-.3-.6,1.2-1,1.9-1.1.4.2.6.4.7.7Z"/>
        <path class="cls-16" d="M105.3,161.8l-1.9,1.1c-.1,0-.5,0-.7,0-.2-.3,1.6-1.5,2.6-1.1h0Z"/>
        <path class="cls-162" d="M96.4,127.8c2.5-.1,11.7-.7,8.8,3.9-.6.9-6.8,6.5-7.8,7-3,1.5-6.4-1.8-8.1-4-4.4-6,2.9-6.7,7.2-6.9h0Z"/>
        <path class="cls-85" d="M164.2,83.6c-.8-.1-1.7.1-2.2-.7.8.1,1.6,0,2.2.7Z"/>
        <path class="cls-85" d="M161.6,82.9c-.7-.1-1.4,0-1.9-.7.6.1,1.6-.3,1.9.7Z"/>
        <path class="cls-146" d="M99,67.4c-.3-.1-.6-.1-1.1-.4-.9-.4-6.7-3.8-3.8-4.8,1.8-.6,6.8,1.9,8.5,2.8.9.5,5.5,2.8,3.8,4-.5.4-6.4-1.3-7.4-1.7h0Z"/>
        <path class="cls-63" d="M104.9,71.4c.3,0,.8.3,1.1.4l13.7,6.3c1.3,1.5-3.8.1-4.3,0-2-.6-12.7-4.9-13.3-6.3-.5-1.2,2.2-.5,2.8-.4h0Z"/>
        <path class="cls-139" d="M153.4,93.3c-.9.8-11.8-3-13.5-3.7s-4.2-1.4-5.4-3c4.7.6,9.8,2.4,14.3,4.1.4.1,5.6,1.8,4.6,2.6h0Z"/>
        <path class="cls-55" d="M182.3,98.1c.3.4-.3.8-.6,1-1.2.7-8.7-.4-10.4-.9-.4-.1-2.6-.8-2.3-1.4.3-.5,1.4-.8,2-.8,1.3,0,10.9,1.5,11.4,2.1h0Z"/>
        <path class="cls-102" d="M181.2,100.3c-3.3,0-6.4-.3-9.6-1.1l9.6,1.1Z"/>
        <path class="cls-137" d="M163.1,70.3c-4.8-1.3-9.4-2.9-14.1-4.4,1-1.5.3-3.1,2.1-4,3.2-1.5,10.9-1.2,12.6,2.4,1,2.1-1.1,3.9-.7,6h0Z"/>
        <path class="cls-147" d="M218.8,57.8c2.6-.7,1.7,6.5-1.1,5.8s-.4-5.4,1.1-5.8Z"/>
        <path class="cls-102" d="M216.4,91.1c2.9-.4,5.7-.9,8.6-1.6,2.6-.7,6-2.5,8.6-2.5,1.3,0,.2,3.2-.2,3.7-1,1.6-6.3,4.1-8.1,4.8-3,.2-5.7,1.4-8.7,1.8-6,.8-14.6.8-20.5-.5-5.1-1.2-6.4-2.8-.2-3.5,4.6-.5,9.3-.6,13.9-1.1,1.5-.4,3.7-.7,5.2-.4l-.5.8c-5.7.4-11.2,1.2-16.7,2.3,7.5,2.4,17.6,1.5,25.3-.4,1-.3,8.7-3.2,8-4.4l-12.2,1.9c-1.3.1-2.6,0-3.8-.2,0-.3.3-.6,1.1-.7.1,0,.3,0,.4,0h0Z"/>
        <path class="cls-23" d="M216,91.1c-.3.2-.9.7-1.1.7-1.5.2-3.5.2-5.2.4v-.4c2.1-.2,4.2-.5,6.3-.7h0Z"/>
        <path class="cls-130" d="M57.4,114.4c.9-.2,1.5,2.1,1.1,2.9-.2.4-4.5,3.7-4.8,3.7-.4,0-.6-.7-.5-1.2.1-.7,3.7-5.3,4.2-5.4Z"/>
        <path class="cls-148" d="M196.7,23.7c.4.2.8,0,1,.1s.3.5.4.6c1.1.2,2.4.8.7.7-1-.3-2.3-1-3-1.1l.7-.4h0Z"/>
        <path class="cls-71" d="M198.2,24.4l2.2.4c.2,1.5-1.1.5-1.5.4.9-.4-.2-.4-.7-.7Z"/>
        <path class="cls-1" d="M214.9,91.8c4.4-.6,8.7-1.3,13-1.9,1-.1,4.9-1.6,3.4,1.2-.7,1.4-7,3.8-8.7,4.3-5.2,1.4-17.1,2.2-22.3,1.2-.9-.2-5.6-1.5-3.2-2.3,3.7-1.3,13.1-1.7,17.8-2.4h0Z"/>
        <path class="cls-114" d="M225.6,92.9c-.2.3-4.4,1.9-5.1,2.1-3.2.8-10,1.5-13.2,1.3-1.8-.1-5.7-1.2-2.1-2.1,3.9-1,10.9-1.8,15.1-2.3,1.1-.1,6.5-1.1,5.3,1h0Z"/>
      </g>
    </g>
    <g id="Layer_3">
      <path class="cls-13" d="M66.8,107.1c-.8.7-4,6.6-6.3,17.7-.9,4.2-.7,7.6,2.1,11.5s2.6,3.1,4.5,4.8c5.2,4.6,2.9,10,7.8,17.2,4,5.9,4.8,7.9,4.8,7.9,2,3.1,3.1,4.5,4.4,7.3.6,1.4.8,2,1.8,4.2,1.2,2.6,1.9,4,2.9,5.2,1.8,2.2,3.9,3.2,4.6,3.6,5.5,3,7.8,16.1,8.7,20.2,4.5,20.3,21.6,32.7,27.8,37.2,6.2,4.5,10.9,6.2,15.7,6.3,5.2,0,9-1.7,13.2-3.8,5.1-2.5,15.2-7.3,18.5-17.6.7-2.1,2-6.1.5-10.8-.3-.9-2-6-7-8.7-3.9-2.1-7.9-1.5-14.1-.7-6.1.8-6,1.9-8.8,1.6-7.8-1-12.2-10.5-12.9-11.8-1.5-3.2-1.8-5.2-2.5-11.1-.3-2.4,3-7.1,1.8-5.6-.3.4,1.5-3.2,1.5-5.9s1.8-1.8,2.2-4.1c.2-1.5.5-5-.4-6.9-1.1-2-5.7-4.5-7.3-5.1"/>
      <path class="cls-12" d="M173,161c.3,1.1.8,2.6,1.7,4.3,2,3.5,4.3,4.5,8.3,8,3.5,3,5.6,5.5,7.3,7.5,5.3,6.2,5.2,8.3,5.1,9.1-.3,2.3-2.2,4.8-2.7,5.5-1,1.4-1.2,1.3-1.9,2.2-1.9,2.9-.6,5.1-1.3,8.2-2.2,9.2-12.5,8.8-12.3,9.2"/>
      <path class="cls-12" d="M156.9,208.6c-2.1-4.1-4.5-11.1-4.9-14.1-.8-5.3.3-7.4-1.6-10.2-1.2-1.7-3.1-2.7-6.9-4.9-2.1-1.2-6-3.1-7.3-3.6"/>
      <path class="cls-13" d="M27.2,125.8s1.5,3.6,7.7,8.7,7.1,7.5,11.5,7.5,5.3,1.1,9.5,0,6.8-5.8,6.8-5.8"/>
      <path class="cls-13" d="M62.6,53.3c-1.4,5.2-2.5,8.6-1.8,12.4s2.2,8.7,2.2,8.7"/>
      <path class="cls-13" d="M85.3,65.9c-5.9,1.1-10.5,1.9-14.2,3.8s-1.6,2.2-5.6,3.8-6.5,1.5-9.1,5.3-2.9.3-3.6,6.3-5.1-.2-6.3,5.6-1.9,10,0,11.3,1.8,2.5,1.1,2.6-1.2-3.4-8.6-3.2-11.5.6-16.1,3.4-12.6,7.9-13.6,10.3-2.5,4.6-.5,9.2.6,8.1,4.5,8.6,8.7,1.5,13.9.6l5.2-1"/>
      <path class="cls-13" d="M52.4,89.2c0,4.1.6,8.3,4.5,10.9s13.2,9.9,16,11.8,11.2,7.8,15,8.1,8-.4,10.8-1.5"/>
      <path class="cls-13" d="M109.7,54.4c.2-2.8,4.1-7.4,4.1-7.4l4.6-9.3s5.6-9,15-15.4,1.1-5.3,11.1-8.9,11.3-5.8,23-5.2,25.8,3.8,25.8,3.8c0,0,7,3.3,8.2,3.3s10.3,5.1,11.5,4.4,3-.3,3.7.6,2,1.3,1.9,2.7-.4,5.1-.4,5.8-1,.6,2.8,7.1,4.6,6.6,4.9,11,1.1,9.2,0,10.7-1.9,5.2-1.9,5.2c0,0,1.5,1.5,6.3,4.5s7.7,9.1,9.1,14.3-2.2,10-4.8,13.9-8.9,6.3-21.9,10.1-38.7.7-42.8-.3-18.1-3-41.5-11.9-35.3-17.1-38.4-19.7-4.8-7.8-4.5-10.2.6-5.6,3-8.3,4-3.4,9.1-6,16.1-3.3,16.1-3.3"/>
      <path class="cls-13" d="M200.5,107.6c2,4.1,4.8,6.9,3.4,9.3s-3.1,3.9-2.3,4.6,4.4,3.3,5.8,4.6,6.3,5.2,6.4,6.4,3.5,5.1,0,10.7-7.7,9.2-8.9,10-.3,1.7-6.6,3.8-6.8,3.4-11.7,2.4-10.8-2.4-14.2-2.5-6.2-4.3-8.6-6.1-1.8-3.1-3.7-4.4"/>
      <path class="cls-13" d="M123.2,136.1c3.3,4.7,8.5,10.6,16.1,15.8,3.9,2.6,11.6,7.8,22.9,9.7,1.6.3,4.2,1.3,7.4.7,3-.6,7.8-3.3,9-4.5"/>
      <path class="cls-13" d="M62.6,53.3c2.5.4,3.8,1.4,4.6,2.2,1.6,1.8,1.2,3.8,2.6,7.5.7,2,2.5,4.8,3.1,5.8"/>
    </g>
  </g>
</svg>