<?xml version="1.0" encoding="UTF-8"?>
<svg id="Layer_2" xmlns="http://www.w3.org/2000/svg" viewBox="0 0 247.78 258.39">
  <defs>
    <style>
      .cls-1 {
        fill: #d6292b;
      }

      .cls-2 {
        fill: #f8ea59;
      }

      .cls-3 {
        fill: #afb0b2;
      }

      .cls-4 {
        fill: #ce3234;
      }

      .cls-5 {
        fill: #f99595;
      }

      .cls-6 {
        fill: #f99495;
      }

      .cls-7 {
        fill: #e4292a;
      }

      .cls-8 {
        fill: #a7a4a5;
      }

      .cls-9 {
        fill: #f27a7a;
      }

      .cls-10 {
        fill: #ee3436;
      }

      .cls-11 {
        fill: #f79494;
      }

      .cls-12 {
        fill: #e63637;
      }

      .cls-13 {
        fill: #829a9c;
      }

      .cls-14 {
        fill: #f54f50;
      }

      .cls-15 {
        fill: #6f6f6e;
      }

      .cls-16 {
        fill: #b54343;
      }

      .cls-17 {
        fill: #ed6768;
      }

      .cls-18 {
        fill: #8d8f90;
      }

      .cls-19 {
        fill: #898887;
      }

      .cls-20 {
        fill: #cfcccd;
      }

      .cls-21 {
        fill: #b2a553;
      }

      .cls-22 {
        fill: #f99192;
      }

      .cls-23 {
        fill: #7ca9aa;
      }

      .cls-24 {
        fill: #f57a7b;
      }

      .cls-25 {
        fill: #b28a85;
      }

      .cls-26 {
        fill: #f17574;
      }

      .cls-27 {
        fill: #6e6e6d;
      }

      .cls-28 {
        fill: #cdbb35;
      }

      .cls-29 {
        fill: #cfd1d3;
      }

      .cls-30 {
        fill: #c7c9cc;
      }

      .cls-31 {
        fill: #c73737;
      }

      .cls-32 {
        fill: #f77f7f;
      }

      .cls-33 {
        fill: #4d4d4c;
      }

      .cls-34 {
        fill: #f24445;
      }

      .cls-35 {
        fill: #f54d4e;
      }

      .cls-36 {
        fill: #f0383a;
      }

      .cls-37 {
        fill: #ee3638;
      }

      .cls-38 {
        fill: #e0cccc;
      }

      .cls-39 {
        fill: #9b9b9a;
      }

      .cls-40 {
        fill: #bb4041;
      }

      .cls-41 {
        fill: #22252b;
      }

      .cls-42 {
        fill: #b6b1b2;
      }

      .cls-43 {
        fill: #fae88d;
      }

      .cls-44 {
        fill: #f77879;
      }

      .cls-45 {
        fill: #ec3839;
      }

      .cls-46 {
        fill: #50504f;
      }

      .cls-47 {
        fill: #883937;
      }

      .cls-48 {
        fill: #bd3031;
      }

      .cls-49 {
        fill: #f6a753;
      }

      .cls-50 {
        fill: #f18c8c;
      }

      .cls-51 {
        fill: #9c9999;
      }

      .cls-52 {
        fill: #f1f4f7;
      }

      .cls-53 {
        fill: #f44849;
      }

      .cls-54 {
        fill: #db4344;
      }

      .cls-55 {
        fill: #f28c42;
      }

      .cls-56 {
        fill: #575756;
      }

      .cls-57 {
        fill: #3c6d7d;
      }

      .cls-58 {
        fill: #f89192;
      }

      .cls-59 {
        fill: #f7adad;
      }

      .cls-60 {
        fill: #ef3f40;
      }

      .cls-61 {
        fill: #525351;
      }

      .cls-62 {
        fill: #f9e35b;
      }

      .cls-63 {
        fill: #f44a4b;
      }

      .cls-64 {
        fill: #f7898a;
      }

      .cls-65 {
        fill: #cfd0d1;
      }

      .cls-66 {
        fill: #bebebd;
      }

      .cls-67 {
        fill: #f88e8f;
      }

      .cls-68 {
        fill: #f59f9e;
      }

      .cls-69 {
        fill: #5b5b59;
      }

      .cls-70 {
        fill: #c5c6c8;
      }

      .cls-71 {
        fill: #f47777;
      }

      .cls-72 {
        fill: #fbeede;
      }

      .cls-73 {
        fill: #f78181;
      }

      .cls-74 {
        fill: #f59f9f;
      }

      .cls-75 {
        fill: #535452;
      }

      .cls-76 {
        fill: #f24344;
      }

      .cls-77 {
        fill: #f35959;
      }

      .cls-78 {
        fill: #a58987;
      }

      .cls-79 {
        fill: #f56060;
      }

      .cls-80 {
        fill: #f88b8c;
      }

      .cls-81 {
        fill: #565756;
      }

      .cls-82 {
        fill: #f88687;
      }

      .cls-83 {
        fill: #f7afae;
      }

      .cls-84 {
        fill: #f4f6f9;
      }

      .cls-85 {
        fill: #b3aeac;
      }

      .cls-86 {
        fill: #f79696;
      }

      .cls-87 {
        fill: #535352;
      }

      .cls-88 {
        fill: silver;
      }

      .cls-89 {
        fill: #f68686;
      }

      .cls-90 {
        fill: #d3d3d3;
      }

      .cls-91 {
        fill: #878787;
      }

      .cls-92 {
        fill: #b98d4f;
      }

      .cls-93 {
        fill: #f7999a;
      }

      .cls-94 {
        fill: #b98b86;
      }

      .cls-95 {
        fill: #f67071;
      }

      .cls-96 {
        fill: #f66565;
      }

      .cls-97 {
        fill: #d9d3d5;
      }

      .cls-98 {
        fill: #dabbbc;
      }

      .cls-99 {
        fill: #b74040;
      }

      .cls-100 {
        fill: #f39595;
      }

      .cls-101 {
        fill: #f66d6e;
      }

      .cls-102 {
        fill: #bcbdbe;
      }

      .cls-103 {
        fill: #ee7070;
      }

      .cls-104 {
        fill: #f14a4b;
      }

      .cls-105 {
        fill: #efe134;
      }

      .cls-106 {
        fill: #ef5f60;
      }

      .cls-107 {
        fill: #f75858;
      }

      .cls-108 {
        fill: #6a6a69;
      }

      .cls-109 {
        fill: #f34344;
      }

      .cls-110 {
        fill: #545453;
      }

      .cls-111 {
        fill: #f88b8b;
      }

      .cls-112 {
        fill: #d64747;
      }

      .cls-113 {
        fill: #dcc14c;
      }

      .cls-114 {
        fill: #f65253;
      }

      .cls-115 {
        fill: #f87778;
      }

      .cls-116 {
        fill: #f87d7d;
      }

      .cls-117 {
        fill: #f6df42;
      }

      .cls-118 {
        fill: #c2c4c6;
      }

      .cls-119 {
        fill: #919191;
      }

      .cls-120 {
        fill: #c83233;
      }

      .cls-121 {
        fill: #f37b7b;
      }

      .cls-122 {
        fill: #c1c3c5;
      }

      .cls-123 {
        fill: #f99d9d;
      }

      .cls-124 {
        fill: #e32c2d;
      }

      .cls-125 {
        fill: #e53536;
      }

      .cls-126 {
        fill: #f54b4c;
      }

      .cls-127 {
        fill: #f99d9c;
      }

      .cls-128 {
        fill: #848483;
      }

      .cls-129 {
        fill: #484848;
      }

      .cls-130 {
        fill: #6b6c6c;
      }

      .cls-131 {
        fill: #fbdcdc;
      }

      .cls-132 {
        fill: #f99898;
      }

      .cls-133 {
        fill: #d2d2d3;
      }

      .cls-134 {
        fill: #f9e35f;
      }

      .cls-135 {
        fill: #f6b0b0;
      }

      .cls-136 {
        fill: #f7696a;
      }

      .cls-137 {
        fill: #c72728;
      }

      .cls-138 {
        fill: #f75556;
      }

      .cls-139 {
        fill: #8f8f8e;
      }

      .cls-140 {
        fill: #f76465;
      }

      .cls-141 {
        fill: #f76566;
      }

      .cls-142 {
        fill: #eaedf0;
      }

      .cls-143 {
        fill: #cfd0d2;
      }

      .cls-144 {
        fill: #e0e3e6;
      }

      .cls-145 {
        fill: #938a8b;
      }

      .cls-146 {
        fill: #c92e2f;
      }

      .cls-147 {
        fill: #424241;
      }

      .cls-148 {
        fill: #af3e3f;
      }

      .cls-149 {
        fill: #f04647;
      }

      .cls-150 {
        fill: #df2728;
      }

      .cls-151 {
        fill: #585856;
      }

      .cls-152 {
        fill: #f89090;
      }

      .cls-153 {
        fill: #a09191;
      }

      .cls-154 {
        fill: #985444;
      }

      .cls-155 {
        fill: #70706f;
      }

      .cls-156 {
        fill: #ed3638;
      }

      .cls-157 {
        fill: #f8c8c8;
      }

      .cls-158 {
        fill: #a9a6a7;
      }

      .cls-159 {
        fill: #5f5f5e;
      }

      .cls-160 {
        fill: #f48d8c;
      }

      .cls-161 {
        fill: #f66f6f;
      }

      .cls-162 {
        fill: #707070;
      }

      .cls-163 {
        fill: #f88181;
      }

      .cls-164 {
        fill: #f88a8a;
      }

      .cls-165 {
        fill: #d2d5d7;
      }

      .cls-166 {
        fill: #c92728;
      }

      .cls-167 {
        fill: #989898;
      }

      .cls-168 {
        fill: #f36d6e;
      }

      .cls-169 {
        fill: #f99a9a;
      }

      .cls-170 {
        fill: #f8a2a3;
      }
    </style>
  </defs>
  <g id="Characters">
    <g id="Marshal">
      <g>
        <path class="cls-52" d="M176.54,163.19l-.04,2.98c2.47,2.25,5.61,4.38,7.96,6.7,1.57,1.56,2.54,3.3,3.94,4.76,1.66,1.73,4.05,3.17,5.55,5.13,3.34,4.38,5.98,10,4.58,15.65-.41,1.64-2.55,2.48-2.93,3.83-.22.8.23,1.49.12,2.14-.57,3.36-1.09,5.95-2.56,9.04-1.2,1.69-2.42,3.06-4.24,4.11-3.36,1.95-12.85,3.58-7.12-2.87-1.69,1.04-5.76,3.55-2.03,4.22l.34.88c1.37,2.95,3.79,9.61,2.98,12.67-.25.93-1.25,2.29-1.79,3.15-.38,2.07-1.79,4.37-4.02,3.72l-2.79,3.87c-.61,0-1.07.34-1.5.72-.07,1.4-3.28,4.77-4.75,4.35l-1.12,1.65c-3.25,2.42-6.03,4.16-9.95,3.49-.44,1.01-3.32,3.05-4.35,2.37-5.22,2.54-10.16.87-15.16-1.25-6.39-2.7-12.08-6.3-16.49-11.81-1.05-1.8-7.12-8.64-7.13-10.12,0-.48.35-.47.41-.56-.07-1.11.2-2.28.81-3.52.14-2.47-5.02-3.16-2.31.38l-.48.77c-.26.76-1.45-.84-1.57-1-4.88-6.3-10.05-15.99-12.97-23.42-1.28-3.26-2.24-8.48-3.75-11.28-1-1.85-3.45-2.75-2.68-5.83l-.58-.77c1.13-4.84,13.97-11.71,18.62-13.42,7.17-2.65,17.4-5.38,22.7,1.93,1.66-.02,2.94,4.45,2.72,5.89-.1.66-.69,1.97-1.14,2.42-.41,3.07-.57,5.83-.16,9.1,1.28,10.33,3.16,12.43,10.85,18.91,5.97,5.03,7.31,4.75,14.72,1.91-3.36-7.36-5.72-15.26-6.97-23.22l.54-1.17c-1.8-3.26-4.72-5.02-7.92-6.73l-5.65-2.86c-.82-.58-.84-1.18.12-1.49,1.53-1.59,3.64-2.38,6.33-2.37.03-1.16.46-1.27,1.19-.4l.1-.66c3.08-2.55,5.85-5.43,8.24-8.66l1.15-.18c.43-1.4,1.18-3.58,2.77-3.56l1.22-.37c5.38,2.39,10.66,1.75,16.18.76Z"/>
        <path class="cls-52" d="M152.41,98.33c8.4,2.37,16.84,4.48,25.31,6.33,1.1.22,1.27.69.59,1.56-5.61,4.36-5.57,4.65.12.86l1.04.13c1.46-1.56,6.58-1.31,8.66-.33,1.01.48,2.69,1.36,1.85,2.53.82,1.21.05,1.46-1.19.79l-.63.67c-4.92-.17-7.82,5.55-9.55,9.47l-.9.14c.07,1.18.18,2.46.33,3.82,1.74-.16,3.47-.38,5.21-.66,2.59-1.8,4.7-4.18,6.33-7.12-.94-.62-.25-2.41.79-2.37l.33-2.21c4.02-1.21,5.86,1.45,6.11,5.16.63,1.46,5.61-.93,6.22-2.16l-.64-.62c.82-2.35,1.94-4.61,3.19-6.77l1.01-.12c2.03,1.8,3.02,7.59,2.29,10.01-.29.97-2.31,1.77-1.92,3.57.06.29,4.1,3.01,4.78,3.63.99.89,5.31,4.95,5.74,5.73.51.92-.25.74-1,1.59.17,1.07-.44,2.05-1.82,2.94-4.52,2.62-6.82,6.24-6.89,10.87l-.79.83c.75.12.71.43,0,.79.51,1.11.51,1.9,0,2.37,1,3.15-2.74,4.52-5.22,5.23-8.34,2.38-19.97,3.24-26.97-2.8-1.61-1.39-3.82-4.46-1.69-6.18,3.36-1.68,6.49-6.48.1-5.02-7.2,2.22-14.47,3.44-21.82,3.68-1.43,0-3.59-.31-3.33-2.03l-.73-.47c.4-4.27-3.88-3.54-1.96-.32l-.47.79-.9.71c-9.58-.41-17.52-3.38-22.04-12.18l-1.16-.34c-1.66-3.16-2.85-6.47-3.58-9.94-.67,1.35-1.89-.36-.4-.79l1.11-.8c12.95-1.39,25.17-10.91,32.68-21.07l1.01.12c.13-1.06.34-.95.79,0Z"/>
        <path class="cls-84" d="M47.21,90.42c.26-.05.38.1.4.4.96.04,2.04,1.65,1.19,2.37,4.07,4.7,8.8,8.82,14.2,12.38l.04.67.04,1.42c-2.32,3.82-4.23,7.9-5.34,12.24l-1.03.98c1.01.5.73,3.33-.4,3.56l-.4,4.75c.47.29.6.95.4,1.98,1.15.28,1.31,1.25.4,1.98l-.5,1.34c-5.31,3.82-11.87,5.99-18.4,4.71-1.03-.2-8.01-2.22-7.56-3.68.12-.37.41-.62.75-.79-.38-.52-.25-1.18.4-1.98-.92.09-1.8-.75-2.65-2.5-.99.37-1.69.28-2.1-.27-.03.94-.29,1.34-.79,1.19-.38.11-.51-.02-.4-.4-.77-.3-1.61-1.53-1.58-2.37-1.56,1.96-3.58-1.07-3.16-2.77-3.41-3.56-1.74,1.99-2.76,2.98-.3.29-5.2,2.15-5.95,2.35-6.69,1.77-9.42-.67-11.17-7.01-1.19-4.32-1.51-8.06,1.89-11.37,1.81-1.77,7.43-5.76,9.72-7.29,7.74-5.13,17.38-8.3,26.2-4.12,1.57.74,3.75,3.64,4.61.33-3.55-.54-3.62-7.34-3.07-10,.42-2.04,3.98-8.46,6.24-8.59l.57.68c-.39,2.25-.53,4.65.22,6.83Z"/>
        <path class="cls-141" d="M187.61,3.41l-.8.68c-3.59-.62-7.19-.99-10.81-1.13l-.61.87c-2.43-.12-4.43,0-5.98.37-2.4.46.35.68.79,0,6.33-.51,12.68.26,19.02,2.3,10.32,3.24,20.54,6.33,30.68,9.26.7.45.75.89.13,1.49.36.09.35.23,0,.4-.31,1.73-1.79,1.56-2.44.08-1.32,1.18-2.74,1.93-4.26,2.25-8-4.11-16.66-7.02-25.41-9.28-5.98-1.55-14.67-3.77-20.7-3.81-.32,0-.64.21-.97.48l-.81.76c-4.45-.08-8.92.39-13.32,1.06l-.91-.63c-.56.08-.9.44-1.05,1.01-2.49.55-8.1,2.03-3.25,1.05,7.96-.09,15.93-.06,23.92.09l7.17,1.34.49.85c.35.11.34.24,0,.4-2.24.56-4.68.5-7.31-.16-.16-.51-20.47-.95-18.08.48,5.49,2.09,2.41,5.14-1.24,7.05-2.68,1.4-5.16,2.15-7.77.93l.04.84c-1.71,1.77-3.1,3.81-4.17,6.13l.96.16c2.74-2.13,7,.76,9.26,2.72,3.69,3.2,5.22,6.63,2.75,11.22.06,1.75-.39,2.78-1.34,3.06-.29,1.02.1,2.33,1.19,1.58-.85-.91.08-2.13,1.19-1.58.73-2,1.67-2.76,3.81-2.59.63.05,11.14,4.5,11.62,4.92.83,1.38,1.17,3.09,1,5.14,1.43-1.4,2.78-2.32,3.81.02,1.05,2.38-1.97,9.88-3.01,12.32-.05,1.01-.39,1.65-1.01,1.94-.69.62-1.27.48-1.58-.4l-.64-.59c.72-2.94,1.27-5.88,1.65-8.83-1.23-1.41-1.91-2.95-2.06-4.62-4.62-1.88-9.62-3.14-14.62-3.35-2.08,2.19-3.56.98-4.37-1.44-1.23-.83-7.52.7-8.03,2.54-.1,2.02-.67,5.52-2.78,6-2.31.46-6.6-1.19-7.91-3.16l1.85-5.98.91-.35c.94-.94.96-5.64.19-3.27l-.98.5c.77.91-.05,2.34-1.19,2.37-1.29,2.39-2.02,3.04-4.73,2.29-5.87-1.62-3.55-15.39-.44-19.08-.16-1.6-.79-2.72-1.87-3.37.34-1.41.05-2.2-.87-2.39,3.65-4.41,7.4-5.88,11.48-9.28,1.46-1.22,2.94-3.47,4.33-4.77,3.34-3.12,13.67-8.01,18.21-8.49,9.14-2.02,18.73-1.22,27.77.56,1.04-.42,3-.44,3.07,1.03Z"/>
        <path class="cls-36" d="M225.19,17.25c.04,1.46.3,3.6-.4,4.75-.73-.24-1.04-1.03-.93-2.36.45-1.81-2.16-1.06-2.18-.87-.36,3.69-.68,7.43-.91,11.12l4.17-1.33c-1.58-2.73-1.63-4.65-.16-5.77,2.27,4.62,5.14,9.09,7.12,13.84.43,2.26-1.14,1.15-2.15.01-3.37-.14-6.52,2.47-7.03,5.87-.84,1.39-3.06,4.38-4.66,4.01l-.55-.42c-2.47,1.71-6.53,5.39-6.87,8.43.09,5.89-.27,9.64-5.36,13.53-1.83,1.41-5.84,4-7.79,2.58l-.48.85c-3.08.17-6.17.16-9.25-.03l-.55-.82-.4-.4c-.13-.31-.25-.62-.31-.95s-.12-.63-.04-.89c4.7-16.9,14.23-33.42,31.32-39.18.7-3.65,1.17-7.4,1.46-11.12l.79-.46c0-.13.02-.27,0-.4.24-1.94,4.11-1.09,5.14,0Z"/>
        <path class="cls-77" d="M84.78,66.69c1.12.11,3.29,2.06,3.16,3.16-.61.9-1.72.86-3.33-.11-3.4-1.88-12.08-6.53-6.19,1.3.69,1.18.28,2.1-.78,2.88,4.99,3.98,9.91,8.05,14.74,12.2.16.88-1.38,3.28-1.99,3.61-.45.24-3.95-.16-3.64-1.3-.78-.52-1.94-.64-3.48-.36l-.08-.43c-1.22-.73-.45-1.27.44-1.84-1.91-1.59-2.26-1.34-2.94.69l-.67-.04-.85.48c-2.07-.1-16.86-10.91-17.72-14.43.81,3.73.52,4.77-3.32,5.25,4.21,3.57,8.89,6.64,14.05,9.21,1.4.87,2.74,1.82,4.02,2.85.73.59,1.54,1.27,2.16,1.97,1,1.13,1.33,1.55.48,2.98.41.39.58.72.25,1.15,2.6-2.29,3.32-2.9,6.35-1.15.89.52,3.23,2.98,3.29,3.96l-.05.93c-3.2.99-4.93,3.39-4.06,6.72l-.64.65c-1.43,1.17-6.98-.49-7.66-2.1l.14-1.85h-1.58c-.21.34-.46.72-.84.79-1.52.28-10.12-5.51-11.91-6.76-4.44-3.46-9.01-6.62-13.72-9.47.21,1.5-.07,2.56-.82,3.18-.14-.12-.27-.26-.4-.4-.86-2.88-.9-6.05.79-8.31,1.63-5.74,5.78-9.18,11.07-11.47l.17-.93c2.47-.55,4.46-1.71,5.97-3.46l.98.03c2.75-1.92,3.04.99.44,2.05.93,1.28,7.62,1.14,5.43-.86-5.92-2.61,2.93-4.95,5.49-3.2l5.96,1.13,1.27,1.28Z"/>
        <path class="cls-35" d="M107.72,122.85c1.01,1.08,1.76,4.76.79,5.93,2,7.27,5.44,13.75,9.89,19.78.35.1.34.23,0,.4,1.8,4.62-.29,9.03-4.85,10.99,4.9.02,8.49-.72,12.54-3.47l1.01.39c1.01-.78,4.09,1.53,3.96,2.77-.18,1.03-1.31,1.38-3.4,1.06l-.55.52-.47.4c-3.09-.61-6.3-1.09-9.42-.4-.1.76-.62,1.31-1.58,1.65,2.68.09,5.34.41,7.97.97.86-1.25,2.29-1.72,4.29-1.43l.42-.4c1.91.65,3.75,1.18,5.52,1.59,1.41-1.31,3.25,1.81,2.47,3.15-.55.95-6.53,1.45-6.03-.78-.03-.73.38-.78.95-.76-2.24-1.07-5.04-1.8-1.13-.16l.18.91c-.48.64-1.36.9-2.64.77l-3.43,1.19c-13.17.71-25.99,6.22-36.73,13.51-.87,1.17-1.76,1.94-2.69,2.32-.92-1.1-1.08-2.72-1.58-3.96.95-2.94,2.64-5.54,5.07-7.79-3.76-.68-8.77-5.28-8.69-9.19.04-1.73,1.86-6.15,3.62-6.35l.62.8c-1.49,4.97,4.64,8.32,8.78,9.09,2.48-.49,6.05.83,4.12,3.49-.24.06-6.71,5.09-5.9,5.07,3.39-1.09,6.78-2.1,10.18-3.02-.2-.28-.24-.57-.07-.85l5.51-2.93c-2.07-1.63-2.32-2.71-.76-3.25l-.33-.49c-1.13-1.5.88-3.3,2.09-4.17-.89-6.07-.92-10.13,4.4-14.07.64-.84.54-1.86-.3-3.06l-4.23-7.77c-.36-2.39-.72-4.77-1.08-7.15-2.77-3.05-3.29-4.15,1.11-5.71.22-.26.35-.12.4.4Z"/>
        <path class="cls-60" d="M69.75,115.73c.74.96.04,2.17-1.19,1.98.7.99-.83,3.06-1.98,2.77l.29.81c-2.79,3.96-4.25,6.98-.95,11.18.2.68,2.21,7.01,2.72,6.94,1.03-1.7,2.14-3.34,3.34-4.92,3.14-2.69,5.54,4.79,1.34,3.54-.29.54-1.24,5.33-1.21,5.99.09,1.9,5.6,12.29,6.68,12.27l.97-.71c.98,1.53,3.86-3.38,3.66-3.59-.97-1.01-1.38-1.52-2.01-2.98l-3.92-5.15c-.41-1.65,1.08-2.14,2.17-.98l4.44,6.2c2.86,2.1,1.99,6.25-.91,7.41-1.34,2.61-3.77,5.43-2.47,8.6.12.3,2.47,3.11,2.85,3.48,1.93,1.87,3.6,2.69,6.35,2.75-2.14,2.58-4.2,4.35-5.66,7.41-.27.57-.03,1.31-1.07,1.09-3.35-8.24-10.49-16.04-13.05-23.33-2.47-5.02-3.78-10.36-5.07-15.65-.4-1.16-1.64-2.34-2.45-1.75-2.74-.75-2.38-4.68-2.03-7.05.49-1.97.92-3.93,1.26-5.88-.32-.18-4.99,3.26-4.67,4.66l-.89.37c-.1-.63-.33-1-.4-1.98l.4-4.75c.07-1.39.11-2.17.4-3.56l.68-.64c3.67.48,6.13-2.3,8.25-4.93,1.17-1.43,4.55-1.73,4.12.43Z"/>
        <path class="cls-77" d="M125.91,65.5c1.23.48,1.76,1.01,1.58,1.58-7.74-1.91-15.37-5.06-22.3-8.76-2.53-1.11-2.11-.55,1.26,1.7l13.29,8.71c1.52,1.99-.84,2.58-2.65,2.33l5.11,2.22.15.92c13.41,6.21,26.96,11.76,40.64,16.66,1.26.58,1.84,1.86.51,2.7l-6.34-.77c-22.49-5.53-45.87-14.13-65.53-26.27-2.41-2.23-4.65-4.49-6.7-6.76-.73.72-1.44,1.05-2.13,1-.65-3.7.04-8.47,3.56-10.68,2.81-2.9,4.91-3.08,6.3-.54,2.19,1.38,4.62,2.3,7.29,2.74,8.78,3.93,17.86,8.08,25.96,13.22Z"/>
        <path class="cls-59" d="M244.56,70.25c-.08,2.44-2.22,6.1-4.32,7.52s-13.54,3.61-15.77,3.99c-16.28,2.77-31.78,4.57-48.06.34-3.67-1.84-7.61-3.28-11.71-4.34-2.03-.32-4.54-2.57-1.61-2.37.53-1.06,1.75-.78,1.98.4.95.53,2,.79,3.16.79,1.7-.72,3.55-.25,4.75,1.19,3.82.61,7.64,1.02,11.47,1.19l.95-.73c4.88-.09,9.76-.15,14.63-.18l1.04.91.61-.7c2.12.45,4.25.71,6.4.79.66-.9,1.3-1.24,2.29-.59,2.27-.96,4.88-1.39,7.31-1.47,1.33.21,2.38-.05,3.16-.79-.54-.56-.29-.79.4-.4,2.18-1.04,4.2-2.34,6.07-3.92l1.05.36c.17,1.71-.42,3.45-1.78,5.23.47.13,8.33-2.21,9.12-2.68,4.13-2.53,6.47-7.77,1.31-10.85-.25-.76.1-1.08.85-.78,3.25,2.36,4.59,3.79,6.72,7.12Z"/>
        <path class="cls-122" d="M127.89,139.86l1.14.03c2.91,3.05,6.07,5.45,10.44,5.54,11.02.23,21.81-.9,32.34-4.19,7.53-1.28,2.52,5.01-2.11,5.39-.85.27-.71,1.03.42,2.27l3.17,3.49-.31.91c-.71.62-1.5.36-2.37-.79-.66.45-1.04.34-1.53-.22l-3.99-5.59c-.49-.29-1.02-.07-1.59.67l-.84.31c-2.94-1.96-6.69,1.94-3.74,4.6l-.17,1.03c-.84.76-2,.03-2.51-.84-5.07,1.32.15,5.7,2.68,6.76,4.95,2.08,13.06,3.89,18.02,2.38.32-1.12,1.98-1.76,2.77-.79.1.9-2.22,1.91-3.16,2.37-5.68,2.77-11.61,1.98-17.4-.4-.97.58-1.62-.24-1.58-1.19-.2.74-.56.74-.79,0-.79-.05-1.5-.64-1.44-1.43-4.79-2.67-9.59-5.39-14.38-8.15-2.49-.91-13.87-9.99-13.71-11.44.04-.32.37-.55.66-.74Z"/>
        <path class="cls-34" d="M187.61,3.41c3.6-.75,8.34.5,11.55,2.25,4.54.96,9,2.19,13.36,3.69,3.55,1.28,7.11,2.46,10.68,3.56.47.47,1.86,2.34,2.07,2.89.28.74-.11,1.02-.09,1.46-1.78.36-3.56-.94-5.14,0-.37-1.79-4.25-1.64-5.95-2.16-15.01-4.51-27.72-10.1-43.88-10.9-.16.59-.46.55-.79,0-.22-1.2.61-.76,1.37-.79,1.08-.04,3.08.23,3.93-.06.59-.2.33-1.04,1.22-1.16,1.83-.24,9.38.87,11.68,1.22Z"/>
        <path class="cls-125" d="M131.05,159.63c1.07-.85,3.09.45,3.16,1.58,1.18-.41,3.99.65,4.75,1.58l.61.79c-1.88,1.71-.6,4.5.76,6.2,0,2.21-.1,4.84-3.06,3.69-9.71-3.7-17.26-4.99-27.26-1.06-8.26,3.24-15.71,7.52-23.08,12.47-.68.31-1.4.46-2.15.47-.06-.29-.07-1.33,0-1.58.73-2.78,5.45-5.16,7.9-6.53,6.55-3.68,15.58-7.65,22.94-9.09,2.93-.58,6.14-.42,8.82-1.07,2.31-.56,2.53-1.63,5.82-1.1.39.06,1.08.74,2.19.8,1.22.07,2.19-.25,3.35-.41-.26-1.64-.65-2.09-1.98-2.76-.16.12-.31.21-.42.18-1.59-.45-4.65-1.4-6.1-2.01-.12-.05-.17-.27-.2-.55-1.12-1.68,2.67-1.07,3.96-1.58Z"/>
        <path class="cls-120" d="M149.25,163.98l-.11.84c-2.7.68-4.58,1.67-6.22,3.91.88.64.31,2.16-.79,1.98l-.41,1.03c.51,1.12.25,2.72-.66,3.71l4.23-.37c.68.1.75.58.4,1.17-2.07.98-4.16,1.66-6.33,2.37.3,1.04-1.63,1.42-1.63.8l-.74.39c.93.54-2.22,5.11-2.52,5.17-.81.17-1.14-.17-.64-.82,1.2-3.02-.32-5.7-1.58-8.31-5.09-7.3-15.87-4.62-22.95-1.83-6.7,2.64-13.71,6.57-18.54,11.85-1.76,1.94-3.83,1.52-5.57-.14-.05-.13-.37-.27-.4-.4,7.41-4.9,15-9.64,23.35-12.84,6.02-2.31,11.77-3.84,18.34-2.94,4.14.57,8.65,2.9,12.89,3.51-.35-.98.35-2.31.34-2.99,0-.19-.6-.16-.71-.47-.33-.95-1.25-3.47-1.24-4.27.02-1.24,1.13-1.44,1.22-2.55.03-.2.07-.38.18-.51.3-.38,9.18.67,9.62.85l.48.85Z"/>
        <path class="cls-107" d="M122.75,24.37l2.77-1.18c-.55,1.14-1.38,2.2-1.19,3.55h1.59c-.81,1.39.39,2.54.38,3.37,0,.58-1.22,1.93-1.58,2.76-1.41,3.33-3.06,13.04.65,15.18,2.44,1.4,3.47.55,5.29-1.13l.59.7c-.66,1.65-1.15,3.34-1.47,5.08l-.7.55-1.09.38c-3.37-1.48-6.71-3.03-9.73-5.17l-.26-1.14-.29-.49c.47-1.38.31-1.48-.5-.3-2.14-1.11-4.9-4.24-3.16-6.72.82-4.4,5.79-11.91,8.7-15.42Z"/>
        <path class="cls-160" d="M127.49,62.73c.71.12,1.41.33,1.98.79,8.12,1.67,16.38,4.47,23.73,8.31,2.67-.34,5.55.53,7.51,2.37,1.69-.18,2.48.22,2.37,1.19l-.98.39c3.67,2.01,7.97,2.23,11.58,4.25,1.54.86.91,1.24,3.63,1.9,19.48,4.75,36.07,1.82,54.96-2.81,3.06-.75,6.21-.13,8.72-2.75l3.56-6.13c.26.41.52.67.79,1.19.41,4.73-3.86,7.38-7.97,8.58-17.1,4.97-34.54,6.44-51.75,4.08-.6.69-2.66.36-3.16-.4l-5.93-1.19c-.57.64-1.71.42-1.98-.4-5.63-1.53-11.3-3.38-17.01-5.54-.81.5-2.08.14-2.37-.79-6.02-2.76-12.31-5.14-18.87-7.16-1.53-.55-10.93-4-11.26-5.69-.07-.36.2-.71.47-.99.92-.45,1.62-.17,1.98.79Z"/>
        <path class="cls-131" d="M237.84,63.13c-.79.17.41,1.01.59,1.19,1.19,1.18,2.62,2.23,2.55,4.12-.1,2.4-4.12,7.49-6.79,7.86l-11.78,3.05,3.17-1.77c.95-1.75,1.97-3.53,2.76-5.35-.8-.9-.32-1.62.79-1.19.24-.52.53-.71.94-.36-.78-2.35-.96-4.61-.55-6.76-1.65-.74.13-4.45,1.58-4.75,2.3,1.08,4.67,2.47,6.72,3.96Z"/>
        <path class="cls-118" d="M20.71,125.62c.89.93,1.36,2.17,2.18,3.16l.2-1.18c.48-.02.58.55.79.79,0,.57.6,1.98,1.58,2.37.1.14.28.25.4.4.47-.2.86.32,1.19,1.58l.52-.22c1.01.79,2.03,1.53,3.04,2.19.13-.34.26-.34.4,0-.15,1.7,1.21,2.03,2.46,2.48,8.6,3.17,16.13,1.31,23.25-4.07,1.14-.08,1.67,1.72.79,2.37.03,1.66-3.19,3.91-4.73,4.78-6.7,3.81-15.24,1.01-21.38-2.81-2.23-1.05-4.05-2.73-5.4-4.78-5.99,1.48-14.84,2.57-20.31-.56,1.12-.44,2,.54,3.25.5,3.21-.09,7.11-2.17,10.32-2.74,1.95-.92-1.73-4.51,1.45-4.29Z"/>
        <path class="cls-97" d="M218.07,46.52c.99-1.01,3.07-2.88,3.74-3.97.61-.98.55-1.98,1.05-2.9,1.08-1.98,4.87-4.4,7.18-3.73.66.19,2.02,2.5,1.86.71.93,2.23.85,2.46,1.19,4.75l-.71.54c-2.95-.58-6.87,3.11-7.07,6.1l-.91.09c-2.35,2.15-4.02,4.95-5.03,8.4-1.11,2.15-2.83,2.16-2.88-.49-.76-.22-.76-.57,0-.79.14-.83.27-1.62.4-2.37-.35-1.54.02-3.21.4-4.75-.82-.9-.38-1.87.79-1.58Z"/>
        <path class="cls-162" d="M233.1,41.38c.24,1.66.3,3.09.4,4.75-.16,1.71-.69,5.12-2.37,5.54-.11.35-.24.34-.4,0l-.69-.52c.45-1.8.42-3.47-.1-5.02-.17-.16-.31-.29-.32-.27-1.32,1.92-1.94,4.45-2.14,6.75-4.18-.52-7.29,6.96-1.87,7.38-1.64,3.06-2.22,11.37,1.95,4.73-1.04-1.14,1.63-2.58,1.58-.79.34.57.38,1.67-.4,1.58-.27,2.32-1.41,5.8-3.96,5.93-2.32,1.98-2.8-1.03-2.37-2.77l-1.07-.65c-1.47-6.12-2.59-15.76,3.05-19.91.74-1.45.56-2.27.99-3.17.09-.19,2.78-2.47,3.18-2.75,1.51-1.09,2.61-1.8,4.54-.8Z"/>
        <path class="cls-103" d="M100.2,42.96l.32.84c-6.92,5.33,6.78,12.34,11.51,11.51l1.61.71c.99-1.24,3.15.31,2.37,1.58l.45.6c3.87,2.25,8.09,4.77,12.66,7.53l.73.97c-1.23.44-2.54.05-3.96-1.19-8.27-3.4-16.42-8.63-24.64-11.94-2.93-1.18-6.09-1.16-8.96-3.3-1.14-.85-.89-2.43-3.29-1.69-.66.2-.94,1.01-1.49,1.3-.44.24-1.05.13-1.16.2.76-1.09,1.77-2.12,2.89-2.85,2.75-1.78,7.79-3.43,10.95-4.27Z"/>
        <path class="cls-63" d="M157.16,92.79c5.11.5,10.1,1.19,15,2.79l1.21,1.16c-.59.2-1.16.34-1.7.25-20.52-3.41-41.02-10.71-60.09-18.75-8.77-3.7-17.45-8.29-24.8-13.46.24.84.1,1.48-.42,1.91-.45.69-.9.41-.79-.4-.74-1.25-1.53-2.56-2.37-3.96-.98.35-1.11-.04-.4-.79-.05-.23.04-.54,0-.79,2.75-4.41,4.34.48,6.52,2.77,5.02,5.3,12.69,8.54,19.32,11.53,14.5,6.56,33.07,14.4,48.52,17.73Z"/>
        <path class="cls-84" d="M58.68,49.68c.69-.26,1-.07.99.63-1.22,5.2-.66,6.32,1.69,3.37,1.05-.71,3.2-.28,2.85,1.14,1.78,1.01.74.56,1.19,1.58.43,1.14-.66,1.52-1.19.4l-.65.59c-1.56-.56-1.62.37-.16,2.78-1.66,2.53-1.76,3.63,1.78,3.05l.61.7c-.15-1.19,1.54-1.56,1.98-.4.59.42,1.43.27,1.19,1.19-.03.88-.72,1.4-1.36.89l-1.41.7c-2.63,3.39-3.86,2.94-7.12,4.35-.58-2.79-2.36-6.49-2.41-9.3-.02-1.12.42-2.08.44-3.14.07-2.65-.72-6.73,1.57-8.52Z"/>
        <path class="cls-147" d="M220.04,144.21c-1.59,4.91-5.38,7.96-9.49,10.68-.84.31-1.44.48-2-.29l-1.56-7.23c-.02-.26,0-.53,0-.79,2.15-2.89,5.22-4.27,8.87-4.33,4.27-3.13,5.66-2.48,4.18,1.96Z"/>
        <path class="cls-16" d="M245.75,88.05c-6.03,13.49-24.75,16.08-37.97,17.4-1.47,1.37-4.65,1.47-6.33.4-.91,1.32-5.21,1.48-6.33.4-5.57.97-12.16.45-17.4-1.58-8.59-1.2-17.24-3.18-25.31-6.33.73-.28,1.48-.4,2.26-.35,27.96,7.89,60.37,11.17,85.94-4.79-.28-1.25,2.24-3.9,3.56-3.96-.3-1.19.1-1.72,1.19-1.58.51-.52.63-.3.4.4Z"/>
        <path class="cls-56" d="M220.04,144.21l-.2-3.55c-1.37.9-2.58,2.09-4.23,2.49-1.3.32-2.62.06-3.61.35-.79.23-3.5,2.97-5.02,3.09-.2-9.21,4.37-8.77,9.49-14.63,3.62-1.29,5.33,6.06,5.07,8.4-.11.97-1,2.94-1.51,3.86Z"/>
        <path class="cls-40" d="M132.24,175.85c-7.78-6.84-18.28-3.61-26.51.59-4.19,2.14-13.01,7.14-14.23,11.68-.03.11-.3.3-.37.62-.16.74.41,2.85-.61,2.53-2.12-.66-4.5-3.48-5.35-5.53,1.08-.29,2.19.64,3.03.69,1.37.08,3.88-3.26,5.08-4.24,7.62-6.25,28.77-16.72,37.5-9.05,1.32,1.16.95,1.69,1.45,2.71Z"/>
        <path class="cls-106" d="M246.94,75c.11.37.33,1.22.4,1.58.29,2.15.29,4.26,0,6.33-.13,1.05-.49,1-.79,0-1.04-.14-.98-.45,0-.79l-.61-.73c.87-1.55-.25-2.49-1.59-1.24-17.01,6.31-36.01,7.81-53.97,5.52-.37.17-.74.32-1.13.41-1.82.44-13.25-1.48-14.91-2.47-.34-.2-.66-.45-.97-.71l-4.7-1.44-.05-.54c2.02-.21,4.09.31,5.93,1.19.66.12,1.31.28,1.98.4l5.93,1.19c1.16.19,2.09.25,3.16.4,18.31,2.34,37.27,1.02,54.68-5.16,1.49-.53,2.99-2.06,3.96-3.28,1.02-1.03,1.91-1.25,2.67-.65Z"/>
        <path class="cls-102" d="M210.55,154.89c-6.06,4.01-11.92,7.16-19.57,6.72-2.57-.15-7.49-1.98-9.3-1.58l-4.08-.08c-.6-.14-1.09-.64-1.46-1.5-.99,1.21-5.89-1.28-4.75-2.77l.32-.58c-.95-.59-2.08-1.65-1.11-2.58.72.26,1.72.48,2.37.79l1.09-.34c9.27,7.46,23.24,8.56,33.02,1.67-.02-1.6-.05-3.23-.09-4.88-.1-.73.05-1.6,0-2.37,1.78,2.12.14,6.62,3.56,7.51Z"/>
        <path class="cls-26" d="M113.26,40.19c.55.07.48.93,0,1.19l-.48.67c-2.81.36-9.87,1.41-11.14,4.29-1.46,3.32,6.13,7.84,6.3,5.49-.53-1.97-.21-2.82.97-2.54.92.13,1.45,1.01,1.6,2.63l3.3,3.14-.15.95c-1.23-.2-2.65.56-4.37.22-1.57-.31-7.65-3.41-8.88-4.57-.7-.66-2.5-2.61-2.59-3.34-.11-.83,0-1.87.1-2.71l2.29-2.65c4.3-1.15,8.69-1.89,13.05-2.77Z"/>
        <path class="cls-9" d="M246.94,75c-2.94,1.19-4.03,3.55-7.3,4.76-17.14,6.34-36.13,6.82-54,4.34l16.37,1.15c11-1.19,22.62-1.96,33.24-5.13,2.71-.81,6.17-1.59,7.91-3.96,1.11-1.5,1.14-3.31,2.2-4.72.75,1.42,1.08,1.88,1.58,3.56Z"/>
        <path class="cls-12" d="M62.63,139.07c1.29.04,1.8,2.07.79,2.77-1.34-1.01-4.16-3.46-5.14-4.75-1.12.49-1.65-.9-.79-1.58-.4-.81-.55-1.54-.79-2.37-.24-.81-.27-1.19-.4-1.98.66-3.75,3.92-4.71,6.72-6.72-.25,3.32-1.65,5.92-1.82,9.36-.18,3.5.34,2.89,1.43,5.27Z"/>
        <path class="cls-83" d="M156.76,1.83c.95-.46,2.37-1.01,3.39-1.15,3.79-.53,11.73-.94,15.42-.46.38.05,2.21.65,3.49.87,1.68.28,4.07,1.08,5.64,1.14.74.03.47-.79.76-.8.68-.04,12.09,2.33,12.74,2.65.81.4.23,1.11.74,1.32,2.28.93,6.69,1.46,9.25,2.15,1.7.46,3.48,1.16,5.13,1.79h-.79c-7.99-2.07-16.85-4.72-24.92-5.93-1.45-.63-3.42-.94-4.99-1.14-8.24-1.02-17.82-1.3-25.85-.45Z"/>
        <path class="cls-7" d="M224.79,22.79c0,.73-.43,1.48-.38,2.15.08,1.1,1.85,2.93,1.11,4.12-.17.28-4.22,1.62-4.88,1.65-.94.05-.64-.62-.61-1.4.1-3.51.65-7.36,1-10.87,3.55-2.36,3.75.68,3.76,3.56,0,.26,0,.53,0,.79Z"/>
        <path class="cls-143" d="M152.81,255.74c.29.71-.19,1.25-1.44,1.61l.25.76c-10.84,1.99-23.93-7.34-30.84-15.23l.39-.2c2.53,2.16,4.98,4.83,7.78,6.65,3.13,2.04,12.64,6.29,16.18,6.76,2.45.33,5.24-.06,7.68-.36Z"/>
        <path class="cls-121" d="M76.47,62.73c2.15.59,4.43.95,6.82,1.1l.69.88c.73-.39,1.21,1.02.79,1.58.35.11.35.24,0,.4-3.39-1.27-10.2-3.46-13.47-1.78-2.13,1.09.9,1.25,1.63,2.35,2.45,3.67-7.74,3.29-7.15.83.12-.51,2.08-.97,1.98-1.99l-1.59.19c1.31-1.69.78-.89,2.77-1.58,3-1.04,4.44-1.43,7.51-1.98Z"/>
        <path class="cls-78" d="M159.93,154.1l1.58-.26c4.7,2.1,9.48,3.81,14.35,5.12l.29-.51c.62.22,1.28.68,1.8.77,1.27.22,3.15-.57,3.74.81-.71.16-1.26.58-1.98.79-1.08.31-1.43.56-2.77.79-.14.62-.7.71-.79,0l-4.35-.4-1.04.51c-4.2-1.13-7.45-3.81-10.71-6.54l-.12-1.1Z"/>
        <path class="cls-118" d="M58.28,137.09c-6.36,8.55-19.63,6.64-26.89.4,5.19,2.45,12.44,4.89,18.22,3.38,2.94-.77,5.59-3.47,7.89-5.36.19.39.63,1.37.79,1.58Z"/>
        <path class="cls-30" d="M207.78,105.45c-.05.85-.75,1.32-1.19,1.98-1.1,1.68-3.03,5.6-3.56,7.51-1.01,1.62-3.37.06-3.77-1.66-.35-1.49,1.19-6.3,2.18-7.44,2.08-.18,4.24-.19,6.33-.4Z"/>
        <path class="cls-8" d="M229.54,54.82c1.45-.88,1.98.31,1.58,3.56.01.24.05.6,0,.79-.34,1.46-1.57,2.4-1.58,4.75-.11.35-.24.34-.4,0-.32-.6-1.19.43-1.58.79-3.33,5.97-4.1-.25-2.15-4.03-.16-1.78,2.15-5.74,4.13-5.86Z"/>
        <path class="cls-29" d="M180.1,219.75c-.54-.13-1.47-.23-1.86-.52-.08-.06-1.28-1.56-1.28-1.66,0-.34,4.76-3.99,5.32-4.15,1.26-.36.12,2.06-.04,2.33-.21.37-2.66,2.5-1.14,2.8.75.15,5.9-.98,6.9-1.39,2.03-.82,3.47-2.46,5.15-3.75-1.18,2.49-1.71,3.51-4.33,4.97-2.93,1.63-5.43,2.13-8.72,1.36Z"/>
        <path class="cls-108" d="M58.68,49.68c3.22-2.52,5.47,1.05,6.15,3.93.18.77.59,1.38-.62,1.21-3.31-1.88-1.95.41-3.94.95-4.21,1.13-.48-4.36-1.6-6.09Z"/>
        <path class="cls-138" d="M70.15,156.47c-2.3-4.01-3.73-8.55-5.58-12.81-.29-.68-.88-1.23-1.14-1.83s-.42-1.96-.79-2.77c-.26-1.26,1-.88,1.58-.59,2.47,1.25,2.61,7.38,3.29,9.77.75,2.64,1.76,5.68,2.65,8.22Z"/>
        <path class="cls-94" d="M157.16,253.37c2.7-.71,4.32.4,1.58,2.37-2.14.97-4.85,1.96-7.12,2.37h-1.58c-.03-1.44,1.71-1.67,2.77-2.37,1.35-.89,2.64-2.14,4.35-2.37Z"/>
        <path class="cls-133" d="M174.56,244.67l-1.58-.79c.75-.91,3.32-4.96,3.96-5.36.75-.47,1.6.51,2.36.04.22-.14,1.65-2.46,1.98-2.99.75.45-.11,1.7-.41,2.17-1.67,2.64-4.07,4.82-6.32,6.93Z"/>
        <path class="cls-75" d="M114.44,232.01c-.47-.88-1.48-1.55-1.98-2.37-.36-.6-1.59-3.04-1.17-3.54,1.95-1.03,5.11.07,4.73,2.52-.02.16-.93,2.86-1,3-.14.27-.54.32-.59.4Z"/>
        <path class="cls-20" d="M168.23,248.23c.49.25.36.91-.4,1.98-2.91,2.08-5.86,4.07-9.1,5.54,1.24-1.81.63-2.68-1.58-2.37,1.63-.51,2.9-.5,4.62-1.12,1.58-.57,5.1-2.99,6.46-4.02Z"/>
        <path class="cls-139" d="M65.4,56.41c1.01,2.33,1.6,4.88,3.16,6.92.02.35-.52.19-.79.2-1.16.04-1.05.25-1.98.4-1.81-.53-3.4-6.05-1.58-7.12.39.02.84-.2,1.19-.4Z"/>
        <path class="cls-68" d="M83.2,62.34c.66.55,1.54,1.76.79,2.37l-6.55-.76-.97-1.22c2.1-.38,4.25-.71,6.33-1.19.03.13.3.46.4.79Z"/>
        <path class="cls-25" d="M172.98,243.88c1.17-.64,1.89-.69,1.58.79-2.3,2.15-4.13,3.68-6.72,5.54l-.4-.21.79-1.77c1.47-1.12,3.42-3.63,4.75-4.35Z"/>
        <path class="cls-51" d="M231.91,54.43c-1.35,1.92-1.43-.48-.79-1.98-.66.05-.45-.4,0-.79.38-1.87,2.39-3.58,2.37-5.54.2,3.63-.73,4.92-1.58,8.31Z"/>
        <path class="cls-74" d="M213.32,9.34c1.91.49,3.61,1.24,5.46,1.86s2.61-.11,4.43,1.7l-3.94-.6-6.73-2.96c.23.06.56-.06.79,0Z"/>
        <path class="cls-98" d="M47.21,90.42c-1.09-1.15-1.12-3.29-1.13-4.92,0-.76.27-1.8.34-2.59.18-.01.78.53,1.18.4l.4-1.19c-.74,2.6-.87,5.61-.79,8.31Z"/>
        <path class="cls-49" d="M114.05,39.8c-.77,4.11,1.44,4.18,3.16,6.72.74-.37.86.18.4.79-1.37,1.67-5.16-3.19-4.75-4.75-.92-.69-.67-.98.4-1.19.07-.35-.05-.81,0-1.19.15-.03.49-.42.79-.4Z"/>
        <path class="cls-162" d="M231.12,52.45c-.06.65.04,1.33,0,1.98h.79c-.3,1.18-.28,2.73-.79,3.95,0-.06-.34-.31-.37-.63-.16-1.5.59-2.6-1.21-2.93-.24-.8.87-1.97,1.58-2.37Z"/>
        <path class="cls-149" d="M247.33,82.91c.42.32.24,1.08,0,1.58-.23,1.7-1.04,2.35-1.58,3.56l-.4-.4c-.82-.64-.41-3.59.79-3.56-.13-.93,0-1.33.4-1.19h.79Z"/>
        <path class="cls-9" d="M247.33,84.49c.07-.49-.03-1.07,0-1.58.12-2.09-.08-4.23,0-6.33.4,2.12.42,3.55.4,5.74,0,.67.25,1.76-.4,2.17Z"/>
        <path class="cls-72" d="M152.81,189.69c.61,2.31.77,4.8,1.38,7.12,1.6,6.07,3.39,12.15,6.13,17.79-4.96,1.21-8.81,4.23-13.45.6-1.93-1.51-9.99-8.71-10.97-10.39-2.1-3.6-4.71-17.08-2.46-20.46.08-.19.22-.17.39-.2.03,0,.2.33.36.39.51-1.81,1.86-3.18,2.8-4.74,1.12-.17,2.29.23,3.5,1.21,5.3,1.75,9.41,4.64,12.32,8.68Z"/>
        <path class="cls-46" d="M107.03,188.01c1.21.98,3.14-.38,4.07,3.26.68,2.63-1.48,3.93-1.38,4.5.13.71,2.17,1.36,1.95,3.57-.28,2.77-3.28,2.08-4.36,2.8s-2.09,7.84-6.09,1.75c-1.73-2.63-1.67-4.48-2.3-7.19-.25-1.09-1.39-2.19-1.49-3.29-.09-.94.46-1.81.43-2.73-.08-1.99-1.63-6.36,1.36-6.92,2.12-.39,2.99,1.04,3.55,1.06,1.16.04,1.21-1.68,3.14.94.44.6.84,2.02,1.12,2.25Z"/>
        <path class="cls-87" d="M105.35,211.45c2.9-3.85,4.39,4.33,4.73,4.59.68.51,2.19-1.01,2.41.76.02.17-.05,3.28-.08,3.45-.66,3.41-4.52,3.68-6.05.26-.29-.64-.11-1.12-.22-1.55l-.4-2.37c-.2-.78-.25-1.25-.4-1.98-.3-1.09-.3-2.15,0-3.16Z"/>
        <path class="cls-153" d="M151.23,165.57l.29.81c-2.52,2.25-4.19,5.15-5.03,8.68.79-.11.96.22.4.79-.26.14-.78.2-1.19.4-.41-.8-1.39-.26-1.98-.2-1.72.16-3.46.15-5.14.6-.23-1.42,1.71-1.38,2.17-1.98.49-.65.38-2.41.7-3.27.18-.49.67-.63.69-.68.81.73,1.42.71,1.84-.05,1.35-2.77,4.04-4.36,6.81-5.43.09-.04.26.12.45.34Z"/>
        <path class="cls-92" d="M146.48,175.06c.31-2.11,2.45-6.18,4.86-6.11l2.65-4.67c.85-1.23,2.99-3.73,3.16-1.08l.45.3c-.5.92-.92,1.87-1.24,2.87-2.65,3.3-5.76,7.47-9.49,9.49-.11-.27-.29-.52-.4-.79Z"/>
        <path class="cls-65" d="M139.36,178.62c-.21.96.49.82,1.04,1.11,4.36,2.33,11.11,5.08,12.41,9.96-1.24-.62-1.54-1.88-2.63-2.71-3.5-2.67-9.49-4.42-13.19-7.18.06-.1-.15-.58.05-.73.1-.07,1.65-.24,2.32-.46Z"/>
        <path class="cls-31" d="M159.14,162.8c-.98,1.14-1.83,2.39-2.77,3.56-.65-.47.47-2.22.79-3.16-.91-.66-.61-1.28.4-1.58.89.19,1.4,1.11,1.58,1.19Z"/>
        <path class="cls-18" d="M118,233.99l-.19,1.98c-1.16-.93-1.73-2.32.19-1.98Z"/>
        <path class="cls-72" d="M105.35,214.61c-.21-1.08-.99-1.85,0-3.16v3.16Z"/>
        <path class="cls-72" d="M106.14,218.96c-.19-.73-.7-1.39-.4-2.37.17.67.71,1.36.4,2.37Z"/>
        <path class="cls-165" d="M144.9,142.63c.84-.27,1.9-.27,3.16,0,.61.35,1.16.95,1.86,1.1,2.14.47,10.39-.37,12.87-.81,4.05-.72,10.03-3.71,14.27-2.68,1.09.26.32,2.73-.05,3.46-1.72,3.29-6.52,2.11-2.46,7.05,5.15,6.25,17.79,5.86,25.01,4.03,2.3-.59,7.78-2.06,7.43-5.03.26,1.97,2.14,4.32.2,5.94-4.82,4.03-14.99,4.67-20.96,3.95-5.45-.66-8.73-4.18-13.26-6.32-.77-1.29-6.37-5.75-4.09-7.15,1.59-.97,6.03-1.19,6.06-4.32-.83-.06-1.64,0-2.46.11-5.72.73-12.29,3.32-17.91,3.84-4.33.4-8.81.06-13.45.39-6.06.44-9.29-2.26-13.24-6.32-1.12.68-3.19-1.77-2.37-2.77l-1.19-1.58c-.54.55-.76.31-.4-.4-1.9-1.26-2.56-2.58-1.98-3.96,1.91,2.76,6.57,7.38,9.62,8.77,3.66,1.67,9.3,2.31,13.32,2.7Z"/>
        <path class="cls-2" d="M116.82,120.08v.59c.07.27.28.16.4.2,1.46,5.34,3.08,10.87,5.54,15.82l.53-.11c4.17,5.18,8.68,10.42,14.32,14.18l-.21.96c-.74.08-1.46,0-2.16-.23l-9.43-4.78c-5.1.18-7.03-.59-10.2-4.7l-4.31-6.91c-1.29-.24-1.76-3.03-1.95-4.45l-.81-1.88c-.37-1.99-.93-3.8-.79-5.93-1-1.23-.41-3.48.79-4.35.08-.18.17-.35.3-.48.28-.26,6.63,1,7.51,1.24l.49.82Z"/>
        <path class="cls-48" d="M240.61,93.19c-12.77,11.58-41.39,13.39-57.94,11.47-10.44-1.22-20.09-4.34-30.26-6.32-.24-.05-.55.05-.79,0-1.07.89-2.47.19-2.37-1.19-16.57-5.57-33.14-11.61-48.92-19.31-2.32-1.28-4.6-2.65-6.75-4.2-.27-.19-.4-.57-.5-1l.37-.22c43.66,20.23,98.05,42.93,145.19,20.93l1.97-.14Z"/>
        <path class="cls-70" d="M149.25,97.14c.72.34,1.4,1.01,2.37,1.19-2.1,1.91-4.1,5.62-6.07,7.38-1.42,1.27-5.07,3.96-6.8,5.27-6.29,4.74-13.76,9.24-21.94,9.11-1.86-.03-6.22-1.19-8.31-1.58-.34,1.07-.84,1.09-1.19,0-2.05.86-5.71-.28-7.12-1.98-1.44.36-2.36.1-2.77-.79-.6.93-1.71.79-1.98-.4-.56.89-.82.76-.79-.4-1.18.86-4.37-.45-4.35-1.98-2.03,0-5.98-2.27-5.54-4.35l1.72.17c15.28,8.7,36.85,13.34,50.9.15,3.93-3.76,7.62-7.69,11.06-11.79h.79Z"/>
        <path class="cls-144" d="M201.45,105.84c.36,3.64-4.37,8.75,1.58,9.1-.11.38.19,1.13-.07,1.51-.24.35-4.58,2.01-5.29,2-3.26-.09-.46-5.12-4.36-5.85-2.02-.38-2.5-.32-2.94,1.56l-.77-.55c-.17-1.17-.45-2.31-.82-3.4.77.15.93-.61,1.19-.79-.1-2.15,3.18-3.13,5.14-3.16,1.81-.25,4.34-.22,6.33-.4Z"/>
        <path class="cls-110" d="M149.64,123.64c-.47.88-1.19,1.7-2.18,2.47,1.26,1.54,2.25,3.22,2.97,5.04-.06.7-.8,2.5-1.45,2.72-1.33.45-2.04-.61-2.77-.67-.54-.05-1.68,1.08-3.49.72-.98-.2-2.48-3.14-2.54-4.18-.17-3.04,1.83-2.65,2.26-4.02.39-1.24-.04-4,1.1-4.83,1.95-1.41,5.76.58,6.1,2.74Z"/>
        <path class="cls-3" d="M195.13,106.24c-1.81.25-3.54,2.05-5.14,3.16-1.95-2.85-5.11-2.2-8.1-2.77l.59.79-2.37-.39c1.08,1.69-1.45.65-1.89.86-.1.05-.13.6-.37.71-3.92,1.9-8.03,4.03-10.79,7.52-.15-1.03.42-1.64.98-2.38,2.04-2.72,6.72-5.27,9.32-7.7.49-.46.95-.71.38-1.39,5.75.8,11.59,1.38,17.4,1.58Z"/>
        <path class="cls-57" d="M188.8,110.2c1.44.38,1.7,2.7,1.58,3.96-.08.82-.51,1.61-.79,2.37l-3.03,4.43c-.42.67-.86.9-1.32.71-.19-.06-.37-.13-.5-.25-.11-.1.13-2.29.21-2.78.03-.19.15-.36.3-.53l.39-.72c1.7-.33,2.41-1.8,1.59-3.23-.56-.98.95-.65.74-.44-3.63-.24-5.78,3.64-6.62,6.71l-.84.46c-1.19,1.37-3.61,2.2-2.77-.4,1.48-4.11,5.9-11.64,11.07-10.28Z"/>
        <path class="cls-122" d="M121.96,131.16l1.98,3.96c-.43.46-.83.99-1.19,1.58-.63-.27-.96-.72-1.27-1.3-2.21-4.17-4.23-9.8-4.27-14.52.02,0,.43-.66.39-.19,1.15,3.38,2.33,7.56,4.35,10.48Z"/>
        <path class="cls-23" d="M177.72,120.48v1.19c.87-.5,1.72-.94,2.77-.79.57.33.91.92,1.01,1.76.8.14,1.25.48,1.37,1.01.12-.16.26-.16.4,0-4.13,1.87-7.81,3.17-5.54-3.16Z"/>
        <path class="cls-33" d="M148.06,142.63c-.34,1.37-2.62.55-3.16,0-.1-.1-1.16-2.34-1.13-2.51.12-.62,1.86-1.86,2.53-1.84,1.33.03,2.04,3.25,1.76,4.35Z"/>
        <path class="cls-128" d="M150.43,131.16c-1.79-3.54-7-4.88-.79-7.51.21,1.32-.34,2.66-.27,3.71.08,1.25,1.19,2.14,1.06,3.81Z"/>
        <path class="cls-13" d="M183.26,123.64h-.4c-.85-1.16,1.18-2.55,2.37-1.98,1.84-1.71,1.95-4.12,4.35-5.14-1.51,4.04-2.47,5.37-6.33,7.12Z"/>
        <path class="cls-45" d="M74.89,103.08c.77.14.33,5.62.17,5.89-.37.62-1.82.9-2.45.59-6.64-3.24-14.3-9.06-20.23-13.62-.97-.74-1.93-1.49-2.8-2.36-.28.15-.55.02-.79-.4-.36-.79-1.02-1.1-1.19-2.37-.18-1.34.13-2.96,0-4.35l.92.06c5.44,3.26,10.29,7.46,15.57,10.93,2.35,1.55,6.2,4.06,8.67,5.18.71.32,1.34.54,2.13.43Z"/>
        <path class="cls-155" d="M54.33,120.87c-1.99.09-3.43,1.53-4.32,3.26l-.82.3c-2.04-.23-3.21,1.35-5.16-.57-2.08-2.04-.54-3.92-.83-5.13-.11-.48-1.25-.73-1.62-1.51-1.06-2.2.59-5.24,2.49-6.42,1.12-.69,2.79-.65,3.43-1.12.54-.4.7-1.83,1.79-2.36,2.88-1.39,2.47,2.05,3.28,3.26.5.75,2.95,1.37,3.34,3.38.68,3.53-1.29,4.27-1.57,6.91Z"/>
        <path class="cls-138" d="M72.52,112.57c.99,1.05-1.52,4.7-2.77,3.16-2.97-2.65-4.61,2.13-6.84,3.64-1.85,1.25-4.01,2.18-6.21,1.51,1.05-5.04,3.56-10.33,6.33-14.63.27-.07.54-.12.79-.09.67.07,7,4.26,8.1,5.1l.6,1.32Z"/>
        <path class="cls-99" d="M49.58,93.58c4.56,3.68,9.3,7.27,14.14,10.63,2.09,1.45,8.48,5.8,10.49,6.39.48.14.79.04,1.31-.2,2.36,2.7,3.96,3.85,7.59,4.72,3.92.94,7.78.89,11.55-.18.27.1.52.3.79.4,1.2.65.94,1.44-.79,2.37-1.59,3.51-7.69,3.27-11.14,2.12-1.57-.53-5.23-2.76-6.47-3.84l-.19-1.04c-1.46.54-4.15-.81-4.35-2.37-3.02-1.91-6.57-4.28-9.49-6.33-4.86-3.42-11.84-7.81-14.24-13.05.26.13.53.26.79.4Z"/>
        <path class="cls-159" d="M40.32,128.24c-.9,1.58-.21.88-.35,2.27-.29,2.87-1.18,1.78-2.35,2.31-1.05.47-1.71,2.12-3.02.47-.71-.9-.63-2.42-.92-2.83-.41-.58-2.75-.55-2.67-3.01.07-2.05,1.53-2.52,2.75-3.6.74-.65.62-1.85,2.18-1.82.21,0,3.81,1.08,3.96,1.22,1.47,1.41,1.34,3.39.42,5Z"/>
        <path class="cls-61" d="M49.18,124.43c-.23-1.32,4.03-5.85,5.14-3.56-.13,1.18.2,2.64,0,3.76-.4,2.23-4.88,1.26-5.14-.2Z"/>
        <path class="cls-81" d="M31.39,132.74c-.35.58-.61,1.24-.79,1.98-2.14.35-2.38-.7-3.56-1.98-.65-.94-.78-1.87-.4-2.77.12-.07,2.18-.73,2.38-.63.18.1,2.15,2.93,2.37,3.4Z"/>
        <path class="cls-130" d="M25.45,130.76l-.2.39c-.77-.7-1.6-1.46-1.77-2.54l.38-.22c.69.8,1.08,1.68,1.58,2.37Z"/>
        <path class="cls-72" d="M27.04,132.74c-.71-.77-.74-1-1.19-1.58.29-.32.44-.97.79-1.19l.4,2.77Z"/>
        <path class="cls-138" d="M55.91,129.18c-.1-1.39-.25-3.64.4-4.75-.07,1.52.39,3.54-.4,4.75Z"/>
        <path class="cls-118" d="M31.39,132.74c.04.08.45.16.43.55-.01.2-.56.21-.8.55-.16.21.05.72-.02.88-.02.04-.26-.02-.4,0-.11-.93-.13-1.57.79-1.98Z"/>
        <path class="cls-126" d="M167.44,25.56c2.17-3,3.68-4.02,7.43-3.79,1.28.08,11.61,1.89,12.06,2.3.9.77.73,1.79-.51,3.07l-.11,1.45c-2.46,2.59-16.22,20.07-14.84,21.95,3-4.97,6.28-9.84,9.83-14.58l1.17-.11c.89-1.36,1.89-2.68,3.04-3.84,3.24-3.27,3.71-3.53,8.33-2.67,5.09.95,6.25,1.51,4.45,7.14,2.6,1.99,1.69,4.12.21,6.66-5.74,7.93-9.93,16.88-12.46,26.15l.78.96c.19.03.35.2.4.4-.62,1.22-3.14.81-3.56-.4-.09-.37-.17-.74-.19-1.11s-.04-.72.06-1.03c2.8-8.35,6.69-16.06,11-23.41.82-1.66-.83-1.06-1.86-.5-10.04,5.45-14.11,13.72-17.93,23.9l-2.16-.23c-.58.99-2.31.87-2.37-.4-.34-1.9,1.21-4.04,1.79-5.92s2.4-7.37,1.17-8.7c-1.12-1.21-1.73,1.32-2.71,1.16-2.1-.35.36-3.86-1.46-5.29l-11.14-4.71c-1.34-.69-2.98.77-3.87,1.72-.77-.23-.78-.59,0-.79-.11-.14-.19-.28-.22-.43-.12-.72.48-1.94.81-2.6,1.03-2.09,10.56-15.98,11.76-16.37.38-.12.72-.16,1.09.02Z"/>
        <path class="cls-53" d="M178.52,13.3c.1-.31.54-.25.79,0-1.38,1.64-3.13,3.04-5.28,4.18-5.86,4.53-9.19,8.88-13.6,14.65-2.57,3.38-6.1,8.69-6.44,12.8-.06.21.04.54,0,.79-.46.49-.86.99-1.19,1.58-1.1,1.06-1.7-.28-1.19-1.58.48-2.22,1.71-5.82,1.9-7.81.06-.66-.09-.89-.37-1.43-.72-1.38-3.45-4.72-4.73-5.56-2.23-1.46-4.76-2.61-7.48-2.21l-.16-1.05,3.48-5.52-.16-.55c1.65-.81,2.06.06,3.56-.16,1.3-.19,6.14-2.38,6.95-3.37,1.13-1.38.4-3.91-1.59-3.6-.81.13-2.02,2.1-2.58.6-.22-.59,2.1-1.65,2.38-2.35.47-.3,1.1-.63,1.65-.74,2.33-.44,11.08-.02,13.96.13,3.27.17,6.82.76,10.09,1.18Z"/>
        <path class="cls-34" d="M166.25,7.36c-1.23-.91-3.13-.25-4.5-.13l-3.41-1.06c18.97-.64,37.83,5.2,54.88,12.98,1.47.56,3.67-2.89,4.85-2.12.46.3.14,1.79,1.96.61.09,1.29-1.16,11.29-1.62,12.02-.6.96-5.46,2.32-7.09,3.2-6.23,3.35-13.91,11.77-17.21,17.99s-5.76,12.85-7.31,19.39c-.5-.07-1.07.06-1.58,0-.66-.7,3.12-10.3,3.77-11.85,2.72-6.52,6.61-11.05,9.36-16.75,2.25-4.67-.65-3.06-.87-5.23-.14-1.38,1.65-3.2.43-5.07-.5-.78-7.37-1.87-8.35-1.67-2.09.44-5.63,4.48-7.11,6.15-.32-1.55.41-3.11,2.18-4.69,1.42-1.71,4.08-4.68,6.13-4.8l2.38-1.66c5.11-.22,10.22.34,15.34,1.65,1.57,1.08,5.42-2.65,5.15-3.5-.1-.31-3.3-1.77-3.97-2.05-.24-1.37-1.47-2.31-3.67-2.83l-.08-.54c-3.08-.99-6.02-2.11-8.82-3.34.44,1.68-2.57.8-1.98,0-7.44-1.16-14.85-2.8-22.21-4.93-2.5-.21-4.72-.81-6.66-1.79Z"/>
        <path class="cls-134" d="M117.61,47.31c.13-.34.26-.34.4,0,4.21,2.97,6.48,3.85,11.07,5.93.76-.75.94-.66.79.4,2.82,1.25,5.07,2.06,7.91,3.16,1.1-.87,3.67.23,3.96,1.58.8-.91,1.51-.34,1.58.79l.87.71c1.55,3.87,4.75,6.87,8.26,9.01,1.06.81,2.32,2.21.77,2.93-7.89-2.7-15.93-5.41-23.73-8.31-.57-.46-1.27-.67-1.98-.79-.66-.25-1.32-.52-1.98-.79-3.34.2-7.01-2.2-9.49-4.35-.54-.28-.62-1.29-2.37-1.58l-3.81-3.69-.93-3.03c-1.15-.55-.38-2.09.17-2.98.72-1.17,2.57-3.68,3.78-3.75,1.17,1.31,2.18,3.08,3.55,4.18.52.42,1.02.44,1.2.57Z"/>
        <path class="cls-62" d="M168.63,67.09c.53.14,1.05.26,1.58.4.92.23,1.69.23,2.37.4,2.11-.47,3.56-.07,4.35,1.19,1.73-1.22,4.35.24,5.93,1.19.1-.34.23-.34.4,0,2.77.25.83,3.95-.18,5.52-1.21,1.88-2.39,2.35-4.56,2.39-1.78.19-3.63.06-5.54-.4-1.59-.35-3.17-.78-4.75-1.19-1.16,0-2.21-.26-3.16-.79-.51-.15-1.2-.16-1.98-.4-.71-.21-1.93-1.05-2.37-1.19l.42-.85c2.99-.62,4.28-3.73,5.02-6.38l.89-.28c.11-.34.24-.34.4,0,.56-.85.96-.71,1.19.4Z"/>
        <path class="cls-161" d="M137.78,56.8c.54-1.21,1.32-2.35,1.71-3.63.32-1.04.09-2.31.46-3.1.81-1.72,7.52-3.68,9.14-2.41.6.47.63,2.13,1.61,2.38s1.27-.85,1.99-1.07c1.59-.5,9.68,1.37,11.68,2,.51.16,3.64,1.41,3.77,1.57.33.4.28,1.73.59,2.37.43.87,1.48,1.68,1.69,2.66.53,2.5-2.46,6.87-1.8,9.5-.48-.13-.87-.31-1.19-.4l-.78-.63c1.8-6.42,2.26-11.05-5.41-12.66-3.97-1.18-8.03-1.56-11.87-.16-2.05-1.36-3.1-1.76-4.62.48l-2.05,4.46-.98.19c-1.34-.49-2.77-1.12-3.96-1.58Z"/>
        <path class="cls-115" d="M131.35,29.21c4.27-.74,4.3.25,7.25,2.05,1.58.97,3.84.37,3.06,3.89-.3,1.34-3.61,4.15-4.84,4.67-1.12.47-2.17.25-3.15.8-1.84,1.03-1.61,3.92-5.49,3.04-5.07-1.14-4.1-13.2,3.17-14.46Z"/>
        <path class="cls-157" d="M166.25,7.36c10.02.58,20.16,5.88,28.87,6.72l.2.52c-1.11.04-2.24-.13-3.37-.52-.04.36-.18.34-.4,0-12.15-2.2-23.8-4.22-35.94-3.44-1.99.08-8.16-.13-4.4-2.09,4.11-.77,10.87-1.43,15.03-1.19Z"/>
        <path class="cls-100" d="M151.23,8.55c-.68.39-1.28.69-.1,1.09,4.86,1.62,14.52.2,20.09.48,6.79,1.07,13.7,2.13,20.35,3.97l-1.38.39c-3.91-.37-7.8-.89-11.67-1.58-2.21-.17-5.32-1.38-7.72-1.58-6.63-.55-16.7-.61-23.26.02-3.35.32-6.5,1.65-9.76,2.34.82-1.17,2.98-2,4.36-2.56,2.82-1.13,6.1-2.02,9.09-2.58Z"/>
        <path class="cls-89" d="M148.46,16.46c-.19,2.4-2.23,2.93-3.85,4.25l-16.22,6.36c-1.65-.03-1.97-1.05-1.23-2.45,1.86-3.51,11.42-7.31,15.28-8.05,2-.38,4.05-.84,6.02-.1Z"/>
        <path class="cls-5" d="M214.9,15.67c.72.78-.92,1.86-1.82,1.97-1.79.22-9.75-3.29-11.89-4.27-.69-.32-2.36-.7-2.11-1.65l15.82,3.96Z"/>
        <path class="cls-67" d="M170.21,4.2c.22,1.2-.61.76-1.37.79-3.6.14-7.5-.29-11.04.05-2.72.26-6.71,1.96-9.14,1.93-.29,0-1.32-.45-.79-.8h2.96s-1.58-.78-1.58-.78c4.52-1.26,10.5-3.38,15.23-2.77.58.07,1.23.3.58.79l-5.69.04-5.38,1.54c5.08-.88,10.26-.99,15.42-.79.26.01.53-.01.79,0Z"/>
        <path class="cls-17" d="M191.57,14.09c.13.01.26-.01.4,0l2.32.52c1.58,0,4.06.59,5.2,1.85-1.67.88-3.06.52-4.83.03-3.76-.45-7.52-1.02-11.26-1.65-.37-.06-.71-.25-1.07-.44s-.7-.44-1.04-.7c-1.27.57-1.93.44-1.98-.4-.26-.03-.53.03-.79,0v-.4c4.36.33,8.6.75,13.05,1.19Z"/>
        <path class="cls-54" d="M131.85,44.54c2.2-2.75,1.83,1.12.79,2.77-.39,1.54-1.16,3.67-1.68,5.26-.21.64-.17,1.26-1.09,1.07-.27-.12-.52-.27-.79-.4-.31-.82.26-2.42.52-3.24.29-.91.73-2.21,1.06-3.09.43-1.15.65-1.41,1.19-2.37Z"/>
        <path class="cls-4" d="M140.94,28.72c-.62.71-1.57,1.44-2.37.6,1.42-1.99,3.25-6.6,5.54-7.71.65.07,1.42.11.79.98-1.38,1.9-2.43,4.41-3.95,6.14Z"/>
        <path class="cls-107" d="M132.64,47.31c.13-.51.58-2.95.39-3.16l-1.18.39c.27-.48.21-1.69,1.03-1.94,2.39-.72.66,3.91-.24,4.71Z"/>
        <path class="cls-126" d="M151.62,45.73c-.24,1.15.21,1.27,1.19,1.58-.3.55.5,1.05-1.58.79-.34-.97.25-1.71.39-2.37Z"/>
        <path class="cls-150" d="M197.5,70.64c3.9-.52,7.88-3.04,10.27-6.14,3.66-4.74.6-8.73,3.09-13.13.52-.92,6.16-6.08,7.01-6.44,1.06-.45.3,1.34.19,1.58-.21.48-.51.79-.79,1.58-.31,1.62-.57,3.21-.79,4.75.34.68.29,1.64,0,2.37,0,.26,0,.53,0,.79.77,1.88,1.03,4.01.79,6.38.37,1.89.23,3.58-.4,5.09l.96,1.57c.26,2.25,1.15,3.7,2.6,5.16l1.15.24c1.6-.51,1.2,1.29-.36,1.35-.08.14-.28.26-.4.4-.54.77-2.31,1.04-3.16.79-.3.1-.25,1.23-1.38.39l.19.79-1.78-.4.2.79-1.99-.39.4.78c-2.45-1.14-2.34.58-3.37.8-.27.06-.14-.74-.2-.79-.78-.63-.78.61-.87.67-.92.65-6.4-.48-7.83-.68-2.11-.85-3.79-5.33-4.14-7.54l.58-.77Z"/>
        <path class="cls-117" d="M187.22,70.64c2.8.12,7.66.35,10.28,0l1.51,4.62,2.05,3.68c-4.15-.61-11.28.44-16.61,0-2.17.06-4.15-.2-5.93-.79,1.09-.38,2.81-1.35,3.5-2.23.64-.82,3.09-5.16,1.24-5.68.1-.34.23-.34.4,0,1.22.12,2.2.34,3.56.4Z"/>
        <path class="cls-14" d="M197.5,67.88c-1.78-4.96,4.99-7.26,4.75-11.87,1.68,1.28,5.74,1.7,4.44,4.64-3.19,2.86-4.16,7.53-9.19,7.22Z"/>
        <path class="cls-71" d="M223.11,31.56c1.04-.2,1.91,0,2.7.71.72,2.3-6.34,7.2-7.55,7.1-2.35-.19,1.76-7.22,4.85-7.81Z"/>
        <path class="cls-96" d="M204.63,50.48c-.17.12-.34,2.34-1.59,1.97.07-.8-.57-1.78-.42-2.51.06-.29.8-.23.81-.48.07-1.53-.59-1.74.57-3.75,1.65-2.86,1.94.02,3,.61.77.43,2.56-.67,2.4,1.98-.05.86-1.54,2.73-2.3,2.93-.81.21-1.86-1.19-2.48-.74Z"/>
        <path class="cls-72" d="M227.83,29.63c.33.42.59.9.51,1.46l-1.57-1.39c-.27-1.07.97-.19,1.06-.07Z"/>
        <path class="cls-84" d="M102.18,79.35l.55.95c-3.51,3.23-3.84,13.81,1.62,4.61,1.72-.46,2.25-1.52,1.58-3.19l.59-.79c3.36,1.3,6.69,2.72,9.99,4.26l.69.88.27,1.1c-2.08,2.04-2.42,4.62-1.02,7.76-1.36,5.22-.39,9.08,2.93,11.59l.2.91,1.7.15c1.36-1.35,2.77-2.19,4.23-2.52.93.02,2.5.66,2.77,1.58,1.54-.89,2.73-2.08,3.56-3.56-1.47-1.15,1.04-3.83,2.37-2.37,1.99-1.09,3.3-2.49,3.95-4.2-1.16-1.62-.08-2.54,1.19-1.73.17-.25.42-.62.64-.56,2.85.68,5.82,1.84,8.45,2.94.64.75,0,.9-.39,1.38-12.97,16.32-23.22,22.76-44.71,17.81-6.83-1.58-12.74-3.82-18.58-7.72-1.17.41-1.83-.89-.79-1.58-.28-.98-.53-1.89-.38-2.94.04-.29,1.16-3.15,1.28-3.29.14-.17,3.15-1.67,3.85-2.08l.13-.97c4.75-1.55,6.47-5.71,8.12-10.08l2.63-8.65.98-.47c.83-.41,1.4-.11,1.58.79Z"/>
        <path class="cls-156" d="M87.94,69.85l.67-.09c3.62,3.13,7.62,5.84,11.83,8.13l.15.66c-1.75,5.37-3.46,14.22-7.9,18.01-1.14.98-2.69,1.42-3.97,2.16-1.63-.66-3.81-4.08-5.39-4.25-2.05-.23-4,2.81-4.69,2.67-1.17-.24-.12-1.89.19-2.37l.09-1.39c.52-.51,2.75-3.06,2.34-3.62-1.2-.31-1.62-1.26-.73-2.25,1.91.63,3.78.74,5.6.33l.61.6c.82.05,3.15.87,3.96.39.03-.02-.3-.49-.15-.79.3-.59,1.34-.94,1.18-1.6l-15.26-12.45c-.31-.9,1.62-.67,1.51-1.89-.12-1.29-4.58-5.62-1.22-6.11,3.67-.54,7.59,3.79,11.17,3.87Z"/>
        <path class="cls-76" d="M78.85,94.77c.13-1.42-.89-2.3-1.79-3.15-5.34-5.05-13.16-7.69-18.35-12.11-3.91-3.33,1.54-2.44,2.17-3.3.51-.7-.28-2.62-.21-3.74.24-4.03,2.13,1.13,2.57,1.72,2.08,2.82,13.41,10.85,16.79,12.27.64-.91,3.19.12,3.16,1.19.25.05.54.41.99.37,1.14-.1,1.97-2,2.57.42-1.98-.13-3.93.19-5.93-.39-.34,1.15.9.69,1.14,1.42.57,1.74-2.2,3.89-3.12,5.3Z"/>
        <path class="cls-146" d="M49.58,93.58c4.69,2.35,8.62,6.16,12.93,9.02,3.34,2.22,7.07,3.97,10.4,6.24.35.16,1.43-.1,1.54-.29.16-.26.3-4.58.45-5.48.03-.19.43-1.19.6-1.19.89-.06.8.68.98,1.19-.1,2.13-.02,4.27.23,6.42l3.35,1.39c3.62,1.49,6.38,1.75,10.26,2.07,1.51.89,2.73,1.37,4.35,1.98.23,1.06-.53.77-1.17.98-4.47,1.5-11.68.41-15.72-2.08-1.15-.71-1.39-1.95-2.29-2.86-.33-.15-.07.76-.42.82-.7.13-9.65-5.52-10.97-6.43-1.78-1.22-3.32-2.78-5.05-4.05-3.18-2.32-7.52-4.32-9.46-7.75Z"/>
        <path class="cls-116" d="M53.42,78.23c.66-.19,1.07-.11,1.68.14,1.48.62,5.25,3.77,7,4.86,3.71,2.31,9.05,4.8,11.8,8.37,3.01,3.9-2.24,2.53-4.43,1.66-2.8-1.11-15.5-8.23-17.14-10.15-1.31-1.53-.76-4.34,1.08-4.88Z"/>
        <path class="cls-148" d="M85.57,66.29c.18.04.62.27.79.4.76-.91,1.75.23,1.19,1.19.99-.51,3.36,1.73,3.16,2.77.99.6,1.78,1.26,2.37,1.98,16.09,11.75,38.5,16.08,56.16,24.52-.25-.03-.56.05-.79,0-1.13-.25-8.8-2-9.1-2.37-.68-.38-1.19-.4-1.22.57-4.05-.78-7.65-3.01-11.04-5.31-3.35-.04-7.55-1.58-9.89-3.96-3.65-1.59-7.11-3.44-10.68-5.14-.76.91-4.65-.27-4.35-1.58-.52-.26-1.06-.53-1.58-.79-4.05-2.07-9.29-5.64-12.66-8.7-1.04-.94-2.42-1.99-3.16-3.16-.06-.09.06-.29,0-.4.12-1.07.36-.96.79,0Z"/>
        <path class="cls-45" d="M83.99,107.03c.17.6.44,1.07.79,1.58,1.01,1.45,3.94,3.41,5.54,4.35-1.85.38-3.75.6-5.64.3-.97-.15-8.05-2.7-8.5-3.17-.98-1.03-.54-5.66.29-7.02.09.26-.04.69.2,1.17,1.03,2.04,5.39,2.2,7.31,2.79Z"/>
        <path class="cls-121" d="M67.91,74.46c-1.18-1.38-1.63-3.26.81-3.02,1.82.18,11.44,7.54,11.62,9.35.16,1.64-1.24,1.92-2.57,1.41-1.03-.39-9.02-6.75-9.86-7.74Z"/>
        <path class="cls-58" d="M78.71,98.41c1.7-.15,6.16,4.45,3.69,5.66-2.91,1.43-7.96-5.27-3.69-5.66Z"/>
        <path class="cls-164" d="M80.03,86.46c.71-.45.14-1.76.76-2.21.98-.71,3.62.4,3.62,1.62,0,1-1.47.68-1.21,1.77-1.51-.31-1.91-.66-3.16-1.19Z"/>
        <path class="cls-86" d="M58.67,72.62c.25,2.52-3.19,3.38-5.14,3.56-.85-.72,4.49-4.2,5.14-3.56Z"/>
        <path class="cls-138" d="M66.59,120.48l.86-.58c2.9,2.75,6.08,2.17,9.54-1.74l1.19-.26c2.86,2.15,5.94,3.9,9.22,5.26,1.27.52,2.05,1.45.77,2.44-11.72,3.59-8.07,9.73-1.33,16.42,2.51,3.53,2.76,6.19,2.85,10.46.33,3.08,1.99,5.5,4.98,7.27l.31,1.01c-.8,4.7,1.34,5.77,6.41,3.22-.2-1.12.25-1.43,1.19-.79,1.7-1.07,3.24-2.45,2.92-4.62-1.84-5.44-.68-10.65,3.94-14.23.82-1.45-1.22-5.13-3.03-5.27-2.95.26-3.97-.61-3.06-2.63,1.64-2.78,4.03-7.96-.49-9.23l-6.66-1.06c-1.99-1.14-.54-2.45,1.44-2.46,2.81.06,5.41-.44,7.78-1.5,1.04-.87,2.56-1.49,1.91.27-4.52,3.3-2.35,2.13-.88,5.03,1.03,2.02.78,5.02,1.48,7.23.79,2.48,5.24,8.59,5.17,10.49-.08,2.14-4.4,3.7-5.18,7.31-.59,2.77.68,6.34.21,8.03-.09.33-1.6.97-2.03,1.66-.38.61-.1,1.53-.74,2.18.12.38-.01.51-.4.4-.92.4-1.03.13-.79-.79-1.18.14-1.84.54-1.98,1.19,1.07-.23,1.15,0,.4.79,1.66,1.33.84,2.5-2.48,3.52-2.21,1.27-2.06,1.43.38,1.6l.52.81c-3.52,1.75-7.08,3.47-11.07,3.95-.73-2.8,6.77-6.02,6.73-7.31,0-.29-.58-.16-.64-.29-.15-.29.31-.84-.4-1.04-.89-.26-2.14.08-3.12-.06-2.5-.35-4.58-1.37-6.53-2.96-2.9-2.36-3.76-3.91-2.76-7.72.81-1.59,2.44-3.46,1.9-5.25-1.86-1.16-5.17-7.51-6.45-8.19-.18-.09-.67-.08-.59.19,1.48,2.72,4.76,5.06,5.14,8.11l1.18-.4c.69.83-3.01,5.77-3.76,6.72l-.2-1.58c-1.58.94-1.4,1.64-2.75.19-1.66-1.78-6.33-9.95-6.33-12.25,0-.69,1-5.62,1.26-6.25.54-1.31,1.95.06,2.29-.28.21-.21-.67-2.61-.84-2.71-2.1-1.29-3.83,5.14-5.32,5.46-1.37.3-3.09-6.34-3.54-7.49-.67-1.7-2.3-3.27-2.15-5.33.07-.96,2.06-5.02,2.67-6.05.29-.5.76-.73.87-.89Z"/>
        <path class="cls-140" d="M94.67,117.71c.78-1.05,1.7-1.71,2.77-1.98.93.29,1.83.53,2.77.79l-.17.89-4.18,1.4c.96.46.99,1.27.61,2.2.05.56,10.63,1.15,9.99-2.32l.87-.19c.35.07.83-.07,1.19,0-.11,1.46-.7,2.89-.79,4.35-.15-.1-.27-.32-.4-.4-.07-.04-.02-.48-.52-.36-.81.2-2.14,1.56-3.72,1.85-2.22.4-4.93.26-7.22.89-.09.57.7.55,1.11.66,4.45,1.27,10.11-.57,9.14,6.62-.32,2.34-2.28,3.85-2.34,6.16,3.04-.2,4.38-.13,5.85,2.65,2.48,4.71-1.21,4.28-2.91,7.61-.48.94-1.15,3.24-1.26,4.28-.48,4.44,3.75,7.81-2.87,10.38-.35-.79.05-1.64,1.2-2.54-1.49-5.9-9.06,5.17-3.18,2.79l.79.54c-1.54,1.07-3.79,2.34-5.73,1.99-2.24-.41-.89-4.25-1.68-5.85-.37-.76-2.5-1.51-3.45-2.88-2.73-3.96-1.04-8-2.64-12-2.02-5.05-11.31-9.94-7.25-16.03,1.85-2.77,4.94-3.13,7.68-4.57-1.63-1.23-3.59-1.48-5.4-2.51-1.31-.74-4.06-3.5-5.07-3.48-1.1.01-4.23,5.02-8.53,3.64-1.09-.35-1.52-1.71-2.75-1.8.68-1.08,1.23-1.77,1.98-2.77.59-.84,1.43-.59,2.52.76,1.95.64,4.96-.94,5.01-3.14l.77-.39c4.87,2.9,6.5,5.33,12.85,4.74,2.55-.24,2.96-.92,4.95-1.97Z"/>
        <path class="cls-28" d="M148.46,158.05c.86-.69,4.42.5,4.75,1.58,1.1,1.68-3.08,2.38-4.49,2.57-5.55.77-8.86.47-13.89-1.35-.28-.1-.48.05-.61.36-.89-.38-2.37-1.1-3.16-1.58-1.07-.65-2.92-1.98-3.96-2.77-1.15.09-2.16-.41-3.02-1.5-2.03-1.63-4.78-4.11-5.68-6.41.02-.13-.01-.26,0-.4-.41-.55-.41-.94,0-1.19h1.05c4.71,4.95,12.32,11.32,19.47,11.05,3.04-1.05,6.39-.9,9.54-.37Z"/>
        <path class="cls-32" d="M127.1,156.87c-1.88.59-4.13,2.49-5.84,3.06-2.55.85-6.79.3-9.58,1.29.64-2.48,4.5-3.05,5.7-5.17.85-1.5.73-5.02,1.02-7.09,2.95,2.51,5.61,5.57,8.7,7.91Z"/>
        <path class="cls-44" d="M105.35,164.38c2.55-.23,4.92-2.18,7.51-1.78-2.51,1.21-5.19,2.41-7.91,2.97l2.76,2.57c.02.38-5.9,3.35-6.72,3.76-7.17-.18-1.23-3.66,1.98-4.35-1.05-.84-.38-1.49-.4-1.58.12-.84,1.64-1.67,2.37-1.19.16-.12.26-.26.4-.4Z"/>
        <path class="cls-125" d="M127.89,162.4c-.53.67-1.57.25-2.37.6-.71.31-1.08,1.65-2.09,1.67-1.58.03-3.7-.82-5.28-1.05s-3.77.56-4.51-.83c1.18-.11,2.47-1.41,3.56-1.59,3.32-.63,7.23-.28,10.48.64.11.03.16.26.19.55Z"/>
        <path class="cls-113" d="M111.28,135.11c2.17,3.64,4.45,7.19,6.85,10.67l.27,1.59c-.02.39.03.8,0,1.19-5.39-5.53-8.48-12.24-9.89-19.78l1.22,1.79c-.23,2.02.85,2.9,1.55,4.54Z"/>
        <path class="cls-95" d="M121.17,165.57c-.05.33.09,1.06,0,1.18-.28.34-7.55,1.07-8.7,1.19-.09-1.24,1.49-1.5,2.37-1.78,2.15-.68,4.09-.68,6.33-.59Z"/>
        <path class="cls-24" d="M130.26,165.96c-.41-.09-4.34-1.93-4.34-2.18-.04-1.61,6.07.31,6.71,1.59.45.9-2.07.66-2.37.59Z"/>
        <path class="cls-24" d="M127.1,161.22c2.14.43,4.88,1.43,6.72,2.37.1,1.36-.23.58-.91.32-1.93-.72-3.04-1.05-5.02-1.51-2.98-.69-7.65-1.69-10.68-1.19,3.08-1.02,6.76-.63,9.89,0Z"/>
        <path class="cls-82" d="M76.87,114.94c.33,3.02-3.46,5.06-6.05,4.27-.83-.25-1.17-1.56-2.25-1.5.45-.6.81-1.52,1.19-1.98.13-.16.87-.25,1.17-.61.44-.52,1.12-1.91,1.6-2.56,1.39.88,2.96,1.54,4.35,2.37Z"/>
        <path class="cls-104" d="M127.49,67.09c1.07-.17,2.01.15,3,.51,9.79,3.62,19.58,7.2,29.44,10.56.53-.43,2.08.14,2.37.79.72.2,1.38.46,1.98.79.13-.34.26-.34.4,0l2.37.79c.28-.67,1.32-.26,1.58.4l4.75,1.98c-.31.15-.62.29-.94.38-1.88.49-11.72-2.56-14.25-3.49l-1.42-1.24c-13.37-4.36-26.75-8.85-40.13-13.46,1.63.86,8.34,4.96,8.08,6.93-.04.34-.16.63-.41.85,14.46,6.3,29.37,11.39,44.73,15.29,7.97,2.65,15.97,4.86,24.02,6.64,1.59.5,2.8,1.59,1.53,3.12-.64.77-4.93,1.51-5.38.4.01-.71.53-1.18,1.54-1.41-6.83-2.37-14.14-3.93-21.92-4.68-15.96-4.42-31.41-11.06-46.46-18.04-1.05-.44-7.63-3.23-7.91-3.57-.06-.08-.15-.78.2-.79.65-.02,4.94,1.14,4.93-.19-.01-1.06-17.34-10.44-17.39-12.26-.02-.95,1.76-.34,2.18-.21,1.93.56,4.18,2.14,6.12,2.98,5.61,2.42,11.31,4.7,17,6.93Z"/>
        <path class="cls-136" d="M97.44,57.59l-.21.49c-9.75-2.88-8.03,1.67-.97,4.65.72-.86,1.11-.74,1.19.4,2.63,1.27,5.71,1.98,8.47,2.23l-.17.93c-2.26-.06-1.04.62,0,1.58-.12.17-.38.17-.79,0-.76.79-1.07.7-1.19-.4-.45-.16-5.46-1.57-5.51-1.29-.04.24,3.32,2.91,3.71,3.15,6.67,4.14,15.37,6.56,22.93,8.41-.33-.41-.14-.77.23-1.17,4.21,1.96,8.08,4.33,12.27,6.12,2.94,1.26,21.46,7.17,22.1,8.16.1.15.1.99.02,1.12-.78,1.21-9.46-1.56-11.14-2.07-12.93-3.9-25.14-10.19-37.5-15.51-3.79-1.63-9.08-3.49-12.77-6.19-3.33-2.43-1.93-2.51-3.4-4.9-.75-1.21-8.25-4.41-5.56-6.7,1.5-1.28,6.8-.42,8.31.99Z"/>
        <path class="cls-114" d="M189.19,98.33c-.5.83-3.27.65-3.96,0-3.45-.19-6.88-.56-10.28-1.19-.54.57-1.68.42-1.58-.4-5.79-1.66-10.33-2.69-16.22-3.96,2.23-.13,4.12.61,6.33,0,.17-.81-.4-.92-.91-1.26-4.75-3.22-17.33-6.69-23.48-9.35-5.64-2.43-11.19-5.35-16.74-7.98,12.98,5.41,28.98,12.79,42.41,16.32,6.9,1.81,14.37,2.21,21.34,3.98,1.99.5,4.43.87,5.85,2.45,0,.51-2.27,1.31-2.76,1.38Z"/>
        <path class="cls-101" d="M97.44,57.59c3.03.85,10.72,5.45,13.24,7.52.53.43,3.24,2.72,1.29,2.67-1.49-.03-4.65-1.04-6.23-1.5-.1-.03-.37-.48-.77-.6-2.41-.71-5.62-1.04-7.53-2.57l.63-.62c7.34,2.31,8.58,2.1,3.73-.63-2.97-2.17-16.01-6.74-5.66-.09l.11.95c-1.79,0-7.26-3.42-6.7-5.3.44-1.49,6.6-.21,7.89.16Z"/>
        <path class="cls-101" d="M103.76,67.48c-.12.67-.68.83-1.7.48,4.59,2.73,9.7,4.9,14.85,6.29l-11.77-5.41-.2-.96c.25.03.55-.04.79,0,3.83.68,15.1,6.71,19.38,8.7l1.19,1.97c-.7.04-1.39.03-2.08-.09-5.32-.97-18.24-6.23-22.96-9.08-7.99-4.83-2.77-5.16,2.49-1.9Z"/>
        <path class="cls-106" d="M129.87,66.69c.54-.08,1.07-.11,1.53.05,7.99,2.69,16.12,5.66,23.78,9.05.79.25,1.56.54,2.37.79,1.16.38,1.95.91,2.37,1.58-11.08-2.79-21.81-6.91-32.43-11.07l-1.58-1.58c1.03.42,2.91.77,3.96,1.19Z"/>
        <path class="cls-112" d="M229.14,71.04c-.02.07-.51.54-.79,1.19-2.24.89-4.39,4.34-7.12,3.56.16-.27.9-1.1.79-1.18-.7.2-1.09-.22-1.58-.4,1.24-.9,2.45-1.73,3.63-2.47l.72-.3c1.79-1.96,2.93-3.46,3.96-5.93.64,1.13,1.86,4.78.4,5.54Z"/>
        <path class="cls-55" d="M178.52,78.16c1.85.19,3.98.63,5.93.79h-5.34c-2.11-.17-4.09-.74-6.13-1.19,1.83.08,3.72.21,5.54.4Z"/>
        <path class="cls-112" d="M220.83,76.18c-.05.06.12.5-.08.7-.42.4-2.29.26-2.89.88l-.19-.78c.99-.34,2.15-.48,3.16-.79Z"/>
        <path class="cls-160" d="M168.23,76.58c-1.08.01-2.44.23-3.16-.79,1,.29,2.13.52,3.16.79Z"/>
        <path class="cls-85" d="M123.94,135.11c.1.07.26.27.4.4l1.19,1.58c.9,1.11,1.33,1.69,2.37,2.77,0,.77.53,1.1.98,1.59,8.29,9.01,15.07,10.73,24.54,16.99,1.21.8,3.08,1.64,3.35,3.17-.07.4-.44.63-1.11.67-1.17,1.99-2.65,3.09-4.42,3.28-1.28.79-3.5,1.85-4.56,2.76-1.39,1.19-1.89,3.72-3.95,3.97-1.07.13-.46-1.02-.59-1.59.32-.79.24-.99.79-1.98,1.59-2.08,3.76-3.43,6.51-4.05.97-.48,2.4-1.4,2.98-2.28l-.2-.49c1.49-.86,1.82-1.62.99-2.28-2.22-.45-2.64-.44-4.75-1.58-3.92-.72-8.32-3.44-11.07-6.33-1.12-1.44-2.94-2.15-4.36-3.36-2.23-1.9-9.32-9.27-10.28-11.67-.17-.43-.57-2.18-.39-2.37.65-.12,1.03.42,1.58.79Z"/>
        <path class="cls-154" d="M163.49,147.37l1.01-.09c2.05,2.69,4.31,5.19,6.76,7.49l.14.91c.88,1.39,3.21,2.23,4.75,2.77,1.03,1.43-.02,1.39-1.29,1.09-5.2-1.22-9.93-3.67-14.93-5.44-.89.7-1.5.31-1.19-.79-1.15-1.34-2.46-2.99-1.36-4.72,1.42-2.24,4.09-3.22,6.11-1.21Z"/>
        <path class="cls-142" d="M158.74,153.31c.39.27.81.5,1.19.79,4.48,3.47,5.92,5.41,11.87,7.12l4.35.4c.26-.02.55.04.79,0,.22.98-.75,1.06-1.41,1.15-4.84.6-15.24-1.09-19.16-4.1-3.03-2.32-5.19-6.13.12-6.88.61.79,1.64,1.1,2.26,1.53Z"/>
        <path class="cls-47" d="M156.76,161.61c.23-.02.59-.04.79,0,.08.6-.22,1.06-.4,1.58l-1.18-.79c-1.18,1.69-2.89,5.85-4.16,7.14-.42.43-1.34-.19-1.79.53l-3.54,4.99c-.17-.41-.56-.38-.34-1.28.09-.39,2.32-5.49,2.54-5.82.28-.4,1.95-1.82,2.55-2.39,1.32-1.26,1.46-1.34,2.97-2.37,1.09-.74.78-1.45,2.57-1.58Z"/>
        <path class="cls-165" d="M170.61,152.51c.31.36.47,1.07.97,1.6.77.82,2.95,1.59,2.4,2.75-.64-.74-1.88-.81-2.57-1.18-2.93-1.58-5.54-5.95-7.91-8.31.23-.44-.62-1.49-.2-1.58.53-.11,1.7-.08,2.17.2.58.35,3.14,4.53,3.97,5.53.39.48.94.72,1.17.99Z"/>
        <path class="cls-21" d="M152.41,162.4c-.67.93-2.05,2.23-3.16,1.58l-10.28-1.19c-1.76-.44-3.08-.86-4.75-1.58-.52-.52-.31-1.2.41-1.02,1.1.27,2.18,1.11,3.78,1.37,4.01.65,8.1.44,12.02-.55.9-.23,2.3-.49,2.77-1.39.77.16,1.46.33,1.97.99,0,.32-2.28,1.51-2.76,1.78Z"/>
        <path class="cls-38" d="M152.41,162.4c.79.17-.41,1-.59,1.19-2.7,2.72-2.8,1.72-5.69,3.01-1.24.55-1.87,1.87-3.2,2.14.16-.3.12-.87.44-1.32,1.79-2.56,3.59-2.28,5.89-3.43,1.03-.51,2.16-1.03,3.16-1.58Z"/>
        <path class="cls-1" d="M117.21,46.52c.46-3.75,1.94-7.22,3.37-10.67.72-1.71,1.64-4.25,2.55-5.76.36-.6.71-1.51,1.59-1.37l-6.72,18.59c-.09-.06-.31.06-.4,0-.15-.25-.23-.55-.4-.79Z"/>
        <path class="cls-43" d="M150.83,61.55c5.08.38,10.61,2.22,15.03,4.75.72-.85.98-.69,1.19.4-.84,3.28-2.47,7.18-6.33,7.51-2.5-.79-5.04-1.53-7.51-2.37.4-1.97-2.59-2.92-3.96-4.15-2.41-2.15-5.51-5.19-5.93-8.51,2.45-.42,5.86.54,7.51,2.37Z"/>
        <path class="cls-26" d="M125.52,61.94c.28,1.54,2.62,2.72,3.95,3.36,7.41,3.55,17.12,5.55,24.45,9.17.65.32,1.33.27,1.26,1.31-8.76-2.79-16.77-5.7-25.31-9.1-4.54-2.38-9.08-4.94-13.33-7.83-.53-.36-1.28-.5-.52-1.27,3.01,1.56,6.36,3.04,9.49,4.35Z"/>
        <path class="cls-9" d="M174.56,82.11c-1.98-.37-3.95-.79-5.93-1.19-.57-.11-1.14-.31-1.58-.4l-2.37-.79c-.13-.02-.27.02-.4,0l-1.98-.79c-1.17-.24-1.3-.27-2.37-.79-.67-.33-1.73-1.11-2.37-1.58,3.95,1.24,7.91,2.58,11.86,3.76,1.83.55,3.89.29,5.14,1.78Z"/>
        <path class="cls-9" d="M182.47,83.7c-1.93-.31-4.19-.16-5.93-1.19,1.83.32,4.17.2,5.93,1.19Z"/>
        <path class="cls-26" d="M129.47,63.53c-.69-.26-1.36-.55-1.98-.79.75-.02,1.55.11,1.98.79Z"/>
        <path class="cls-135" d="M229.54,63.92c-.01,2.7,1.38,5.61,1.58,8.31l-1.97-1.19c.36-1.5-.82-3.84-.4-5.54.22-.53.48-.97.4-1.58h.4Z"/>
        <path class="cls-42" d="M224.39,48.1c-.71,1.39-1.97,2.29-2.28,3.45-1.42,5.16-1.63,12.14.31,17.12.68,3.75-5.2,1.61-5.54-1.19-.51-3.93-.45-7.63-.4-11.47.22.76.57,1.75,1.6,1.01s2.95-8.72,6.31-8.92Z"/>
        <path class="cls-36" d="M216.88,52.85c-.11.35-.24.34-.4,0,.2-2.29-.03-2.45.79-4.75-.28,1.59-.35,3.13-.4,4.75Z"/>
        <path class="cls-42" d="M216.48,55.22c.02-.78-.07-1.6,0-2.37h.4c-.02.75.28,1.94-.4,2.37Z"/>
        <path class="cls-129" d="M229.93,46.12l.49.75c-1.2.96-2.96,7.69-.63,4.77l.93.02h.4c-.05.23.02.53,0,.79-.35,1.3-.91,1.57-1.58,2.37-2.76,3.3-5.31,7.32-4.74,11.86,1.51.29,1.97-1.24,2.77-1.98.94.34-.1,1.07-.39,1.39-.83.91-2.16,2.69-2.97.98-.9-1.92.41-4.85.98-6.72-4.97.38-3.49-5.88-.59-7.91,1.69-1.19,2.47-.3,2.57-.4.29-.27.93-6.46,2.97-7.12.56.25-.02.86-.2,1.18Z"/>
        <path class="cls-145" d="M216.88,67.48c.87,1.14,4.93,4.02,5.54,1.19.12.3.43.66.62,1.16.49,1.29-.52,1.9,1.76,1.61-1.21,1.33-2.19,3.26-4.35,2.77-.26-.09-.72.09-1.16-.21-1.84-1.24-2.14-4.53-2.4-6.52Z"/>
        <path class="cls-8" d="M229.93,46.12c1.37-.05,1.1-.25,1.19.97.06.8-.17,3.91-.4,4.56-.05.14-1.63,2.36-1.78,2.37-2.36-2.68-.35-5.44.99-7.9Z"/>
        <path class="cls-109" d="M156.76,78.55l-1.87.31c-8.98-2.7-17.91-5.51-26.79-8.43,5.04,4.1,12.8,7.21,19.61,9.61,13.11,4.62,27.91,8.56,41.48,10.49,7.65-1.03,15.84-1.49,23.89-1.85.42-.02.86.06,1.29.16s.88.24,1.32.41c.35.11.34.24,0,.4-6.32.41-12.44,1.33-18.35,2.78,10.57,4.46,23.48,3.21,34.45.33l.51.45-.45.73c-7.74,2.35-15.75,3.58-24.04,3.69-19.04,5.01-38,1.1-56.7-4.11-21.66-6.03-43.24-14.28-62.34-25.46l-1.22-.17c-.33-.3-1.07-1.11-1.19-1.19-.39-.96-.87-3.09.82-2.61.84.24,4.61,3.51,5.94,4.35,7.24,4.59,16.14,8.25,24.11,11.49,18.11,7.36,36.76,13.71,56.15,16.82.6.17,1.01.25,1.58.4,3.4.62,6.83,1,10.28,1.19,1.22,0,2.83.16,3.96,0,1.13.56,5.49-.32,5.14-1.77-.38-1.59-13.56-3.76-15.82-4.35-3.59-.94-6.88-2.45-10.37-3.47-15.54-4.53-31.12-8.75-45.79-15.72l1.58-.79c.47-.45-2.3-2.92-2.8-3.33-2.58-2.07-6.09-3.24-8.27-5.76h.6s43.31,15.42,43.31,15.42Z"/>
        <path class="cls-77" d="M85.57,66.29c-.23-.05-.54.03-.79,0-.23-.41-.6-1.15-.79-1.58-.36-.83-.53-1.53-.79-2.37,1.64.21,1.95,2.63,2.37,3.96Z"/>
        <path class="cls-151" d="M64.21,56.8c-.34,2.64.67,4.77,1.58,7.12-1.3.2-3.76.82-4.3-1.07-.43-1.49,1.14-1.79,1.14-2.68,0-.84-2.84-3.16.29-3.69.68-.11,1.03.31,1.28.32Z"/>
        <path class="cls-124" d="M90.71,70.64h1.72c27.45,13.38,58.02,25.37,88.54,29.06,14.08,1.7,30.79-.69,44.56-3.95,5.78-1.37,11.25-3.2,15.82-6.99,1.4-1,4.15-1.86,2.82.47-1.26,1.83-1.94,2.49-3.56,3.96-5.38,2.88-10.58,5.09-16.53,6.61-36.14,9.26-72.3-2.13-105.67-15.52-7.41-2.97-15.15-6.52-22.15-10.28-1.01-.54-2.04-1.12-3.17-1.38-.79-.58-1.75-1.03-2.37-1.98Z"/>
        <path class="cls-156" d="M232.3,93.19l-.06-.54c3.05-1.01,5.64-2.57,7.79-4.67l.97.08c.26-.44.52-.57.79-.4l2.1-4.08c.95-1.58,2.94-1.55,2.26.52-.28,1.24-.21,2.23-.79,3.56-.42.95-.82,1.06-1.19,1.58.14-1.22-.32-.81-1.08-.49-2.51,1.08-4.91,3.29-7.75,4.51-10.56,4.54-33.19,7.86-44.75,7.86-26.85-.01-75.84-17.73-99.88-30.47-1.8-.96-1.91-1.63-3.16-2.77.43-1.25,1.57-.53,2.37-.19,3.6,1.54,7.81,4.73,11.6,6.59,23.19,11.38,66.67,26.55,92.22,24.84,4.9-.33,9.75-1.84,14.64-2.36,8.4-.91,15.72-.38,23.92-3.56Z"/>
        <path class="cls-167" d="M213.02,140.55c-1.32-1.28,1.81-4.63,3.67-4.6,3.22.06,2,6.45-1.09,5.83-.27-.05-2.41-1.07-2.57-1.23Z"/>
        <path class="cls-37" d="M156.76,78.55c5.48,1.57,10.97,3.46,16.61,4.35,5.66,1.03,11.29,2.2,17.01,2.77,12.67,1.52,25.48,1.26,38.43-.76,2.73.42,1.12,2.21-.79,2.36l-5.21,1.17c-.1.35-.23.34-.4,0-2.12.81-4.49.9-6.72.79-6.35.63-12.79.69-19.18,1.19-4.27.34-5.84,1.34-10.56.66-6.72-.96-16.15-3.74-22.87-5.61-13.07-3.64-27.85-7.77-38.36-16.41,7.85.89,15.32,4.62,22.86,7,3.04.96,6.14,1.61,9.18,2.49Z"/>
        <path class="cls-149" d="M190.38,85.67c17.96,1.8,36.5.07,53.4-6.12.54-.2,1.11-.88,1.45-.93.31-.04,1.63.71,1.72,1.01.33,1.17-.31,1.87-.4,2.49-.84.2-1.63.54-2.35,1.01l-2.39,4.52c-.24.16-.54.25-.79.4-.45-.69-.44-1.73.05-3.13-5.93,1.72-12.02,2.89-18.25,3.52,2.09-1.25,5.5-.86,7.12-2.76-7.59.12-15.15,1.26-22.74,1.36-5.5.07-11.53.09-16.81-1.36Z"/>
        <path class="cls-109" d="M246.54,82.11c-.04.25.04.54,0,.79-.1.62-.33.91-.4,1.19.26-.97-.56-1.05-1.12-.7-.69.42-1.57,3.19-3.23,4.26.86-2.32,1.14-7.19,4.75-5.54Z"/>
        <path class="cls-50" d="M113.26,41.38c-.04.23-.29.96-.4,1.19-1.33,2.94-3.39,2.92-3.96,6.72-.01.09-.34.3-.39.64-.15,1.19,1.01,2.55-.91,3.43-.94.43-4.58-1.9-5.36-2.75-6.08-6.58,6.51-9.3,11.01-9.23Z"/>
        <path class="cls-122" d="M176.14,161.61c-2.07.17-2.12.25-4.35-.4,1.37.18,3.28-.46,4.35.4Z"/>
        <path class="cls-122" d="M125.52,137.09c-.69-.3-1.16-.8-1.19-1.58.9.84.77,1.07,1.19,1.58Z"/>
        <path class="cls-105" d="M137.38,151.72c3.73,1.95,7.38,4.33,11.07,6.33-1.96.79-4.37.29-6.48.44-1.16.08-2.3.77-3.6.78-6.76.03-15.8-6.92-19.97-11.89-3.06-3.65-5.25-7.89-7.12-12.26,2.8,2.57,6.32,10.32,10.52,10.68,3.29.28,2.89-.76,6.61,1.27,3.02,1.65,5.97,3.1,8.98,4.67Z"/>
        <path class="cls-93" d="M107.32,118.5c-.44,1.71-1.24,3.12-3.06,3.46-1.42.26-8.84.19-9.59-.7-.86-1.02,2.18-.61,1.19-1.57-.15-.14-1.87.11-1.58-1.19l5.93-1.98c2.36.66,4.71,1.49,7.12,1.98Z"/>
        <path class="cls-146" d="M97.44,115.73c.13,1.26-1.9,1.52-2.77,1.98.6-.69.93-1.43.79-2.37.66.23,1.42.22,1.98.4Z"/>
        <path class="cls-41" d="M180.49,120.87c.08-3,4.65-10.16,7.91-7.12-.46-.03-.83.12-1.19.4.3,1.11-1.17,3.03-1.98,3.96.04.22.58.59.62.97.06.73-.56,1.79-.62,2.59-.74.69-1.82,1.08-2.37,1.98-2.2.17-2.43-.83-2.37-2.77Z"/>
        <path class="cls-90" d="M185.24,118.11c-.25-1.44.9-3.09,1.98-3.96,2.83.59.02,4.59-1.98,3.96Z"/>
        <path class="cls-39" d="M54.62,118c-.39.38-1.59.62-2.25,1.11-1.36,1.03-2.84,2.76-4.24,3.67-3.19,2.06-2.87-.66-1.78-2.97.48-1.03,5.41-7.43,6.13-7.75,1.69-.74,3.09,5,2.15,5.94Z"/>
        <path class="cls-152" d="M66.79,109.41c1.05-.22,1.05,1.21.81,1.99-.36,1.15-4.07,6.4-3.7,3.04.11-.96,2.01-4.84,2.89-5.03Z"/>
        <path class="cls-10" d="M199.48,16.46c.35.11.34.24,0,.4-.05.59-.29.83-.81.89l-11.29,9.62-.95-.23c.1-.62.79-2,.17-2.41-4.19-.33-12.59-3.53-16.27-1.62-.81.42-2.14,1.76-2.89,2.45-.34-.08-.77-.31-.71-.58.41-1.98,10.8-10.39,13-11.1l1.56-.19c4.5.72,8.75,1.46,13.25,1.98,1.66.19,3.21,1.04,4.95.79Z"/>
        <path class="cls-79" d="M183.66,70.25c-.13-.01-.27.01-.4,0s-.27.02-.4,0c-.68-.21-1.3-.52-1.85-.94,3.05-7.71,6.65-15.13,10.82-22.27-7.67,4.31-11.4,13.22-13.89,21.31l-1.02.71c-1.52-.31-2.9-.84-4.35-1.19.79-.02,1.21.34,1.71-.49,1.55-2.59,2.5-6.91,4.01-9.81,2.32-4.48,6.3-8.81,10.37-11.78,1.03-.75,6.65-4.88,6.88-1.84.1,1.34-3.18,5.47-4.04,7.05-3.36,6.1-5.67,12.65-7.84,19.25Z"/>
        <path class="cls-137" d="M199.48,16.86c-.03-.83.63-.81.79,0,1.76.36.73,1.89-.2,2.74-2.95,2.44-6.12,4.64-9.29,6.75-2.97,2.79-6.68,5.73-8.31,9.49-.97,1.09-1.99,2.08-2.86,3.27-1.24,1.69-6.88,11.73-7.5,12.07-2.28,1.26-1.27-1.82-.78-2.96,3.15-7.35,10.29-14.72,15.1-21.08l11.66-9.91c.41-.44.92-.3,1.39-.37Z"/>
        <path class="cls-166" d="M181.28,13.69c-4.49,2.87-9.26,6.31-12.86,10.28-.44.49-.99.81-.98,1.59-2.83,2.62-12.44,15.99-13.45,19.38-1.77-.87.45-4.53,1.12-5.81,1.06-2.05,2.92-4.87,4.25-6.83,5.16-7.64,11.64-14.83,19.95-19.01.77.11,1.36.3,1.98.4Z"/>
        <path class="cls-36" d="M197.1,14.09c1.09-.2,11.24,3.84,12.8,4.8.24.15.8.55.65.74l-.79.39c.71.08,4.56,2.2,4.7,2.42.36.62-1.57,3.04-2.12,3.52-2.58,2.25-4.88.79-7.57.44-2.98-.39-7.43-1.24-10.24-1.24-1.35,0-2.47.97-3.75,1.19.71-.67,1.35-1.61,2.19-2.36,1.85-1.64,5.17-3.49,6.73-5.14.5-.53,1.15-1.24.58-2-.06-.71.49-.58.79,0,1.2-.28,2.25.45,3.16,1.19.59-.33.32-.59-.79-.79-.44-.02-1.42-.3-1.58-.79-.58.41-5.57-1.39-5.49-1.67l.74-.7Z"/>
        <path class="cls-100" d="M195.13,14.09s0-.48.39-.39c-.05,1.54.92.51,1.59.39-.24,1.08.58.73,1.16.99,1.26.57,2.38.9,3.59,1.38.37.38.11.51-.79.4-.22-.05-.53.02-.79,0-.24-.02-.57-.03-.79,0v-.4l-7.51-2.37c1.1.09,2.51.73,3.16,0Z"/>
        <path class="cls-163" d="M167.44,66.69c-.12-.03-.27.03-.4,0-.48-.13-.87-.31-1.19-.4-1.01-.36-.97-1.03-.68-1.95,5.09-7.77-13.29-10.25-13.31-3.05l-1.04.25c-2.48-.83-5.06-1.48-7.51-2.37-.73-.26-1.24-.66-1.58-.79,1.21-2.26,2.03-6.58,5.05-7.05,1.66-.26,1.66,1.03,2.68,1.14.88.09,1.55-.7,2.38-.79,3.11-.34,6.38,0,9.36.88,1.07.31,5.64,2.02,6.02,2.68s1.39,3.73,1.43,4.52c.13,2.51-1.29,4.49-1.22,6.93Z"/>
        <path class="cls-64" d="M176.93,69.06c2.12-7.82,6.56-18.1,13.83-22.36.99-.58,2.03-1.14,1.8.61-4.54,6.86-7.13,14.73-10.88,21.97l1.19.97c-2.21-.28-3.84-.76-5.93-1.19Z"/>
        <path class="cls-123" d="M131.35,30.77c2.05-.35,5.54,1.29,5.17,3.58-.41,2.55-6.14,6.41-8.26,4.47-2.83-2.58-.21-7.49,3.09-8.05Z"/>
        <path class="cls-170" d="M142.92,18.44c.16.74-.37.95-.82,1.35-1.61,1.41-8.93,5-10.94,5.29-3.65.52-1.42-1.83.11-3.07,3.11-2.52,7.68-3.88,11.66-3.57Z"/>
        <path class="cls-15" d="M127.1,90.02c1.58,1.09,3.25,2.09,4.99,3.01-1.14,5.39-3.63,8.77-7.73,12.3-.24.21-2.06,1.73-2.18,1.8-.96.55-1.47.66-2.59.29-2.59-.77-3.99-3.56-4.31-6.17-.29-2.38.45-4.28.39-6.29-.05-1.83-1.19-2.78-.81-5.12.24-1.47,1.74-2.47,2.35-3.78,3.22,1.4,6.62,2.59,9.89,3.96Z"/>
        <path class="cls-19" d="M127.1,90.02c2.47,1.03,8.58,4.23,10.66,4.58.58.1,1.13-.96,1.58-.6.12.1-.06.67.02.77-2-.39-.49,1.12-.8,2.54-.51,2.32-2.55,2.76-4.34,3.39-.5-.28-.71-.66-.32-1.08,3.02-2.8,3.48-3.96,1.4-3.48-2.34,2.1-4.42,4.47-6.23,7.12-1.27,1.93-2.45,2.53-3.54,1.79-.69.54-1,.96-1.56,1.4-1.86,1.46-2.1,1.65-4.37.97,2.61.62,1.77-1.04,2.95-1.99.55-.45,1.41-.45,1.94-.83,3.65-2.61,4.99-7.08,6.93-10.89.26-1.59-4.3-1.97-4.3-3.69Z"/>
        <path class="cls-69" d="M106.53,80.93c.35,1.02.7,2.79.03,3.7-.29.4-1.15.27-1.64.82-.81.91-1,2.34-2.54,3.39-1.27.87-2.8.72-2.97-1-.03-.29.34-3.83.42-4.32.37-2.16,2.05-2.26,2.35-4.18,1.1.56,3.1.98,4.35,1.58Z"/>
        <path class="cls-66" d="M125.52,105.05c.07-.06.61-.12.99-.37,2.52-1.64,6.96-9.84,9.39-9.45.35.06,2.13.69,1.87,1.31-.33.8-3.16,2.86-3.56,4.16-1.74.61-1.73.47-2.37,2.37-.72,1.51-1.9,2.69-3.56,3.56-1.2,0-2.23-.49-2.77-1.58Z"/>
        <path class="cls-27" d="M104.95,95.56c-.02-.06-.63-.17-.78-.98-.64-3.26.65-2.42,2.13-3.42.68-.46.86-1.41,1.67-1.89,2.54-1.52,4.27,1.55,2.63,3.83-1.11,1.55-1.17.16-1.29,2.85l-.02.61c-1.3.28-2.75-.06-4.33-1Z"/>
        <path class="cls-119" d="M109.3,95.96s.34.2.25.78c-.25,1.59-2.73,3.76-3.93,1.88-.77-1.21-.42-2.09-.67-3.06,1.46-1.21,3.25,1.25,4.35.4Z"/>
        <path class="cls-91" d="M128.29,106.64c.35-1.73,2.34-2.49,3.56-3.56-.23.67.16,1.45-.61,2.36-.57.67-2.07,1.2-2.95,1.2Z"/>
        <path class="cls-132" d="M53.39,79.38c.6-.19,1.08.07,1.61.27.96.37,10.22,6.23,11.17,7.02.56.46.82.98,1.19,1.57-.54.81-.59.38-1.09.32-2.57-.33-12.26-4.93-13.33-7.25-.31-.68-.41-1.66.45-1.94Z"/>
        <path class="cls-169" d="M68.96,73.02c1.12-1.08,10.28,5.81,9.71,7.12-.32.28-.49.74-1.03.62-.9-.19-7.46-5.28-8.11-6.14-.41-.54-.73-.82-.57-1.6Z"/>
        <path class="cls-6" d="M102.58,163.19c-.3.28-.82.54-1.19.79-7.28,3.11-2.53-6.3.97-5.94,1.06.11,2.44,1.81,2.13,2.89-.05.19-1.63,1.99-1.92,2.26Z"/>
        <path class="cls-35" d="M104.95,164.78c-.6.46-1.69.74-2.37,1.19-.03-.13-.35-.76-.4-.79-.27-.65,1.28-1.07,1.98-1.19.38.17.63.4.79.79Z"/>
        <path class="cls-140" d="M104.16,163.98l-1.98,1.19c-.12-.08-.55.05-.79,0-.25-.29,1.73-1.64,2.77-1.18Z"/>
        <path class="cls-111" d="M94.59,127.71c2.68-.12,12.5-.73,9.36,4.22-.63,1-7.27,6.94-8.34,7.48-3.16,1.59-6.89-1.89-8.66-4.28-4.74-6.42,3.08-7.2,7.64-7.41Z"/>
        <path class="cls-106" d="M167.05,80.53c-.82-.15-1.82.16-2.37-.79.83.16,1.74.05,2.37.79Z"/>
        <path class="cls-106" d="M164.28,79.74c-.73-.14-1.51.02-1.98-.79.69.14,1.67-.29,1.98.79Z"/>
        <path class="cls-11" d="M97.44,63.13c-.37-.14-.63-.15-1.19-.4-.92-.41-7.14-4.07-4.09-5.09,1.91-.64,7.28,2.02,9.1,3.04.96.54,5.88,2.99,4.09,4.24-.57.4-6.79-1.38-7.92-1.8Z"/>
        <path class="cls-22" d="M103.76,67.48c.35.1.83.27,1.19.4l14.63,6.73c1.39,1.64-4.1.14-4.56,0-2.16-.63-13.59-5.21-14.23-6.74-.52-1.23,2.36-.56,2.97-.4Z"/>
        <path class="cls-80" d="M155.57,90.81c-.97.83-12.6-3.23-14.44-3.95s-4.51-1.46-5.73-3.17c5.04.59,10.46,2.54,15.23,4.34.4.15,5.95,1.91,4.93,2.77Z"/>
        <path class="cls-73" d="M186.42,95.96c.36.47-.32.9-.69,1.11-1.24.72-9.3-.46-11.1-.99-.45-.14-2.78-.85-2.45-1.5.29-.56,1.46-.84,2.1-.85,1.35-.04,11.68,1.64,12.14,2.24Z"/>
        <path class="cls-63" d="M185.24,98.33c-3.57,0-6.81-.32-10.28-1.19l10.28,1.19Z"/>
        <path class="cls-127" d="M165.86,66.29c-5.13-1.43-10.07-3.09-15.03-4.75,1.09-1.56.31-3.32,2.27-4.26,3.4-1.64,11.61-1.23,13.47,2.58,1.11,2.28-1.21,4.21-.7,6.43Z"/>
        <path class="cls-158" d="M225.46,52.89c2.79-.73,1.85,6.99-1.18,6.23s-.41-5.81,1.18-6.23Z"/>
        <path class="cls-104" d="M222.81,88.44c3.11-.41,6.14-.91,9.18-1.7,2.8-.73,6.4-2.66,9.21-2.67,1.36,0,.19,3.38-.2,3.97-1.1,1.67-6.71,4.37-8.7,5.14-3.22.22-6.11,1.5-9.34,1.93-6.39.85-15.65.9-21.91-.54-5.46-1.26-6.8-3.04-.19-3.75,4.88-.53,9.91-.68,14.83-1.19,1.65-.42,3.96-.78,5.54-.4l-.53.87c-6.04.43-11.99,1.23-17.86,2.41,8.02,2.59,18.82,1.61,26.98-.43,1.08-.27,9.32-3.47,8.58-4.66l-13.07,2c-1.37.11-2.74.05-4.1-.19-.1-.34.3-.6,1.19-.79.13-.02.27.02.4,0Z"/>
        <path class="cls-149" d="M222.42,88.44c-.3.17-.94.76-1.19.79-1.6.23-3.76.21-5.54.4v-.4c2.22-.22,4.5-.51,6.72-.79Z"/>
        <path class="cls-88" d="M52.95,113.37c.99-.22,1.59,2.27,1.18,3.15-.2.44-4.83,3.97-5.15,3.96-.44-.02-.6-.79-.52-1.3.12-.74,3.95-5.68,4.49-5.81Z"/>
        <path class="cls-17" d="M201.85,16.46c.47.19.89.06,1.1.15s.32.54.48.64c1.16.23,2.59.83.79.79-1.08-.28-2.46-1.03-3.16-1.19l.79-.4Z"/>
        <path class="cls-34" d="M203.43,17.25l2.37.39c.19,1.64-1.15.51-1.58.4,1.01-.4-.25-.43-.79-.79Z"/>
        <path class="cls-168" d="M221.23,89.23c4.65-.68,9.28-1.43,13.94-2.07,1.06-.15,5.23-1.72,3.66,1.28-.76,1.46-7.49,4.06-9.29,4.55-5.53,1.52-18.29,2.39-23.84,1.29-.93-.18-6.02-1.59-3.45-2.46,3.97-1.35,14.03-1.86,18.98-2.58Z"/>
        <path class="cls-86" d="M232.65,90.37c-.18.32-4.72,2.05-5.47,2.24-3.47.84-10.64,1.59-14.05,1.37-1.89-.12-6.11-1.23-2.2-2.2,4.16-1.04,11.6-1.93,16.09-2.5,1.15-.15,6.92-1.17,5.64,1.1Z"/>
      </g>
    </g>
  </g>
</svg>