<?xml version="1.0" encoding="UTF-8"?>
<svg xmlns="http://www.w3.org/2000/svg" version="1.1" viewBox="0 0 238 248.8">
  <defs>
    <style>
      .cls-1 {
        fill: #d4b8c0;
      }

      .cls-2 {
        fill: #fe2426;
      }

      .cls-3 {
        fill: #eb9620;
      }

      .cls-4 {
        fill: #c7a09b;
      }

      .cls-5 {
        fill: #c63240;
      }

      .cls-6 {
        fill: #fe6079;
      }

      .cls-7 {
        fill: #edd1e1;
      }

      .cls-8 {
        fill: #f9d7bf;
      }

      .cls-9 {
        fill: #faacc7;
      }

      .cls-10 {
        fill: #eaa3c2;
      }

      .cls-11 {
        fill: #caabad;
      }

      .cls-12 {
        fill: #fe2f33;
      }

      .cls-13 {
        fill: #fe7890;
      }

      .cls-14 {
        fill: #bc403d;
      }

      .cls-15 {
        fill: #cfbbc3;
      }

      .cls-16 {
        fill: #ea252b;
      }

      .cls-17 {
        fill: #fb0f0f;
      }

      .cls-18 {
        fill: #090101;
      }

      .cls-19 {
        fill: #ea2326;
      }

      .cls-20 {
        fill: #fe5565;
      }

      .cls-21 {
        fill: #533d57;
      }

      .cls-22 {
        fill: #fe414e;
      }

      .cls-23 {
        fill: #ca1b28;
      }

      .cls-24 {
        fill: #e5c1af;
      }

      .cls-25 {
        fill: #61211d;
      }

      .cls-26 {
        fill: #fe6b87;
      }

      .cls-27 {
        fill: #faf0ef;
      }

      .cls-28 {
        fill: #b3182a;
      }

      .cls-29 {
        fill: #e1dbd7;
      }

      .cls-30 {
        fill: #562530;
      }

      .cls-31 {
        fill: #efccb9;
      }

      .cls-32 {
        fill: #b74152;
      }

      .cls-33 {
        fill: #a97586;
      }

      .cls-34 {
        fill: #ca7086;
      }

      .cls-35 {
        fill: #fe596d;
      }

      .cls-36 {
        fill: #2b1520;
      }

      .cls-37 {
        fill: #7c5152;
      }

      .cls-38 {
        fill: #6d4d5a;
      }

      .cls-39 {
        fill: #5e1e1a;
      }

      .cls-40 {
        fill: #593946;
      }

      .cls-41 {
        fill: #d9bbc3;
      }

      .cls-42 {
        fill: #4f333c;
      }

      .cls-43 {
        fill: #2f2429;
      }

      .cls-44 {
        fill: #fdee25;
      }

      .cls-45 {
        fill: #bc3d46;
      }

      .cls-46 {
        fill: #391d2b;
      }

      .cls-47 {
        fill: #392027;
      }

      .cls-48 {
        fill: #e6242b;
      }

      .cls-49 {
        fill: #980d1d;
      }

      .cls-50 {
        fill: #fe2a2d;
      }

      .cls-51 {
        fill: #2a0e15;
      }

      .cls-52 {
        fill: #f8efec;
      }

      .cls-53 {
        fill: #f97c77;
      }

      .cls-54 {
        fill: #29141e;
      }

      .cls-55 {
        fill: #cf1a26;
      }

      .cls-56 {
        fill: #ea0e0f;
      }

      .cls-57 {
        fill: #d2b6bc;
      }

      .cls-58 {
        fill: #f81d1f;
      }

      .cls-59 {
        fill: #ea5f25;
      }

      .cls-60 {
        fill: #c16678;
      }

      .cls-61 {
        fill: #e5d738;
      }

      .cls-62 {
        fill: #f1e2e2;
      }

      .cls-63 {
        fill: #faeeed;
      }

      .cls-64 {
        fill: #61201d;
      }

      .cls-65 {
        fill: #efd4d7;
      }

      .cls-66 {
        fill: #ae94a4;
      }

      .cls-67 {
        fill: #ad93a4;
      }

      .cls-68 {
        fill: #d7b9c2;
      }

      .cls-69 {
        fill: #381a1c;
      }

      .cls-70 {
        fill: #c49a94;
      }

      .cls-71 {
        fill: #c03d4f;
      }

      .cls-72 {
        fill: #8e717f;
      }

      .cls-73 {
        fill: #f9736e;
      }

      .cls-74 {
        fill: #970012;
      }

      .cls-75 {
        fill: #df3139;
      }

      .cls-76 {
        fill: #f1d3c3;
      }

      .cls-77 {
        fill: #462932;
      }

      .cls-78 {
        fill: #ee3d4b;
      }

      .cls-79 {
        fill: #fe2c30;
      }

      .cls-80 {
        fill: #d61822;
      }

      .cls-81 {
        fill: #d6cdcb;
      }

      .cls-82 {
        fill: #57424f;
      }

      .cls-83 {
        fill: #fe83a8;
      }

      .cls-84 {
        fill: #fe4e5e;
      }

      .cls-85 {
        fill: #eebdd8;
      }

      .cls-86 {
        fill: #461e20;
      }

      .cls-87 {
        fill: #fe7a9b;
      }

      .cls-88 {
        fill: #efa820;
      }

      .cls-89 {
        fill: #f57a76;
      }

      .cls-90 {
        fill: #9e292f;
      }

      .cls-91 {
        fill: #f5dfd3;
      }

      .cls-92 {
        fill: #cb8180;
      }

      .cls-93 {
        fill: #f2d4c4;
      }

      .cls-94 {
        fill: #e1dad6;
      }

      .cls-95 {
        fill: #980012;
      }

      .cls-96 {
        fill: #381d2a;
      }

      .cls-97 {
        fill: #da87a6;
      }

      .cls-98 {
        fill: #fe6174;
      }

      .cls-99 {
        fill: #381d2b;
      }

      .cls-100 {
        fill: #461e22;
      }

      .cls-101 {
        fill: #c91b28;
      }

      .cls-102 {
        fill: #d7acac;
      }

      .cls-103 {
        fill: #ce778c;
      }

      .cls-104 {
        fill: #ce2f19;
      }

      .cls-105 {
        fill: #fcf1ef;
      }

      .cls-106 {
        fill: #fd2426;
      }

      .cls-107 {
        fill: #30222a;
      }

      .cls-108 {
        fill: #af8f9e;
      }

      .cls-109 {
        fill: #5a415d;
      }

      .cls-110 {
        fill: #ddc1c9;
      }

      .cls-111 {
        fill: #d6817f;
      }

      .cls-112 {
        fill: #eb5c1d;
      }

      .cls-113 {
        fill: #d9cdd0;
      }

      .cls-114 {
        fill: #be3d4b;
      }

      .cls-115 {
        fill: #543341;
      }

      .cls-116 {
        fill: #6e4d5a;
      }

      .cls-117 {
        fill: #a30516;
      }

      .cls-118 {
        fill: #c41a28;
      }

      .cls-119 {
        fill: #f7c22b;
      }

      .cls-120 {
        fill: #272127;
      }

      .cls-121 {
        fill: #761e1c;
      }

      .cls-122 {
        fill: #d73c22;
      }

      .cls-123 {
        fill: #ca778c;
      }

      .cls-124 {
        fill: #4c2a3c;
      }

      .cls-125 {
        fill: #fec9e2;
      }

      .cls-126 {
        fill: #f2ddec;
      }

      .cls-127 {
        fill: #888;
      }

      .cls-128 {
        fill: #fe3036;
      }

      .cls-129 {
        fill: #45282e;
      }

      .cls-130 {
        fill: #26131c;
      }

      .cls-131 {
        fill: #c31a28;
      }

      .cls-132 {
        fill: #241119;
      }

      .cls-133 {
        fill: #d0ae96;
      }

      .cls-134 {
        fill: #341b27;
      }

      .cls-135 {
        fill: #d383a1;
      }

      .cls-136 {
        fill: #f2d4c7;
      }

      .cls-137 {
        fill: #c21825;
      }

      .cls-138 {
        fill: #b05b6a;
      }

      .cls-139 {
        fill: #fd3c2b;
      }

      .cls-140 {
        fill: #c46973;
      }

      .cls-141 {
        fill: #e4d6d9;
      }

      .cls-142 {
        fill: #fb2426;
      }

      .cls-143 {
        fill: #60221e;
      }

      .cls-144 {
        fill: #872e1c;
      }

      .cls-145 {
        fill: #d11824;
      }

      .cls-146 {
        fill: #c29a96;
      }

      .cls-147 {
        fill: #fe1717;
      }

      .cls-148 {
        fill: #fd1311;
      }

      .cls-149 {
        fill: #d9bbc2;
      }

      .cls-150 {
        fill: #ecb9d3;
      }

      .cls-151 {
        fill: #fefefe;
      }

      .cls-152 {
        fill: #dbbec6;
      }

      .cls-153 {
        fill: #a40806;
      }

      .cls-154 {
        fill: #f94044;
      }

      .cls-155 {
        fill: #58393d;
      }

      .cls-156 {
        fill: #fe6175;
      }

      .cls-157 {
        fill: #fd586c;
      }

      .cls-158 {
        fill: #e27720;
      }

      .cls-159 {
        fill: #b34243;
      }

      .cls-160 {
        fill: #ba9599;
      }

      .cls-161 {
        fill: #c71719;
      }

      .cls-162 {
        fill: #9b808d;
      }

      .cls-163 {
        fill: #f7ebeb;
      }

      .cls-164 {
        fill: #a50718;
      }

      .cls-165 {
        fill: #c49b95;
      }

      .cls-166 {
        fill: #bb89a2;
      }

      .cls-167 {
        fill: #da89a9;
      }

      .cls-168 {
        fill: #d72728;
      }

      .cls-169 {
        fill: #f6938e;
      }

      .cls-170 {
        fill: #30090a;
      }

      .cls-171 {
        fill: #a2a2a2;
      }
    </style>
  </defs>
  <!-- Generator: Adobe Illustrator 28.6.0, SVG Export Plug-In . SVG Version: 1.2.0 Build 709)  -->
  <g>
    <g id="Layer_1">
      <g>
        <path d="M166.3,3.5c7.5.7,14.9,1.6,22.2,3.6,4.3,1.2,8.7,2.4,12.7,4.4,1.8.9,3.6,1.6,5.5,2.3,1,.4,2,.6,3.1.6,3.5,0,6.3,3.4,5.9,6.9-.2,1.6-.2,3.3-.4,4.9,0,.6.1,1,.4,1.5.9,1.7,2,3.3,2.7,5.1,1.7,4.1,3.9,8,4.9,12.3.8,3.7.6,7.3-.8,10.8-.3.8.3,1.4.1,2.1-.3,1.6.3,2.5,1.7,3.4,3,1.9,5.5,4.5,7.8,7.2,1.9,2.3,2.4,5.2,3.3,7.9.9,2.9.7,5.8.1,8.6,0,.5-.5.9-.7,1.4-2.7,6.3-7.3,10.7-13.5,13.5-7.1,3.2-14.5,5.2-22.4,6,.9,1.1,1.2,2.5,2.3,3.5.7.5,1,1.3,1,2.2,0,2.2-.7,4.1-2.2,5.8-.4.5-.3.7.1,1,4.1,3,7.8,6.4,11.3,10.1.9.9,1.5,1.9,1.2,3.2-.4,1.7,0,3.4-.4,5.1-.8,3.7-3.1,6.6-5.4,9.5-2.1,2.5-4.7,4.5-7.2,6.7-1.3,1.1-2.9,1.7-4.5,2.2-1.4.5-2.9,1-4.1,1.8-2.7,1.9-5.7,1.7-8.7,1.4-2.7-.2-5.2-.8-7.8-1.7-.3-.1-.4,0-.6.2-.4.2-.9.4-1.1.7-.4.8-2.6.2-1.6,2,.5.9.5,1.9,1.4,2.8,6,5.2,11.9,10.6,16.8,17,1,1.3,2.4,2.4,2.8,4.1.7,3.4.4,6.7-2.4,9.2-.8.8-1.3,1.8-2.2,2.4-.3.2,0,.5,0,.7,0,2.5.4,5.1-.8,7.5-1,2-2.3,3.8-3.6,5.6-.4.6-.8,1.2-1.3,1.7-1.7,2-4,2.6-6.5,2.8-.7,0-.9,0-.6.9.6,2.1.9,4.2,1.1,6.4,0,.8,0,1.7-.3,2.5-1.3,2.7-2.3,5.6-3.7,8.2-2.2,3.9-5.7,6.3-9.1,8.8-4.7,3.4-9.8,5.9-15.3,7.6-6.8,2.1-13.2.7-19.2-2.8-6.1-3.6-11.4-8.2-16.6-13-2.7-2.5-5.1-5.1-7.5-7.8-1.3-1.4-2.2-3.1-3.2-4.8-2.8-4.7-4.1-10-5.5-15.3-1.4-5.4-3.5-10.5-5.5-15.7-.4-1.1-1.2-1.8-2.4-2.1-1.1-.3-1.9-.9-2.5-1.9-.9-1.3-2.1-2.4-2.9-3.8-1.6-2.8-2.8-5.9-4.2-8.8-.4-.8-.7-1.7-1.2-2.5-2.8-4.3-5.1-8.8-8.1-13-2-2.9-3.1-6.3-4-9.7-.6-2.3-1.3-4.5-2.8-6.4-1.2-1.5-3.1-1.7-4.6-2.7-.3-.2-.4.1-.6.2-4.7,4.3-12.7,5.5-19,1.2-2.1-1.5-3.9-3.3-6-4.9-1.2-.9-2.2-1.9-3.7-2.3-.6-.2-1.1-.3-1.7-.1-3.7.9-7.5,1.1-11.4,1.1-2.7,0-5.3-.5-7.8-1.1-1.2-.3-2.1-1.3-2.7-2.4-.7-1.5-1.3-3-1.4-4.8,0-1.1-.5-2.1-.9-3.1-2.2-5,.3-10.8,3.7-13.5,3.9-3.1,8.1-5.8,12.4-8.3,4.2-2.4,9-2.9,13.8-3.1,1.6,0,3.2-.2,4.8,0,.6,0,.6-.1.6-.6,0-1.6-.3-3.1.1-4.6,1-3.5,3.3-6.1,6.5-7.8.9-.4,1.1-1.1,1.2-1.8.3-2.3,1.5-4,3.3-5.3.6-.5,1.2-1,1.6-1.6,1-2,2.5-3.5,4.7-4.1.9-.3,1.1-.7.8-1.6-.8-2.7-1.6-5.4-1.7-8.3-.1-3.9,1.2-7.5,2.2-11.1.3-1,1.2-1.3,2.1-1.1,3.3.6,6.6,2.2,7.5,6.5.4,1.8.9,3.6,1.6,5.4.4,1.1,1.1,1.4,2.2,1.2,1.1-.2,2.3-.5,3.4-.5,1.4,0,2.9,0,4.3.3,1.2.4,1.6,0,1.7-1.2.4-3.2.6-6.5,2.8-9,2.4-2.8,5.2-5.4,9.1-6.1.8-.1,1.4-.7,2.2-.9,4.1-1.3,8.2-2.1,12.4-2.7.2,0,.3,0,.5,0,2.1.1,2.9-1.1,3.8-2.8,1.8-3.7,4-7.1,6.3-10.5,4.4-6.5,9.8-11.9,16.4-16.2,2.1-1.4,4.4-2.4,6.7-3.3.8-.3,1.3-1.2,2.2-1.6,3.4-1.5,6.9-2.7,10.6-3.5.4-.2.9,0,1.2-.2h11.3c.5.3,1.2,0,1.7.2Z"/>
        <path class="cls-171" d="M166.3,3.5c-.6,0-1.2.1-1.7-.2h1.7c0,0,0,.1,0,.2Z"/>
        <path class="cls-127" d="M153.3,3.2c-.4.4-.8.3-1.2.2,0,0,0-.1,0-.2h1.2Z"/>
        <path class="cls-147" d="M214.1,27c.9,1.9,1.7,3.8,2.6,5.7-.3.4-.6.8-.6,1.4,0,.5-.2.9-.4,1.4-.5,1-1.3,1-1.9,0q-1-1.6-2.7-.6c-1.1.7-2.3,1.4-3.4,1.9-1.8.9-3.3,2.2-4.2,4.1-2.3,4.6-4.9,9.1-6,14.2-.5,2.2-.8,4.4-.3,6.6.3,1.3.3,2.5.2,3.8-.2,2.1.4,3.9,1.5,5.7.3.5.9,1.1.5,1.8-1.1,0-2.1-.3-3.2,0-.2,0-.5,0-.7-.2-1-1-2.1-.8-3.4-.7-2.8,0-5.5-.6-8.1-1.3-1.7-.5-3.4-.9-5-1.7-1-.5-2.1-.2-3.2-.5-.5-.3-.3-.8-.1-1.2,2-5.9,4.2-11.7,7.6-17,.6-1,1.3-1.9,1.8-2.9.3-.5.5-1.2,0-1.7-.5-.5-1-.3-1.5,0-2,.8-3.7,2.1-5.3,3.4-3.7,3-6.8,6.5-8.8,10.9-.8,1.6-1.3,3.4-1.9,5-.3.7-.4,1.5-1.1,2-1.4-.3-2.9-.4-3.8-1.8.3-1.7,1.2-3.2,1.6-4.9.3-1.4.7-2.7.6-4.1,0-.4,0-.7-.4-1-.4-.2-.7.1-.9.3-.5.4-1,.7-1.6.4-.6-.3-.7-.9-.6-1.4,0-3.5,0-3.1-3.1-4.5-2-.9-4-1.7-6.1-2.6-2.6-1.1-3.9-.7-5.6,1.5-.2.3-.3.5-.5.8-.4.5-.8.7-1.3.2-.2-.7.4-1,.7-1.4,1-1.3.9-1.6-.3-2.7-.2-.6,0-1.2.2-1.7,1.3-2.9.8-5.4-1.5-7.7-1.9-2-4-3.5-6.7-4.1-1-.2-2-.3-2.9.5-.4.4-1,.6-1.5.2-.6-.5-.2-1.1,0-1.6.9-1.7,1.8-3.3,2.9-4.8,1.1-1.5,2.6-2.3,4.5-2,.9.1,1.7,0,2.6-.4,1.4-.6,2.7-1.2,4-2,.6-.3,1-.8,1.1-1.5,0-.6,0-1.1-.5-1.5-.5-.4-1-.3-1.6,0-.1,0-.2.1-.3.2-.5.3-1,.7-1.5,0-.5-.6,0-1.1.4-1.5,1.5-1.6,3.3-2.4,5.6-2.3,4.7,0,9.3,0,14,.6,1.7.2,3.5.5,5.2.7,4.7.8,9.4,1.7,14.1,2.3,2.3.3,4.5.8,6.8,1.4.3,0,.5,0,.8-.1.6-.3,1.2,0,1.7.2,3.8,1.4,7.7,2.9,11.3,4.8,1.3.7,2.5,1.6,3.8,2.3,1.5.8,2.3.7,3.6-.4.8-.7,1.5-1.4,2.6-.7Z"/>
        <path class="cls-93" d="M199,150.4c-.2.2-.5.5-.7.7-.4.8-.9,1.5-1.7,1.9-.2.1-.4.3-.6.3-2.4.9-4.8,1.8-7,3.2-1.6.9-3.3.6-5,.6-1.8-.6-3.4-1.7-5-2.7-.5-.9-1.3-1.4-2.3-1.7-3.7-1.2-7.3-2.7-10.7-4.7-3.4-2-6.4-4.5-8.3-8.1-1.2-2.2-3.2-3.6-5.1-5.1-1.3-.7-2.6-.6-3.9-.1-2.1.8-4.1,1.5-6.2,2.1-.8.3-1.6.4-2.5.2-1.8-.3-3.7-.3-5.4-1.1-.7-.4-1.5-.7-2-1.2-3.9-3.6-8.1-6.9-11.7-10.7-1.3-1.4-2.5-3-3.7-4.5-.2-.3-.4-.6-.4-1,.3-.8,1.3-.6,1.6-1.2.4-.5.9-.8,1.5-1,2-.7,4-1.3,6.1-1.7,3.4-.6,6.4-2.4,9.3-4.2,1.5-1,3-2,4.3-3.3.5-.5,1.1-.9,1.8-1.1,2-.8,3.8-1.9,5.7-3.1.7-.4,1.2-.5,2-.2,4.2,1.9,8.6,3.1,13.2,3.1.5,0,1,0,1.3.4,0,.4-.1.7-.4.9-1.6,1.6-2.6,3.7-3.7,5.6-.8,1.4-.6,4.4.3,5.4.3,0,.6,0,.8-.1,1.5-.4,1.7-.3,2.5,1.1.8,1.5,2,2.6,3.5,3.4,1.1.5,2.1,1.3,3.4,1.2.8,0,1,.9,1.5,1.5-.3.8.3,1.1.8,1.4.1.5-.2,1.1.2,1.6.7.7,1.4.9,2.3.3.8-.5,1.6-.9,2.6-.8,1.1,0,2.2,0,3.3-.2,1.2-.1,2.4,0,3.5.4.7.3,1.3.2,2-.2,1-.6,2.1-1,3.3-1.1.5,0,1.2.3,1.5-.2.3-.5-.2-1.1-.5-1.6-.3-.5-.8-1-1-1.6,0-.3-.1-.7.2-.8.3-.2.5,0,.7.2,1.6,1.7,3.2,3.4,4.7,5.3.5.7.4,1.2-.4,1.5-.7.3-1,.8-1.2,1.5-.3,1-.8,1.9-1.5,2.7-.9,1.1-1,1.5,0,2.6,1.5,1.9,2.5,4.2,3.9,6.2.6.8,1,1.8,1.3,2.8.1.5.3,1,.9,1.2.8,1.1,1,2.4,1.4,3.6,0,.2,0,.4-.2.5Z"/>
        <path class="cls-65" d="M137,246.9c-2.1-.4-4.1-1.1-6-2.2.8-2.1-1.2-2.9-2-4.2,0,0-.1-.1-.2-.2-2.8-1.6-4.1-4.2-4.6-7.3-.3-1.8-.8-3.7-1.1-5.5-.2-1.4-.2-2.8,1.1-3.8.8-.7.3-1.3-.2-1.8-2.9-3.5-5.5-7.2-7.9-11-3.7-5.8-6.3-12-7.8-18.7,0-.4-.2-.8-.1-1.2.2-1.7-.4-3.1-1.3-4.5-.4-1.3-1-2.5-1.6-3.7-.2-.6-.6-1-1.3-1.2-.8-.2-1.3-.8-1.6-1.5-.3-.7-.6-1.3-1.1-1.8-.4-.4-.8-.6-1.3-.4-.7.3-1.3.1-1.9-.3-.6-.4-1.3-.4-1.9-.6-.3-.6.2-.9.6-1.3,2.2-2.4,4.8-4.4,7.3-6.5.3-.3.6-.5.9-.8,1.9-1.4,3.9-2.3,6.3-2.7,3.2-.2,6.4,0,9.6.7.9.2,1.6.7,2.4,1,.3.2.6.4.7.7.2,1.3,0,2.6-.3,3.9-.5,1.8-.8,3.6.1,5.3.3.5.5,1.1.6,1.7,0,.4-.2.6-.4.8-1.4,1.3-2.1,3.1-2.8,4.8-.2.7-.1,1.2.2,1.8,4.1,6.5,7.7,13.4,12.1,19.7,1.5,2.1,3.2,4.1,5,5.9.5.4,1,.8,1.3,1.4.4,1,.9.9,1.7.4,7.2-4.5,15-6.5,23.5-6.1,2.5.1,4.5,1.2,6.2,2.9.3.3.6.9,1.3.6.4,0,.7,0,.8.5-.9,0-.7.4-.4,1,1.2,2.9,1.7,6,1.6,9.1-.8-.2-.9-.9-1.2-1.5-.7-1.5-1.5-2.6-3.3-2.6-.4,0-.8-.2-1.1-.4-3.6-3-9.4-1.2-11.8,1.8-.7.8-1.5,1.6-2.4,2.1-4.1,2.3-7.5,5.5-11.2,8.4-3.1,2.4-5,5.7-7.1,9-1.2,1.9-1.1,3.9.1,5.7.4.7.9,1.3.3,2.2Z"/>
        <path class="cls-2" d="M220.6,61.3c1.3-.2,2.4.5,3.3,1.3,2.8,2.1,5.3,4.5,7.4,7.2.6.8,1.1,1.7,1.5,2.7,1,3.2,2.1,6.5,1.8,10-.2,2.4-1.4,4.4-2.5,6.4-1.6,2.8-3.6,5.3-6.4,7.1-.3-.4-.3-.5,0-1,.9-1.4,2-2.7,3-4,.4-.5.7-1,.9-1.5.2-.4.2-.7-.2-.9-.9-.6-.7-1.4-.3-2.2.3-.7.8-1.2,1.2-1.9-2.7,2.3-5.4,4.2-8.3,6-3,1.8-6.4,2.5-9.9,3-1.9.3-3.9.2-5.9.3-3.7,0-7.4,0-11,1.1-.5.2-1.1.1-1.7.1-4.9,0-9.7.1-14.6,0-5.7-.2-11.4-.9-17-2-4.6-.9-9.2-1.6-13.7-3-3-.9-5.9-2-8.6-3.6-.8-.5-1.7-.9-2.6-1.1-6.6-1.4-13-3.6-19.1-6.5-3-1.4-6.1-2.4-9.3-3.2-.5-.1-1-.2-1.5,0-.2,0-.3,0-.5,0-1.8-2.3-4.6-3.2-6.8-4.9-1.2-.9-2.6-1.5-3.8-2.5-1.2-1.4-2.4-2.8-3.6-4.2-.5-.6-.9-1.3-1.3-2-.2-.4-.4-.8,0-1.2.3-.4.8-.2,1.2,0,.6.2,1.2.5,1.7.9,1.3.9,2.6,1.7,3.9,2.6,4.8,3.4,10.5,5,15.8,7.2,6.5,2.6,13.2,4.7,20.1,6.5,4.9,1.3,9.9,2,15,2.5,3.3.3,6.6.7,9.9.5,3.9-.3,7.6,1,11.4,1.1,3.6,0,7.2.4,10.7,0,1.2-.1,2.1-.8,3.3-1,1.7-.2,3.5,0,5.2-.4,2-.5,4.2-.5,6.1-1.5.4-.2.8-.2,1.2-.2,6.5-.5,12.5-2.5,17.6-6.7.8-.7,1.5-1.3,1.5-2.5.3-1,.5-1.9,1.4-2.5.3.2.4.4.2.6.2-1.2.9-2.4,1.8-3.4.4-.4.6-1,.7-1.6.2-.4.4-.8.9-1Z"/>
        <path class="cls-67" d="M173.4,212c-.2-.1-.5-.3-.7-.4-.9,0-1.4-.6-1.7-1.3-1.5-2.4-3.6-3.9-6.1-5-1.1-.5-2.2-.9-3.4-.6-2.4.6-4.9.5-7.3.9-3.7.6-7.1,1.8-10.2,3.8-1.2.8-1.3.7-2.2-.4-2.7-3.1-4.9-6.6-7.5-9.8-2.8-3.5-5.1-7.3-7.5-11.1-.6-1-.5-2,0-3,.4-.8.5-1.6.4-2.5-.2-1.1,0-2.2.3-3.3.6-3,.1-5.7-2-8.1-.7-.8-1.3-1.6-.8-2.8.4-.3.8-.1,1.1,0,2.2,1.4,4.1,3.1,4.6,5.9.2,1,.5,1.9.7,2.9.1.6,0,1.2-.3,1.7-.4,1-.7,2-1.2,3-.9,1.9-.5,3.8,0,5.7.4,1.2,1,2.4,1.7,3.4,2.6,3.9,5,8,8.1,11.6.3.3.5.6.8.9,1.9,2.4,4.2,3.2,7.1,1.9.9-.4,2-.5,3-.7.7-.1.9-.4.6-1.1-.6-1.3-1.1-2.6-1.8-3.8-1.3-2.1-1.9-4.5-2.2-6.9-.4-3.4-1.1-6.7-1.3-10.1-.1-1.7-1.6-2.7-3-3.5-2.2-1.3-4.6-2.3-7-3.5-.5-.3-1.1-.5-1.5-1,.1-1.8,1.3-3.4,2.9-3.9,3.3-1,6-3.1,8.5-5.5,1.6-.9,3.2-1.8,4.1-3.5.2-.3.3-.5.5-.8.8-1.7,1.2-1.8,2.7-.7.8,1,.7,2.2.5,3.3-.3,1.9-.1,3.5.9,5.2,1,1.6,1.4,3.5,2.1,5.3,1,2.7,1.9,5.5,2.4,8.4.2,1.3.8,2.3,2.1,2.9.4.2.6.5.6.9.2,1.3,1.2,2.3,2.5,2.4,3.8.3,6.7,2.3,9.4,4.8,2.1,2,4.1,4.1,5.8,6.5.3.4.5.7.9,1,.9,1.4,1.5,2.9,2.1,4.5.2.5.4,1,.6,1.5-2,3.7-5.1,5.1-9.1,4.5Z"/>
        <path class="cls-29" d="M15.7,131c-2.1,0-4.1,0-6.2-.3-3.1-.5-4.1-2.6-4.6-5.2-.3-1.7-.8-3.4-1.4-5-1.4-3.7-.4-8.1,2.3-10.6,1.3-.5,2.1.2,2.9,1.1.6.6.7,1.4,1.1,2.1.5,1.2,1.6,1.3,2.2.2.9-1.8,2.6-2.4,4.2-2.8,2.5-.7,5-1.5,7.4-2.3.6-.2,1.2-.3,1.8-.2,1,.1,1.6.4,1.8,1.6.3,1.9,1.8,3.1,3,4.3.9,1,1.8,2,2.2,3.3.2.8.7.8,1.3.5,1.1-.5,2.1-1.1,3.3-1.3,1.3-.2,2.5-.2,3.6.4,1,.5,1.6.4,2-.6,0-.2.2-.3.4-.4.8-.1.9.5,1,1,0,.5,0,1-.2,1.5-.3,1.8,1.6,3.9,3.5,3.2.9-.3,1.9-.3,2.7.4.4.3.9.3,1.4.3.4,0,.8,0,1.2.1,2.7,1,4.3,5.3,2.9,7.7-.5.2-.9,0-1.4,0-1.4-.1-2.6.3-3.5,1.4-1.8,2.3-4.4,2.8-7,2.9-2.1.1-4.1,0-6.2-.6-.4-.1-.9-.2-1.3-.1-1,.1-1.9-.1-2.7-.8-.7-.3-1.2-1.1-1.9-1.5,0-.5.1-1,.3-1.5.3-1.1-.2-2.6-1.1-3.3-.6-.5-1.6,0-1.9.9q-.4,1.1-1.4.6c-2.2,0-3.7-1.2-5-2.8-.5-.6-.9-.7-1.4,0-1.7,2.2-4.3,2.7-5.9,2.5.7.2,1.2.5,1.7,1,1,.9.8,1.7-.5,2.1-.1,0-.3,0-.4.1Z"/>
        <path class="cls-101" d="M96.2,67.7c3.1,2,6.2,4.1,9.4,6,.7.4.6,1.1,1.1,1.5,1.4.5,2.4,1.5,3.7,2.2,4.8,2.6,9.4,5.4,14.5,7.4,4.6,1.9,9.3,3.1,14,4.5,4.4,1.3,8.9,2.5,13.4,3.5.5.1,1.1,0,1.3.7-.2,1.2-1.3,1.3-2.1,1.6-.7.2-1.4,0-2.1.1,0,0,0,0,0,.1.5.3,1.3.5,1.2,1.3-.2.9-1.1.7-1.7.7-1.4,0-2.7-.3-4-.5-.7-.1-1.4-.2-2.1-.2-2.5-.5-4.9-1.1-7.3-1.9-5.9-1.9-11.8-3.7-17.5-6.1,0,0-.1,0-.2,0-1.1-.4-2.2-.9-3.3-1.5-5.7-2.8-11.3-5.7-16.7-9-1-.6-1.9-1.3-2.8-2.1-.7-.7-1.5-1.4-2.5-1.6-3-2.2-6.3-4-8.8-6.8-1.1-1.2-2.4-2-3.8-2.5-1-.4-1.7-1-1.9-2.1.2-.2.5-.2.8-.2,1.3-.5,1.4,1,2.3,1.4-.1-.8-.5-1.4-.6-2.1,0-2.9.4-5.7,1.5-8.4.9-2.3,2.9-3.6,4.7-5,3-2.2,6.6-3.2,10.1-4.1,4-1,8.1-1.8,12.2-2.2.3,0,.4-.2.6-.3.5.2.6.7.6,1.2,0,.2,0,.4-.1.6-.1.4-.4.7-.7,1-.8.6-1.8.9-2.8.8-.8,0-1.7,0-2.5.2-3.1.6-6.2,1.5-8.7,3.7-.7.6-1.3,1.2-1.7,2.1-.5,1.1-1.3,1.8-2.4,2.3-1.1.5-1.6,1.7-2.5,2.3-1.4,1-.8,2.1-.4,3.3.8,2.2,2.3,3.7,4,5.1,1.3,1,2.6,2,3.8,3.1Z"/>
        <path class="cls-70" d="M137,246.9c.3-1.3-.8-2.2-1.2-3.3-.7-1.5-.5-3,.2-4.2,2.2-3.9,4.7-7.6,8.4-10.4,2.8-2.1,5.4-4.5,8.4-6.5,1.2-.8,2.7-1.3,3.7-2.6.5-.6,1-1.3,1.7-1.8,1.8-1.5,3.9-2,6-2.2,1.6-.1,3.2.3,4.6,1.3.5.4.9.8,1.6.7,1.7-.2,2.5.9,3.1,2.2.3.7.7,1.4,1.1,2.1,0,0,0,.2,0,.2-1.3,2-1.5,4.5-2.9,6.5-2.6,1.3-5.1,2.7-7.6,4.3-.6.4-1.3.8-1.8,1.4-1,1.2-1.5,2.5-.8,4,.1.3.3.6.1.9-1.2,1.4-2.9,1.8-4.4,2.7-1.1.6-2.3,1.2-3.5,1.7-.7-1.2-1.6-2.1-3.2-2.4-2.4-.5-4.2,1.8-4.8,3.6-.2.7-.1,1.4-.6,2-2.7.5-5.4.6-8.2-.1Z"/>
        <path class="cls-55" d="M109.9,43.3c0-.5,0-.9-.3-1.3,1.5-3.4,3.6-6.6,5.5-9.8,1.1-1.9,2-4,3.4-5.7,3.5-4.4,7.4-8.6,12-11.9,1.4-1,2.9-1.9,4.3-2.9,1.8-1.2,4.1-1.4,6.1-2.3.9.5,1.8.4,2.8.1,4.3-1.1,8.7-1.5,13.2-.9.8,0,1.6,0,2.4,0,5.7.4,11.4,1.1,17,2.1,9.2,1.6,18.1,4.5,26.6,8.2,1.6.7,3.1,1.5,4.6,2.4,1.1.7,1.4.6,1.6-.7.2-1.6,1.3-2.4,2.3-3.3.2-.2.5-.3.8-.2.5.4.9.8,1.4,1.2.8.6,1,1.4.9,2.4-.2,2.1-.3,4.3-.4,6.4-.9-.1-1.7.1-2.4.8-1.3,1.3-2.5,1.4-4.1.5-1.8-1.1-3.5-2.3-5.4-3.2-3.3-1.6-6.7-2.8-10.1-4.1-.3-.1-.7-.2-1-.2-.6.5-1.1-.2-1.7-.3-1.7-.4-3.4-.8-5-1.6-1-.5-2.1-.6-3.2-.7-1.5-.3-3-.8-4.5-1.2-4.3-1.2-8.7-1.7-13.1-2.4-.5,0-1,0-1.4,0-5.2-.7-10.4-1-15.6-.9-.6,0-1.3,0-1.9,0-1.5,0-2.8.3-4.1,1-1.5.8-3,1.6-4.7,1.9-.4,0-.7.3-.9.7-1.5,2-3.2,3.9-4.9,5.8-.3.4-.6.7-.9,1-.7.5-1.3,1.2-2.2,1.4-.5-.4-1-.2-1.5.1-1.2.8-2.2,1.7-3.1,2.8-1.3,1.4-2.5,2.8-3.6,4.4,0,.1-.1.2-.2.3-1.9,3-3.8,6.1-4.1,9.8,0,.5-.2.9-.4,1.4-.3.7-.6,1.4-1.5,1.5-.9,0-1.2-.6-1.5-1.3-.3-.6-.5-1.2-.7-1.9,0,.4.2.7-.3.7Z"/>
        <path class="cls-136" d="M43.1,115.8c-.2.4-.3.7-.5,1.1-.4.8-.8,1-1.6.4-1.8-1.1-3.7-.9-5.6-.1-.8.3-1.6.7-2.4,1.1-.5.2-.7.2-.8-.4-.3-1.5-1.1-2.6-2.2-3.7-1.4-1.5-3.2-2.8-3.3-5.2,0-.3-.1-.4-.4-.5-.7-.2-1.4-.4-2.1-.2-3.4,1.4-7.1,1.9-10.4,3.4-.6.3-1.1.6-1.3,1.3-.2.8-.9,1.4-1.6,1.4-.8,0-1.3-.6-1.5-1.5-.5-1.8-1.5-3-3.6-3.1,2.1-2.1,4.6-3.7,7.1-5.4,1.4-.9,2.8-1.8,4.2-2.7.3.5-.1.8-.4,1.2-.5.7-.9,1.5-1,2.4,0,.3-.3.7,0,1,.3.3.7,0,1,0,.6-.2,1.3-.5,1.9-.8,1.6-.9,3.3-1.6,5-2.3.4-.2.9-.4,1.1-.8,1.3-2.2,3.5-2.8,5.8-3,1.5-.1,3.1,0,4.5-.9.9-.6,2-.3,3-.5.8.1,1.6.3,2.4.4.1-.3,0-.5-.2-.6-1.8-2.5-1.7-5.9-.1-8.5,1.5-2.5,3.7-4.2,6.4-5.2.6.4.5,1,.6,1.5-.3,1.1-.6,2.2-.3,3.4.8,2.9,2.1,5.5,4.3,7.5,1.5,1.4,2.9,2.9,4.4,4.4.4.4.8.7.7,1.3,0,.2-.1.4-.1.6-.1,2.6-1.1,3.6-3.8,3.7-.3,0-.5,0-.8,0-.7,0-1.1-.7-1.7-.9-.6-.5-.5-1.4-1-2-1.2-1.7-3-2.4-4.6-3.5.9,1.8.9,4,2.8,5.3.5.3.9.8,1.5,1,.7.2.8.7.7,1.3-.2.5-.5.9-1,1-1.5.4-2.3,1.5-3.1,2.7-.8,1.1-1.9,2-1.6,3.6,0,.3-.1.7-.4.9Z"/>
        <path class="cls-76" d="M107,186.4c.8.9,1.5,1.9,1.4,3.2,0,2.1.5,4.1,1.1,6.1,1.9,6.8,5.2,12.9,9.2,18.6,1.9,2.7,3.9,5.4,6.1,8,.4.5.5.8,0,1.2-1.6,1.3-1.6,3-1.2,4.8.5,2.3,1,4.5,1.4,6.7.4,2.2,1.7,3.5,3.4,4.6,1.1.7,1.7,1.8,2.6,2.7.6.5,1,1.6,0,2.4-2.4-.9-4.4-2.6-6.5-4.1-3-2.2-6-4.4-8.4-7.3-.4-2.7-2.6-4.3-4-6.4-.7-1.1-1.6-2.1-2.2-3.3-.3-.6-.3-1.1.2-1.6.7-.9.9-2,1.2-3.1.2-.8-.2-1.5-.9-1.9-.7-.4-1.5-.7-2.4-.3-.6.3-.4.7-.3,1.2.2.7.9,1.3.7,2.1-.9.4-1.3-.3-1.8-.8-1.3-1.5-2.4-3.2-3.4-4.9-.4-.6-.8-.9-1.5-.8-1.2.2-1.7-.8-2.2-1.6-.9-3-1.9-5.9-2.7-8.9-1.3-5.2-3.4-10.2-5.3-15.2-.2-.5-.3-1.1-.3-1.6-.3-1.4.8-2.4,1-3.6.2-1,.6-2.1,1.2-3,.3-.4.5-.9,1.1-.8.4,2.1,1.1,4.2.3,6.4-.5,1.4-.3,2.8.2,4.2.5,1.4,1.1,2.7,2,3.9.9,1.3,1.5,2.7,2.1,4.2,0,.3.2.5.3.8.2.4.5.9,1,.9.6,0,.6-.6.7-1,.6-1.3,1.4-2.5,2.1-3.7.4-.7,1.2-.8,1.9-.9,2.5-.5,3-2.1,1.5-4.1-1-1.3-.9-1.9.5-3Z"/>
        <path class="cls-93" d="M182.5,207.5c-.6,0-.6-.5-.7-.9-.5-1.7-1.3-3.3-2.2-4.8-2.2-3.8-5.1-7.1-8.1-10.3-1.6-1.6-3-3.4-4.8-4.8-.8-.7-1.8-1-2.7-1.5-.3-.2-.7-.5-.9-.9-1.8-3.2-3.7-6.3-4.1-10.1-.2-2.4-1.1-4.7-1.5-7.1-.1-.6-.2-1.3-.1-1.9,0-.4.2-.7.3-1.1.5-1.3,1.2-2.5,2.7-2.7.6,0,1.3,0,1.9,0,1,.2,2,.3,2.8,1.1.5.5.8,0,1.1-.3.5-.4.8-1,1.6-.5,0,.5-.4.8-.7,1-.8.6-.9,1.3-.7,2.3.7,3.1,2,6.1,2.8,9.1.2.7.4,1.3.3,2,0,1.3.6,2.1,1.7,2.6.8.4,1.6.6,2.5.8.9.2,1.8.3,2.7.6,2.2.5,4.2,1.3,5.9,2.8,1.8,1.6,3.9,2.9,5.3,5,.7,1.1,1.3,2.2,1.5,3.5-.6.7-1,1.7-1.8,2.2-1.3.8-1.1,1.8-1,3,.2,2,.3,4.1-.5,6-.8,1.8-2,3.3-3.1,4.9Z"/>
        <path class="cls-28" d="M61.7,137.8c-1.6-.6-3.2-1.3-4.5-2.4-1.7-.9-1.3-2.5-1.4-4,0-.3.1-.7.3-1,1.3-1.5,2-3.3,2.8-5.1,1.3-2.9,1.2-5.7-.1-8.6-.4-.8-.4-1.4.2-2.1,1.7-1.7,2.5-3.8,2.2-6.3,0-.3,0-.6,0-.9.4-.6-.1-1.3.2-1.9.1-.1.3-.1.4,0,1.2.9,2.8,1.3,3.6,2.7-.4,1.2-1.2,2.3-1.3,3.7-.1,1.9-.5,3.7-.3,5.6.1,1.7,1.4,2.7,2.8,2.1.7-.3,1.1-.8,1.3-1.5.2-.6,0-1.4.6-1.8.6-.3,1.2.3,1.8.3,1,0,1.9.4,2.5,1.2.1.6-.4.8-.7,1.1-.8.7-1.3,1.6-1.4,2.7,0,.4,0,.8-.2,1.2-1.8,3.8-.9,7.5.7,11.1.6,1.3,1.1,2.7,1.5,4.2,1.8,6.3,4.2,12.4,7.9,17.9,1.2,1.8,2.7,3.3,4.2,4.9.7.8,1.5,1.5,1.7,2.7-.3.3-.7,0-1,0-1.6-.4-3.2-.3-4.5.8-.7.5-1.1.4-1.8,0-1.7-1.4-2.9-3-4.1-4.8-3.3-5.3-6.3-10.7-8.1-16.8-.4-1.5-1.8-2-2.8-2.9-.7-.7-1.7-1.3-2.5-1.9Z"/>
        <path class="cls-28" d="M142.7,96.3c1.7,0,3.4.4,5,.6.7,0,1.4,0,2.1,0,.2,0,.5,0,.6-.3,0-.2,0-.5-.3-.6-.6-.3-1.2-.6-1.9-1,.8-.5,1.6-.2,2.3-.3,1.2-.1,2.3-.3,2.9-1.4.4-.4.9-.2,1.4-.2,4.3.8,8.7,1.2,13.1,1.5,1.3,0,2.5.6,3.7.9,3.9.9,7.8,1.2,11.7,1.7,5.2.6,10.4.5,15.5.5.8,0,1.6-.2,2.4-.2,1.8-.2,3.6.1,5.3.1,7.6.1,14.9-1.3,20.8-6.7.7-.6,1.3-1.5,2.3-1.5-.7,1.7-2.1,2.9-3,4.3-.4.6-1.1,1.1-1.1,1.9-3.4,2.6-7.2,4.1-11.3,5.3-2.8.8-5.6,1.4-8.4,2.4-1.7.6-3.5.7-5.3.8-5.1,1-10.3,1.1-15.5,1-4.8,0-9.5-.7-14.1-1.7-9-1.9-17.9-4.3-26.9-6.5-.6-.1-1.3,0-1.5-.9Z"/>
        <path class="cls-73" d="M199.6,73c-.4-.7-.8-1.5-1.2-2.2-.8-1.4-1.3-2.8-1.2-4.5.2-2-.3-4-.4-6.1-.2-3,.4-6,1.5-8.8,1.5-4,3.4-7.9,5.6-11.6.5-1,1.2-1.7,2.2-2.3,2.2-1.2,4.3-2.4,6.5-3.6.6-.4,1-.2,1.2.5.2.6.3,1.7,1.2,1.6.9-.1.9-1.2,1-2,.1-.6-.2-1.4.9-1.3,1.4,1.8,2,3.9,2.7,6-.2.6-.7.6-1.1.7-.4.1-.8.3-1.2.5-2.8,1.8-5.5,3.6-7.7,6.1-2.2,2-3.4,4.7-4.4,7.4-.1.3-.1.6,0,.9.2,1.2.2,2.4.2,3.6-.1,2.3.2,4.4.8,6.6.1.7.1,1.3,0,2-.3,1.3,0,2.4.8,3.5,1,1.4,2.2,2.6,3.6,3.5,0,.4-.4.5-.8.7-1.8.8-3.7,1.3-5.7,1.5-.7-.2-1.5,0-2.2-.3-1-.6-1.6-1.4-2.1-2.4Z"/>
        <path class="cls-74" d="M61.7,137.8c1,.6,2.1,1.1,3,1.9.6.5,1.1,1.2,1.9,1.5.5.2.5.7.6,1.1,1.9,7,5.7,13.1,9.5,19.2.8,1.2,2.2,1.9,3.1,2.9.2.2.4.1.6,0,1.8-1.7,3.8-1.7,6-.9,1.3.7,1.8,1.7,1.9,3.4.3,0,.4-.3.7-.4.5,0,.8.2,1.1.6.2.3.1.7-.2.8-1.6,1.1-1.8,2.9-2.6,4.5-.5.9-1.1,1.9-.9,3,0,.2,0,.4.2.6.1.1.3.2.4.3,1.7.6,1.9.5,2.9-1,1.7-2.6,3.7-4.8,6.3-6.6.4-.3.8-.5,1.3-.7,1.8-.4,2.8.8,2.2,2.5-.3.8-.7,1.5-1,2.3-.9,1.6-2.3,3-3.2,4.7-.3.5-.7,1-1.2,1.4-.6.5-.9,1.2-1.2,1.9-.8,1.8-1.1,3.8-2,5.6-.5-.8-1-1.3-2.1-1.2-1,0-1.9-.5-2.6-1.3-2.4-2.4-4-5.2-5.2-8.3-2.8-7-7-13.2-11-19.5-1.8-2.8-3-5.8-3.9-9.1-.8-3.3-1.8-6.6-4.6-9Z"/>
        <path class="cls-63" d="M189,191.4c-.9-1.2-1.2-2.8-2.3-3.9-3.4-3.5-6.9-6.8-12.1-7.4-1.5-.2-3-.6-4.4-1.4-.6-.4-1.2-.9-1.2-1.7.1-2.1-.7-4-1.4-6-.6-2-1.3-3.9-1.8-5.9-.3-1.3,0-2.1,1.1-2.7.3-.2.4-.4.7-.7.2-.5.6-.7,1-.4.6.5,1.3.4,1.8.6.7,1.2,2,1.9,3,2.8,5.2,5,10.8,9.7,15,15.7.4.6,1,1.2,1.5,1.7,2.1,2.2,1.1,7.9-1.1,9.2Z"/>
        <path class="cls-16" d="M78,62.9c.7.9,1.4,1.7,2.6,2.1,1.1.3,2.2,1,3,1.9,2.1,2.3,4.6,4.2,7.2,5.8.7.4,1.2,1,1.9,1.5.5,0,.7.3.9.7.7,1.2,1.8,2.1,2.9,2.9,1.9,1.4,3.8,2.8,5.6,4.2.8.6,1.3,1.4.8,2.5-.5.7-1.3,1-2.1,1.1-1.1,0-2,.3-2.7,1.2-.2.3-.6.5-1,.5-.5,0-1,0-1.5,0-.2,0-.4-.2-.3-.4.6-1.6-.6-2.5-1.5-3.3-4-3.6-8.2-7-12.9-9.7-2.9-1.7-6-2.7-9-4.1-1.1-.5-2.2-1.1-3.3-1.6-.3-.1-.6-.3-.9-.4-1.5-.6-1.9-.4-2.6,1-.2.4-.3,1.1-1,.4,0-.5,0-1.1.1-1.6.3-1,1.1-1.7,1.4-2.7.3-.4.6-.8,1.1-.9,3.4-1.6,6.8-2.3,10.5-1.1.3,0,.5,0,.8,0Z"/>
        <path class="cls-53" d="M212.3,16.9c-.8.7-1.5,1.4-2.3,2.1-.6.6-.4,1.4-.6,2.1-.5,1.3-.4,1.3-1.6.6-3.5-2.1-7.3-3.6-11.1-5-5.9-2.2-11.9-4-18.1-5.2-5.6-1.1-11.3-2-17-2.3-.7,0-1.4-.2-2.1-.2-.2-.2-.8,0-.8-.4,0-.7,0-1.4.4-2.1.2-.3.5-.5.9-.6,2.2-.1,4.3.2,6.4.5.8.1,1.6.2,2.5,0,1.2-.3,2.5-.3,3.7-.1,4.1.5,8.3.8,12.4,1.6,1.6.3,3.1.6,4.6,1.1,5.6,1.7,11.1,4,16.6,6.1,1.1.4,2.3.8,3.6.8.9,0,1.9.2,2.5,1.1Z"/>
        <path class="cls-91" d="M197.7,146.3c-.6-.1-.8-.2-.9-.9-.3-1.4-1-2.5-1.7-3.6-1.3-1.9-2.3-4.1-3.8-5.9-.6-.7-.6-1.4,0-2.1,1-1.1,1.8-2.3,2-3.8,0-.6.6-.6,1-.7.8-.3,1-.6.4-1.3-1.5-1.7-3-3.4-4.5-5.1-.2-.2-.3-.5-.6-.3-.2.2,0,.4,0,.7.2.6.6,1,1,1.5.4.6.9,1.3.5,2-.3.6-1.1.2-1.7.3.7-.7.4-1.2-.2-1.8-.8-.9-1.5-2-1.9-3.1-.3-.7-.5-1.5-.3-2.2.2-.7-.3-1.4-.2-2.1.1-.5.5-.8.8-1.1,1.9-1.7,3.4-3.8,5-5.8.8-1.1,1.3-2.4,1.5-3.8,0-.6.4-1,.9-1.3.6-.3,1.1-.5,1.7-.2.2.3.3.6.5.9.5,3.2-1.2,5.6-3.1,7.8-1.2,1.3-2.3,2.7-3.7,3.9-.5.5-.5.8.2,1,1.9.6,3.3,1.9,4.6,3.3,1.1,1.3,2.7,2.2,3.7,3.5,1.3,1.8,2.8,2.8,5.1,2.2.8-.2,3.2,1.7,3.4,2.5,0,.2-.1.4-.3.5-.4.2-.7,0-1-.1-.7-.3-1.3-.2-2,0-1.4.3-2.8.6-4,1.6-.6.3-1,.8-1.3,1.3-1.9,2.3-2.1,5-1.7,7.8.1.8.4,1.6.5,2.4,0,.6,0,1.1.1,1.7,0,.2,0,.4-.1.5Z"/>
        <path class="cls-142" d="M55.7,71.8c.6-.6,1.3-.9,1.8-1.7.3-.4.8-.5,1.2-.5,1,0,1.9,0,2.9.3.5.2,1.1.3,1.6.5,3,1.5,6.1,2.7,9.1,4.3,6,3.2,11.6,7,16.3,11.9.4.4.7.7,1,1.2.5,1.1.9,2.3.4,3.6-.2.5-.4,1.1-1.1,1.2-.6,0-1-.3-1.4-.8-.2-.3-.4-.7-.7-1-.8-.9-1.5-1.7-2.6-2.2-1-.5-1.9-1.3-2.9-1.9-7-4.5-14.2-8.4-22-11.3-.4-.2-.8-.3-1.3,0-.7.3-1.4.1-2-.4-1.2-1.3-1.3-2-.3-3.1Z"/>
        <path class="cls-51" d="M197.7,146.3c0-.1,0-.3,0-.4-.2-.6,0-1.2-.2-1.8-.9-3.3-1.3-6.6.7-9.7.2-.3.5-.5.7-.8.4-.4.7-.9,1.3-1.1,1.5-.8,3.3-.9,4.9-1.4.3,0,.6,0,.9.2.8.6,1.7.6,2.6.7.8.3,1.6.4,2.5.5,0,.1,0,.3,0,.3-1.5.1-.9,1.2-.9,2,0,1-.2,1.9-.5,2.8-.2.8-.8,1.5,0,2.3.3.3-.2.6-.4.9-2.3,4-5.5,7.1-9.1,10-.7.6-.7-.2-1.1-.3-.3-1.4-.8-2.8-1.4-4.1Z"/>
        <path class="cls-77" d="M196.9,105.4l-1.6.4c-1,.5-2.1.3-3.2.3-2.2,0-4.4.3-6.5.3-.9,0-1.8,0-2.7-.3-2.4-.1-4.7-.6-7.1-.7-.7,0-1.3-.2-1.9-.3-1.6-.3-3.3-.3-5-.6-.5,0-1,.1-1.5.4-3.3,1.7-5.4,4.4-6.5,7.9-.3,1.2-1.1,2.2-1.3,3.5-.2.4-.2.9,0,1.3,0,.4.3.8,0,1.2-1.1-.6-.7-1.8-.9-2.6-.4-1.4,0-2.7.8-4,1.2-1.9,2.3-4,4-5.6.5-1.3,1.8-1.7,2.8-2.5-7.4-1.7-14.7-3.5-21.9-5.6-.8-.2-1.7-.6-2.5-.7-.9-.2-1.7-.6-2.6-.8-1.6-.7-3.4-1.1-5-1.8-1-.4-.8.5-1.2.9-.4.2-.7.2-1,0-.7-1.5-1.7-1.8-3-.8-1.3,1-2.2,2.4-3.2,3.6-.4.4-.6.9-1.1,1.2-.8.3-1.5.9-2.5.7.6-1.7,1-3.4,3.1-4,.9-.2,1.4-.9,1.5-1.8,0-1-.5-1.7-1.5-1.9-2.5-.7-4.9-1.6-7.3-2.4-2.2-.7-4.1-1.9-6.3-2.6-2-1-4.3-1.6-6.1-3.1-.3-.3-.9-.4-.6-1,1.4-.1,2.8.4,4,1,2.7,1.3,5.4,2.2,8.2,3.2.3,0,.5.2.8,0,8,3,16,5.8,24.2,8,.2,0,.5,0,.7.1,2.9,1,5.9,1.5,8.9,2.3,5.2,1.3,10.3,2.5,15.5,3.8,8.4,2.1,16.9,2.9,25.5,2.5,2.2,0,4.4-.4,6.5-.6.6,0,1.1,0,1.7,0-1.3.3-2.7.6-3.9,1.2Z"/>
        <path class="cls-52" d="M211.1,132.5c-.9.6-1.6,0-2.4-.2-.5-.4-1.3-.4-1.5-1.1.4-.7-.4-.7-.6-1.1-1.1-1.6-2.5-2-4.4-1.4-1.1.3-1.8-.1-2.3-1.1-.4-.9-1.2-1.5-1.9-2.1-1.4-1.1-2.6-2.4-3.8-3.6-1-1.1-2.2-1.8-3.5-2.3-1.4-.5-1.3-.6-.4-1.6,2-2.1,4.1-4.1,5.6-6.6.7-1.2,1.2-2.5,1.2-3.9,0-.3,0-.6.2-.9,1.1,1.4,1.7,3.2,2.9,4.6.8,1,.6,2.3,0,3.4-.6,1.1-1.3,2.2-2.5,2.9-.8.5-.7.8,0,1.3,3.6,2.6,7,5.5,10.1,8.5.9.9,1.7,1.8,2.5,2.7.7.8,1.1,1.7.6,2.7Z"/>
        <path class="cls-8" d="M169.8,157.6c-.3.1-.5.3-.8.4-1.1,1.1-2.5,1.3-3.8,1.5-2.1.3-4.2.4-6.3-.2-2.4-.6-4.8-1.3-7.2-2.1-1.3-.4-2.5-1.1-3.7-1.7-.3-.2-.6-.4-.8-.7-.4-.7-1-1.4-1.6-1.9-1.8-1.4-1.7-3.2-1.4-5.1.2-1.3,1.2-1.9,2.5-1.9,1.3,0,2.4.4,3.4,1.2,2.4,2.9,5.8,4.2,8.9,6.1,1.8,1.1,3.9,1.1,5.9,1.4,1,.2,2.1,0,3.1.1.5.1,1,.2,1.5.4.7.4,1.1.9,1,1.7,0,.4-.4.6-.7.8Z"/>
        <path class="cls-96" d="M217.1,66.8c-.4.8-.8,1.5-1.3,2.3-.5,1.3-1.7,1.9-2.8,2.7-.2.1-.4,0-.5-.1-2.5-2.5-2.6-5.8-3-9-.2-2.1,0-4.1.3-6.2.3-2.4,1.1-4.5,2.8-6.3.3-.3.5-.7.6-1.2.4-3.1,3.1-4.3,5.3-5.7.5-.3,1.1-.4,1.7,0,.4.3.8.3,1.3.4.2,1,.5,2,.7,3,0,.4.1.8-.3,1-.6.3-.7-.3-1.1-.8.2.8-.4,1.5.5,1.9,0,.9-.3,1.8-.7,2.6-.6,1.3-.9,2.7-.8,4.1,0,.3,0,.6,0,.9-.4.5-.8.9-1.6.8-.5,0-.7.3-1,.6-1.8,2.3-3.1,4.8-3.5,7.7,0,.2,0,.5,0,.7,0,.2,0,.5.3.6.3.1.5,0,.6-.2.6-.6,1-1.3,1.6-1.7.9-.7,1.3-.5,1.5.7-.1.5-.2,1-.7,1.2Z"/>
        <path class="cls-67" d="M56.2,130.3c-.2,1.8-.4,3.5,1,5-3.2,3.9-7.5,5.1-12.3,4.8-2.8-.2-5.3-1.7-7.5-3.4-1.5-1.1-2.7-2.5-4-3.7,4.2.7,8.4,1.8,12.6.8,1.4-.3,2.9-.7,3.8-2.1,1.4-2,3.4-2.4,5.6-1.7.3,0,.5,0,.7.2Z"/>
        <path class="cls-86" d="M158.8,159.1c3.5.5,7,.5,10.3-1,0,.8.6,1.3.7,2.1-1.7,1-3.6,1.7-5.6,1.8-.6,0-1.2,0-1.7-.2-.7,0-1.4,0-2.1,0-2.2.3-4.3,0-6.5-.3-.6-.1-1.1-.3-1.5-.7-.4-.1-.7-.3-1.1-.4-.4-.2-.7-.1-.8.3-.8,2.6-2.7,4.2-5.1,5.2-1,0-.6-.6-.4-1,.6-1.6,1.3-3.2,2-4.8.2-.5.5-1-.1-1.4-.3-.2-.6-.3-.9-.4-.3,0-.5-.2-.8-.4-2.2-1-4-2.6-6.3-3.4-.5-.2-1.2-.5-1.3-1.3.6-.4,1.1.3,1.7.3-.1-.5-.3-1,.3-1.3.3,0,.6,0,.9.2,1.5.9,2.8,2,4.3,2.8,1.9,1.1,4.1,1.6,6.2,2.1,2.6.7,5.2,1.4,7.9,1.8Z"/>
        <path class="cls-65" d="M61.7,70.1c-1-.2-2-.3-3.1-.3.5-.6.5-1.2.1-1.9-.6-1.2-1-2.6-2-3.6-.5-.5-.6-1.2-.7-1.9-.2-1.4-.2-2.8,0-4.2,0-.3,0-.6.2-.8,1.3-1.4.9-3.2,1.2-4.9.2-1,.3-2,.8-2.8.4,0,.8,0,1.1.2.1.8-1,.7-.9,1.4.6,1,.8,2.1.5,3.3-.2.7-.5,1.5.2,2,.7.4,1.3-.2,1.9-.6.8-.7,1.8-.4,2.7.6.3.4.3,1,.4,1.5-.1.2-.3.4-.5.4-.3,0-.6-.2-.9-.2-.6,0-.9.1-.8.8.2,1.3.6,2.6-.3,3.8-.2.3-.2.8.2.8,1.3.1,2.2,1.3,3.6,1,.2,0,.3,0,.5.2-.2,1-1,1.7-1.4,2.6-.4,1.1-1.2,1.9-2.2,2.5-.2,0-.3,0-.5,0Z"/>
        <path class="cls-31" d="M99.5,211.8c.4,0,.6.4.9.8.3.5.9.8,1.4.6.9-.4,1.2.1,1.7.8,1.1,1.8,2.4,3.5,3.6,5.2.3.5.7,1,1.5.8,1,.4,1.2,1.5,1.9,2.2-.5.3-.5.7-.2,1.2,1,2,2.5,3.6,3.8,5.3.6.8,1.2,1.6,1.8,2.3.6.7.2,1.5.3,2.2-6.3-4.7-11.9-10.1-15.1-17.5-.5-1.3-1.3-2.5-1.5-3.9Z"/>
        <path class="cls-27" d="M38,98c-.5.3-1,.4-1.6.4-.8,0-1.7.1-2.3.8-.5.5-1.1.4-1.7.3-2.2,0-4.3.2-6.1,1.4-.3.2-.6.3-.7.6-.7,1.8-2.5,2.1-4,2.8-1.7.8-3.3,1.8-5.2,2.4-.3.1-.7.4-1,0-.3-.3-.2-.7-.1-1,.2-1.5,1.1-2.8,1.9-4,3.6-2.6,7.7-3.6,12-3.9,2.9-.2,5.9-.6,8.8,0Z"/>
        <path class="cls-6" d="M159.8,6.2c-.9.6-.6,1.5-.8,2.3-.1.4.5.2.5.5-2.5.2-5.1-.3-7.6-.2-2.9.1-5.7.6-8.6,1.3-.9.2-1.8.7-2.3-.6.6-1,1.5-1.5,2.6-1.9,2.5-.8,5-1.9,7.6-2.5,1-.2,2-.3,2.9-.3.9,0,1.8.1,2.6.7.6.4,1.4.4,2.2.5.3,0,.6,0,.9.2Z"/>
        <path class="cls-70" d="M15.7,131c1.8-1.1,1.8-1.4,0-2.5-.4-.2-.7-.4-1.3-.8,3.2.2,5.5-.9,7.2-3.5,1.7,1.8,3.1,3.9,5.9,3.7.2.5.6.8.7,1.3,0,.3.2.5.3.8-1.7-.2-3.2.5-4.8.7-2.6.4-5.3.8-8,.3Z"/>
        <path class="cls-97" d="M217.6,65.6c0-1.1-.4-1-1.1-.5-.6.5-1.1,1.2-1.6,1.7-.3.3-.6.7-1,.5-.5-.2-.5-.8-.4-1.3.3-1.9.7-3.7,1.7-5.4.6-1,1.2-2,2-3,.4-.5.6-1.2,1.6-.7.5.3.6-.9,1.2-.6,1.2,1.1,1.5,2.4.8,3.9-.1.3-.4.6-.1,1-.2.3-.4.6-.6,1-.3.7-.6,1.3-1.2,1.7-.7.4-.4,1.4-1.1,1.7Z"/>
        <path class="cls-68" d="M221.6,43.7c-.4.2-.8.5-1.2,0-.7-.8-1.4-.4-2,0-1.5.8-2.7,2-4,3.1-.5.4-.5,1.2-.7,1.8-.2.6-.1,1.3-.8,1.6-2.4,1.4-3.2,3.9-4.3,6.2-.3.6-.5,1.2-.8,1.7-.4.6-.9,1-1.7.4-.6-1.2-.7-2.4-.6-3.7.3-1.3.4-2.6.7-3.9.2-1.2.8-2.1,1.6-3,.6.4.2.8,0,1.2-.3.9-.6,1.7-.5,2.7,0,.7.4.9,1.1.6.6-.2,1-.6,1.4-1.1,2.4-3.1,4.8-6.1,7.3-9.1.9-1.1.9-1.6,0-2.6.6-.7,1.7-.4,2.4-.9,1.1,1.5,1.6,3.3,2.1,5Z"/>
        <path class="cls-159" d="M161.7,239.4c-1.5-2.2-.6-4.5,1.1-5.7,2.7-1.9,5.4-3.7,8.5-4.8.1,0,.3,0,.5,0-1.1,2.1-2.2,4.1-4.1,5.7-1.9,1.7-3.9,3.3-6,4.8Z"/>
        <path class="cls-164" d="M55.7,71.8c-.5,1.1-.5,2.1.5,2.9.2.6-.4.8-.6,1.2-.5.6-.8,1.3-.8,2.1,0,.9-.5,1.1-1.2,1.1-.9,0-1.8-.1-2.7.1-2,.7-2.5,2.4-1.3,4.1.2.3.4.5.5.8,0,.5,0,1-.4,1.5-.8,1.2-1.9,1.1-2.7,0-.1-.5-.3-1-.4-1.5.3-.7.6-1.5.6-2.3,0-1.9,1.1-3.5,3-4.1.5-.2.7-.5.9-.9,1.1-2.2,2.4-4,4.8-4.9Z"/>
        <path class="cls-56" d="M159.8,6.2c-1.4.2-2.8.2-3.9-.9-.5-.5-1.1-.2-1.7-.5,5.8-.5,11.6,0,17.4.7,5.5.7,10.9,1.7,16.3,2.8.6.1,1.3.2,1.7.7-1.9-.2-3.8-.9-5.7-1.1-2.5-.3-5-.5-7.5-.8-1.6-.2-3.2-.6-4.7-.4-3.7.4-7.3-.2-11-.5-.3,0-.6,0-1,0Z"/>
        <path class="cls-159" d="M145.1,247c0-2.3,1-4,2.6-5.3,1.9-1.6,5.4-.3,6,2.1-2.7,1.5-5.6,2.6-8.6,3.2Z"/>
        <path class="cls-38" d="M179.2,154.2c1.6,1,3.2,1.9,4.8,2.9-3.2-.1-6.3-.9-9.4-1.9-.2-.1-.5,0-.5-.2-.1-1-.8-.8-1.5-.8-.5-.2-1-.3-1.5-.4-2-.5-4-1.1-5.9-1.8-.3-.5-.3-1.2.3-1.1,1,.1.2-.5.4-.6.5-.3.8,0,1.2.3.7.4,1.3.7,1.9,1.1,1.4,1,2.9,1.4,4.6,1.2,1.9.3,3.8.5,5.4,1.5Z"/>
        <path class="cls-134" d="M63.7,56.7c-.4-.2-.8-.5-1.3-.6-.6-.2-1.2-.3-1.5.4-.5,1.1-1.4.7-2.2.5-.7-.1-.4-.9-.3-1.3.4-1.5.2-2.9,0-4.3,1.5-.5,3.6.5,4.4,2.1.5,1,.8,2.1.9,3.2Z"/>
        <path class="cls-105" d="M58.1,49.8c-.4,2.1-.8,4.2-.7,6.4,0,.1,0,.3-.1.4-2,2.4-1.4,5-.3,7.3.7,1.4,1.5,2.9,2.3,4.3.5,1,.4,1.4-.7,1.6-.4,0-.8.2-1.1.3-.5-2.1-1-4.2-1.5-6.2-.7-2.8-.5-5.6.2-8.4.4-1.7.8-3.3,1.3-5,0-.3,0-.9.7-.8Z"/>
        <path class="cls-130" d="M28.1,129.1c-.3-.4-.8-.7-.7-1.3.3.2.5.5.9.8,0-1.2.2-2.2,1.6-2.5.5-.1.8,0,1,.3.5.7,1,1.5,1.5,2.3,0,.2.2.5.1.5-.7.4-.5,1.2-.6,1.8,0,.2-.3.3-.5.4-.8-.6-1.5-1.2-2.3-1.9-.3-.3-.6-.8-1.2-.5Z"/>
        <path class="cls-34" d="M219.9,55.5c-.6-.7-.5-1.5-.1-2.3.6-1.4,1.1-2.9,1.6-4.4.7,0,.8.5.8.9,0,1.2,0,2.3-.8,3.3-.6.8-1.1,1.6-1.5,2.5Z"/>
        <path class="cls-149" d="M162.4,161.7c2.6.2,4.9-1,7.4-1.6.2.6.5,1.2.7,1.8-.7.3-1.3.3-1.8-.3-.4-.5-.7,0-1,0-.9,0-1.3.7-1.8,1.2-.2.2-.5.6-.7.2-.7-1-1.7-1.1-2.8-1.4Z"/>
        <path class="cls-138" d="M63.6,58.4c.2,0,.3-.2.5-.3.5,2.1,1.3,4.1,2.6,5.8-.3.3-.6.6-.9.9-.1,0-.3,0-.4,0-.7-.2-.7-.9-1-1.4-.5-1.2-.9-2.5-1-3.8,0-.4,0-.9.3-1.2Z"/>
        <path class="cls-115" d="M172.7,154c1.3-.7,1.6.3,1.9,1.2-1.4.2-2.4,1.4-3.6,1.9-.4.2-.7.5-1.2.6.2-.3.4-.5.5-.8.2-.4,0-.8,0-1.2.7-.6,1.4-1.3,2.2-1.7Z"/>
        <path class="cls-47" d="M80.4,62c.7.6.6,1.5,1.1,2.2,0,.2,0,.3,0,.4-.1,0-.3,0-.4,0-.4-.3-.9-.7-1.1-1.2-.2-.5-.6-.6-1.1-.6.4-.6,1.4.3,1.7-.7Z"/>
        <path class="cls-42" d="M196.7,153.1c.5-.7,1-1.4,1.7-1.9.8.7.4,1.1-.4,1.4-.4.2-.8.5-1.3.5Z"/>
        <path class="cls-139" d="M199.6,73c.8.6,1.4,1.4,1.9,2.2-.4.8-1.2.7-1.9.7-2.5,0-4.8.4-7.3.7-2.4.3-4.7-.1-7-.3-3-.1-6-.3-8.9-.6-1.3-.2-2.7-.2-4-.6-1.7-.4-3.4,0-5.1-.4-4.3-.9-8.4-2.5-12.7-3.7-5.9-1.7-11.6-3.9-17-6.8-2.6-1.4-5.6-2.1-8-3.9-4.5-3.3-9.4-6.2-13.8-9.7-1.3-1-2.3-2.3-3.6-3.3-.4-.3-.7-.7-.7-1.3,1.3,0,2.6-.4,4-.5.7,0,1.5.4,2.1.8.9.6,1.8,1.1,2.7,1.7.6.4,1,.3,1.2-.4.2-.8.5-1.5,1-2.1.7-.5,1.4-.7,2.3-.5.5.1.8-.1,1.2-.4.8-.6,1.6-1.2,2.4-1.8.6-.4,1.3-.4,2-.4.4,0,.8,0,1.1.1,1.2.6,1.9.4,2.6-.8.5-.9,1.4-1.4,2.5-1.1,1.1.3,1.5,1.1,1.7,2.1,0,.3,0,.6.3.8.6-.4,1-1,1.5-1.5,1.3-1,3.3-.3,3.4,1.3,0,1.7.7,2.4,2.2,2.8,1.2.3,1.5.8,1,1.8-.4.7-1,1.3-1.5,2-.1.5-.4.9-.7,1.2-1.2,1.6-1.3,1.7-2.9.4-.3-.2-.5-.6-.9,0-.5.6-1.1,1.1-1.7,1.6-.6.4-.7,1-.8,1.7-.1,1.5,1.5,3.2,3.1,2.7,2.1-.7,3.6,0,5,1.4,3.1,1.9,6.4,3.3,9.9,4.1,1.1.2,2.1.2,2.9-.7.5-.3,1-.3,1.5-.3,1.4.4,2.1,1.3,2.3,2.7,0,.2,0,.5.2.7.9,1.1,2.4,1.1,3.6,1.7,1-.3,1.8.3,2.7.5,1.5.4,3,1,4.7.6.6.3,1.2.2,1.8.3,2.8-.4,5.1,1.2,7.7,1.8,2.8.7,5.6,1.4,8.5,1.5.5,0,1,0,1.5-.2.4-.1.9-.2,1.1.1.9,1,2,1,3.2.8.6-.1,1.1.4,1.7.5Z"/>
        <path class="cls-12" d="M122.6,45.7c-.2,1-.9,1.8-1,2.8,0,.7-.6.5-1,.3-1.1-.7-2.2-1.3-3.2-2-1.1-.7-2.2-1.3-3.6-.3-.6.5-1.4-.2-2.1-.3-.6-.2-.9-.7-1-1.4,0-.3.2-.5.4-.5.1.2.2.3.3.5.6,1,1.5,1,2.1,0,.6-1.1.7-2.4.9-3.6.6-3.2,2.2-5.8,4.1-8.4.4.6,0,1-.3,1.4-1.2,2.4-2,5-3.2,7.4,0,.1,0,.2-.1.3,0,.4-.2.7.3.9.5.2.6-.2.8-.5.5-1.1.9-2.3,1.3-3.5.7-2,1.5-4,2.2-6.1-.4-.2-.6.2-.9,0,.9-1.8,2.3-3.1,3.6-4.5,0,0,.1.2.1.3,0,1.8.4,2,2.2,1.4,4.4-1.6,8.7-3.4,13-5.1,1.3-.5,2.4-1.4,3.5-2.3.3-.3.8-.7.6-1.2-.2-.5-.7-.4-1.2-.4-3-.2-5.8.7-8.6,1.8-.6.2-1.2.8-1.9.3,1.9-2.2,3.7-4.6,5.7-6.7.4.4.8.3,1.2.2,3.7-1.1,7.5-1.2,11.4-1.3,3.3-.1,6.6.1,9.9,0,3.4,0,6.7.4,9.9,1.3.5.1.9.2,1.3.6.1.1.1.2,0,.4-3.3-.4-6.7-.8-10.1-1-3.5-.2-7,0-10.5-.2-2.1,0-3.1,1.6-4.5,2.7-.2.2-.2.5,0,.7.2.2.4.2.7,0,.2-.1.4-.3.6-.5.8-.6,1.7-.8,2.4,0,.7.8.7,2.3-.2,2.9-2,1.4-4.1,2.4-6.4,3,0,0,0,0-.1,0-3.3-.9-4.9,1.2-6.3,3.6-.6,1.1-1.3,2.2-1.9,3.3-.2.3-.2.5,0,.8.2.3.6.3.9,0,1.8-1.7,3.7-1,5.5-.3,1.9.7,3.5,1.8,4.8,3.4.6.8,1.3,1.6,1.9,2.4.8,1,.8,2.1.6,3.3-.3,1.4-1,2.8-1.1,4.3-.4,0-.7,0-1.1,0-.8-.2-1.5-.5-1.3-1.6,0-.3,0-.7,0-1.1-.2-1.4-1.8-2-2.9-1.2-.5.4-1,.9-1.3,1.5-.1.2-.4.5-.7.3-.2-.1-.3-.3-.3-.6,0-1.2-.2-2.3-1.6-2.6-1.5-.3-2.2.8-2.8,1.9-.3.6-.6.9-1.3.4-.6-.4-1.3-.5-2-.5,0-.3,0-.4.3-.4,1.8-.6,3-1.9,4.2-3.2.4-.4.7-1,.8-1.6.3-1.1,0-1.8-1.1-2.2-1.4-.5-2.6-1.2-3.8-2-1.9-1.4-6.4-.8-8.2,1.7-1.7,2.5-2.2,5.1-1.5,8.1.3,1,1.2,1.6,1.5,2.5Z"/>
        <path class="cls-12" d="M163.1,65.3c-.4-.2-.4-.5-.5-.9-.2-1.1-.9-1.8-1.9-2.2-.2-1.4-.6-2.8-1-4.2-.3-.8-.7-1.3-1.4-1.6-2.8-1.3-5.7-2.3-8.9-2.6-2-.2-4-.2-5.9.6-.5.2-1,0-1.5-.3-1.4-.9-1.8-.8-3.1.2-.3.2-.6.6-1,.5-.2-.9.3-1.5,1-2,.4-.3.9-.5,1.1-.9.7-1.2,1.4-1,2.1-.1.8,1,1.3.5,1.9-.3.4-.5.7-1.1,1.2-1.5.4.4.7.4,1-.2.5-1.2,1.6-2,2.6-2.7.8-.6,1.7-.6,2.5-.2,3.1,1.3,6.1,2.6,9.2,3.9,1,.4,1.6,1.1,1.5,2.3,0,.7,0,1.4,0,2,0,.4,0,.8.5.9.5.1.9,0,1.2-.4.3-.5.6-1,1.3-.7.6.3.6.9.6,1.4,0,2.8-.9,5.4-2,8-.1.3-.3.7-.4,1Z"/>
        <path class="cls-50" d="M175.8,68.4c-.6.3-1.2.6-1.7-.2-.3-.4,0-.8.1-1.1,2.7-5.7,4.9-11.6,8.3-17,.2-.3.5-.8.2-1.1-.4-.4-.8,0-1.2.2-2.5,1.5-4.4,3.5-6,5.9-2.3,3.3-3.9,6.8-5.3,10.6-.2.7-.3,1.5-1,2-.9-.2-1.7-.5-2.6-.7,1.2-2.7,1.8-5.6,3.3-8.2,3-5.5,7.3-9.7,12.7-12.8.3-.2.6-.3.9-.4.7-.2,1.5-.8,2.1,0,.6.7.3,1.6-.1,2.3-1.2,2-2.6,3.8-3.7,5.9-1.6,2.9-2.9,6-4.1,9.1-.7,1.8-1.3,3.7-1.9,5.5Z"/>
        <path class="cls-128" d="M169.4,17.4c0,0,0-.1,0-.2.5-.5,1.1-.4,1.7-.3,3.3.4,6.6.4,9.8,1.1.2,0,.3,0,.5,0,1.4.2,2.8.5,4.2,1.1,1.8.8,3.8,1.2,5.7,1.8.1,1-.6.5-.8.4-2.5-.8-5-1.2-7.5-1.6-3.6-.5-7.1-1-10.7-1.7-.9-.2-1.9-.3-2.8-.4Z"/>
        <path class="cls-24" d="M116.8,118.5c2.4,3.5,5.3,6.6,8.5,9.4,2.4,2.1,4.7,4.2,7.1,6.4,1.5,1.4,3.3,2.1,5.4,2.3.6,0,1.2.1,1.8.2,2.2.5,4.1-.7,6.1-1.3,1.3-.4,2.4-.9,3.7-1.3,1.2-.3,2.3-.3,3.4.4.5,1.1.6,2.1-.1,3.1-1,.4-2.1.8-2.7,1.8-.2.3-.2.7-.4,1-.6.8-1.4,1.5-2.2,2.2-.9.8-2,1.2-3.3,1.3-2.7.2-5.1-.5-7.5-1.5-2.4-.9-4.4-2.5-6.3-4.2-1.8-1.6-3.9-3-5.8-4.5-.7-.6-1.3-1.2-1.9-1.8-1.8-2.2-3.6-4.5-5.1-6.9-1.1-1.7-1.6-3.5-1.7-5.5,0-.5,0-.9.4-1.2.2,0,.5-.1.7,0Z"/>
        <path class="cls-52" d="M159.5,118.8c-.2-.4-.2-.8-.2-1.2-.1-.4-.1-.8,0-1.3,0-1.3.8-2.4,1.2-3.5,1.3-2.6,3.4-4.4,5.8-6,.6-.4,1.3-.4,2-.2.7,1.1,1.5,2,2.7,2.6.5.3,1,.6,1.6.6.3,0,.6,0,.8.5-.2,1-1,1.6-1.4,2.4-.4.9-.8,1.8-.7,2.8.1,1.1-.7,1.9-1.1,2.8-.5,1.3-.8,2.6.4,3.7.3.3.6.6,1.1.6,3.8.5,7.1-1.6,8.3-5.3.2-1.2.3-2.5,1.9-2.7,1.1.4,1.3,1.4,1.2,2.2-.5,3-2,5.5-4.8,7.1-2.3.4-4.7.8-6.9,1.4-.1,0-.3,0-.3-.1-.4-.9-1.1-1-2.1-1.3-1.5-.3-3-1.1-4.2-2.2-1-.9-2-1.8-2.4-3.2-.2-.8-1-.4-1.5-.3-.5,0-.8.4-1.4.4Z"/>
        <path class="cls-126" d="M178.2,123.8c2.3-1.5,3.7-3.7,4.4-6.3.3-1,0-1.8-.8-2.5-.6-1.1-.5-2.1.4-3,.2-.7-.2-1.3-.4-1.9,0-.3-.3-.6,0-.9.3-.2.5.1.7.3.3.2.5.6.9.7.4-.6-.2-1.3.1-1.9,1.1,0,2.7,1.1,3.1,2.3.5,1.5.9,3.1.4,4.8-.3.7,0,1.5,0,2.2.2.9.4,1.8.3,2.8,0,1.8,1.1,3.3,2.2,4.6,0,0,.2.2.2.3,1,1.1.9,1.2-.3,1.7-1.3.1-2.6.5-3.6,1.3-.5.4-1,.4-1.5.2-2.7-1.2-5.4-.1-8.1-.2-.5,0-1,.4-1.5.7-.4.2-.6.9-1.1.7-.7-.3-1.4-.7-1.9-1.2-.3-.4,0-1.1.3-1.6.3-.6.9-.6,1.4-.7,1.4-.3,2.9-.5,4.3-.9,1.1-.3,1.1-.3.5-1.3Z"/>
        <path class="cls-66" d="M141.8,97.5c2.6.7,5.1,1.4,7.7,2.1,5.5,1.5,11,2.9,16.6,4.1.3,0,.5.2.9.3-1.4.8-2.5,1.6-3.6,2.6-.3-.4-.8-.3-1.2-.3-4.9,0-9.4-1.2-13.8-3.4-.3-.1-.5-.2-.7,0-2.2,1.5-4.6,2.8-7.1,3.9-.4.1-.6.5-1,.7-.8.3-1.5.8-2.3,1-.5.1-1,.4-1.3-.1-.3-.5.2-.9.6-1.2,2.1-1.5,4.1-3.3,6.2-4.9.1,0,.3-.2.3-.4-.4.3-.7.6-1.1,1-.4.3-.7.5-1.1,0,0-.6,0-1.1.2-1.6.5-.8.6-1.6.5-2.5,0-.4-.2-.9,0-1.3Z"/>
        <path class="cls-146" d="M141.1,103c.9.3,1.1-.7,1.7-1.1.3-.2.5-.8.8-.4.4.5-.1.8-.4,1-2.2,1.6-4.1,3.5-6.4,5-.3.2-.7.4-.6.8.2.5.7,0,1.1,0,.8-.2,1.4-.9,2.4-.7-4,3.5-8.4,6.3-13.6,7.4-2.1.5-4.2,1.1-6.3,1.8-.5.2-1,.4-1.2.9-.8-.5-1.6-.4-2.5-.4-.9,0-1.8,0-2.7,0-.1,0-.2,0-.3-.2-.2-.2-.2-.4-.2-.7.2-1-.2-1.7-.9-2.3-.2-.2-.6-.4-.3-.8,1.8-.6,3.5-1.1,5.3-.2.5.2,1,.1,1.5,0,1.7-.3,3.3-.8,4.9-1.5,3.1-1.4,6.5-2.2,9.7-3.6,1.7-.8,3.2-1.8,4.7-3,1-.8,1.9-1.8,3.3-2Z"/>
        <path class="cls-57" d="M152.3,137.8c.8-.4.5-1.1.5-1.7,0-.5,0-1,0-1.4.2,0,.4.1.5.3,1.3,1.6,3.3,2.5,4.3,4.4,2.3,4.4,6.1,7.3,10.5,9.6,2.9,1.5,5.9,2.7,9,3.6,1,.3,1.7.7,2.1,1.7-1.8-.3-3.6-1-5.5-1.2-1.3-.6-2.7-.9-4-1.5-5.2-2.3-10-5.3-13.2-10.3-.2-.3-.5-.7-.8-.9-.8-1-1.7-1.9-3.1-2.2-.2,0-.3-.2-.3-.4Z"/>
        <path class="cls-132" d="M135.1,127.4c-.4-1.2,0-2,.9-3,1.6-1.6,2.9-3.5,2-6-.2-.6.2-.6.6-.6,2.1-.3,3.5.8,4,3.1.1.6-.4.7-.7,1-1.3.9-1.4,1.4-.2,2.6.4.4.8.8,1.2,1.3.3.3.6.6.4,1-.1.4-.6.3-.9.4-.3,0-.5,0-.8,0-1.9.1-3.8-.2-5.7.3-.3,0-.6,0-.7-.2Z"/>
        <path class="cls-37" d="M116.2,116.9c.8.2,1.9-.6,2.4.7-.4.6-1.2.6-1.7.9-.2,0-.5,0-.7,0-1.3.5-2.6.4-3.9.1-1.3,0-2.6-.2-3.9-.4-.1,0-.2,0-.4-.2-2.6-.9-5.2-1.8-7.8-2.7-.5-.2-1.4,0-1.3-1.1.8-.4,1.6,0,2.3.2,3.5,1,7.1,1.8,10.7,2,.4,0,.7,0,1,.4h0c1,.2,2.1.2,3.1,0Z"/>
        <path class="cls-110" d="M178.2,123.8c0,0,.1.1.2.2.3.2.9,0,.9.6,0,.5-.6.6-1,.7-1.8.6-3.7.7-5.6,1.2-.3,0-.5.2-.8.3,0,0-.2,0-.2,0-.4,0-.9.2-1.1-.2-.2-.5.3-.7.6-1,1.5-1.1,3.3-1.1,5-1.4.7-.1,1.3-.2,2-.3Z"/>
        <path class="cls-124" d="M141.8,127c.4-.2,1.1.2,1.3-.2.2-.5-.5-.7-.8-1.1-.3-.4-.7-.7-1-1-1.3-1.3-1.2-2.1.4-3,.3-.2.7-.3.8-.7.3.5.5,1,.5,1.6,0,1.1-.1,2.3.4,3.4.2.4.5,1.1-.4,1.3-.4,0-.9.5-1.2-.2Z"/>
        <path class="cls-133" d="M141.8,127c.4.3.8.1,1.2.2-1,.8-1.9,1.3-3.3,1-1-.2-2.1-.1-3.1.2-.8.2-1.4,0-1.5-1,2.2-.6,4.4-.5,6.6-.4Z"/>
        <path class="cls-27" d="M127.4,179.5c-.2,1.4-.5,2.7,0,4.1.2.7-.3,1.2-.6,1.8-.4,1-.5,1.9.1,2.9,3.4,5.4,7.1,10.6,11.1,15.6,1.4,1.8,2.9,3.6,4.2,5.5.3.4.5.5.9.2,3.4-2.5,7.3-3.8,11.5-4.3,2.3-.3,4.6-.5,6.9-.9,2.6-.5,4.6,1.1,6.6,2.4,1.2.8,2.1,1.8,2.8,3,.4.8,1,1.3,1.7,1.7-.3.5-.6.4-.9,0-.5-.5-1.1-.9-1.6-1.4-1.7-1.8-3.9-1.9-6.1-2-4.6-.2-9.1.5-13.5,1.9-3.2,1-6.3,2.5-9.1,4.4-.7.5-1.4.9-1.6-.5,0-.2-.3-.5-.5-.7-4.7-4.4-8.1-9.8-11.4-15.4-2.3-3.8-4.5-7.7-6.8-11.5-.3-.6-.4-1.1-.2-1.7.8-2.1,1.5-4.2,3.4-5.6.6-1,1.5-1.1,2.5-.9.6.1.9.5.7,1.1Z"/>
        <path class="cls-137" d="M98.4,172.7c.1-.8.6-1.4,1-2.1.3-.7.5-1.4,0-2-.5-.7-1.2-.7-1.9-.4-.1-.6.4-.9.7-1.3,1.9-1.6,4-3,6.5-3.5,1.9-.4,3.6-1.4,5.4-1.9,3.9-1.1,7.8-1.3,11.7-.5,2.6.5,5,1.9,7.3,3.5,1.3,1.2,2.4,2.6,3.9,3.7,1.2-1.6,1-3.3.7-5.1-.1-.6-.4-1.1-.5-1.7,0-.2,0-.4,0-.6,0-.5.1-1,.2-1.4.2-1,.9-1.5,1.8-1.3,1.6.3,3.2,0,4.8,0,.8,0,1.7-.1,2.5.2.7.6,0,.9-.4,1.1-.7.4-1.5.5-2.2.8-1.1.5-1.2.9-.9,2.1.2,1.1.7,2.2,1,3.3,0,.6-.4.9-.9,1.2-2,1.4-3.6,3.3-5.7,4.7-.6.4-.5,1.3-1.2,1.7-.6,0-1.1,0-1.4.7-.2.3-.3.8-.8.6-.7-2.9-2.6-4.8-5.3-5.9-.4.2-.5,0-.7-.3-.2-.2-.3-.3-.5-.5-1.9-2-4.3-2.7-7-2.1-.3,0-.6.1-.8,0-1.5-.4-3,0-4.4.4-2.2.5-4.2,1.3-6,2.6-1.9,1.6-4.3,2.5-6.3,4-.1.1-.3.1-.4,0Z"/>
        <path class="cls-39" d="M94.3,178.7c0-.7.8-.9,1-1.5.3-.2.4-.7.9-.4,1,0,1.9.2,2.6.8.3.2.6.3.9,0,1-.8,1.6,0,2.1.6.4.5.7,1.1.9,1.7.2.7.7,1.2,1.4,1.3.9.1,1.2.7,1.4,1.4.4,1.3,1.4,2.3,1.4,3.7-.1.2-.2.4-.4.6-.8.9-.6,1.5.2,2.4,1.7,1.7,1,3.8-1.3,4.2-1.5.3-2.5.9-2.9,2.4-.3,1-1.2,1.8-1.4,3-.1.9-1.3.9-1.9,0-.5-.7-.6-1.6-.9-2.5-.7-1.8-1.9-3.2-2.8-4.9-.9-1.8-2-3.7-1.4-5.7.8-2.5,0-4.8.1-7.3Z"/>
        <path class="cls-93" d="M123.8,168.2c.2.1.5.2.7.3-.2,1.2.5,2,1.2,2.9,2,2.4,2.5,5.1,1.8,8.1-.2-1.2-1.1-1-1.9-.8-.4,0-.8.4-1.3.6-.4-1.1-1-2.1-1.3-3.2-.4-1.2,0-2.5.3-3.6.5-1.4.5-2.8.6-4.2Z"/>
        <path class="cls-114" d="M111.1,166c1.3-.7,2.6-1.2,4.2-.8,1.1.3,2.2-.3,3.3-.2,1.9.2,3.8.7,4.7,2.6-3.9-1.7-8.1-1.8-12.2-1.7Z"/>
        <path class="cls-111" d="M96.2,176.8c-.3.1-.6.3-.9.4.8-1.6,2-3,3.1-4.5,2-1.7,4.4-2.8,6.7-4.1-1.7,1.5-3.4,3-5.1,4.4-1.3,1.1-2.6,2.4-3.7,3.7Z"/>
        <path class="cls-104" d="M212.8,71.8c1-.9,2.2-1.6,3.1-2.7.3,1.4-.6,2.1-1.5,2.9-3.9,3.4-8.6,5.1-13.6,6.3-1.2.3-2.4.6-3.6.5-.9,0-1.8,0-2.4.7,0,.1-.3.2-.4.2-2.2-.2-4.2,1.1-6.4,1-1.4,0-2.8.2-4.2.2-.8,0-1.3.7-2.1.8-4.1.5-8.2.2-12.2,0-2.9-.2-5.8-1-8.7-1.1-1.7,0-3.5,0-5.2,0-3.4,0-6.8-.5-10.2-.9-9.6-1.1-18.8-4-27.9-7.2-4.1-1.4-8-3.2-12-4.6-4.3-1.5-7.9-4.3-11.8-6.7-.4-.3-.8-.4-1.3-.6-.3-.1-.7-.6-1.1-.2-.3.4.1.7.3,1.1.6,1.5,1.8,2.5,2.8,3.7.7.8,1.4,1.6,2.1,2.5-2.7-1.5-5.2-3.5-7.1-5.9-.9-1.1-1.3-2.6-1.7-4,0-.3-.1-.7.2-.9,1.1-.8,1.8-1.8,2.7-2.8.2-.2.4-.4.7-.5,1.1-.2,1.8-.9,2.2-1.8,1.4-2.7,3.8-4.2,6.5-5.2,1.3-.5,2.7-.9,4.1-1.2.5,1.2.2,2.1-.9,2.7-.6.3-1.3.6-2,.8-1.7.5-3.7,3-3.8,4.8,0,.6.2.9.6,1.2.6.3,1.2.6,1.9.7.8.2,1.5.4,1.7,1.3.1.5.5.6.9.6,1.4.2,2.6,0,3.6-1,.3-.4.8-.7,1.2-.9,1.2-.3,2.2.1,3.2.8,5.5,3.9,11.5,6.7,17.6,9.2.8.4,1.6.8,2.6.9,1.3.4,2.6,1,3.8,1.7,6.5,3.3,13.3,5.7,20.4,7.4.7.2,1.4.3,2,.7,1.4,1.1,3.2,1.1,4.9,1.4,3.1.6,6.3,1,9.4,1.4,1.8.2,3.6,0,5.4,0,3.2.2,6.4,0,9.5-.3,3.2-.2,6.3-1.1,9.4-1.7,2.8-.6,5.6-1.3,8.4-1.7,2.2-.4,4.4-.8,6.5-1.9.6-.9,1.6-1.2,2.4-1.7Z"/>
        <path class="cls-154" d="M229.8,89.5c-2.1,1.7-4,3.5-6.3,4.9-3.2,1.9-6.7,2.7-10.3,3.3-1.6.3-3.3.5-5,.5-1.2,0-2.3-.1-3.4-.4-1.2-.3-2.5,0-3.7.2-3.6.4-7.2.2-10.8.1-4.8,0-9.5-.6-14.2-1.3-2.6-.4-5-1-7.6-1.6-1.9-.4-3.9-.5-5.9-.6-2.8-.2-5.5-.6-8.2-1.1-.3,0-.6,0-.8,0-2.5-.6-5.1-1.2-7.6-1.9-6.7-1.8-13.5-3.5-20-6-3.9-1.5-7.7-3.4-11.3-5.5-2.5-1.5-5.2-2.6-7.5-4.4-.2-.1-.3-.3-.4-.4.4-.9,1-.4,1.6-.3,4,1,7.8,2.5,11.5,4.2,5.4,2.5,11.1,4.3,17,5.5.7.1,1.3.3,1.9.7,4.5,2.7,9.4,4.2,14.5,5.3,5.4,1.2,10.9,2.2,16.4,2.9,6,.8,12.1.8,18.1.8,3.6,0,7.1-.1,10.7-.8,3.5-.7,7.2-.3,10.8-.4,4.2-.1,8.3-.8,12-3,3-1.7,5.9-3.7,8.5-6.1.3-.3.5-.6,1.1-.6-.1.8-.8,1.4-1.1,2-.2.5-.5.9-.7,1.4-.1.4-.2,1,.4,1.1,1.8.2.5,1,.3,1.5Z"/>
        <path class="cls-89" d="M217.6,65.6c0-1.7,1.6-2.2,2.4-3.3,0,.5,0,1-.4,1.3-1,1.3-2,2.6-2.3,4.4-.4-.5-.2-.9-.3-1.2.2-.4.3-.8.5-1.2Z"/>
        <path class="cls-70" d="M152.3,160.7c2.6.7,5.3.7,7.9,1-1.4.2-1.9,1.4-2.5,2.4-.4.2-.4.6-.2,1,0,2.2.7,4.3,1.2,6.4.6,2.7.9,5.5,1.9,8.1,0,.2.1.4.2.5,1.1,1.2,1.8,2.7,2.4,4.2,0,.6.5.5.8.7,2.2.4,3.6,2,5.1,3.4,2.6,2.6,5,5.4,7.4,8.3,1.3,1.5,2.3,3.2,3.1,5.1-1.3-1.2-2.2-2.8-3.4-4.1-2.8-3-5.6-6.1-9.7-7.5-.9-.3-1.9-.5-2.9-.6-1.3,0-2.7-1.4-2.7-2.7,0-.3,0-.6-.4-.7-1.6-.5-2.2-1.9-2.5-3.4-.7-3.7-2-7.3-3.4-10.8-.6-1.4-1-2.9-1.9-4.2-.6-1-.3-2.3-.1-3.5.2-1.2.3-2.5-.4-3.6Z"/>
        <path d="M133.8,174.8c1.9,1.1,3.9,1.9,5.9,2.9,2,1,4.1,1.9,5.5,3.9.3.4.4.7.4,1.2.3,4.6,1,9.2,2,13.7.2.9.6,1.7,1.1,2.5,1,1.6,1.6,3.5,2.5,5.2.4.8-.2.7-.6.7-1.6.2-3.2.6-4.8,1.2-2,.6-3.6.2-5.1-1.3-4.7-5-8.4-10.6-11.5-16.7-1.3-2.5-1-5,.2-7.5.5-1.1,1.1-2.1,1.1-3.4,0-1.2.6-2.2,1-3.3.1-.3.3-.4.7-.3.6.3,1.3.5,1.7,1.2Z"/>
        <path class="cls-112" d="M133.8,174.8c-.6-.2-1.2-.6-1.7-1-.1-.3-.4-.5-.2-.9.5-.9.9-1.7,1.8-2.4,2.1-1.5,3.9-3.3,5.8-5,.6-.9,1.4-1.5,2.1-2.2,1.4-1.3,2.5-2.8,3.5-4.3.4-.5.8-1,1.6-.7.7.2.9.6.6,1.3-.8,1.7-1.5,3.5-2.2,5.3-.1.3-.6.7.1.9-2.5,2.5-5.2,4.5-8.6,5.6-1.2.4-1.7,1.2-2.2,2.1-.2.5-.5.9-.7,1.4Z"/>
        <path class="cls-33" d="M132,173c0,.3.1.6.2.9-.3-.1-.3,0-.4.3-.4,1.1-.8,2.1-1.2,3.1-.4-.9-.6-1.9-.7-2.9.5-.2.6-.8.9-1.2.4-.6.8-.7,1.3-.2Z"/>
        <path class="cls-4" d="M56.2,130.3c-.3,0-.5,0-.7-.2.4-1.6,0-3.1-.3-4.7-.3-1.3-1.2-2.3-2.5-2.7,0-1,.5-1.8.4-2.8,0-.6,0-1.2-.5-1.6-.5-.2-.9-.6-1.2-1-.2-.2-.3-.4-.4-.6-.4-1.5,0-2.5,1.2-3.4.4-.2.8-.4,1.1-.7.8-.4,1.7-.6,2.4-1.2.9-.8,1.6-1.7,1.8-3,0-.5.2-.9.4-1.4.7-1.3,1.7-1.5,2.8-.6.3.3.6.5.8.9-.1.3-.1.5,0,.8.5,2.6-.4,4.8-2.2,6.6-.6.6-.7,1-.3,1.7,1.1,2.1,1.5,4.4.8,6.7-.8,2.6-1.6,5.2-3.6,7.1Z"/>
        <path class="cls-46" d="M51.4,117.1c.4.3.7.7,1.2.8.3.5-.2.7-.4.9-.5.5-1.1,1-1.5,1.6-.5.7-.6,1.3.3,1.7.2,0,.4.2.4.5-.7.3-1.3.1-1.7-.4-.5-.6-1.1-.5-1.7-.4-3.1.7-4.9-1-4.3-4.2.1-.7.4-1.4-.6-1.8,0-.3.2-.6,0-.8-.4-1.6.7-2.6,1.5-3.7.5-.6,1-1.1,1.3-1.8.1-.4.5-.4.9-.5.8-.3,1.6-.6,2.1-1.4.3-.7-.1-1.8,1-2.1.7-.1.9.6,1.4.9.6,1.4,1.3,2.7,2.5,3.7.2.2.3.5.2.9-.2.2-.5.3-.7.1-1-.7-1.4-.1-2,.6-1.3,1.6-2.6,3.2-3.7,4.8-.4.6-.8,1.2-1,1.9-.1.4-.5.9,0,1.3.5.4.9,0,1.3-.3.8-.5,1.6-1.1,2.2-1.8.3-.3.6-.8,1.2-.5Z"/>
        <path class="cls-36" d="M40.9,126.8c0,1.7-.3,2.2-1.9,2.5-.4.1-.8.4-1.1.7-1.1.8-1.7.7-2.4-.5-.2-.4-.3-.8-.4-1.2,0-.7-.4-1.1-1.1-1.4-1-.3-1.6-1-1.7-2.1,0-.5,0-1.1.3-1.4,2-1.8,4.1-3.4,7-3.4,1.3,0,2.5,1.9,2.1,3.5,0,.5-.2.9-.5,1.3-.4.7-.7,1.3-.5,2Z"/>
        <path class="cls-25" d="M51.4,122.6c-2-.9-2.1-1.3-.5-2.9.6-.6,1.1-1.2,1.7-1.8.7.3.7.9.7,1.5,0,1.1,0,2.3-.7,3.3-.4,0-.8,0-1.2,0Z"/>
        <path class="cls-119" d="M203.9,75.4c-2,.9-4.2,1-6.3,1.5-3.3.8-6.6,1.5-9.9,2-3.7.5-7.4.5-11.1.4-4.4,0-8.8-.5-13.1-1.2-2.3-.4-4.6-.8-6.8-1.8-8.8-2-17.1-5.2-25.1-9.2-.3-.2-.7-.3-1-.4-2.8-1.1-5.4-2.7-8-4.2-2.6-1.5-4.9-3.4-7.5-4.9-1.7-1.7-3.8-3-5.6-4.6-1.2-1.1-2.3-2.2-2.6-3.8.1-.7.4-1.4.6-2.1.3-1.1,1-2.1,2-2.7.2-.3.4-.5.5-.8.7,0,.8.6.9,1.1.3.5.5.9.8,1.4.2.6.6,1,1,1.4,3.4,3.2,7.1,6,11.1,8.5,2.8,1.8,5.3,4.1,8.3,5.6,10.7,5.4,21.8,9.5,33.4,12.5,1.1.3,2.3.9,3.2.7,1.3-.3,2.5,0,3.7.2,5.8.9,11.6.9,17.4,1.4,1.9.2,3.8-.1,5.7-.5,1.8-.3,3.7,0,5.5-.4.2,0,.4-.1.5-.2.8,0,1.6-.2,2.4.2Z"/>
        <path class="cls-122" d="M109.4,44.5c-1.5,1.2-1.8,3.1-2.4,4.8-.3.6.2,1,.4,1.4.9,1.4,1.9,2.7,3.2,3.8.3.2.8.4.4.9-.9.3-1.6-.2-2.3-.6-.8-.4-1.4-1.2-2.1-1.7-.8-1.1-1.6-2.1-2-3.5-.1-.5-.4-1-1-1.1-.5,0-.7.5-.9.8-.8,1.7-1.2,3.5-1.3,5.4,0,.8.3,1.1,1.1,1.2,1.5.1,2.9-.3,4.3-.8.3,0,.6.2.5.6-1,.6-1.6,1.9-3,2.1-.8,0-1.6.1-2.4,0-.5-.1-1-.2-.9-1,0-.6-.4-.7-.9-.8-.7-.2-1.3-.3-1.9-.6-1.7-.8-1.8-1.1-1.1-2.9.5-1.1,1.2-2.1,1.9-3,.7-1,2-.8,3-1.3,1.9-.9,1.9-.8,1.9-2.8,1-.3,2.1-.3,3.2-.2.9,0,1.6-.4,2.3-.7Z"/>
        <path class="cls-120" d="M117.8,88.2c-.1.6-.4.3-.7.2-2.5-.6-5-1.5-7.3-2.6-1.6-.8-3.3-1.1-5-1.7-.7.1-1.4,0-2.1.2.3-.8,0-1.4-.7-1.8-1.9-1.4-3.6-2.9-5.6-4.2-1.6-1.1-2.7-2.5-3.9-4,.9-.3,1.5.5,2,1,2.8,2.7,6.4,4.3,9.7,6.3,1.7,1,3.5,2,5.2,2.9,2.1,1,4.2,2.2,6.5,3.1.6.2,1.1.8,1.8.8Z"/>
        <path class="cls-139" d="M110.8,44.8c-.3-.4-.6-.7-.9-1.1,0-.1,0-.3,0-.4.3-.2.2-.6.5-.9.3.7.5,1.3.7,1.9,0,.2-.2.4-.3.5Z"/>
        <path class="cls-20" d="M129.8,22.9c2.1-.6,4.1-1.5,6.2-2,1.6-.3,3.1-.4,4.7-.4.5,0,.9,0,1.2.5.3.5,0,1-.4,1.3-1.1,1.2-2.4,2.2-3.8,2.8-4.4,1.8-8.8,3.5-13.2,5.2,0,0,0,0-.1,0-.7.2-1.5.6-2.1,0-.7-.6-.3-1.4-.1-2.1.9-1.2,2.1-2.2,3.3-3,.6-.4,1-.6,1.5.1,0,.6-.5.6-.8.9-.6.6-1.8,1.1-1.4,1.9.4.8,1.6.2,2.4,0,2.3-.9,4.5-1.9,6.7-3.2.9-.5,2-.9,2.6-2-.7-.3-1.4-.2-2-.1-1.5.2-3,.5-4.4,1-.3.1-.7.3-1,0,.3-.3.5-.6.8-.9Z"/>
        <path class="cls-26" d="M181.3,17.9c-1.5.6-2.9,0-4.4-.1-2.5-.1-5-.5-7.6-.6-3.7-1.1-7.5-1.7-11.4-1.7-3.7,0-7.3-.1-11,0-3.5,0-7.1.3-10.5,1.3-.5.2-1.1.3-1-.6,1.7-.1,3.2-1,4.7-1.8,1.3-.7,2.7-1.1,4.2-1.1,1.5,1.2,3.3,1.1,5.1,1.2,3.1.2,6.2-.2,9.3-.2,5.8,0,11.5,1,17.1,2.2.3,0,.7.2,1,0,1.4.4,2.9.8,4.3,1.2Z"/>
        <path class="cls-83" d="M129.1,23.8c2.2-.7,4.5-1.5,6.8-1.4.4,0,.9-.2,1,.3.1.5-.3.7-.6.9-2.3,1.7-4.8,2.8-7.3,4-1.1.5-2.2,1-3.4,1.1-.5,0-1.1.1-1.4-.4-.3-.5.2-.9.5-1.2.6-.8,1.4-1.3,2.3-1.9.7-.5,1.4-1,2.1-1.5Z"/>
        <path class="cls-125" d="M158.8,14.7c-3.1.1-6.2.4-9.3.3-1.6,0-3.2-.3-4.7-.7-.4-.1-.9-.3-.4-.9,3.3-.4,6.6,0,9.9,0,2.7,0,5.4.4,8.1.8,0,.5-.4.3-.7.3-1,0-1.9-.1-2.9.1Z"/>
        <path class="cls-9" d="M158.8,14.7c.7-.4,1.5-.1,2.2-.2.5,0,1,.2,1.4-.2,4.7.4,9.3,1.1,13.9,2.3.2,0,.5.1.7.2-.7.6-1.4,0-2,0-5.3-1-10.7-2.2-16.1-1.9Z"/>
        <path class="cls-95" d="M65.3,108c-1.3-.9-2.5-1.8-3.9-2.6-.4,0-.6-.3-.8-.5-.9-1-2.1-1.7-3.3-2.2-.4-.2-.9-.2-1.1-.7-1.7-1.7-3.3-3.6-5.1-5.2-2.4-2.1-3.7-4.7-4.5-7.7,0-.6-.1-1.1,0-1.7,0-.3.3-.6.6-.7.4,0,.6.3.7.6.2.6.5,1.2.8,1.8.6,1.1,1.5,2,2.6,2.7,2.6,1.6,5,3.6,7.5,5.3,6,4.1,12.1,8,18.6,11.3.5.3,1.2.4,1.6.7,1.4,1,2.7.6,4-.2.5-.3.9-.6,1.5-.7,1.2.5,2.5,1,3.1,2.3-.3.4-.9.4-1.3.5-.9.2-1.6.6-1.7,1.6-.2,1.2-.6,2.4.6,3.3,2.1,1.5,4.3,2.5,6.9,2.5,1.8,0,3.6,0,5.5-.4,1.3-.3,2.7-.2,3.9.5-.2.8-.9.8-1.4.8-1.6,0-3.1.3-4.6.6-3.7.7-7.2.1-10.7-1.2-.4-.2-.9-.3-1.4-.4-2.7-1.2-5.4-2.4-8-3.8-3.1-1.7-6.1-3.6-9.1-5.5-.4-.3-.9-.5-1.1-1.1Z"/>
        <path class="cls-131" d="M77.3,108.7c-3.2-1.4-6.1-3.4-9.1-5.2-5.5-3.2-10.6-7.1-15.9-10.7-2.1-1.5-4-2.9-4.7-5.5-.1-.5-.4-.3-.6,0-.4.6-.3,1.2-.4,1.8-.5-1.3-.2-2.5.3-3.6.6.3,1.1,1,1.8.6.8-.4,1.1-1.1,1.1-2.1.5-.3.8,0,1,.4.8,1.3,2.1,2.2,3.3,3,2.3,1.6,4.7,3.1,7.2,4.5,3.5,1.9,6.6,4.3,9.5,7,.7.7,1.5,1.1,2.5,1.1.6,0,1,.3,1.5.6,1.4.9,2.7,1.5,4.3.4.2-.1.5-.2.6.1.2,1.1.3,2.2-.4,3.2-.3.4-.4.9-.5,1.4,0,1.2-.5,2.1-1.5,2.8Z"/>
        <path class="cls-94" d="M56.2,102c2,.7,3.9,1.6,5.2,3.4,0,.6.7,1.2,0,1.9-.3,0-.6-.2-.8-.5-.4-.5-.9-1-1.6-.7-.7.3-1.1.9-1.2,1.7-.2,1.9-1.3,3.3-2.8,4.3-.6.4-1.2.4-1.8.7-.8-.5-.2-1,0-1.5.1-.3.5-.2.7-.5-.2-.5-.4-.9-.8-1.3-1.1-.8-1.7-1.9-1.7-3.2.3-.4.8-.2,1.2-.2,2.1,0,3.2-1.2,3.1-3.3,0-.4,0-.7.5-.8Z"/>
        <path class="cls-165" d="M50,105.4c-.6.6-.7,1.4-1,2.1,0-.4,0-.7-.5-1-1.7-.9-3.2-1.9-3.6-4-.1-.8-.5-1.6-1.1-2.2-.2-.2-.3-.4-.1-.6.2-.2.4-.2.6,0,1.6,1.2,3.6,2,4.8,3.8.5.6.5,1.4.9,2Z"/>
        <path class="cls-65" d="M111.4,222.5c0-1.7.7-2.9,1.8-3.2,1.2-.4,2,.3,2.7,1.3.4.6.9,1.2,1.4,1.7,1.7,1.9,1.5,2.7.6,5.1-.6,1.5-2.7,1.8-4,.4-1.4-1.6-2.2-3.6-2.5-5.3Z"/>
        <path class="cls-64" d="M103,208.9c-1.1-1.6-1.2-3.5-1.2-5.3,0-.8.4-1.2,1-1.5.7-.3,1.2,0,1.6.7.7,1.1,1.2,2.3,1.5,3.6.2.8.6,1.1,1.4.9.9-.3,1.1.1,1.1,1,0,1,0,1.9,0,2.9,0,1.7-1.4,2.8-3.1,2.4-.9-1.5-1.9-2.9-2.4-4.6Z"/>
        <path class="cls-143" d="M110.4,222.1c-1.1-.3-1.1-1.6-1.9-2.2-.4-.7-.8-1.4-1-2.1-.3-.7-.4-1.3.7-1.5,1.2-.2,2.1,0,3,.8.8.7.8,1.7.4,2.6-.4.8-.3,1.8-1.1,2.4Z"/>
        <path class="cls-31" d="M103,208.9c.9,1.5,1.8,3,2.4,4.6-2.3-1-3-2.2-2.4-4.6Z"/>
        <path class="cls-67" d="M164.1,184.9c-.3,0-.6,0-.8,0-.2,0-.4-.1-.4-.4,0-.3.2-.3.4-.3.3.2.5.5.8.7Z"/>
        <path class="cls-67" d="M157.6,165.1c-.3-.2-.6-.4-.4-.8.1-.4.4-.3.6-.2,0,.3,0,.7-.2,1Z"/>
        <path class="cls-23" d="M86.4,176.3c-.5-.9-.4-1.9,0-2.7.7-1.5,1.4-2.9,2-4.4.2-.5.7-.9,1.1-1.2.3-.2.9-.3.4-.8-.3-.3-.8-.8-1.3-.1,0,.1-.2.2-.6.5.1-1.8-.7-3-1.7-4.1-.6-.9-1.1-1.8-1.9-2.6-4.3-3.9-6.9-8.9-9.1-14.1-1.5-3.4-2.5-7-3.6-10.6-.7-2.3-2-4.3-2.4-6.7-.3-1.7-.4-3.4.2-5.1.4-1.1.8-2.2.9-3.4.1-1.4,1.3-2.2,2.3-3,.8-.5,1.5-.2,2.2.3.3.6-.1,1.1-.4,1.5-1,1.6-1.6,3.2-1.4,5.1,0,.5.1,1,.4,1.5.7,1.1,2,1.1,2.8,0,.5-.6.6-1.5,1.2-2,.6,0,.5.5.6.8.2.9.4,1.8.4,2.7,0,4,1.7,7.4,3.7,10.7,2.7,4.5,5.3,9,8.8,12.9,1.2,1.3,2.3,2.8,3.6,4,1.2,1.1,2.8,1.7,4.2,2.5.3.1.6.2.9.4,1,.6,1,1.4,0,2-2,1.2-3.8,2.6-5.6,4.1-.9.7-1.6,1.6-2.3,2.4-1.4,2-3,3.8-4.2,5.9-.6,1.1-.8,2.3-1.2,3.5Z"/>
        <path class="cls-98" d="M74.9,118.4c-.7-.3-1.4-.4-2.2-.5-1.2-1-2.8-.9-4.2-1.5-.1.6-.2,1.2-.4,1.8-.3,1.1-1.1,1.7-2.3,1.8-1.2.1-2-.6-2.2-1.5-.6-3.2-.5-6.5,1-9.5.2-.3.4-.7.6-1,5.7,3.9,11.7,7.2,18,10.1,1.2.6,2.5,1.1,3.5,1.9.8.6,1.6,1.2,1.5,2.4,0,.6-1.6.9-2.8.6-2.3-.5-4.5-1.4-6.6-2.4-.8-.4-1.7-.7-2.5-1.1-.6-.3-1.1-.6-1.5-1.2Z"/>
        <path class="cls-10" d="M212.8,71.8c-.6.8-1.6,1.2-2.4,1.7-.3,0-.7,0-.9-.2-2.1-2-4.6-3.8-3.6-7.3.1-.4,0-1,0-1.4-.1-.6-.2-1.3-.2-1.9-.2-1.2-.1-2.3,0-3.5,0-.4,0-1.1.8-.5.7.1,1.1-.2,1.4-.9.9-2,1.7-4.1,2.9-5.9.6-.8,1.2-1.6,2.3-1.7,0,.1,0,.2-.1.3-3.2,3.7-2.8,8.2-2.8,12.6,0,1.7.5,3.3.7,4.9.2,1.6,1.6,2.3,2,3.7Z"/>
        <path class="cls-163" d="M217.1,39.7c1.1.3,1.3,1.4.5,2.5-1.1,1.4-2.3,2.8-3.5,4.2-1.3,1.7-2.7,3.4-4,5-.5.6-1,1.2-1.8,1.5-1,.4-1.2,0-1.3-.9-.1-1.2.3-2.2.7-3.2.1-.3.2-.5.2-.8.2-1,.9-1.7,1.6-2.4,2-2.6,4.8-4.3,7.5-6Z"/>
        <path class="cls-148" d="M209.5,45.7c-.5.8-1.1,1.6-1.6,2.4-1.2,1.2-1.4,2.7-1.7,4.2-.1.9,0,1.7-.5,2.5,0,2.6-.2,5.3,0,7.9,0,.6,0,1.2,0,1.8-.7-2-1-4.1-.9-6.3,0-1.3.2-2.6-.2-3.9,0-.2,0-.4,0-.6,1-2.9,2.2-5.6,4.4-7.8.1-.1.3-.2.5-.3Z"/>
        <path class="cls-19" d="M86.4,176.3c-.3-1.9.8-3.4,1.7-4.8,1.5-2.2,3-4.3,4.8-6.2,1.9-2,4.1-3.6,6.5-5,.3-.2.8-.3.8-.8,0-.5-.4-.8-.9-1-2.9-1.1-5.3-2.9-7.3-5.3-2.3-2.7-4.6-5.4-6.4-8.4-2.3-3.7-4.8-7.3-6.4-11.3-.6-1.5-.9-3-1-4.6,0-1.5-.2-3-.7-4.4,0-1.1.5-1.9,1.5-2.3.9-.3,2,.3,2.6,1.4.7,1.2,1.7,2.1,2.3,3.3,0,.9.2,1.4,1.2,1.4,1,0,1.6.6,2.2,1.3,2.3,2.9,4.2,6.1,6,9.3.5.8,1,1.6,1.7,2.3.6.6,1.4,1,2.3.9.8,0,1.5.2,2.2.8,1.3,1.1,3.4,1.1,4.7,0,.5-.4.7-.8.8-1.4,0-.7,0-1.4,0-2.1-.6-3.3-1.4-6.6-2.4-9.9-.3-1-1.1-1.8-1.1-2.9.5-.8,1.2-1.2,2.1-.6,1,2.8,2.4,5.5,3.6,8.2.8,1.7,1.9,3.2,2.9,4.8,1.1,1.6,2.4,3,3.5,4.5.4.4.7.9.7,1.5,0,.8-.2,1.6-.2,2.4,0,1.1-.1,2.1.9,3,.9.7.5,2-.7,2.8-1.3.8-2.7,1.2-4.2,1.5-.8.2-1.2.5-.8,1.3-.1.8-.8.9-1.3,1-2,.6-3.9,1.4-5.8,2.3-.5.2-1,.5-1.2.9-.5,1.1-1.5,1.7-2.6,2.1-1.1.4-1.9,1.2-2.5,2.2,1.3-.6,2.4-1.4,3.6-2.1,2.4-1.5,4.9-2.6,7.7-3.3,1.6-.4,3.3-.8,4.9-1.1.5,0,.9-.3,1.4,0,.1.6-.4.7-.8.8-.9.4-1.8.7-2.9.8-2.6.3-5.1,1-7.3,2.4-2.6,1.6-5.3,3.1-7.5,5.3-2,1.5-3.9,3.1-5,5.5-.6,1.2-1.6,2.2-2.2,3.4-.2.4-.5.6-1,.4-.2,0-.3,0-.5,0Z"/>
        <path class="cls-145" d="M86.9,176.3c.3,0,.6-.1.7-.4.8-1.8,2.2-3.3,3.1-5.1.9-1.7,2.6-2.8,4.1-3.9,1-.8,2-1.6,3.1-2.4,4.4-3.1,9.3-4.4,14.5-5.3,1.1-.2,2.1,0,3.2,0,.8,0,1.4-.1,1.9-.8.4-.5,1.1-.7,1.7-.7,2.3.1,4.3.6,5.2,3,.4,1.1.9,1.2,2,.7.4-.2.8-.4,1.2-.5,1.5-.3,2.5.9,2.1,2.3-.2.5-.2,1.1-.6,1.5-1.7-1.3-3.8-1.9-5.6-3-1.3-.8-2.9-.7-4.3-.8-2.2-.2-4.4,0-6.7.3-3.5.6-6.6,2.1-9.9,3.2-2,.6-3.8,2-5.2,3.7-3.1,1.8-5.5,4.3-7.3,7.3-1,1.6-1.7,1.6-3.2.8Z"/>
        <path class="cls-15" d="M102.8,84.2c.6-.7,1.3-.6,2.1-.2,1.2,1.2,2.7,2,4.3,2.6.8.4,1.8.5,2.4,1.2-.5,2.9-.5,5.9,0,8.8,0,.4,0,.9,0,1.3-.3,1.4-.4,2.8.1,4.1.5,1.4,1.3,1.8,2.8,1.8,2.2,0,4.4,0,6.4-.9.7-.2,1.1-.9,1.8-1.1,1.5-.4,2.9-.9,4-2,.6-.5,1.3-.9,2.1-.9,1.9-.2,3.1-1.3,3.9-2.9,0-.2,0-.4,0-.6-.1-.7,0-1,.8-.6,1.8.8,3.7,1,5.4,2,.7.4.5,1,.5,1.7,0,.3-.3.5-.3.8.1,3.1-2.2,4.4-4.4,5.7-2.9,1.7-6.1,3-9.5,3.2-.5,0-.9.2-1.4.4-1.6.8-3.4,1.1-5.2,1-2.8,0-5.6.4-8.3.5-1.1,0-2.2-.3-3.1-1-1-.7-2.2-1-3.4-1.5-3.7-1.7-6.6-4.3-8.6-7.9-.4-.8-.4-1.7-.9-2.4-1.1-.9-2.6-1.3-3.7-2.3-.2-.1-.3-.2-.4-.4.4-.9,1-1.4,2-1.5.9,0,1-.6,1-1.3,0-.7-.4-1.5.4-2,.5.4.3.9.4,1.4.1.3.2.8.7.5,1-.6,2.3-.8,3.3-1.3.4-.2.8-.4,1.1-.7.6-.7.4-1.2-.4-1.5-.9-.3-1.9-.4-2.9-.5,0-.8.7-.5,1-.8.4,0,.7,0,.9-.4.6-1.1,1.5-1.3,2.6-1.2.9,0,1.7-.3,2.3-1.1Z"/>
        <path class="cls-131" d="M89.3,87.9c-3.6-4.1-7.9-7.2-12.4-10.2-4-2.5-8.2-4.5-12.5-6.4-.4-.2-.8-.5-1.2-.7-.1-.2-.3-.4-.4-.6.1-.8.6-1,1.4-.8.7.4.5-.3.6-.5.7-1.7,1.1-2.1,2.7-1.3,5.5,2.9,11.6,4.5,16.7,8.1,3.4,2.4,6.7,5,9.8,7.7.6.5,1.1,1.3,1.6,1.9.6.7-.2,1.3,0,2,0,.6-.5.7-.8,1.1-.6.8-1.2,1.5-1.6,2.5-.1.4-.4,1-1,1-.4-.3-.4-.9-.7-1.3-.6-1-1.4-1.7-2.2-2.6Z"/>
        <path class="cls-30" d="M92.2,91.7c.6-1,1.2-2,1.8-3,.4-.7,1-1.1,1.6-1.6.5-.3,1-.3,1.5-.2-.3.2-.7.5-1,.7-.8.6-1.4,1.4-2.1,2.2-.5.7-.3,1.4-.2,2.2.2,1.3,0,1.6-1.4,1.3-.8-.5-.4-1,0-1.5Z"/>
        <path class="cls-69" d="M64.1,69.2c-.4.3-1.1.2-1.2.9-.4.2-.7.2-1,0,1-.7,1.6-1.7,2.5-2.5,0,.6.1,1.1-.2,1.7Z"/>
        <path class="cls-41" d="M187.1,117.6c-.5-.6-.6-1.3-.3-2,.7-1.7.3-3.3-.3-4.9-.4-1.3-1.7-1.7-2.8-2.2-1-.4-1.3-1.4-1.7-2.2-.3-.6.3-.5.7-.4,3.1.7,6.2-.1,9.3,0,1.1,0,2.1,0,3.2,0-.4.3-.7.6-.8,1.2-.3,2.5-1.8,4.4-3.4,6.3-1.3,1.5-2.5,3-4,4.3Z"/>
        <path class="cls-129" d="M207.2,131.1c.5.4,1.1.5,1.5,1.1-1,0-2,0-2.8-.7-.3-.2-.6-.2-1,0-1.6.4-3.3.8-4.9,1.2,0,0,0-.1,0-.2,1.1-1.2,2.6-1.5,4.2-1.7.7-.1,1.4-.2,2.1,0,.3.3.6.3.9.3Z"/>
        <path class="cls-93" d="M194.5,136.2c0,.4-.1.5-.5.6-.5,0-1.1-.1-1.3-.6-.3-.5-.7-1.1-.4-1.8.2-.4.4-.6.8-.3.7.6,1,1.4,1.4,2.1Z"/>
        <path class="cls-93" d="M200,132.5c0,0,0,.1,0,.2-.4.3-.8.6-1.1.9.2-.6.5-1,1.1-1.1Z"/>
        <path class="cls-93" d="M206.3,130.8c-.7,0-1.4,0-2.1,0,.7-.3,1.4-.4,2.1,0Z"/>
        <path class="cls-93" d="M197.4,144.1c.3.6.3,1.2.2,1.8-.4-.5-.2-1.2-.2-1.8Z"/>
        <path class="cls-48" d="M89.3,87.9c1.2.4,1.7,1.5,2.4,2.4-.6.7-.9,1.4-1,2.3,0,.9-.6,1.6-1,2.4-.5.5-1.1.6-1.7.5-.4-.2-.2-.6-.3-.8-2.2,1.8-4.1,1.7-6.1-.3-2.6-2.7-5.8-4.7-9-6.7-4.7-3-9.6-5.8-14.6-8.3-.9-.4-1.5-1.2-2.2-2-.3-.5-.7-1.1-.3-1.7.2-.3.5-.6.7-.9.6.4,1.2.8,2,.1.3-.3.7,0,1,0,5.3,2,10.3,4.4,15.2,7.2,3.3,1.8,6.4,3.9,9.5,5.9,1.6,1,3,2,3.9,3.7.2.4.6.7,1.1.7.5,0,.6-.5.8-.9.6-1.3.1-2.4-.3-3.5Z"/>
        <path class="cls-48" d="M61.9,70c.3.1.7.2,1,0,.2.1.3.3.2.5-.5-.2-1-.1-1.5-.5,0,0,.1,0,.2,0Z"/>
        <path class="cls-7" d="M202.4,134.2c.9-1.3,1.5-1.5,3.1-1,1.1.7,1.5,1.6,1.2,2.8-.3,1.2-1.3,1.7-2.5,1.3-1.9-.8-2.3-1.5-1.9-3.1Z"/>
        <path class="cls-123" d="M202.4,134.2c-.1,1.2.3,2.1,1.4,2.6.8.4,1.6.7,2.3,0,.7-.8.6-1.7.2-2.6-.2-.3-.5-.6-.7-.9.7,0,1.7,0,1.9.9.2,1.1,0,2.2-.9,3-.7.7-1.4.7-2.2.3-.3-.1-.6-.3-1-.5-2.1-.8-2.1-.9-.9-2.9Z"/>
        <path class="cls-120" d="M111.3,98.1c-.1-2.5-.7-5-.5-7.6,0-.9,0-1.9.7-2.7,1.7.5,3.3,1.3,4.9,2,2.2.9,4.5,1.5,6.8,2.3.6.2,1.3.3,2,.5,1.1.3,1.8,1.2,1.7,2.4,0,1.1-.8,1.9-2,2.1-.3,0-.6,0-.8.3-.6,1.1-1.3,2.2-1.9,3.3,0,.3-.3.6-.5.8-.4.4-.8.9-1.3,1.3-.8.7-1.6,1.1-2.7.5-.4-.2-.8-.2-1.3-.1-1.4.2-2.8,0-4.2-.4-1.1-1.4-1-3-.9-4.7Z"/>
        <path class="cls-21" d="M182.8,105.8c-.3.1-1,0-.4.6.6.6.9,1.4,1.4,2.1.2.7.7,1.9,0,2.2-.7.3-1.2-.9-1.9-1.4.3,1,.6,1.9.9,2.8-.9.4-1.1,0-1.3-.7.2,1.1,0,1.5-.7,2.9-.9.5-1.6,1.2-2.2,2-.2.3-.4.7-.9.7-.6-.2-1.1-.5-1-1.3.3-.4.8-.4,1.1-.6,1.3-.8,1.6-1.8.8-3.2.2-1-.7-.6-1.1-1-.3-.8-.7.1-1.1,0,0,0-.2,0-.1,0,0,0,.2,0,.3.2,0,.3-.2.4-.4.6-1.8,1.3-2.9,3.1-3.6,5.1-.2.5-.2,1-.6,1.4-.5.3-1,.4-1.6.5-.3,0-.6,0-.6-.4.4-1.2,1-2.2,1-3.6,0-1.6,1.3-3,2.3-4.3.6-1.1,1.3-2,2.8-1.8.6,0,1-.2,1.4-.6.3-.2.4-.7.9-.6-.5-.7-1.1-1.3-2-1.6-.3-.1-.8-.2-.8-.8,2.4,0,4.8.5,7.2.7Z"/>
        <path class="cls-152" d="M175.6,105.1c.5.4,1,.6,1.6.7.8.2.8,1.1,1.4,1.5-.8.3-1,1.6-2,1.5-1.6-.3-2.4.7-3.4,1.6-1.2-.2-2.3-.7-3.3-1.4-.9-.6-1.4-1.3-1.8-2.2.7-1.1,2-1.2,3.1-1.7.7-.4,1.6-.5,2.4-.2.6,0,1.3.2,1.9.3Z"/>
        <path class="cls-150" d="M129,99.1c-.9.2-1.6.7-2.3,1.3-1.1.9-2.3,1.7-3.8,1.6.1-1.1,1-1.6,1.7-2.1,1.4-1.7,2.6-3.5,4.3-5,.8-.7,1.7-.7,2.6-.2.4.2.7.5.5,1-.6,1.4-1.9,2.3-2.9,3.3Z"/>
        <path class="cls-109" d="M173.7,104.8c-2.1,0-3.7,1.3-5.5,2-1.6-.1-2.8.8-3.9,1.8-1.4,1.3-2.7,2.7-3.8,4.2.4-2,1.6-3.5,2.8-5,1-1.2,2.2-2.3,3.7-3,.9-.4,1.7-.7,2.7-.4,1.3.3,2.6.3,4,.5Z"/>
        <path class="cls-146" d="M139.4,98.4c0-.6.1-1.1-.2-1.6,1,0,1.8.5,2.6.7.2,1.3.8,2.7-.5,3.8-1.3-.5-2-1.5-1.9-2.9Z"/>
        <path class="cls-162" d="M129,99.1c0-.5.4-.7.7-1,.8-.8,1.5-1.5,2.2-2.3.2.4.6.2.9.2,0,1.4-1,2-2,2.6-.6.3-1.1.7-1.9.6Z"/>
        <path class="cls-72" d="M124.6,99.9c-.6.7-1.1,1.4-1.7,2.1-.6.3-.8,1-1.5,1.2-.5-.7,0-1.3.3-1.9.2-.2.3-.3.5-.5.8-.3,1.5-.8,2.4-.9Z"/>
        <path class="cls-93" d="M159.3,116.4c0,.4,0,.8,0,1.3-.2-.4-.2-.8,0-1.3Z"/>
        <path class="cls-165" d="M136.5,142.3c2.3.6,4.5,1.6,6.9,1.5,1.7,0,3.2-.5,4.3-1.8.5-.6,1.1-1.1,1.6-1.6.2,0,.3,0,.5,0,.4,0,.7-.2,1-.3,1.3-.7,1.7-.6,2.5.7.2.4.6.7.3,1.2-.9.3-1.8-.2-2.6.4-.4,0-.7.2-.7.6-.1.6-.6,1.1-.3,1.8,0,.2,0,.3,0,.5-.1.5-.2.9,0,1.4,0,.3.2.5,0,.8-1-.4-2-1.1-3.2-1.1-1.4,0-2.3.5-2.4,1.8-.2,1.7-.3,3.5,1.4,4.7.7.5,1.1,1.3,1.7,1.9.9.9,2.2,1.5,3.5,1.9,2.6.8,5.1,1.6,7.7,2.4-1.5,0-3-.4-4.5-.7-2.5-.5-4.9-1.2-7.4-2-2.5-.8-4.6-2.5-6.7-4-.3-.5,0-.7.4-1,1.4-1.5,1.3-2.4-.2-3.7-.8-.6-1.3-1.3-1.5-2.3-.1-.9-.6-1.7-1.6-2.1-.4-.2-.9-.3-.9-1Z"/>
        <path class="cls-90" d="M150.1,147.3l-.2-.7c-.2-.5-.2-1,0-1.5,0-.1,0-.3,0-.4-.2-.4,0-.8.2-1.1.5-.5,1.2-.9,1.8-1.4.2-.2.5-.2.8,0,.3.2.2.5,0,.8-1,2.5-.5,4.1,2,5.4.9.5,1.5,1.4,2.6,1.6.5,0,1-.2,1.5.2,1.8,1.6,4.1,2.3,6.3,3.1.4.2.8.3,1.1.7.2.5.2.8-.4.8-.3,0-.7,0-1,0-2.4-.2-4.7-.5-6.8-1.9-1-.6-2-1.2-3-1.7-1.9-.9-3.4-2.4-4.8-3.9Z"/>
        <path class="cls-168" d="M166,154c-2.4-.9-4.8-1.6-6.8-3.2-.6-.5-1.1-.7-1.8-.4-.5-.4-.9-.8-.5-1.5.4-.7,1.1-.8,1.8-.5.8.3,1.5.9,2.2,1.3.4.2.8.4,1.2.5,1,.4,2,.8,2.8,1.5,1.2,1,2.7,1.7,4,2.7.3.2.8.4.6,1-.5-.1-1,0-1.4-.3-.6-.5-1.5-.6-2.2-.9Z"/>
        <path class="cls-45" d="M169.6,155.3c-.8-1-1.9-1.5-3-2.1-.6-.4-1.3-.8-1.8-1.3.2-.1.3-.2.5,0,2.1.4,4,1.2,6,1.7-.3.7-1,1.3-.7,2.2-.1.4,0,.8-.2,1.1,0-.7-.3-1.2-.8-1.6Z"/>
        <path class="cls-45" d="M166,154c.9,0,1.8-.1,2.2.9-1.1,0-2.3.1-3.4-.2.3,0,.6,0,.9,0,.6,0,.5-.4.3-.7Z"/>
        <path class="cls-167" d="M215.7,56.8c-.3,1-.4,2.1-1.1,3-.4.5-.9.8-1.6.6-.7-.2-1.1-.7-1.1-1.5,0-1.2.4-2.2,1.1-3.2.5-.6,1-1.2,1.8-.8.7.3.8,1.1,1,1.9Z"/>
        <path class="cls-135" d="M219.3,49.8c-.1,1.8,0,3.6-1.3,5.1-.6.7-.9.7-1.2-.1-.6-1.3-.4-2.5.1-3.7.3-.7.7-1.3,1-2,.2-.4.4-.8,1-.7.6.1.4.7.4,1.1,0,.1,0,.2,0,.4Z"/>
        <path class="cls-108" d="M136.5,142.3c.2.5.6.6,1,.7,1.3.4,1.6,1.4,1.8,2.5,0,.7.5,1.2.9,1.6,2.2,1.8,2.3,2.7.3,4.8-.1.1-.1.4-.2.5-.2,0-.4-.2-.7-.3-.6,0-1.1-.4-1.6-.7-5-3.1-9.6-6.7-13.6-11-2.3-2.5-4.9-4.9-7.3-7.4-1.1-2-2.1-4.1-3.3-6.1-.8-1.8-.8-3.8-.7-5.7,0-.8-.2-1.5-.9-2-.2-.2-.2-.5,0-.7,1.3.3,2.6,0,3.8.2-.4,1.1,0,2.3.2,3.4.7,2.9,2.7,5,4.4,7.3,2.3,3.4,5.5,5.8,8.8,8.1,1.1.8,1.9,1.8,2.9,2.6,1.2,1,2.7,1.5,4,2.3Z"/>
        <path class="cls-3" d="M142.5,158.4c-.9,0-1.7,0-2.6,0-1.9-.2-3.8,0-5.7-.4-4.6-.8-8.8-2.5-12.3-5.8-1.4-1.2-2.9-2.3-4.2-3.7-.3-.3-.7-.7-.9-1.1-.1-.8-.9-1.5-.5-2.4.7-.3,1.1.3,1.5.7,1.4,1.2,3,2.2,4.5,3.3,1.1.8,2.4,1.3,3.7,1.8,1.4.8,2.7,1.8,4.1,2.4,2.8,1.3,3.7,1.2,5.6-1.3,1-.2,1.5.5,1.9,1.2.6.7,1.4,1.1,2.3,1.4,2,.8,3.6,2.2,5.5,3.2-.7.4-1.5.6-2.2.9-.3,0-.5,0-.7-.2Z"/>
        <path class="cls-49" d="M137.7,153.1c-.7-.3-1.1-1-1.8-1.2-1.5-.4-2.7-1.5-4-2.4-2-1.3-3.8-2.9-5.5-4.6-2.8-2.7-5.6-5.4-8-8.5-.3-.4-.6-.8-.8-1.3-.1-.4-.4-.8-.5-1.3,0-.4-.3-.8.4-.9,3.1,3,6.2,6,9.1,9.1,3.9,4.1,8.5,7,13.2,10.1q-.2.7,0,1.6c-.8,0-1.3-.6-2.1-.7Z"/>
        <path class="cls-5" d="M142.5,158.4c.2,0,.5,0,.7,0,1,0,1.9-.6,2.8-.5.3,0,.6.2.8.4-1.2,0-1.5,1.2-2,1.9-1.4,2.1-3.1,3.9-5.2,5.3-.8-1.2-.8-2.7-1.4-4-.3-.8.3-1.2.8-1.5.8-.4,1.6-.7,2.4-1,.4-.1.9-.2,1-.7Z"/>
        <path class="cls-102" d="M146.1,157.9c-.9.2-1.8,1-2.8.5.7-.4,1.3-.9,2.2-.7.2,0,.4.1.6.2Z"/>
        <path class="cls-54" d="M63.6,58.4c-.2,2.3.7,4.4,1.7,6.4-.6.4-1.2.4-1.8-.2-.4-.4-1-.5-1.7-.6-.8,0-1.3-1-.7-1.5,1.2-1.1.3-2.3.5-3.4,0-.4-.6-.8,0-1.1.5-.3,1-.4,1.6,0,.2.1.3.2.5.3Z"/>
        <path class="cls-73" d="M205.7,62.7c-.4-1.6-.2-3.2,0-4.7,0-.7-.2-1.3,0-2,0-.4-.2-.9.2-1.2,0,1.3.2,2.6.5,3.8-.6-.2-.5.2-.5.6,0,1.2,0,2.4,0,3.5Z"/>
        <path class="cls-106" d="M79.5,101.1c-1.9,1.7-3.3.9-5.1-.2-.3-.2-.5-.5-.8-.5-2.3.2-3.5-1.5-4.9-2.8-2.4-2.2-5.2-3.9-8-5.6-3.1-1.9-6.3-3.7-9.2-6-.7-.6-.8-1.7-1.8-2-.6-.7-1.3-1.4-1.2-2.5.1-1.2,1-2.3,2.2-2.5,3.7-.7,7.1.2,10,2.6,2.8,2.2,5.7,4.4,8.7,6.2,1.8,1.1,3.2,2.7,4.7,4.2,1.3,1.3,2.9,2.3,3.9,3.9.6.9,1.4,1.7,1.7,2.7.3.8.5,1.7-.3,2.4Z"/>
        <path class="cls-118" d="M77.8,96c-3.7-3.6-7.2-7.6-11.8-10.1-1.9-1.1-3.4-2.7-5.2-3.9-1.6-1.1-3.3-2.2-5.3-2.8-1.6-.4-3.2,0-4.8-.2,1-.5,2-.1,3-.2.4,0,.7,0,.7-.6,0-1,.3-1.8,1.1-2.5,0,.6.4,1.1.5,1.7.7,1.3,1.9,2.1,3.2,2.7,4.3,2.1,8.6,4.5,12.7,7.1.3.2.5.4.9.3,3.1,1.9,6.2,3.9,8.8,6.5,2.3,2.3,3.7,2.4,6.2.2.1,0,.3-.1.4-.2.2.6-.3.9-.3,1.4-.2.5-.7.6-1.1.8-1.1.4-2.2.8-3.3,1.2-1.3.2-2.3-.4-3.2-1.1-1.2-1-1.2-1-2.4,0Z"/>
        <path class="cls-100" d="M165.3,151.8c-.2,0-.3,0-.5,0-.9-.5-1.8-1-2.6-1.5-2.4-2.5-5.4-4.4-7.4-7.2-.3-.4-.6-.8-.7-1.2,0-.5-.4-.8-.5-1.2,0-.4-.2-.9.3-1.2.4-.2.7.1,1,.4.4.4.7.9,1,1.3.6.9,1.3,1.6,2.1,2.3,2.2,2.1,4.7,4,7.3,5.7.3.2.7.4.8.9.2.3.4.6.7.9-.7,0-1.6-.6-1.4.7Z"/>
        <path class="cls-160" d="M166,150.2c-2.8-2-5.7-3.9-8.2-6.2-.7-.8-1.4-1.7-1.8-2.7-.1-.4-.4-.7-.1-1.1,1.1,1.4,2.1,2.9,3.4,4.1,3.6,3.7,8,6.2,12.8,7.8.6.2,1.3.3,1.6.9-2.2.5-3.9-.8-5.7-1.8-.6-.4-1.2-.9-2-1.1Z"/>
        <path class="cls-140" d="M170.6,155.8c-.9-1.1,0-1.6.7-2.2.5,0,1,0,1.4.5-.6.7-1.2,1.3-2.1,1.7Z"/>
        <path class="cls-35" d="M169.3,67.7c1.6-5.2,3.8-10.1,7.2-14.4,1.5-1.8,3.2-3.5,5.3-4.6.4-.2.8-.6,1.2-.2.4.4.2,1,0,1.4-.6,1.1-1.3,2.3-2,3.4-2.1,3.7-3.7,7.7-5.5,11.5-.5,1.1-1,2.2-1.4,3.3-.3.3-.5.6-1,.5-1.3-.3-2.6-.2-3.8-1Z"/>
        <path class="cls-84" d="M138,54.8c.4-.3.7-.6,1.1-.9,1-.9,2-1,3-.1.7.6,1.2.6,2,.2,1.2-.6,2.5-.6,3.7-.6,3.8.2,7.5,1.1,11,2.9.6.3,1,.7,1.2,1.4.3,1,.6,2.1.9,3.1.2.5.2,1-.1,1.5-.5,0-1,0-1.4.2-.7-1.3-1.3-2.6-2.8-3.2-2.1-.8-4.3-1.2-6.5-.9-1.3.1-2.6.5-3.8.8-.4-.3-1-.6-1.3-1-.7-.8-1.6-.9-2.5-.4-1.9.8-3.6-.4-4.6-1.9-.2-.4.2-.7.3-1Z"/>
        <path class="cls-22" d="M122.6,45.7c-2-1.4-2.3-3.5-2.1-5.6.2-2.9,1.2-5.5,3.8-6.9,2.1-1.1,4.5-1.5,6.8,0,1,.6,1.9,1.3,3,1.7,2.1.7,2.7,2.6,1.1,4.2-1.4,1.5-2.8,3.1-5,3.7-1.9-.2-2.8,1.4-4.1,2.2-.5.3-.9.8-1.6.4-.7-.4-1.3.3-1.9.3Z"/>
        <path class="cls-13" d="M146.1,59.1c2-1.3,4.2-1.3,6.4-1.1,1.6.1,3.2.4,4.7,1.3,1.2.7,2.1,1.7,2.1,3.2-.7,1.1-1.8,1.1-2.9.8-3.7-.7-7.1-2.2-10.3-4.2Z"/>
        <path class="cls-17" d="M118.5,32.7c.2-.1.3-.2.5-.4.2-.2.5-.5.8-.2.3.2,0,.5,0,.8-1.2,3.2-2.3,6.3-3.4,9.5-.2.6-.4,1-1.3.7-.8-.3-.6-.8-.4-1.3,1.1-2.6,2.2-5.1,3.3-7.7.2-.5.4-.9.6-1.4,0,0,0,0,0,0Z"/>
        <path class="cls-116" d="M155.9,140.1c.4,1.4,1.3,2.6,1.9,3.8-1.4-.8-2.1-2.3-3-3.5-.2-.3-.5-.8-.9-.6-.4.2-.2.8,0,1.2.1.3.2.7.4,1-.2,0-.3,0-.4-.2-.2-.2-.4-.4-.5-.7-1-1.5-1-1.6-2.6-.8-.4.2-.7.2-1,.2-.2-.4-.2-.8,0-1.2.7-.9,1.4-1.6,2.6-1.7,1.6.2,2.8,1.1,3.6,2.4Z"/>
        <path class="cls-108" d="M149.7,139.4c0,.4,0,.8,0,1.2,0,0-.2-.2-.3-.3,0-.3,0-.7.3-.9Z"/>
        <path class="cls-166" d="M177.8,116.9c.9-1,1.3-2.4,2.8-2.7-.1,1.1-.5,2.2-.4,3.4-.6,2.7-3.4,5.1-6.2,5.3-.3,0-.6,0-.8.1-2,.4-3.3-.2-3.9-2.1-.3-.8.3-1.7.6-2.6.7.4,1.4-.3,2.1-.2,0,0,.1,0,.2.2.3.6-.1,1.9,1.4,1.5.8-.2,1.6,0,2.2-.8.6-.8,1.4-1.4,2.1-2.1Z"/>
        <path class="cls-81" d="M180.2,117.6c0-1.2-.4-2.3.4-3.4.3-1,.9-1.9.8-3.1.4.5.6,1.2,1.4.9-1.4.6-.8,1.9-.9,2.9-1.4.3-1.4,1.6-1.7,2.6Z"/>
        <path class="cls-11" d="M139.4,98.4c.3,1.2,1.1,2,1.9,2.9,0,.6,0,1.2-.2,1.7-1.3.9-2.6,1.8-3.8,2.9-1.8,1.6-4,2.5-6.3,3.3-3.7,1.4-7.5,2.7-11.2,3.9-1.3.4-2.6.7-3.9-.2-.6-.4-1.4-.2-2.1,0-.7.2-1.4.4-2.2.4-.8.1-1.4-.4-2.1-.6,0,0-.1-.2-.1-.3.4-.8.7-1.6,1.1-2.4,1.1-.6,2.3-.3,3.5-.4,2-.2,4.1-.5,6.2-.3.9,0,1.7,0,2.4-.4,2.3-1.3,5-1,7.5-1.9,2.1-.8,4.2-1.7,6.1-3,.4-.3.8-.6,1.3-.9,1.1-.5,1.5-1.5,1.6-2.6,0-.7.1-1.3.5-1.9Z"/>
        <path class="cls-92" d="M109.4,112.6c.8-.1,1.5.4,2.1.7,1.3.9,2,2,1.4,3.6-3.8,0-7.6-.8-11.2-1.9-.9-.3-1.9-.5-2.9-.5-.2.2-.4.2-.7,0-2.5-1.1-5-2-7.4-3.3-2.1-1.1-4.2-2.4-5.8-4.2,0-.3,0-.5.1-.7.9-.3,1.6.3,2.3.8,3.6,2.5,7.7,3.7,11.8,5.1,1.5.5,3,.8,4.5,1.1,2,.4,3.9.8,5.7-.7Z"/>
        <path class="cls-92" d="M116.2,116.9c-1,.3-2.1.3-3.1,0,1,0,2.1,0,3.1,0Z"/>
        <path class="cls-88" d="M125.9,150.9c-3.1-.8-5.4-3-8-4.8-.5-.4-1.1-.8-1.6-1.2-.4.1-.7-.2-.9-.4-1.9-1.8-3.9-3.5-5.6-5.6-3-3.9-4.9-8.4-6.5-13-1.3-2.3-1.2-4.8-.7-7.3.9-1.7,1.4-1.9,3.2-1.3.7.3,1.5.3,2.3.6,0,0,0,.1,0,.2-.8,1-.9,2.2-.8,3.4.3,4.6,2.3,8.6,4.4,12.5.7,1.2,1.7,2.1,2.7,3,3.5,3,7.3,5.6,11.1,8.1.5.3,1.1.7,1.6,1.1.9.8,1.2,1.8.8,2.9-.3,1-1,1.7-2.1,1.8Z"/>
        <path class="cls-44" d="M125.9,150.9c.1,0,.2-.2.4-.3,2.1-.7,2.1-3.6.1-4.7-3.2-1.9-6.1-4.1-9.1-6.2-5.9-4.1-8.7-10-10-16.7-.2-1.3-.5-2.6,0-3.9.2-.5.2-1.1.9-1,1.4.1,2.7.2,4.1.4,0,.2,0,.4,0,.7,0,0,0,0-.1.1-.2,0-.4,0-.6,0-1.1,0-1.6.5-1.3,1.6.7,2.4,1.7,4.6,2.8,6.8,1.4,2.6,2.9,5.2,4.7,7.6,4.9,6.2,10.3,11.8,17,16,.3.2.6.5,1,.7-.8,2.3-2.5,3-4.7,2.1-1.8-.8-3.6-1.7-5.1-3Z"/>
        <path class="cls-121" d="M108.2,117.9c-.7,0-1.4-.1-2.1-.3-1.9-.5-1.9-.5-3.1,1-.2.2-.5.3-.7.3-.3,0-.5,0-.7-.3-3.3-.7-6.5.5-9.8.2-2.6-.2-4.9-1.3-7-2.8-.4-.3-.7-.7-.7-1.2,0-.9,0-1.9.3-2.8.3-.9,1.2-1.1,2.1-1.3.4,0,.8.1,1.1-.2,1.2-.2,2.2.4,3.4.5,2.6,1.3,5.3,2.4,7.9,3.5,2.8,1.2,5.8,2.2,8.7,3.1.2,0,.5,0,.6.3Z"/>
        <path class="cls-58" d="M121.9,151.9c1,.3,1.7,1.2,2.5,1.8,2.9,2.3,6.4,3.2,10,3.9,1.8.4,3.7,0,5.5.7-1.6,0-3.2.5-4.8,0-.8-.2-1.4.2-1.5,1.2,0,.5-.2,1-.2,1.5-1.3-.5-1.9-1.7-3-2.3-1.4-1-2.9-1.8-4.5-2.3,1.7,1.2,3.6,2.1,5.3,3.4.8.8,1.6,1.4,1.8,2.6,0,.2,0,.4,0,.6,0,.8-.1,1.7-.3,2.5,0,.2-.1.5-.4.5-.3,0-.5-.2-.5-.4-.4-1.6-1.6-2.7-2.4-4.1-1-2-2.9-2.8-4.9-3.2-3-.6-6.1-.2-9.2-.3-.4,0-.9,0-1.3,0-.2,0-.4,0-.5-.2-3.1.7-6.3,1.2-9.3,2.4-3,1.1-5.5,3.1-8.6,4.6.3-1.4,1-2.2,2-2.6,1.2-.6,2.6-.9,3.2-2.5.2-.4.7-.6,1.1-.8,2-1,4-1.8,6.1-2.5.4-.1,1-.1,1.2-.7.3-.6.8-.5,1.3-.6,1.3,0,2.5-.3,3.8-.3,1.8,0,3.3-.8,4.8-1.7.9-.5,1.7-1.2,2.8-1.3Z"/>
        <path class="cls-80" d="M115.2,157.6c2.4,0,4.9-.2,7.3,0,2.2.2,4.2.6,6,2.1.4.3.8.7,1,1.2.5,1,1.1,2,1.9,2.9.5.6.5,1.4.9,2.3.3-1.2.5-2.2.5-3.2.3,0,.5.2.5.4.1,1.7.5,3.4-.3,5.1-1.6-.9-2.6-2.3-3.8-3.6,0-.5,0-.9.3-1.4.4-.5.4-1.2,0-1.7-.5-.5-1.1-.7-1.9-.4-.2,0-.4.2-.6.3-1.5,1-2,.8-2.8-1-.8-1.8-3.6-3.1-5.5-2.5-.1,0-.4.1-.4.2-.7,1.4-2,1.1-3.3,1.2-5.8.2-11.1,1.9-16.1,4.8-1.4.8-2.5,1.9-3.9,2.6.5-.8,1.2-1.3,1.9-1.8,3.5-2.4,6.9-5,11.3-5.8,1.6-.3,3.1-.4,4.6-1.1.3-.2.7-.2.9-.5.2,0,.3,0,.5,0,.4,0,.8,0,1.2-.2Z"/>
        <path class="cls-153" d="M132.9,168.4c0-1.8.3-3.7-.2-5.5,0-.2,0-.4,0-.5.2-.3,0-1,.7-1,.8,1.6.8,3.3.7,5,0,.8-.9,1.4-.7,2.3,0,.1-.1.2-.2.2-.1-.1-.2-.3-.3-.5Z"/>
        <path class="cls-18" d="M133.4,161.4c-.4.2-.3.7-.7,1-.2-1-1.1-1.6-1.7-2.4q-.9-.9-.5-1.5c1.1.7,2,1.6,2.8,2.6,0,.1,0,.2,0,.3Z"/>
        <path class="cls-59" d="M106.8,52.9c.9.7,1.7,1.7,2.8,2.1.5.2,1,.4,1.5.3.5-.2.8.1,1.2.3,1,.6,2,1.2,2.9,1.9,3.5,2,6.6,4.5,10.1,6.4,1.7.9,3.5,1.9,5.2,2.9-1.5-.1-2.7-.9-4-1.5-5.3-2.3-10.4-4.7-15.2-7.9-1.3-.9-2.5-1.7-4.1-1.7-.2-.2-.3-.3-.5-.5.2-.8-.2-1.6,0-2.4Z"/>
        <path class="cls-169" d="M156.6,76.4c.5,0,1,.1,1.5.3,4.7,1.5,9.6,2.1,14.5,2.4,1.3,0,2.6.2,3.9.4-4.7.4-9.2-.5-13.8-1.2-1.2-.2-2.3-.4-3.5-.6-.9-.2-1.8-.4-2.5-1.2Z"/>
        <path class="cls-151" d="M149.3,203.7c-1.5.4-2.9.8-4.3,1.2-1,.3-1.8,0-2.6-.8-4.3-4.1-7.3-9.1-10.4-14-.9-1.5-1.8-3.1-2-5-.1-1.3.5-2.3.8-3.4.5-1.7,1.1-3.4,1.6-5.1.1-.4.2-.8.8-.4,2.8,1.6,5.8,2.6,8.5,4.3,1.7,1,2.4,2.2,2.6,4.3.3,4.3.8,8.5,2,12.6.4,1.4,1.2,2.7,1.9,4,.4.8.8,1.5,1.2,2.4Z"/>
        <path class="cls-103" d="M54,110.9l-.4.5c-.7.1-1.1.5-1.5,1-.9,1.2-1.9,2.3-2.7,3.6-.2.4-.6.8-.2,1.2.4.5.8,0,1.1-.3.3-.2.6-.4,1-.3,0,.2.2.3.3.5-1.2.9-2.2,2.1-3.5,2.8-.5.3-1,.7-1.5.3-.5-.4-.3-1-.1-1.5.7-2.2,2.3-3.9,3.6-5.7.5-.7,1.2-1.3,1.7-2,.5-.8,1-1.2,1.8-.3.2.2.4.2.7.2Z"/>
        <path class="cls-85" d="M51.2,116.6c-.4.3-.8.6-1.3.9-.3.2-.7.6-1,.2-.3-.3-.4-.8-.2-1.2,1-1.8,2.4-3.4,3.7-4.9.4-.4.7-.4,1.2-.1,0,.5-.8.8-.3,1.4-.4.3-.8.5-1.2.8-1.1.8-1.4,1.6-1,3Z"/>
        <path class="cls-144" d="M115.2,57.5c-1.5-.5-2.7-1.5-4.1-2.2-1.7-1.4-3-3.1-4.1-5-.4-.6-.4-.8,0-1.1.7,2.2,2.4,3.4,4,4.7,1.4,1.2,3,2.1,4.2,3.5Z"/>
        <path class="cls-157" d="M106.8,52.9c.2.8.9,1.6,0,2.4-1.5,1-3.1,1-4.8,1-.6,0-.9-.3-.9-.9,0-2.2.5-4.3,1.5-6.3.2-.5.7-1.2,1.2-1,.5.2,1.2.8,1.2,1.3,0,1.5,1.2,2.4,1.8,3.6Z"/>
        <path class="cls-79" d="M102.3,118.6c.3,0,.5,0,.8,0-.6,2.5-.2,5,.4,7.4-.8-.4-1.3.2-1.9.5-.7,0-1-.5-1.5-.9-1.1-.9-2.2-1.5-3.6-.8-.5.2-1.1.2-1.7.1-1.9-.1-3.8.1-5.7.3-1.5.1-2.9.5-4.2,1.3-.3.2-.6.4-1,.3-.9-1.1-1.8-2.2-2.5-3.5-.8-1.4-2.4-1.3-3.1,0-.2.3-.4.7-.6,1-.2.8-.6,1.4-.9,2.1-.4.9-1.1,1.2-2.1,1.1-.9,0-1.4-.7-1.6-1.4-.7-2.3,0-4.4,1.2-6.3.3-.4.7-.8.8-1.3,3.4,1.8,6.9,3.5,10.7,4.4.9.2,2.2.3,2.5-.4.3-.7-.7-1.5-1.4-2-1.1-.8-2.4-1.3-3.4-2.2,1.8.5,3.7.9,5.5,1.5,1.5.4,2.9.6,4.4.2.7-.2,1.5,0,2.3,0,.9-.1,1.8-.4,2.8-.3,1.4,0,2.7-.2,4-.9Z"/>
        <path class="cls-32" d="M77.3,108.7c.7-1.2,1.5-2.3,1.2-3.8,0-.2.2-.4.4-.5.5-.3.8,0,1.1.3.3.2.6.5,1.1.4.3,0,.5.3.6.5.5.8,1.2,1.3,1.9,1.9.3.3.9.4.8,1-.9.4-1.8,1-2.7,1.5-.7.3-1.2.3-1.8,0-.8-.5-1.7-.8-2.6-1.2Z"/>
        <path class="cls-43" d="M84.5,108.5c-1-1-2.4-1.5-2.9-2.9,0,0,.2-.2.3-.1,1.1.5,2.4.8,3.4,1.6,1.9,1.4,3.6,2.9,5.7,3.9-1.2.3-2.3-.1-3.4-.5-1-.7-2.1-1.3-3.1-2Z"/>
        <path class="cls-71" d="M102.3,118.6c-1.5,1.1-3.2,1.3-5,1.2-.6,0-1.2,0-1.8,0,1.3-.5,2.7-.9,4.1-.7.7,0,1.4,0,1.9-.5.2,0,.5,0,.7,0Z"/>
        <path class="cls-14" d="M81.1,105.2c0,.5-.3.4-.6.2-.5-.4-.9-.8-1.5-.9.7-1,.4-2.2.5-3.4.6-1.5,0-2.7-.9-3.9-.3-.4-.6-.7-.8-1.2.7-1.4,1.1-1.5,2.4-.4.9.8,1.9,1.5,3.1,1.4.1.4-.2.5-.5.7-.8.6-1.4,1.3-1.8,2.3-1.2,1-1.2,2.2-.6,3.5.2.6.7,1.1.7,1.7Z"/>
        <path class="cls-156" d="M83.8,126.7c1.7-1.4,3.7-1.7,5.7-2,2.1-.2,4.4.3,6.3-.3,2.7-.9,4.1.6,5.7,2,2.3,4,3,8.5,3.8,13,.4,2.2,0,3.3-1.4,3.9-1.8.8-3.6,1.1-5-.7-.3-.3-.6-.5-1.1-.4-1.9.2-3.1-.8-4-2.2-1-1.6-2-3.2-2.9-4.8-1.2-2.1-2.7-4.1-4.1-6-.5-.6-1.1-.9-1.9-.9-1.3,0-1.5-.3-1.1-1.6Z"/>
        <path class="cls-78" d="M121.9,151.9c-1.4.8-2.7,1.6-4.1,2.4-1.3.7-2.7.9-4.1,1-1.5,0-3,.1-4.5.5-.9-1.1-.9-1.2.5-1.6,1.5-.4,2.9-.7,4.3-1.4,1.5-.8,1.6-2.1.2-3-.5-.3-.6-.6-.5-1.2.2-1.2.3-2.5.4-3.8,1.5.4,2.3,1.5,3.1,2.7,1.2,1.5,2.6,2.6,4.1,3.8.3.2.6.4.7.8Z"/>
        <path class="cls-158" d="M117.1,147.3c-1.1-.9-1.9-1.9-3.1-2.7,0-1.1-1-1.6-1.5-2.3-.8-1.2-1.9-2.1-2.6-3.4,1.8,1.6,3.6,3.3,5.4,4.9.4.3.8.7,1.1,1,0,.9.7,1.5.7,2.4Z"/>
        <path class="cls-27" d="M80.9,99.9c.2-1.5,1.4-2.1,2.4-2.9,1.5-.6,3-1.1,4.6-1.7.6,0,1.2-.2,1.7-.4.2-.3.5-.5,1-.3.9-.2,1.2.7,1.8,1,.9.3,1.7.9,2.5,1.4,0,1.3.4,2.5,1.1,3.6.6.9.6,2,1.3,2.9,2,2.5,4.6,4,7.6,4.9,1.2.4,2.6.6,3.7,1.3,1.2.8,1.3,1.1.9,2.6,0,0,0,.2,0,.2-.7,1.4-2,1.5-3.3,1.4-6.1-.8-11.7-2.9-17.2-5.5-1.3-.6-2.3-1.7-3.7-2.1-2.6-.3-5.2-3.5-4.4-6.4Z"/>
        <path class="cls-99" d="M101.6,94.6c-1.4-1.4-1.1-3,.6-3.8.6-.2,1-.5,1.4-1.1,1-1.4,2.1-1.8,3.1-1.1,1,.7,1.2,2.4.2,3.5-.8.9-1.1,1.9-1.3,3.1-.5.4-1,.4-1.6.2-.8-.3-1.7-.5-2.5-.9Z"/>
        <path class="cls-141" d="M109.4,112.3c0-1.9-.5-2.4-2.5-2.9-3-.8-5.9-1.8-8.2-3.9-1.2-1-2.4-2.1-2.6-3.8,0-.6-.5-1.2-.9-1.7-.7-.9-.9-1.9-.5-3,.6.7.5,1.7.9,2.5,2.3,4.2,5.8,6.9,10.2,8.5.7.3,1.4.5,2,1.1.7.7,1.7.5,2.4.9.1,1-.3,1.7-.9,2.4Z"/>
        <path class="cls-62" d="M93.9,89.8c.3-1.1,1-1.8,2.1-2.2,1.2-.5,2.2.1,3.3.3.8.2,1,.8.6,1.6-.5.9-1.4,1.3-2.3,1.5-.9.2-1.8.5-2.6,1.1-.6.4-.7.3-.9-.4-.2-.6-.1-1.3-.2-1.9Z"/>
        <path class="cls-77" d="M121.7,101.3c0,.6-.2,1.3-.3,1.9-2.2,1-4.5,1.2-6.9,1-.8-.4-1.7-.6-2.2-1.5,1.6-.1,3.2.6,4.8,0,0,0,.3,0,.3,0,1.5,1.2,2.4.1,3.4-.8.3-.2.5-.5.8-.7Z"/>
        <path class="cls-60" d="M101.6,94.6c.7-.1,1.3,0,1.9.3.6.4,1.4.3,2.1.3-.2.9-.6,1.7-1.3,2.2-1.1.7-1.9.4-2.3-.9-.2-.7,0-1.4-.3-2Z"/>
        <path class="cls-75" d="M90.5,94.6c-.3,0-.6.2-1,.3.3-1.3,1.2-2.3,1-3.7,0-.6.7-.6,1.1-.9.4.4.4,1,.5,1.5.2.5-.4,1,0,1.5-.9,0-1.2.9-1.8,1.4Z"/>
        <path class="cls-40" d="M112.3,102.7c.7.5,1.6.8,2.2,1.5-1.5,0-2.4-.5-3-1.8-.6-1.4-.6-2.8-.2-4.3,0,1.6.2,3.2,1,4.6Z"/>
        <path class="cls-117" d="M72.8,87.4c-.5.4-.9,0-1.3-.3-3.9-2.4-8-4.6-12.1-6.7-1-.5-1.9-1-2.7-1.8-.4-.4-.7-.8-.7-1.3,1.9,2.2,4.7,2.9,7.1,4.3,3.2,1.9,6.5,3.7,9.7,5.8Z"/>
        <path class="cls-170" d="M177.8,116.9c-.2.9-1.2,1.3-1.6,2-.8,1.4-2.1,1.1-3.3,1.3-.5.1-.8-.2-.9-.7,0-.5,0-.9,0-1.4.7-2.9,2-5.4,4.6-7,.2-.4.5-.5.9-.3.3,0,.6,0,.9,0,.8.1,1,.5.2,1-1,1.1-1.9,2.2-1.9,3.8.1.6.6.9,1,1.2Z"/>
        <path class="cls-1" d="M176.8,115.7c-.5-1.4.4-3.1,1.9-3.8,1.3,1,.9,2.8-.9,3.6-.3.1-.7.1-1,.2Z"/>
        <path class="cls-113" d="M177.5,110.9c-.3.1-.6.2-.9.3-.2,0-.4,0-.8,0,.7-.5,1.4-.9,2-1.1.2.5-.3.6-.4.9Z"/>
        <path class="cls-152" d="M180.3,108.3c-.5,0-1-.2-1.4-.9.6.4,1.1.2,1.4.9Z"/>
        <path class="cls-159" d="M153.9,141.9c.1,0,.2.1.4.2,1.4,2.5,3.6,4.1,5.7,6,.8.7,1.8,1.4,2.2,2.4-1.1,0-1.9-.8-2.9-1.3-.3-.2-.6-.4-.9-.5-.4-.2-.9,0-1.2.3-.5.6,0,1,.2,1.5-1-.3-1.6-1.3-2.6-1.6-1.1-.4-1.7-1.2-2.3-2.1-.9-1.4-.9-2.4,0-3.8.1-.2.3-.3.1-.5,0,0-.2-.1-.3,0-.4,0-2.3,1.9-2.4,2.4-.6-.7.2-1.3.3-1.9.1-.4.4-.6.7-.7.9-.8,1.9-.4,2.9-.2Z"/>
        <path class="cls-108" d="M150.9,142.1c-.2.2-.5.5-.7.7,0-.6.1-.8.7-.7Z"/>
        <path class="cls-159" d="M149.9,145.1c0,.5,0,1,0,1.5-.3-.5-.3-1,0-1.5Z"/>
        <path class="cls-107" d="M117.8,135.2c-1.6-1.3-2.5-3.2-3.5-4.9-.5-.8-.9-1.7-1.3-2.6-.5-1-.9-2.1-1-3.2.1-.7.5-.8.9-.2.6.8.8,1.8,1.3,2.7,1.2,1.9,2.2,3.9,3.2,6-.5.4,0,.7,0,1.1.1.4.3.8.4,1.2Z"/>
        <path class="cls-82" d="M114.2,126.9c-.7-.8-1.1-1.8-1.6-2.7-.2-.3-.3-.3-.4,0-.3,0-.4-.2-.5-.5-.3-1.2-.4-2.4-.3-3.7,0-.5.3-.9.8-1.1,0,0,0,0,0,0,1,0,1.2.6,1.1,1.4,0,1.7-.3,3.3.2,4.9.2.5.5,1,.4,1.6Z"/>
        <path class="cls-87" d="M124.8,42.1c-1.8,0-3.1-1.8-2.6-3.8.4-1.5,1.1-2.8,2.5-3.6,2.2-1.4,4.6-.3,5.8,1,.5.6.6,1.3.4,2-.6,2.1-3.9,4.4-6.1,4.4Z"/>
        <path class="cls-155" d="M80.9,99.9c.5.6,0,1.4.2,2.1.5,1.9,1.7,3,3.2,3.8.3.2.6.3.9.5,0,.2,0,.5,0,.7-1.3-.2-2.4-1-3.7-1.4-.1-.2-.3-.3-.4-.5-.8-.8-1.2-1.8-1.4-2.9-.1-1,0-1.9,1.1-2.3Z"/>
        <path class="cls-61" d="M112.3,119c-1,1.8-.5,3.5,0,5.3,0,1.2.7,2.2.7,3.3-.9-.6-.9-1.8-1.4-2.7-.6-1.1-1-2.4-1.4-3.6-.3-.8-.5-1.5.2-2.2.6-.6,1.3-.2,1.9,0Z"/>
        <path class="cls-161" d="M130.5,158.5c-.4.7.5.9.5,1.5-1.8-1-3.5-2.2-5.4-3-.3-.2-.5-.4-.3-.8.2-.4.5-.3.8-.1,1.5.8,3.1,1.4,4.4,2.5Z"/>
        <path class="cls-19" d="M115.2,157.6c-.4.3-.7.7-1.2.2.3-.4.8-.2,1.2-.2Z"/>
      </g>
    </g>
  </g>
</svg>