<?xml version="1.0" encoding="UTF-8"?>
<svg xmlns="http://www.w3.org/2000/svg" version="1.1" xmlns:xlink="http://www.w3.org/1999/xlink" viewBox="0 0 256 247.2">
  <defs>
    <style>
      .cls-1 {
        fill: url(#radial-gradient);
      }

      .cls-2 {
        fill: #940000;
      }
    </style>
    <radialGradient id="radial-gradient" cx="128" cy="117.8" fx="128" fy="117.8" r="125.8" gradientTransform="translate(0 241.5) scale(1 -1)" gradientUnits="userSpaceOnUse">
      <stop offset="0" stop-color="#d48468"/>
      <stop offset="1" stop-color="#e90004"/>
    </radialGradient>
  </defs>
  <!-- Generator: Adobe Illustrator 28.6.0, SVG Export Plug-In . SVG Version: 1.2.0 Build 709)  -->
  <g>
    <g id="Layer_2">
      <g id="Layer_2-2">
        <path class="cls-1" d="M47.4,247.2v-.2c-5.9-33.2,7.3-85.1,8.1-88-2.2-1.8-39.1-32.3-55.4-61.8v-.2c0,0,0,0,0,0,29.2-16.8,81.7-20.8,84.6-21,1-2.8,18.9-52.3,42.9-75.9h.1c0-.1.1,0,.1,0,24,23.6,41.9,73.1,42.9,75.9,3,.2,55.5,3.4,84.9,19.7h.2c0,0,0,.3,0,.3-15.9,29.6-58.1,60.7-60.7,62.6,1.1,3,18.4,52.5,14.8,86v.2s-.2,0-.2,0c-33.6-3.1-78.9-30.2-81.3-31.7-2.4,1.5-47.6,28.8-80.9,34.1h-.2Z"/>
        <path class="cls-2" d="M47.4,247.2v-.2c-5.9-33.2,7.3-85.1,8.1-88-2.2-1.8-39.1-32.3-55.4-61.8v-.2c0,0,0,0,0,0,29.2-16.8,81.7-20.8,84.6-21,1-2.8,18.9-52.3,42.9-75.9h.1c0-.1.1,0,.1,0,24,23.6,41.9,73.1,42.9,75.9,3,.2,55.5,3.4,84.9,19.7h.2c0,0,0,.3,0,.3-15.9,29.6-58.1,60.7-60.7,62.6,1.1,3,18.4,52.5,14.8,86v.2s-.2,0-.2,0c-33.6-3.1-78.9-30.2-81.3-31.7-2.4,1.5-47.6,28.8-80.9,34.1h-.2ZM4.7,98.1c16.3,29.2,53.4,59.5,53.8,59.8h0c0,0,0,.2,0,.2-.1.5-13.6,52.3-7.9,85.3,33-5.4,77.9-32.9,78.4-33.2h0c0,0,0,0,0,0,.5.3,45.5,27.6,78.8,30.8,3.5-33.3-14.3-82.9-14.4-83.4h0c0-.1.1-.2.1-.2.4-.3,43-31.2,58.9-60.7-29.3-16.2-81.9-19-82.4-19h-.1s0-.1,0-.1c-.2-.5-17.8-50.1-41.6-73.6-23.8,23.5-41.3,73.2-41.5,73.7h0c0,.1-.1.1-.1.1-.5,0-53,3.7-82.1,20.4h0Z"/>
      </g>
    </g>
  </g>
</svg>