<?xml version="1.0" encoding="UTF-8"?>
<svg id="Layer_1" data-name="Layer 1" xmlns="http://www.w3.org/2000/svg" viewBox="0 0 314.2 449.84">
  <defs>
    <style>
      .cls-1 {
        fill: #ed2024;
      }

      .cls-2 {
        fill: #fefefe;
      }
    </style>
  </defs>
  <path class="cls-1" d="M146.76.36c93.96-6.34,172.44,72.42,167.2,166.2-2.59,46.33-30.43,87.01-52.82,126.18-29.08,50.87-59.64,101.04-89.68,151.32-8.9,7.47-19.36,7.78-28.43.45-37.86-64.44-78.64-127.93-114.23-193.77-11.78-21.79-21.96-40.78-26.35-65.65C-13.86,92.66,53.27,6.67,146.76.36Z"/>
  <polygon class="cls-2" points="157.1 26.29 188.21 118.1 285.14 119.32 207.44 177.27 236.24 269.84 157.1 213.84 77.97 269.84 106.77 177.27 29.06 119.32 125.99 118.1 157.1 26.29"/>
</svg>