<?xml version="1.0" encoding="UTF-8"?>
<svg xmlns="http://www.w3.org/2000/svg" version="1.1" viewBox="0 0 431.8 272.8">
  <defs>
    <style>
      .cls-1 {
        fill: #ff2e2e;
      }

      .cls-2 {
        fill: #6c7bb8;
      }

      .cls-3 {
        fill: #2e69a3;
      }

      .cls-4 {
        fill: #d00000;
      }

      .cls-5 {
        fill: #9ea2d7;
      }

      .cls-6 {
        fill: #528ed5;
      }

      .cls-7 {
        fill: #d02524;
      }

      .cls-8 {
        fill: #ff0003;
      }

      .cls-9 {
        fill: #650a22;
      }

      .cls-10 {
        fill: #49649b;
      }

      .cls-11 {
        fill: #7975a3;
      }

      .cls-12 {
        fill: none;
        stroke: #000;
        stroke-miterlimit: 10;
      }

      .cls-13 {
        fill: #ff3c3b;
      }

      .cls-14 {
        fill: #fc0a0d;
      }

      .cls-15 {
        fill: #ff3d3c;
      }

      .cls-16 {
        fill: #ff1517;
      }

      .cls-17 {
        fill: #ff9593;
      }

      .cls-18 {
        fill: #ff5e5c;
      }

      .cls-19 {
        fill: #c81110;
      }

      .cls-20 {
        fill: #fa1f26;
      }

      .cls-21 {
        fill: #e70000;
      }

      .cls-22 {
        fill: #4b77b4;
      }

      .cls-23 {
        fill: #ff8987;
      }

      .cls-24 {
        fill: #ff1013;
      }

      .cls-25 {
        fill: #8b9cd7;
      }

      .cls-26 {
        fill: #d4bbe1;
      }

      .cls-27 {
        fill: #ff1e1f;
      }

      .cls-28 {
        fill: #aaa9dd;
      }

      .cls-29 {
        fill: #386fad;
      }

      .cls-30 {
        fill: #be0000;
      }

      .cls-31 {
        fill: #d20000;
      }

      .cls-32 {
        fill: #39436a;
      }

      .cls-33 {
        fill: #4088d1;
      }

      .cls-34 {
        fill: #3f5a8c;
      }

      .cls-35 {
        fill: #ff5c5b;
      }

      .cls-36 {
        fill: #465f92;
      }

      .cls-37 {
        fill: #ff1618;
      }

      .cls-38 {
        fill: #cd4b5d;
      }

      .cls-39 {
        fill: #483e62;
      }

      .cls-40 {
        fill: #4e4d75;
      }

      .cls-41 {
        fill: #ff1113;
      }

      .cls-42 {
        fill: #ff6865;
      }

      .cls-43 {
        fill: #8290c8;
      }

      .cls-44 {
        fill: #8a0000;
      }

      .cls-45 {
        fill: #ff5e5f;
      }

      .cls-46 {
        fill: #325483;
      }

      .cls-47 {
        fill: #5a4e6e;
      }

      .cls-48 {
        fill: #c20000;
      }

      .cls-49 {
        fill: #ff3837;
      }

      .cls-50 {
        fill: #6e93d5;
      }

      .cls-51 {
        fill: #ff615e;
      }

      .cls-52 {
        fill: #ff3231;
      }

      .cls-53 {
        fill: #ffa2a0;
      }

      .cls-54 {
        fill: #ef0c0e;
      }

      .cls-55 {
        fill: #ff8886;
      }

      .cls-56 {
        fill: #ff1416;
      }

      .cls-57 {
        fill: #971223;
      }

      .cls-58 {
        fill: #ff2525;
      }

      .cls-59 {
        fill: #c70203;
      }

      .cls-60 {
        fill: #d60003;
      }

      .cls-61 {
        fill: #ff7572;
      }

      .cls-62 {
        fill: #3b3f64;
      }

      .cls-63 {
        fill: #ff2d2d;
      }

      .cls-64 {
        fill: #ff1518;
      }

      .cls-65 {
        fill: #e3070e;
      }

      .cls-66 {
        fill: #ff1819;
      }

      .cls-67 {
        fill: #b80e0e;
      }

      .cls-68 {
        fill: #533754;
      }

      .cls-69 {
        fill: #ff1c1e;
      }

      .cls-70 {
        fill: #ff1b1c;
      }

      .cls-71 {
        fill: #8788b9;
      }

      .cls-72 {
        fill: #da0000;
      }

      .cls-73 {
        fill: red;
      }

      .cls-74 {
        fill: #ff9391;
      }

      .cls-75 {
        fill: #7793d3;
      }

      .cls-76 {
        fill: #8c92c9;
      }

      .cls-77 {
        fill: #ff2526;
      }

      .cls-78 {
        fill: #ff2929;
      }

      .cls-79 {
        fill: #ff191a;
      }

      .cls-80 {
        fill: #ff7977;
      }

      .cls-81 {
        fill: #ff2021;
      }

      .cls-82 {
        fill: #fd0f14;
      }

      .cls-83 {
        fill: #ff7875;
      }

      .cls-84 {
        fill: #ff8c8c;
      }

      .cls-85 {
        fill: #678ed0;
      }

      .cls-86 {
        fill: #bb0607;
      }

      .cls-87 {
        fill: #b40000;
      }

      .cls-88 {
        fill: #f00001;
      }

      .cls-89 {
        fill: #ff6e6c;
      }

      .cls-90 {
        fill: #f5b6b6;
      }

      .cls-91 {
        fill: #b10000;
      }

      .cls-92 {
        fill: #c0b2df;
      }

      .cls-93 {
        fill: #ff3433;
      }

      .cls-94 {
        fill: #ff2627;
      }

      .cls-95 {
        fill: #ff9d99;
      }

      .cls-96 {
        fill: #ff4b4b;
      }

      .cls-97 {
        fill: #ff1014;
      }

      .cls-98 {
        fill: #ff5554;
      }

      .cls-99 {
        fill: #bd0303;
      }

      .cls-100 {
        fill: #fe2f2e;
      }

      .cls-101 {
        fill: #ff5654;
      }

      .cls-102 {
        fill: #335282;
      }

      .cls-103 {
        fill: #d30000;
      }

      .cls-104 {
        fill: #fd070b;
      }

      .cls-105 {
        fill: #940000;
      }

      .cls-106 {
        fill: #ff7b79;
      }

      .cls-107 {
        fill: #f50007;
      }

      .cls-108 {
        fill: #3084cb;
      }

      .cls-109 {
        fill: #d00;
      }

      .cls-110 {
        fill: #ff5050;
      }

      .cls-111 {
        fill: #f62020;
      }

      .cls-112 {
        fill: #5c162f;
      }

      .cls-113 {
        fill: #ada5d6;
      }

      .cls-114 {
        fill: #400000;
      }

      .cls-115 {
        fill: #2f5a93;
      }

      .cls-116 {
        fill: #f55;
      }

      .cls-117 {
        fill: #ab0001;
      }

      .cls-118 {
        fill: #7b8ac4;
      }

      .cls-119 {
        fill: #ff5a58;
      }

      .cls-120 {
        fill: #3c0000;
      }

      .cls-121 {
        fill: #5a7ebb;
      }

      .cls-122 {
        fill: #ff0006;
      }

      .cls-123 {
        fill: #cf0000;
      }

      .cls-124 {
        fill: #5c70a7;
      }

      .cls-125 {
        fill: #ff4746;
      }

      .cls-126 {
        fill: #ce0000;
      }

      .cls-127 {
        fill: #ff3d3e;
      }

      .cls-128 {
        fill: #ff3a39;
      }

      .cls-129 {
        fill: #ff0009;
      }

      .cls-130 {
        fill: #ad0000;
      }

      .cls-131 {
        fill: #db0000;
      }

      .cls-132 {
        fill: #ff9996;
      }

      .cls-133 {
        fill: #ffdac7;
      }

      .cls-134 {
        fill: #9a0000;
      }

      .cls-135 {
        fill: #9fa3da;
      }

      .cls-136 {
        fill: #bfabd3;
      }

      .cls-137 {
        fill: #ff2a2a;
      }

      .cls-138 {
        fill: #e9020d;
      }

      .cls-139 {
        fill: #385284;
      }

      .cls-140 {
        fill: #307fc0;
      }

      .cls-141 {
        fill: #ff0005;
      }

      .cls-142 {
        fill: #3a6aa3;
      }

      .cls-143 {
        fill: #300000;
      }

      .cls-144 {
        fill: #d30002;
      }

      .cls-145 {
        fill: #ff6a67;
      }

      .cls-146 {
        fill: #3c86cd;
      }

      .cls-147 {
        fill: #ff8685;
      }

      .cls-148 {
        fill: #ff7570;
      }

      .cls-149 {
        fill: #356da9;
      }

      .cls-150 {
        fill: #774363;
      }

      .cls-151 {
        fill: #d10809;
      }

      .cls-152 {
        fill: #fd3d42;
      }

      .cls-153 {
        fill: #ff4747;
      }

      .cls-154 {
        fill: #7778ac;
      }

      .cls-155 {
        fill: #305185;
      }

      .cls-156 {
        fill: #5687ca;
      }

      .cls-157 {
        fill: #ff6f6e;
      }

      .cls-158 {
        fill: #ff5655;
      }

      .cls-159 {
        fill: #ac0000;
      }

      .cls-160 {
        fill: #d81418;
      }

      .cls-161 {
        fill: #ff0001;
      }

      .cls-162 {
        fill: #3e81c4;
      }

      .cls-163 {
        fill: #a8a6dc;
      }

      .cls-164 {
        fill: #9e0000;
      }

      .cls-165 {
        fill: #f33;
      }

      .cls-166 {
        fill: #ff0004;
      }

      .cls-167 {
        fill: #644061;
      }

      .cls-168 {
        fill: #ff0309;
      }

      .cls-169 {
        fill: #ff4749;
      }

      .cls-170 {
        fill: #ff1a1c;
      }

      .cls-171 {
        fill: #a20201;
      }

      .cls-172 {
        fill: #ce0001;
      }

      .cls-173 {
        fill: #4b6fad;
      }

      .cls-174 {
        fill: #ff7d7b;
      }

      .cls-175 {
        fill: #2a5080;
      }

      .cls-176 {
        fill: #5e5980;
      }

      .cls-177 {
        fill: #7c1e3f;
      }

      .cls-178 {
        fill: #e90000;
      }

      .cls-179 {
        fill: #ff0207;
      }

      .cls-180 {
        fill: #ffc3c4;
      }

      .cls-181 {
        fill: #a60000;
      }

      .cls-182 {
        fill: #ff090d;
      }

      .cls-183 {
        fill: #4e8cd3;
      }

      .cls-184 {
        fill: #ba99b4;
      }

      .cls-185 {
        fill: #ff6a68;
      }

      .cls-186 {
        fill: #ff7a76;
      }

      .cls-187 {
        fill: #a6577b;
      }

      .cls-188 {
        fill: #2d60a0;
      }

      .cls-189 {
        fill: #343055;
      }

      .cls-190 {
        fill: #b25070;
      }

      .cls-191 {
        fill: #a90000;
      }

      .cls-192 {
        fill: #76719d;
      }

      .cls-193 {
        fill: #a91e2e;
      }

      .cls-194 {
        fill: #a0a3d9;
      }

      .cls-195 {
        fill: #fb0000;
      }

      .cls-196 {
        fill: #ff0a0e;
      }

      .cls-197 {
        fill: #6a3152;
      }

      .cls-198 {
        fill: #cc211f;
      }

      .cls-199 {
        fill: #ff5453;
      }

      .cls-200 {
        fill: #ff9898;
      }

      .cls-201 {
        fill: #ff5f5d;
      }

      .cls-202 {
        fill: #b4a9db;
      }

      .cls-203 {
        fill: #2c78bb;
      }

      .cls-204 {
        fill: #b20001;
      }

      .cls-205 {
        fill: #7695d7;
      }

      .cls-206 {
        fill: #827fae;
      }

      .cls-207 {
        fill: #f11c1c;
      }

      .cls-208 {
        fill: #ec4a49;
      }

      .cls-209 {
        fill: #ff4847;
      }

      .cls-210 {
        fill: #ff4549;
      }

      .cls-211 {
        fill: #a3a5db;
      }

      .cls-212 {
        fill: #336ca8;
      }

      .cls-213 {
        fill: #6489cb;
      }

      .cls-214 {
        fill: #2c5b8f;
      }

      .cls-215 {
        fill: #900f15;
      }

      .cls-216 {
        fill: #8c91c7;
      }

      .cls-217 {
        fill: #ff060a;
      }

      .cls-218 {
        fill: #af0000;
      }

      .cls-219 {
        fill: #fa0000;
      }

      .cls-220 {
        fill: #ffb0ae;
      }

      .cls-221 {
        fill: #545781;
      }

      .cls-222 {
        fill: #ffa7a4;
      }

      .cls-223 {
        fill: #728eca;
      }

      .cls-224 {
        fill: #3672ad;
      }

      .cls-225 {
        fill: #ff5658;
      }

      .cls-226 {
        fill: #8e9bd4;
      }

      .cls-227 {
        fill: #f80000;
      }

      .cls-228 {
        fill: #4b6194;
      }

      .cls-229 {
        fill: #ff6564;
      }

      .cls-230 {
        fill: #d40102;
      }

      .cls-231 {
        fill: #ff1c1d;
      }

      .cls-232 {
        fill: #2d7cc2;
      }

      .cls-233 {
        fill: #e00;
      }

      .cls-234 {
        fill: #2d6eac;
      }

      .cls-235 {
        fill: #8299d6;
      }

      .cls-236 {
        fill: #ff090c;
      }
    </style>
  </defs>
  <!-- Generator: Adobe Illustrator 28.6.0, SVG Export Plug-In . SVG Version: 1.2.0 Build 709)  -->
  <g>
    <g id="Spiderman">
      <path class="cls-232" d="M217.8,248.1c-1.9-4.4-3.8-8.8-5.1-13.4-1.4-4.1-1.4-8.5-1.1-12.7,1-11.7,1.6-23.4,4.4-34.9.2-.3.4-.6.7-.9,2.5.5,2.1,2.6,2.3,4.3.2,2.4-.2,4.8.5,7.6,1.2-2.2,1.2-4.3,1.8-6.2.3-1,.9-1.9.7-3-.2-1.7.3-3.3,1.2-4.7,0-.1.1-.2.2-.3.8-1.3.9-3.4,2.8-3.3,1.7.1,2.1,2,2.8,3.4.6,5-1,9.6-2.6,14.3-.7,2.1-1.5,4.2.1,6.3.5,2.2,0,4.3-1,6.1-2.9,5.7-3.6,11.6-3.5,17.9.1,5-.5,10,.9,15.6,2.5-5.3,3.2-10.4,4.2-15.4,1-4.9,1.7-9.9,2.9-14.8.8-3.3,2.1-6.2,4.8-8.5,1.8-1.4,2.8-3.4,2.9-5.7.7-3.1,2.3-5.9,2.7-9.1.1-1,.7-2.2,2.2-1.7,1.4,1.4,1.2,3.2,1.1,4.9-.4,5.4-.8,10.8-1.9,16.1-2.1,9.9-1.8,20.1-3.1,30-.2,1.7-.6,3.4-1,5.1-1.2,6.4-5.3,10-11.3,11.8-.7,0-1.2-.2-1.8-.5h0c-2.3-2.7-3.2-6.6-6.9-8.1h0Z"/>
      <path class="cls-34" d="M224.7,256.2c.5,0,1-.1,1.6-.2,2.9-.2,5.7-1.3,8.6-1.7,5.3-.6,10.5-2.4,16-1.5,3.3.5,5.6-1.5,7-4.8,6.8-15.1,12.3-30.6,15.7-46.8.9-4.3,2.4-8.5,3.7-12.7.8-2.1.8-4.5,2.3-6.3,2.5.5,3.2,2.9,4.5,4.5,3.7,4.6,8.4,7.5,14,9,2,.5,3.2,1.3,3,3.4-.2,2,1,2.9,2.6,3.5,4.1,1.6,8,.6,11.9-.8,5-1.8,9.7-4.1,14.6-6.3,3.8-1.7,7-1.8,10.2.9,4.6,1.1,8.9.7,12.9-2.1.6-.4,1.2-.9,2-.7,1.6,1.7.6,3.3-.2,4.9-1.4,2-1.5,5.1-4.7,5.7-3.7-.3-7,1.1-10.4,2.1-4.4,1.3-8.8,2.1-13.1,3.8-1.2.5-2.5.8-3.6.4-4.5-1.4-9.3-1.1-13.9-1.5-4.2-.4-7.5-3-11.2-4.5-3.7-1.8-5.9-5-8.4-8-1.1-.3-2-1.1-2.9-1.7-.8-.6-1.6-1.1-2.4-1.7-1.2-.9-2.1-2-3-3.4-1.7,3.3-1.9,6.7-2.8,10-.2.6-.4,1.3-.4,2,0,.5-.2,1-.3,1.5-.9,1.3-.3,3-.8,4.4-1.1,4.7-2,9.5-3.3,14.2-.3,1.1-1,2.6.2,3.4,1,.8,2-.5,2.9-1,.9-.5,1.6-1.1,2.7-1.1.4,0,.6.2.9.5-.9,4-4.4,6.3-6.5,9.6-5.7,1-7,5.4-8.3,10.1-2.2,8.1-6.7,14.8-13.4,20h0c-7.2,4.5-14.4,2.1-21.5-.3-2.2-1.9-4.9-3.5-5.7-6.6h0Z"/>
      <path class="cls-119" d="M214.7,22.6c5.5,5.8,10.9,1.6,16.3-.2.1,0,.3-.2.3-.2,4.1,3.4,8.4.4,12.6.5.7,0,1.5,0,2.1.5.8,1.9-.9,2.2-1.9,2.7-1.9.9-4.1.9-6.1,1.3-2.6.5-6.2,4.3-6.5,6.8,0,.5.3.9.6,1.3.7,1,1.3,2.1,1.9,3.1.7,1.7,1.8,3.2,2.8,4.8.2.3.3.6.4,1,.3,1,.6,2.1,1.1,3,.3.7.5,1.4.6,2.2.2,1.6.5,3.2.6,4.8,0,1.4,0,1.4-1.8,1.7-.1,0,0,.3,0,.4.5,1.3.3,2.4-1.1,3.1-3.3-.1-5.3-2.3-7-4.8-4.5-6.4-8.3-13.1-10.8-20.5-.2-.7-.7-1.3-1.2-1.9-2-3.3-4-6.5-8.4-6.9-.7,0-1.3-.7-.7-1.6,1.9-1.7,4.2-.7,6.3-1.1h0Z"/>
      <path class="cls-31" d="M63.9,159.4c-4.4.6-8.5,1.6-13.1-.9-2.4-1.3-6.6.5-9.7-1.2.3-.8,1.2-1.2,1.7-1.9,2.2-3,1.1-6.6-2.4-7.6-1-.3-2.2-.5-3-1.2-1.4-1.1-1.4-2.2.3-3,.9-.3,1.8-.1,2.7.1,2.3,1,3.6,0,4.4-2.2.7-1.8,1.2-3.7,2.9-4.9,1.1-.3,1.8.3,2.2,1.2.4,1.1.1,2.2,0,3.3.8,4.1,2,5.1,6.5,5.5,3.3-.3,6.6-.7,9.1-3.7-1.9-1.6-4.4-1.2-6.5-2.2-.7-.2-1.3-.4-2-.7-1.1-.6-2.2-.9-3.4-1.2-1.9-.6-2.1-1.8-.6-3.1,2.9-.5,5.5.6,8.2,1.4,2.4.7,4.7,1.1,5.3-2.3.7-1.5.6-3.3,2.3-4.2.5-.2,1.1-.2,1.6,0,1.5,1.6-.5,3.7.7,5.3,1.1,2.3-1.6,3.4-1.5,5.4,0,1.1,0,2.2-.4,3.3-1.4,3.9-3.5,7.5-3.4,11.8,0,1.2-.5,2.4-1.9,3h0Z"/>
      <path class="cls-145" d="M304.1,5.1c11.6.6,23.2,1.2,34.4,4.5,1.7.5,3,2,4.5,3,.5,1.4.7,2.8-.5,4-2,.3-3.2-1.1-4.5-2.1-3.8-3.2-7.8-5.3-13.5-4.5,8.1,3.1,14.3,7.9,17.5,15.8.4,1.4.6,2.7-.1,4-.9,1-2,1.2-3.3,1.2-4.7-.3-7.7-3.5-10.6-6.6-2.2-2.3-4.2-4.8-6.2-7.2-1.3-1.3-2.5-2.7-3.7-4.1-3.9-4.6-9-6-14.8-5.4-3.3.3-6.5,1.1-9.4,1.1-.9-.1-.7.5-.7,0,0,0,.1,0,.3,0,2.2.4,4.7.1,6.4,2.1-.2,2.1-1.8,1.9-3.2,2.1-1.7.2-3.3-.4-5,0-5.7-.2-11.2,1.2-16.9,1.8-1.9.2-3.9.8-5.8-.3-.8-1.3.4-1.7,1.1-2.1,1.6-.9,3.4-1.3,5.2-1.7,4.3-.8,8.4-1.6,12.5-3.4,4.9-2.1,10.6-2.5,16.1-2.3h0Z"/>
      <path class="cls-125" d="M80.9,108.6c4.6,1.7,9.5,0,14.1,1,1.4.3,2.9,0,4.4,0,.3-.1.6-.3,1-.4,1.8-.4,3.4.4,5,.9,1.2.3,2.2.9,3.2,1.7,1.4,1.3,3.2,2.1,4,4.1.2,1.2.8,2.2,1.6,3.1.5.8.7,1.6.8,2.5,0,1.3.7,2.3,1.3,3.3.1.6,0,1.1-.3,1.6-2.5,1.6-4.8.6-7.2-.4-.3-.2-.5-.5-.5-.9,0-.1,0-.2.1-.3.7-1.4,3.5-1.2,2.8-3.3-.6-1.9-2.7-1.9-4.3-2.3-1.1-.3-2.1-.5-3.2-.7-3.2-.4-4,.6-2.8,3.5.1.3,0,.7-.2,1-3.1,1.7-4.7-1.5-7.2-2.1-3.5.5-3.8,3.4-3.9,6,0,3-.5,5.8-1.7,8.6-.5,1.1-.8,2.7-2.7,2.1-.7-1-.5-2.1-.2-3.2,1.6-4.8,1.4-9.9,2.1-14.8,0-.6.2-1.2,0-1.8-.2-1-.7-2.1-1.8-1.8-1.1.3-.4,1.4-.4,2.2.1,1.7,2,3.7-.8,4.9-1.6-2.1-2.7-4.5-3.3-7,0-.3-.1-.7-.2-1-.2-1.9-2.6-2.6-2.7-4.6.7-1.1,1.9-1.3,2.9-1.8h0Z"/>
      <path class="cls-183" d="M216.8,186.4c.4,4.2-.8,8.3-1.5,12.3-1.7,9.3-1.5,18.7-3,28-.4,2.6.3,5.3.5,8-1.9-3.3-1.5-7.1-2-10.7-1.4-10.7-2.2-21.4-1.7-32.1.9-4.8,0-9.7,1.1-14.4.8-.4.3-2.1,1.7-1.9,1.3.2,1.6,1.4,1.8,2.4.6,3,.8,6,3,8.4h0Z"/>
      <path class="cls-17" d="M342.8,16.4c-1.1-1.3-.4-2.5.2-3.7,6.2,2.5,10.2,7.8,14.9,12.2,5.5,5.1,11,10.2,16.9,14.7.6.4.9,1.1,1.4,1.7.4,1.1,1.5,1.4,2.4,2,2,1.3,2.1,2.5-.4,3.3-2.4,0-3.9-1.9-5.8-2.8-.5-.3-.9-.6-1.3-.9-2.2-2-5.1-2.7-7.3-4.6-.3-.2-.6-.3-.9-.5-2.2-1.7-4-4-6.5-5.3-1.6-.9-2.2-2.8-3.9-3.5-.6-.4-1-.9-1.4-1.5-1.4-3-4.2-4.7-6.1-7.3-.9-1.1-2.2-2-2.1-3.7h0Z"/>
      <path class="cls-126" d="M39.3,121c-.9-1-2-1.8-2.8-2.9-3.8-5.1-9.3-7.2-15.1-8.7-1.9-.5-3.8-1.1-4.3-3.4,3.8-2.3,3.3-7.5,6.6-10.1,4.3,1.1,1.2,3.6,1.1,5.5-.4,1.4-.8,2.9.7,3.9,2.3,1.4,3.8-.5,5.4-1.6,1.7-.8,2.7.3,3.9,1.2,1.9,1.4,3.5,1.6,4.8-.8.7-1.4,1.9-2.2,3.5-2.2.3,0,.7.1,1,.3,1.1,2.4-.5,4.2-1.5,6-1.5,2.7-1.4,4.7,1.7,6,.5,1.7-1,2.3-1.9,3-1.3.9-2.2,2.1-2.8,3.6-.1.1-.3.2-.4.3h0Z"/>
      <path class="cls-88" d="M38,144.2c-.6.3-1.7.6-.6,1.4,1,.7,2.3,1.2,3.5,1.1,4.3-.2,3.9,2.9,4.2,5.5.3,2.8-.7,4.8-3.9,5.1-1.9,0-3.3-1.1-4.7-2.3-2.2-1.9-3.2-4.9-5.6-6.6-.3-1,.1-1.7.7-2.4.3-.4.7-.6,1-1.2-1.9-.4-3,.9-4.2,1.8-.3.2-.6.4-1,.5-2,.3-3.4-.4-3.9-2.4,2.8-3.5,4.8-7.7,9.2-9.6,1-.2,2-.2,2.9.4,1.5,2.7,1.8,5.8,2.4,8.7h0Z"/>
      <path class="cls-89" d="M214.7,22.6c-1.9,1.6-4.4.9-6.5,1.6-2.4,2.4-5.6,1.9-8.6,2.3-3.4.5-6.7.6-10,1.8-2.3,1.2-3.7,3-4.8,5.3-1.6,3.4-3.9,6.5-6.3,9.4-2,2.1-3.5,4.7-5.4,6.9-1,1.2-2.1,2.7-4,1.7-1.8-1-.8-2.5-.5-3.8.4-1.6,1.2-3.2,1-5,3.7-9,10.4-15,19-19.1,7,.1,13.8-1.2,20.6-2.7,2.1-.4,3.6,1,5.4,1.6h0Z"/>
      <path class="cls-94" d="M81.1,154.8c-.2,1.1-1.4,1.8-1,3.1,0,3.3-1.3,6.1-3,8.7-3.6,2.9-8.2,3.2-12.2,5.2-1.8-1.5-3.4-3-2.4-5.6,1.2-.7,2,.6,3.2.7-.8-1.9-3.8-3.8-.1-5.7,1.6,1.3,3.6,0,5.2,1-1.6-.9-3.5.1-5.1-.9-.2-3.7,1.9-6.6,3.3-9.7,2.7-.6,5.3-.9,7.7.9.9,3.2-2,5.9-1.4,9.3,1.4-2.5,2.2-5,3.1-7.5.7-1.9,1.3-3.9,3.3-5,.4,0,.7.2.9.5,1.2,2.1.2,3.7-1.4,5h0Z"/>
      <path class="cls-18" d="M115,100.7c6.4-12.8,16.5-21.4,29.9-26.3,2,1.3,3.9,1.4,6.2.3,3.1-1.4,6.5-1.9,9.6-3.4,1-.5,2.3-1,3.5,0,.5,1.6-.7,2.1-1.8,2.7-1.7.9-3.5,1.7-5.2,2.6-2,.9-4.2.5-6.2,1.5-2.1.9-4.3,1.6-6.5,2.2-4.2,1.2-7.5,3.9-10.2,7.2-.4.4-.7.8-1.2,1.1-3.1,2.3-4.4,6.1-7.5,8.4-.5.2-1,.2-1.5,0-.8-2.2,1.1-3.3,2-4.8,1-1.5,2.3-2.8,3-4.6-3.9,3.4-7.2,7.1-8.9,12.1-1.4,1.9-3,2.8-5.1,1.1h0Z"/>
      <path class="cls-172" d="M409,79.9c-4.4-1.5-8.8-3-13.2-4.5-1.5-1.7-2.8-2.8-5.5-2.2-3.4.8-6.8-2.4-7.1-6.2-.1-1.5.2-2.9.6-4.3.6-2.1,1.9-3.6,3.9-4.5.9-.2,1.8-.3,2.4.7.1.5,0,1-.2,1.4-1.8,3.5-1.5,4.2,2.4,5.5,1.3.4,2.9.5,3.2,2.1.6,3,2.9,3.7,5.4,4.1,2.3.5,3.8,3.4,6.7,2.2,2-.2,4,.2,5.8-1.1.7-.6,1.6,0,2.2.5.7,5-3.2,5.3-6.5,6.3h0Z"/>
      <path class="cls-176" d="M298,204.5c4.9.7,9.2,4,14.4,3.6,3.8-.2,7.6,0,11.2,1.5.7.3,1.8,0,2.5-.3,6.4-3.1,13.6-3.9,20.2-6.2,1.2-.4,2.7,0,4,0,1.2,1,.5,1.7-.5,2.2-.8.4-1.6.5-2.2,1.3-13.4,4.3-27,6.1-40.9,3.1-3.3-.7-6.2-2.9-8.7-5.3h0Z"/>
      <path class="cls-88" d="M6.3,168.7c0-.5-.2-1-.3-1.6,1.1-2.1,3.6-2.4,5.2-3.9,1.3-.8,2.6-1.4,4.1-1.5,1.7-.1,2.8-.7,3-2.5.1-1.1.8-1.9,1.9-1.8,2.9,0,3.7-1.9,4.2-4.2,1.5-1.9,2.9-3.9,5.4-4.5,3.3,1.9,3.9,4.6,1.6,8.3-4,3.2-8,6.3-12,9.5-3.4-1.2-4.7,1.5-6.4,3.4-1.4.2-2.9.3-4.3.5-1.2,0-2-.5-2.4-1.7h0Z"/>
      <path class="cls-95" d="M304.1,5.1c-4.5.9-9.4.8-13.2,2.8-7,3.6-15.1,2.9-22.1,6.5-.1.2-.2.3-.3.5-2.7,1.4-5.9,1.3-8.5,2.9-.3.2-.7.3-1,.4-.7.1-1.4.2-2.1-.1-1.7-1.2-.2-2.4,0-3.6,5.1-2.1,10-4.6,15.6-5,8-.5,15.3-4.4,23.4-4.7,2.8-.1,5.6-.2,8.4.4Z"/>
      <path class="cls-13" d="M162.5,66.2c2.8-4,2.1-8.9,3.4-13.2.4-1.1,1.4-1.4,1.8-.3.9,2.1,2.9,3.2,3.9,5.1.3,1.2,0,2.4.2,3.6.2,1,.2,2.1,1.2,2.5,1.4.5,1.7-1,2.3-1.8,1.4-2.7,1.6-5.8,2.2-8.7.4-.8,1-1.4,1.8-1.8,1.6-1.1,2.8-.7,2.6,1.3-.4,4.1.4,8.4-1.1,12.4-1.1,1.6-2.7,2.8-4,4.2-2,2-4.3,2.8-7,1.5-.3-.2-.6-.5-.8-.8-.9-2.6-1.8-5.2-2.1-8-.8,1.8-.7,3.9-1.7,5.8-.2.3-.5.4-.9.5-1-.4-2-.8-1.8-2.1h0Z"/>
      <path class="cls-147" d="M256.8,14.4c1.8,1.2-.9,2.1-.2,3.2-2.1,4-5.9,4.9-9.9,5.6-.9.2-1.9-.2-2.8.5-3.1.7-6.2.6-9.2,1.8-1.6.7-3.7,1-2.5-2.2.3-.7-.7-.7-1.3-.9,4.1-3.4,9.2-4.1,14.1-5.4,3.8-1.1,7.9-1.3,11.7-2.5h0Z"/>
      <path class="cls-7" d="M347.6,206.8c-.3-2.1,3-1.4,2.6-3.5,2.4-.8,2-3.8,4-4.9,1,.4,2.1,1,3.2.5,4.2-2.1,8.8-3.7,12-7.5,3.3-3.9,7.6-4.5,12.3-4.5.8.8.5,1.7.2,2.6-2.3,4-5.2,7-10.1,7.3-2.1.1-3.6,2-5.7,2.3-1.7-.4-2.7.8-3.9,1.6-3.4,2.3-6.9,4.2-10.8,5.5-1.3.2-2.6.4-3.9.7h0Z"/>
      <path class="cls-127" d="M401.9,48.7c2.3-.6,4.4-3.3,7.1,0,1.1,1.3,2.9-1.1,4.6-1.4,1.5-.3,2.5-2.9,4.4-1,1.7,1.7,2.3,3.6,1.5,6-1.3.4-2.4.2-3.2-1-.2.8,0,1.9-.8,2.2-5.4,2.3-9.9,6.6-16.2,6.7-.5-.6-.6-1.3-.4-2,5-1.8,3.9-5.6,3-9.3h0Z"/>
      <path class="cls-20" d="M287.1,194.1c1,.6,2,1.2,2.5,2.4-2.9,3.6-3,8.2-4,12.4-1,3.9-2,7.8-3.7,11.5-1.7-.1-1.9-1.5-2.2-2.7-.3-1.4-.6-2.7-.6-4.1,0-1.3-.5-2.5-1.4-3.4-.5-.8-.7-1.7-.6-2.6,0-1.6-.5-3.2,0-4.8,0-.5,0-.9.1-1.4,1.8-1.7,3.4,4.2,5.2.2.9-2,3.2-3.2,3.5-5.5.1-.7.6-1.4,1.2-1.8h0Z"/>
      <path class="cls-199" d="M171.1,58.2c-2-1.4-4-2.8-4.2-5.5-.3,0-.7.2-1,.3.2-3.8,2.3-6.9,3.7-10.2,1.4,2-.2,3.9-.3,5.9,0,.9-1.3,1.7.2,2.4,1.3.6,1.7-.5,2.3-1.2,2.1-2.4,3.6-5.3,6-7.4,1.2,2.7,0,5.8,1,8.5,0,1-.6,1.7-1,2.6.7,3.3-.4,6.3-1.8,9.2-2.2-1.9,0-4.5-1-6.6-1.8-.3-2.1,2.5-3.9,2.1h0Z"/>
      <path class="cls-127" d="M372.6,43c2,.3,3.3,1.9,5,2.9,6.6-.7,11,3.6,15.7,7.1,1.8,2,3.2,4.3,5,6.3.6.7.9,1.5,2,1.2,1.5.8,2,2.3,2.3,3.8,0,1.6,1.4,2.6,1.9,3.9,0,.2,0,.3-.1.5-.5.8-1.2,1.2-2.2,1.3-.7,0-1.4-.2-1.7-1-.6-2.7-2.6-4.4-4.4-6.2-3.7-3.7-7.6-7.3-11.9-10.3-1.2-.8-2.4-1.8-4-.8-3.3-2.3-6.5-4.7-7.8-8.8h0Z"/>
      <path class="cls-65" d="M402.6,64.3c-1.8-.5-1.5-2.7-2.8-3.6-.2-.1-.2-.3-.2-.4,0-.2,0-.2.1-.2,2.1-1.5,4.5-2.3,6.9-3.2,1.4-.5,3.1-.3,2.7-2.5,0-.3-.2-1.3.6-.5,2.3,2.3,4-.7,5.1-1.3,2-1.1-.9-2.3-1.6-3.9,3.1-.4,3.6,3.6,6.1,3.5.2,2.8-2.3,3.6-3.9,4.7-4,2.9-8.4,5.3-13,7.4h0Z"/>
      <path class="cls-221" d="M251.9,263.1c.8-2.5,3.3-3.5,4.8-5.3,4.4-5.4,7-11.8,8.6-18.4,1.2-4.9,3.4-7,8.3-6.4-4.1,6-6.2,13-10.4,18.9-3.1,4.4-6.3,8.6-11.3,11.1h0Z"/>
      <path class="cls-13" d="M24.1,101.3c-.8-1.8,2.9-3.6-.1-5.4-.2-.2-.2-.3-.2-.5,0-.2,0-.2.2-.2,3.4.2,6.3,1.9,9.3,3.4.3.2.4.5.5.8,0,.4-.2,1,0,1,.7.1.7-.7,1.3-1,.5-.2,1-.2,1.5,0h0c2,1.7,4.9,1.2,7,2.8-1.3,0-2.2.7-2.9,1.9-1.8,3.2-3.9,3.7-6.6,1.3-.9-.8-1.5-2-3-1.2-3.2,1.1-5.4,0-6.9-3h0Z"/>
      <path class="cls-61" d="M392.7,53.6c-3.1-2.1-6.4-3.9-9.2-6.3-1.9-1.6-4.4.9-5.9-1.4,1.4-.2,2.7-.6.9-2-1-.7-2.2-1.2-2.2-2.6,3.5,1.9,7.1,3.8,10.6,5.7,2.1,1.1,4,2.2,6.5.8,1-.6,2.5,0,3,.8,1.9,3,3.8,1.5,5.7.1,1.5,1.4,1.1,3.7,2.6,5.3.9.9-.5,1.9-1.4,2.5-1.1.8-2.4,1.2-3.7,1.5-1.6-2.2.9-2.1,1.7-3.3-2.9,0-5.7-.6-8.5-1h0Z"/>
      <path class="cls-186" d="M43.4,102.4c-2.3-1-5.2-.4-7-2.8,7.3,2.4,15,1.7,22.4,3.1,7.5,1.4,15.2,2.2,22.1,5.9,0,1.9-1.7,1.5-2.7,1.8-2.6,1.3-4.9.4-6.9-1.3-.7-.6-1.2-1.5-2.3-1.7-.3,0-.7-.2-1-.3-4.6-.9-9.1-1.7-13.8-2.1-.4,0-.7,0-1.1-.2-3-.8-6.3-.2-9-2.2-.2,0-.5-.2-.7-.2h0Z"/>
      <path class="cls-136" d="M115,100.7c2,.2,3.8-.2,5.1-2,1-1.5,2.6-1.4,4.1-1.3,2.4-.6,4.8-.4,7.2-.3,1.5,0,2.9.5,3.6,2.1-.5,1.9-2.1,1.9-3.5,2.1-9.6.9-18.7,3.4-27.3,7.7-1.1.5-2.5,1.1-3.8.7-.3,0-.7,0-1,0,4.2-4.7,10.2-6.3,15.6-8.9h0Z"/>
      <path class="cls-201" d="M69,152c-.1,3.5-2,6.3-3.4,9.3h0c-1.8,1.4-1.1,2.9.2,4,.9.7,2.8,1,1.8,2.4-.9,1.3-2.6.4-3.8-.4-.5-.3-.9-.8-1.4-1.2.5-2.3,1-4.5,1.5-6.8.9-2.6,1.4-5.1,1.3-7.9,0-1.7,1.4-3.4,2.1-5.2.7-1.8,1.9-3.5,1.3-5.6,1.5-1.8,2.2-.7,2.5.8.3,1.6-.7,3-.7,4.6,0,1.4,0,2.8-.3,4.2,0,.8-.7,1.2-1.2,1.7h0Z"/>
      <path class="cls-132" d="M209.3,21c-.4,2.3-2.4,2.3-3.9,2.4-4.3.2-8.5.4-12.6,2-2,.8-2.9-.7-4.1-1.7,6.5-3.8,13.3-4.9,20.6-2.7h0Z"/>
      <path class="cls-17" d="M164,71.3c-5.1,1.8-10.2,3.8-15.4,5.5-2,.7-4.3,1.4-3.7-2.3,1-1,2.1-1.6,3.5-1.9,4.6.1,8.1-3,12.3-4.2,1.2-.3,2.2-1.2,3.4-.2h.1c1,1,1.4,2.1-.2,3Z"/>
      <path class="cls-101" d="M11.5,164.2c-1.6,1.4-3.4,2.3-5.4,3-2.1-4.4-1.7-7.1,1.7-10.1,3.3-2.9,6.6-5.8,9.9-8.6.2-.3.5-.4.9-.2.4,2.5-1.5,3.6-3,5-1.4,1.2-3,2.1-3.9,3.7-.7,1.2-1.5,2.2.2,3.4,1.7,1.2.5,2.6-.3,3.8h0Z"/>
      <path class="cls-148" d="M32.2,136c-2.8,2.9-5.6,5.8-8.4,8.7-.7,1.2-1.5,2.3-3,2.3-.3,0-.6-.3-.7-.6,5.3-6.3,10.7-12.6,16-19,1.5-1.9,2.9-3.9,3.2-6.4-.2-.1-.2-.3,0-.5.3-.2.7-.3,1-.4,2.7.5,1.6,2.4,1.1,3.7-2.1,4.7-4.7,9.1-9.1,12.1h0Z"/>
      <path class="cls-93" d="M23.9,95.2c0,.2,0,.5,0,.7-1.4.8-1.5,2.3-1.6,3.6-.3,3.5-2.2,5.4-5.3,6.4-1.4-.7-2.4-1.7-2-3.4,2.4-1.5,1.2-3.9,1.6-6,2.2-2,4.4-3.3,7.3-1.3h0Z"/>
      <path class="cls-104" d="M64.8,171.8c1.5-2.1,3.9-3,6.1-3.6,2.1-.5,4.1-1,5.8-2.4,1,1.7,0,3.2-.8,4.6,0,.2,0,.5-.1.7-4.5,4.8-4.7,4.8-11,.6Z"/>
      <path class="cls-82" d="M415.5,73.5c-.6,0-1.6-.3-1.7,0-1.7,2.6-4,1.7-6.2,1-4.2.2-5-.5-4.5-4,.2-.9.6-1.6,1.4-2.1v-.2c2.7.7,5.3,1.3,7.9,2,1.7.5,3.4.9,3.2,3.3Z"/>
      <path class="cls-221" d="M230.4,262.8c3.5-.8,6.7.3,9.8,1.8,1.7.8,3,1.1,4.7-.1,2.1-1.5,4.6-1.2,7-1.5-6,5.7-16.5,4.5-21.5-.2h0Z"/>
      <path class="cls-159" d="M31.3,157.1c0-2.7,1.5-5.8-1.7-7.9-.4-1.3.4-1.3,1.3-1.2,3.5,1,4.6,3.9,5.4,7-1.7.7-3.4,1.4-5,2.1h0Z"/>
      <path class="cls-18" d="M164,68.2c-3.9.8-7.4,2.6-10.9,4.2-1.6.7-3.2,1.2-4.8,0,4.7-2.1,9.7-3.5,14.1-6.3.5.7,1.7.8,1.6,2Z"/>
      <path class="cls-214" d="M217.8,248.1c4.2.4,5.3,1.8,6.9,8.1-2.5-2.6-6-4.2-6.9-8.1Z"/>
      <path class="cls-91" d="M13,169.9c0-.1,0-.2,0-.4,1.6-3.6,2.7-4.1,6.3-3-1.9,1.5-3.3,3.9-6.4,3.4h0Z"/>
      <path class="cls-51" d="M16.6,96.6c2.6,4.3,2.5,4.7-1.6,6-.1-2.2-.7-4.4,1.6-6Z"/>
      <path class="cls-150" d="M280.6,217.2c.5,1,.1,2.4,1.3,3.2-.6,1-1.2,2-1.8,3.1-.1,0-.2-.1-.3-.2-2-3.6-1.8-5,.8-6.1h0Z"/>
      <path class="cls-186" d="M33.4,99.3c0-.2,0-.4-.2-.6,1.3-.4,2.3,0,3.2.9-.5.1-1,.2-1.5.3-.8.4-1.2,0-1.5-.6h0Z"/>
      <path class="cls-148" d="M18.4,148.5c-.3,0-.5,0-.8,0,.6-1,1.5-1.6,2.5-2.1.1.1.2.2.4.3.1,1.5-.5,2.1-2,1.8h0Z"/>
      <path class="cls-101" d="M6.3,168.7c.8.6,1.6,1.1,2.4,1.7-1.7.7-2.5.1-2.4-1.7Z"/>
      <path class="cls-227" d="M407.9,225.2c-2,9.2-6.6,16.4-15.6,20.2-2.2.9-4.5,1.8-6.5-.3-1.8-1.9-1.6-4-.3-6.1,1.8-2,2.9-4.5,4.4-6.7,3.9-6,8.7-11.1,11.9-13.3-3.9,3.1-9.6,8.8-13.9,15.8-.7,1.1-.8,2.7-2.5,2.9-1.2-.2-1.6-1.1-1.8-2.1-.7-4.8-1.8-9.6-1.1-14.6.5-3.3,2.7-5.4,4.5-7.9-1.2.9-1.7,2.8-3.6,2.4-2.2-2.4-1.2-5,.3-7.1,1.6-2.3,2.2-4.5,2.3-7.2,0-2.4.7-4.6,2.1-6.6,1.5-2.1,2.9-2,4.3,0,1.6,2.3,2.5,5,4.7,7.3-1-1.7-2.7-2.7-2.4-4.8,1.1-1.4.5-4.6,2.4-4.4,2.1.2,1.6,3.2,2,5.1.5,2.2.5,4.5,1.8,6.3.5.8.5,3.9,2.8,1,.7-.8,1.5.8,1.7,1.7,1.3,6,3.8,11.9,2.3,18.4h0Z"/>
      <path class="cls-204" d="M384.3,62.9c-.2,3.4-.9,7,3.1,9,1.2.6,2.2.9,3.4.4,3.6-1.4,4-1.2,4.9,3-3.4-.7-6.9-1.1-10.2-2.1-4-1.1-8.2-1.7-12.3-1.4-4.6.4-7.3-2.4-9.9-5.2-1.7-1.8-2.5-4.4-5.3-4.9-2.8-3.9-7.3-4.6-11.4-6.1-.7-.2-1.5-.1-2.2-.4-1.1-.4-2-1-2.2-2.2-.2-1.2.7-1.7,1.7-2.1.6-.3,1-.7,1.4-1.1,2-2.6,4.8-4.5,7.1-6.9.5-.2,1-.3,1.5,0,1.6,2,3.1,3.4,5.7,1,1.6-1.4,2.4-.2,2.3,1.6,0,1.4-.4,2.8,1.1,3.6,1.6.8,2.8-.3,3.9-1.3.6-.6,1.4-1.3,2.2-.8,1.1.6.8,1.7.3,2.6-1.2,2.5.1,3.7,2.2,4.5,1.6.6,3,1.7,4.8,1.7,1.2,0,2.2.4,2.2,1.9-.5,2.2.8,3.3,2.5,4.1,1,.5,2.1.4,2.9,1.2h0Z"/>
      <path class="cls-227" d="M380.1,247c-7.1-2.6-10.2-8.4-11.6-15.2-1.4-7.2-1.4-14.6-.7-21.9.6-.9.4-1.9.4-2.9,0-1.2.7-2.1,1.7-2.6,3.5-1.7,9.9,1.2,10.7,5,1.8,8.7,2.2,17.5,3,26.3.2,2.1.2,4.1,1,6.2,1.3,3.5-.4,5.2-4.5,5.1h0Z"/>
      <path class="cls-213" d="M330.2,92.6c6.8,6.9,12,14.6,14.5,24.1,1.1,2.1,1.7,4.1-.4,5.9-.8.7-1,1.7-.9,2.7.5,3.4-.3,6.8.3,10.2,0,.4,0,.8,0,1.1-.3,1.4-.2,2.9-.2,4.4,0,.4,0,.7,0,1.1-.3,1.3,0,2.6.3,3.8,1.1,4.4.4,8.8,0,13.2-.3,1.2-.5,2.5-1.6,3.3-4.4,2.9-5.7,2.3-6.4-3-.2-1.3-.4-2.7.2-3.9,1.9,0,2.7-.6,2.8-2.9.2-4.3-.9-8.5-.8-12.8.9-6.7-.9-13.2-1.5-19.8-.5-5.8-1-11.5-3.8-16.7-.8-1.5-1.3-3.2-3.7-4.4.8,4.7.7,8.9,1.1,13.1.4,3.8,1,7.6,1.5,11.4.2,1.4.6,2.9-.4,4.3-1,.4-1.7,0-2.3-.8-1.7-4.6-1.5-9.6-2.4-14.4-.2-1.3-.3-2.7-.6-4-.8-3.6-.7-7.3-1.4-10.9-.2-.8-.6-1.5-.7-2.3-.1-.5-.1-1.1,0-1.7,2-2.8,3-3,6.4-1.1h0Z"/>
      <path class="cls-32" d="M352.6,43.3c-.9,3.5-4.5,4.4-6.5,6.9-3.7,2.3-7.5,4.5-12.2,3.7-1.8-.4-3.7-.5-5.4-1.5-.9-.5-1.7-.2-2.6.3-5.4,3.3-11.2,5.5-17.3,7-.1-.1-.2-.3-.4-.4,3.1-3.8,5.5-8.4,11.1-9.7,7-1.6,13.6-3.9,18.4-9.9,3.4-4.2,3.9-4,8.1-.8,2.2,1.6,4.8,2.5,6.8,4.4h0Z"/>
      <path class="cls-170" d="M407.9,225.2c-.1-6.6-2.2-12.9-3.9-19.3,0,1.3,0,2.6,0,4.3-5-4.9-5.8-10.8-6.3-17-1.8.9.5,4.1-2.5,4-1.4.4-1.4-.9-1.9-1.6-1.9-3.2-3.1-6.6-2.6-10.2-1.9,2.1-3.6.2-5.4-.4-1-2-2.2-1.1-3.5-.2-2.8-.5-5.7-.5-8.5-1.6-2.1-.8-4.6-1.5-7.4-.6-2.6.9-5.5.5-6.3-3.2-.2-1.1-.4-2.2,0-3.4.9-1.7,2.4-2.1,4.1-1.7,3.8.8,7.8,1.4,11.3,3.4,2.1,1.2,4.3,1.7,6.7,1.2,4.9,1.8,10.4,1.9,14.5,5.7,1,.9,2.2,1.8,2.3,3.2.5,5.1,3.3,9.2,5.7,13.4,1.8,3.1,3.1,6.4,3.6,10,.1,1,.6,1.9,1.3,2.6.2,1.2,1.7,2.3.4,3.7-.5,2.5-1,5.1-1.6,7.6h0Z"/>
      <path class="cls-30" d="M380.1,247c5.6-1.2,5.5-2.9-.7-9.8,1.2-.9,2.3,1.2,3.4.1,1-1.1.3-2.4.1-3.5-1-7.7-2-15.3-3.1-23-.5-3.9-5.4-6.9-9.1-5.8-1.3.4-1.8,1.2-1.7,2.5,0,1,.1,2-1.1,2.4-.5-3.6-1.1-7.3-1.6-10.9,1.8-2.3,4-3.6,7.1-3.5,2.4,0,4-1.6,5.5-3.2.9-1,1.7-2,2.6-3,1.7,1.8.1,3.2-.7,4.6-2,3.4-1.9,6,.7,9,1,1.1.8,2.2.9,3.4.2,3-.7,6.1,1.2,8.9,2.4-1.2,3.1-4.5,6.5-5-.5,2.2-2,3.6-3.2,5-2.2,2.5-3.5,5.4-3.2,8.6.3,4.6.2,9.2,2.3,13.5.6.2,1.3.5,1,1.4-2.1,5.6-.6,7.3,5.7,6.7-3.7,3.7-8,2.4-12.2,1.6h0Z"/>
      <path class="cls-36" d="M299.2,67c-.2,2.3,2.2,2.5,3.2,3.9,3.4,2.7,3.8,6.6,4.1,10.5.2,2.9,1.6,5.9-.7,8.6-2.3,2.2-4.4,4.5-6.9,6.5-1.9,1.5-3.9,2.3-5.6-.2-1.1-2.1.6-4,.3-6,0-.5-.1-1.1-.1-1.6,0-.5,0-1.1.2-1.6.7-1.1.7-2.4.4-3.6-.2-1.5-.6-3.1-.4-4.7,1.1-3,0-6.1.4-9.1,1-2.2,2.1-4,5-2.7h0Z"/>
      <path class="cls-226" d="M342.8,136.4c-.3-4.2-.6-8.3-.9-12.4,0-.8,0-1.8.7-2,3.1-.9,2.3-3.2,2.1-5.3,3.3,4.2,4.2,9.3,5.1,14.4.4,1.6.7,3.3.7,5-.1,5.5-.2,10.9-.3,16.4.2,1.9,1.4,3.7.8,5.7-.9,2.6-1.9,5.3-1.7,8.1-.3,1.8-.8,3.5-.7,5.4,0,1.5-.5,2.9-1.8,3.8-1.1.8-2.8.9-2.8-.7-.2-3.8-2.7-7-2.9-10.7,0-.8,0-1.6.7-2.2.3-.8.7-1.7,1-2.5,1,.3,1,1.5,1.8,2.2,0-6.9.4-13.4,2-19.9.6-2.5-.4-5.1-1.2-7.5-1.8,0-1.1,2.4-2.7,2.1h0Z"/>
      <path class="cls-15" d="M381.5,179.7c-2.3,1.2-4.3.5-6.5-.6-4.6-2.3-9.4-4.4-14.8-3.2-.4-.1-.6-.4-.8-.7-.2-.5-.3-1.1-.3-1.6,0-.4.2-.7.4-1,.2-.3.5-.6.8-.7,5.3-1.2,6.7-5,6.9-9.7.2,0,.4,0,.6,0,2.7.6,5.3.6,7.7-1.4,1.2-1,3.2-1,4.9-.3,1,.4,2,.8,3,1.2,1.3,2.2-.5,3.1-1.8,3.9-1.6,1.1-2.7,2.4-2.7,4.4-.4.8-1.5,1.1-.8,2.6,1.1,2.3,2.9,4.4,3.3,7.1h0Z"/>
      <path class="cls-98" d="M381.5,179.7c-3.6-2.2-2.8-7.2-6.4-9.3,1.1-1.9,2.6,1.1,3.5-.7,2.8-.3,3.4,1.9,4.2,3.7,2,4.7,6.3,5.8,10.1,2.2.6-.5.9-1.5,2-1.4.5,1.1,1,2.3,1.5,3.4.4,1.3,1.3,2.4,1.7,3.7.6,5.2,3.1,9.7,5.1,14.4,2.4,5.7,4.5,11.5,6,17.4.6.8,0,.8-.5.8-1.6-1.2-1-3.2-1.6-4.7-1.6-4-3.7-7.7-6-11.3-1.6-2.5-3.1-5.1-3.2-8.2-.1-4.3-3.8-6.6-6.4-7.1-3.6-.6-6.5-2.6-9.9-3.1h0Z"/>
      <path class="cls-11" d="M330.2,92.6c-2,.2-4.2-1.4-5.9.8-2.4,0-4.4.7-6.2,2.4-1.2,1.2-2.8,1.9-4.4,2.6-4.3,1.9-6.6.7-7.4-4,.3-2.7.5-5.5,3.6-6.7,1.8.8,1.1,2.5,1.4,3.8.4,1.7,1.3,1.6,2.3.6,2-2,1.4-4.1-1.5-4.8-.7-.2-1.4-.4-1.8-1.1-.2-.5-.2-1.1-.1-1.6,1.2-2.1-.8-4.6.9-6.6,5.1,3.6,10.2,7.2,15.3,10.9,1.5,1,3.2,1.9,3.9,3.7h0Z"/>
      <path class="cls-23" d="M394.8,174.3c-1.8,5.6-8.4,5.3-11.6,3.1-.7-.5-1.5-1-1.3-2,.5-2.8-1.6-4.1-3.4-5.6-1.2-2.4.2-3.7,2-4.7,1.5-.8,2.6-1.6,2.8-3.4,6.8,1.6,8.8,7.3,11.4,12.7h0Z"/>
      <path class="cls-117" d="M299.2,67c-2.3,0-3.5,1.7-4.9,3.2-1,2.2-2.7.8-4.1.8-3.7-.8-7.1-1.9-9.1-5.5-1.3-2.2-1.1-4,1.2-4.2,2.9-.3,3.9-2.2,4.9-4.3.7-1.5,1.1-3.3,3-3.9.6,0,1,.3,1.4.8.1.3.2.7.2,1.1-.4,1.4-.8,2.8-1.3,4.2-1.2,3.4-.5,4.2,3.2,4.4,2.7.1,5.5-1.6,8.2.2.3.6.2,1.1-.2,1.6-.8.6-1.7,1.1-2.5,1.7h0Z"/>
      <path class="cls-42" d="M367.2,162.1c2,3.9-.2,8.6-4.7,9.8-.9.2-1.8.7-2.7,1-1.1-.5-1.2-1.5-1.1-2.5.3-1.2,1.5-1.8,2.2-2.8,1.7-2.3.9-4.2-1.9-4.6-1.2-.2-2.4.2-3.4-.8-.2-3.9.8-4.5,5.7-3.6,2.2.7,4.2,1.8,5.8,3.5h0Z"/>
      <path class="cls-215" d="M333.8,53.9c4.1-1.2,8.1-2.5,12.2-3.7,0,.6-.2,1.2-.8,1.5-.8.4-2.4,0-2.1,1.4.3,1.3,1.7,1.6,3,1.5,4.1-.1,7.1,2.8,10.8,3.8,1.2.3.8,2.2,1.1,3.3-7.9-3.2-16-5.5-24.2-7.9h0Z"/>
      <path class="cls-152" d="M361.4,158.6c-1.8,1.1-5.9-1.1-5.2,3.6,0,.4,0,.7-.4.9-.4,0-.7,0-1-.2-1.4-1.7-3.5-2.6-4.8-4.5.2-2-.9-4,0-6,.7,1.7,2.4,2.1,3.8,2.5,2.7.7,5.2,2,7.5,3.6h0Z"/>
      <path class="cls-38" d="M311,78c-.3,2.3,2,4.6-.3,6.8-.4,0-.6-.2-.8-.5-.4-1-.3-2.2-.9-3.1-.4-.6-.9-1.3-1.6-.3-.4.5-.8.9-1.5.8-.5-3.8-1.4-7.5-3.3-10.8,3.2,2,6.5,3.8,8.6,7.1h0Z"/>
      <path class="cls-42" d="M380.5,160.4c-2.7.3-5.1.8-7.1,3.1-2.2,2.5-3.7-.6-5.5-1.4,4.1-1.1,8-4.2,12.6-1.7h0Z"/>
      <path class="cls-32" d="M301.8,65.3c0-.6-.2-1.1-.3-1.7.8-2,2-3.6,4-4.7,1.1-.3,2.1,0,3,.7h0c-2.1,2.1-3.8,4.6-6.8,5.6h0Z"/>
      <path class="cls-133" d="M408.6,214.1c.2-.3.3-.6.5-.8,1.3,1.4,1.9,2.8.3,4.4-.3-1.2-.6-2.3-.8-3.5h0Z"/>
      <path class="cls-133" d="M350.5,136.1c-.2-1.7-.5-3.3-.7-5,1,1.6,1.2,3.2.7,5Z"/>
      <path class="cls-133" d="M398.1,181.4c-1.1-1-1.5-2.3-1.7-3.7,1.2,1,1.7,2.2,1.7,3.7Z"/>
      <path class="cls-59" d="M219.3,136.3c-1.2,0-2.3,0-3.5,0-13.5-3-25.3-10-37.4-16.4-.7-.4-1.2-.9-1.1-1.7.5-1.3,1.7-1.4,2.7-1.2,2.5.4,3.8-.9,5-2.8.9-1,1.1-2.2.5-3.4-1.3-2.6,0-5.3-.2-7.9,0-.9.5-1.8,1.5-1.8,1.1,0,1.3.9,1.6,1.7.2.5.2,1,.3,1.4.8,3.3,2,4.1,5.1,3,1.4-.5,2.6-.9,4.1-1.1,3.1-.3,2-2.9,2-4.8,2.9-1.3,6.1-.9,9.1-1.5,2.3,2-.6,2.7-1,4-.3.4-.7.7-1.2,1-1,.4-2,.7-2.9,1.5-2.5,2-2.6,3.5-.7,6.1.8,1,1.8,2,1.9,3.4-.2.5-.5.9-1,1.1-1.5.1-2.4-.9-3.4-1.8-.6-.6-1.1-1.3-1.8-1.8-2.1-1.7-4.5-2.5-7.2-1.7-1.1.3-1.2,1.3-.9,2.4.9,3.3,3.4,6.1,6,6.2,2,.1,4.2-.4,5.9,1.2,3.5,1.5,7.2.6,10.8,1.1,1.3.2,1-1,.9-1.8-.2-1.5-.3-3,1.6-3.6,2.5,1.2,4.6.5,6.5-1.2,1-.9,2-1.7,3.3-2,2.7-.1,2.8-3.6,5.2-4,2.6-.7,5.2-1.1,7.9-1.1,1.7.2,2.6,1.2,2.4,3-.3,1.3-1.3,1.8-2.5,1.9-4.5.3-8.2,2.8-12.2,4.4-1.9.8-2.3,1.7-1.9,3.6.7,3.3,1.6,6.6,1.3,10.7,1.3-1.3.8-2.2.5-3.1-.7-2.2-1.4-4.4-1.7-6.8-.2-1.7-.5-3.6,1.4-4.1,1.7-.4,3.4-4.2,5.3-.4,4-.9,2.9,1.6,2.1,3.9,3-.6,4.4,1.2,5.9,3,3.4-1.5,6.8-2.5,10.5-2.9,1.6-.2,3,0,3.6,1.7.6,1.6-.5,2.6-1.6,3.3-3.4,2.2-6.9,4.2-9.9,6.9-2.5,1.9-5.3,2.8-8.4,3-1.2.3-2.3.3-3.5.5-.7.2-1.5.2-2.3.3-.4,0-.8.1-1.1.2-2.7.4-5.3,0-7.8-1.2h0Z"/>
      <path class="cls-19" d="M81.1,154.8c.4-1.7,1.5-3.4.9-5.3,2.1-4.2,3.3-8.8,6.2-12.6,3.8-1.1,7.2-.7,10.1,2.2.5.5,1.2,1.1,1.9,1.1,4.2-.2,7.1,3,10.7,4.2,2.2,5.8,1.8,7.4-2.8,11-2.2.7-4.4,1.4-6.6,2.1-2.4.4-4.7,1.9-7.3.9-4.7,0-8.8-2.4-13.2-3.4h0Z"/>
      <path class="cls-39" d="M177.8,117.7c5.3,4.1,11.5,6.6,17.4,9.7,6.7,3.5,13.8,5.8,20.6,8.8-3.2.2-6.3-.8-9.3-1.7-8.1-2.5-16.8-2-24.8-4.6-3.4-1.1-6.8-2.1-10.2-3-2.7-.8-4.9,0-6.8,2.2-1.5,1.7-3.3,3.1-5,4.7-.3.3-.6.4-1,.2-.7-2.3,1.3-3.7,1.9-5.6.6-1,1.3-1.7,2.1-2.5,2.3-2,3.1-4.5,2.6-7.5-.3-1.7-.7-3.4.2-5,.6-.6,1.3-.8,2.1-.8,3.6,1.3,7.6,1.8,10.1,5.2h0Z"/>
      <path class="cls-40" d="M161.2,129c-.2,1.9-1.8,3-2.3,4.7-1.4,2.9-4.7,3.5-6.8,5.6h-.1c0,.1-.2,0-.2,0-1.1.3-1.7,1.1-2.4,1.8h-.2c0,.1-.2,0-.2,0-1.1.4-2.3.8-3,1.9h0c-1.1.8-2.7.6-3.5,2-4,2.5-8.3,4.4-12.6,6.3-1.1.6-2.6.1-3.6,1-3.4.8-6.7,1.6-10.1,2.3-1.2.4-2.4.6-3.6.5-1.5,0-2.9,0-4.4,0,.8-1.2,1.6-2.4,2.3-3.6.8-1.3,2.1-2.5.2-4.1-1.2-1,.9-1.9.3-2.9,0-3,2.1-5.1,3.2-7.7.3-.7,1.1-.9,1.9-.7,2.7,2.8,1.2,5.7.4,8.6-.4,1.3-1.9,2.8-.6,4,1.1,1,2.9.3,4.3,0,6.2-1.6,12.2-3.9,17.8-6.8,6.5-3.4,13-7,18.7-11.7,1.2-1,2.6-2.5,4.6-1.5h0Z"/>
      <path class="cls-50" d="M219.3,136.3c2.6,0,5.2.2,7.9.2.4,1-.1,1.8-.8,2.2-5.9,4.2-6.8,10.7-8.1,17.1-1.2,5.9-1.3,11.9-1.7,17.8-.1,2,1.3,2.7,2.2,3.9.3,3.1.2,6.1-2,8.6h0c-2.2,0-3.2-1.4-3.4-3.4-.2-1.6-.5-3.1-.6-4.7-.2-2.7-1.3-1.9-2.6-.7,1.5-11.4,3.2-22.8,6.8-33.8.8-2.4,3.3-4.4,2.4-7.4h0Z"/>
      <path class="cls-47" d="M152.1,139.3c1.4-2.9,4.7-3.5,6.8-5.6h.9c-2,2.5-4.8,4.2-7.6,5.6h0Z"/>
      <path class="cls-47" d="M142.5,145c.1-2.5,2.2-1.6,3.5-2-.8,1.2-2.1,1.8-3.5,2Z"/>
      <path class="cls-47" d="M149.4,141.2c0-1.7,1.2-1.8,2.4-1.8-.5,1-1.2,1.7-2.4,1.8Z"/>
      <path class="cls-133" d="M112.6,155.2"/>
      <path class="cls-133" d="M116.2,154.7"/>
      <path class="cls-133" d="M126.3,152.4c1.1-.8,2.4-.9,3.6-1-1,1.1-2.4.8-3.6,1Z"/>
      <path class="cls-47" d="M146,143.1c.4-1.6,1.6-1.9,3-1.9-.6,1.3-1.8,1.5-3,1.9Z"/>
      <path class="cls-214" d="M278.2,188.5c.5,1.8-.7,3.3-1.2,4.9-3.3,10.2-5.1,20.8-8.5,31-3,9-6.8,17.6-10.5,26.3-1.2,2.9-5.7,4.4-9.7,3.3-2.8-.7-5.2,0-7.9.5-4.6,1-9.3,2.3-14.1,1.5,10.6-3.4,11.3-12.5,11.9-21.4.7-10,1.7-19.9,3.4-29.8.9-5.2,1.9-10.6.9-16-1.2-.9-1-2.1-.9-3.3.6-4.7,1.2-9.3,2.2-14,.9-2,.8-4.1.5-6.2,0-.4,0-.8,0-1.2.4-1.7-.2-3.3-.3-5,0-1.4-.2-3,1.9-3.1,2,1.2,1.9,3.4,2,5.3,1.1,14,2.8,27.9,2.7,42,0,2.8-.7,5.6-.7,8.5,0,1.6-.2,3.2.5,4.7.8,0,1-.7,1.1-1.2,1.1-5.2,4.4-8.5,8.5-11.5,5.1-3.6,8.8-8.9,13.4-13.2,1.3-1.2,2.3-3.1,4.6-1.9h0Z"/>
      <path class="cls-29" d="M226,204.5c-2.4-1-1.9-2.8-1.2-4.6,2-5.1,3.4-10.4,3.7-15.9,0-2.8,2.5-4.7,2.8-7.5.9-3.3.2-6.6.4-9.9,0-1.3-.3-2.7,1.2-3.6,1.2,1.4,1.9,4.7,2.2,10,1.7-5.7.5-11,2.2-15.9,1.4-2.5,2.4-5.2,2.1-8.5-1.2.8-.9,2-1.5,2.8-1.2,1.3-1.8,3.3-3.9,3.6-2.4-.5-4.6-1.3-5.1-4.1-.7-2.7.3-5.1.9-7.6.9-1.7,1.1-3.9,3.5-4.3,4.3.6,7.9,2.4,11,5.4.2.4.3.7.3,1.1-.5,4.8,0,9.6-.5,14.4,0,1,.2,1.9,0,2.9-.3,1.2-1,2.4-.7,3.7,0,2.8-.6,5.5-1.5,8.2-.5.8-1.2,1.3-2.1,1.7-2,1.2-2.5,2.9-2.6,5.3-.2,3.5-2.2,6.7-3.5,10-1.6,3.2-3.2,6.3-4.8,9.4-.7,1.3-1.1,3.1-3.1,3.2h0Z"/>
      <path class="cls-33" d="M226,204.5l7.2-12.9c2.6.4,1.4,2,1,3.2-1,3.1-2.4,6.2-3.4,9.8,2.8-7.3,4.9-14.3,6.4-21.5.2-1.2.2-2.5,1.7-3,.6,0,1,.3,1.4.7,1.5,2.8,0,5.5-.5,8.2-.5,2.4-1.2,4.8-1.8,7.2-.3,1.3-.7,2.7.8,3.6.4,2.3-.5,4.4-2.2,5.6-4.9,3.3-5.4,8.5-6.4,13.5-1.5,7.3-3,14.6-4.6,21.9-.4,2-1.3,3.9-3.3,5.6-1.7-5.1-1.5-10.2-1.5-15.2,0-2.9.4-5.8.2-8.8-.3-3.4,1-6.5,2.5-9.5,1.3-2.7,1.9-5.5,2.5-8.4h0Z"/>
      <path class="cls-183" d="M216.8,186.3c.6-2.9,1.1-5.7,1.7-8.6-.9-1-1-2.2-.8-3.5.8-5.1,1.6-10.2,3.7-14.9.9-1.3.7-3.6,3.2-3.4,2.1,2.4,1.9,5.2,1.1,7.9-1.5,5.6-1.9,11.3-3.3,16.9-.4,1.5-.2,2.4,1.5,2.3.3.5.4,1,0,1.5-.8,1.4-1.4,2.9-.9,4.6-.6.7-.7,1.6-1.1,2.4,0,2.5-.4,4.8-1.3,7.1-.3.8-1,1.5-2,1.3-1.2-.3-.6-1.3-.8-2.1-.6-3.9,1.2-8-1.2-11.6h0Z"/>
      <path class="cls-118" d="M238.7,199.9c-4.2,1.2-2.3-2-2.1-3.3.9-4.2,2.2-8.4,3.2-12.6.2-.9,0-1.9,0-2.9-.2-1,0-2,0-3,0-1.3.8-2.2,1.3-3.2,0-2.8,1.5-5.5,1.1-8.4.3-1,.4-2.2,1-3.1,0-1-.2-1.9-.3-2.9.9-.7,1.6-.5,1.8.6.2,1.2.7,2.4.2,3.6,0,.2,0,.5,0,.7-.3,2,0,4.1-.6,6.1-.7,5.8-1.5,11.6-2.2,17.4-1.5,3.6-1.8,7.6-3.7,11h0Z"/>
      <path class="cls-162" d="M224,184.6c0-.5-.2-1-.2-1.5-1.2-1.3-.6-2.8-.3-4.2,1.7-8,3-16.1,4.2-24.2.2-1.5.2-3.3,2.2-3.8-.2,3.1,3.2,2.2,4.3,3.9.3.6,0,1-.4,1.3-1,.7-1.6,1.7-2,3-1.2,4.9-1.2,10-1.9,15-.2,1.8,1,2.6,2.1,3.5-.9,2.3-2,4.5-3.6,6.4-1.2-.6-1.4-1.9-2.2-2.9-1.6.6-1,2.6-2.2,3.5h0Z"/>
      <path class="cls-162" d="M222,191.6c-.2-1.1-.3-2.1,1.1-2.4.1,1-.3,1.8-1.1,2.4Z"/>
      <path class="cls-175" d="M244,145.4c0-.2,0-.4-.1-.6,3-1.7,4.8-1.2,6.6,1.7-1.2,2.6-1.1,5.4-.3,7.9,1.8,5.5,2.2,11.3,3,17,.4,2.8,1.3,5.5,2,8.2.2.9.1,1.8-1.1,2-1,.1-1-.7-1-.7,1.4,2.7.3,6.5,1.4,10.6,3-5.6,2.4-11.3,3-16.7,0-.4,0-.8.2-1.2,1-6.8-.4-13-3.6-19.1-1.3-2.5-4.3-4.3-3.4-7.7,1.9-2.2,4-1,6-.3,3.9,1.8,8.1,2.8,11.9,5,.9,5.2,1.1,10.5,3.4,15.4,1,2.1,1.9,4.2,3.5,6,2.5,2.7,4.1,5.8,4.2,9.5.3,2.2-.4,4.2-1.4,6.2-4.2,1.8-6.4,5.8-9.6,8.8-3.3,3.1-6.1,6.7-10,9.1-3.2,1.9-4.9,4.9-5.6,8.7-.3,1.7-.6,4.5-2.6,4.3-1.8-.2-1.1-2.9-1.4-4.5-.7-4.4.9-8.7.6-13.2-.5-6.6.1-13.2-.7-19.7-1.1-8.5-1.1-17.1-2.6-25.6-2.2-3.3-1.9-7.2-2.2-10.9h0Z"/>
      <path class="cls-212" d="M279.6,182.3c-2.2-3.7-4.4-7.4-6.7-11-3.2-5-5.6-10.9-4.8-17.3.1-.9-.2-1.9-.2-2.9-1.3-1.1-.9-2.5-.7-3.9.9-2.4.3-5.4,2.5-7.3,1.4-.7,1.7-2.2,2.2-3.5.6-1.6,1.2-3.5,3.5-3.4,1.4,2.1,0,4.1,0,6.1-.8,3.1-.4,6.3-.9,9.4.3,6.6.7,13.1,3.1,19.3,1,2.7,1.4,5.7,2.9,8.3,1.6,9,8.1,13.5,15.7,16.9,3.3,1.4,6.7.2,9.4-1.7,3.1-2.2,6.2-4.2,9.5-6.1.4-.4.9-.6,1.4-.8,6.2-2.9,11.8-6.8,18-9.7,1.5-.7,3-2.1,4.3.3-.3,2.3-.7,4.5-3.4,5.3-1.7-1.1-3.2-.5-4.8.4-4.3,2.3-8.3,5.3-13.5,7.9,2.4.3,3.7-.4,5-1,1.6-.7,3.1-1.6,4.8-.2.2,1.9-1.3,2.5-2.6,3.2-2.3,1.2-4.8,2-7.4,2.2-3.8.2-6.1,2.8-8.6,5.2-1.4,1.3-.3,1.9.9,2.1,2.4.4,4.6,0,6.8-1,2.6-1.1,5-2.6,7.4-4,4.4-2.6,9-4.4,13.9-5.6,1.4-.4,2.9-.9,4.2.4,1.5,3,.2,5.4-1.6,7.8-4.8-4.3-9-.6-13.3,1-6,2.3-11.6,5.8-18.2,6.4-3,.2-5.2-1-7.6-2.1-1.1-.5-1.8-1.5-1.1-2.7,1.4-2.5.1-2.6-2-3.1-8.1-2-13.8-7.4-18.1-14.4h0Z"/>
      <path class="cls-54" d="M360.4,179.2c1.6,3.5,5.8,3.7,8.3.6,3.8,3.5,9,2.8,13.4,4.2.9,1.1,1.5,2.2-.3,3-3.4-.4-5.7,3.4-9.3,2.2-.3,0-1,.7-1.2,1.2-2.9,5.8-9.1,6.8-14.1,9.6-1.2.7-3.3,1.1-3-1.7-.1-1.6,1.8-2.9.9-4.6,0-3,1.6-5.5,2.4-8.3.4-1.5,1.1-2.9,1-4.5.3-1,.8-1.8,2-1.7h0Z"/>
      <path class="cls-149" d="M359.2,181.2c-.3,4.5-1.8,8.6-4.1,12.5-3.4,4-10.7,5.7-15.2,3.5-.5-2.7,2.3-4.8,1.2-7.6,1.5-1.9,3.7-1.6,5.7-1.9,2.4-.4,4.3-1.1,5.9-3.1,1.5-1.9,3.4-3.9,6.5-3.4h0Z"/>
      <path class="cls-214" d="M280.6,217.2c-2.4,1.7-.2,4.1-.8,6.1-1.5.9-2.9,1.9-4.4,2.7-.9.5-1.7,1.6-2.9.7-.9-.7-.7-1.7-.4-2.7,1-4.1,1.8-8.2,3-12.2.4-1.5-1.1-3.7,1.4-4.5.5-.4.9-.5,1.3,0,.2.8.3,1.7.5,2.5.9.9.9,2.3,1.7,3.3.2,1.3.4,2.7.5,4h0Z"/>
      <path class="cls-84" d="M277.6,199.5c.2-4,1.5-7.8,3-12.1,1.6,2,3,3.6,4.4,5.3-.7,2.5-1.7,4.8-2.8,7.1-1.3,2.6-3,2.4-4.6-.3h0Z"/>
      <path class="cls-225" d="M277.6,199.5c1.8,1.8,3,2.1,4-.9.7-2.1.6-4.9,3.4-6,1.2-.3,1.4,1,2.1,1.4.3,4.3-3.7,6.6-5.1,10.2-.5,1.2-1.8.8-2.2-.2-.6-1.3-1.4-2.3-2.7-2.8-.2-.7-.3-1.3.5-1.7h0Z"/>
      <path class="cls-193" d="M277.8,207.4c-.4,0-.9,0-1.3,0,0-1.6-1.9-3.4.5-4.7,1.3,1.4.4,3.2.8,4.7h0Z"/>
      <path class="cls-78" d="M188.5,28.1c.5-2,2.3-1.6,3.6-1.8,5.3-.8,10.7-1.4,16.1-2.2,5.1.2,8.5,2.7,10,7.6.2.2.3.3.3.6s0,.3,0,.3c-1.7,2.6-3.8,3.1-6.6,1.6-2.3-1.3-4.9-2.3-7.3-3.5s-5.2-1.6-6.9-2.3c4.2.8,8.7,3.2,13.2,5.4,2.5,1.2,3.1,3.2,1.9,5.8-.3.7-.6,1.3-.7,2.1-.3,1.3-1,2.5-1.8,3.5-.5.7-1,1.3-1.6,1.9-.6.6-1,1.4-1.6,2-.4.5-.7,1-1.1,1.5-1.9,2.8-3.4,5.9-7.8,5.7-5.5-.2-10.5-1.2-13.9-6.1-1.3-1.8-1.8-3.7-1.3-5.9.5-2.2,1.1-4.3,1.5-6.5,0-.4.2-.7.3-1,1.1-2.6,3-4.9,3.8-7.7,0-.3,0-.6,0-.9h0Z"/>
      <path class="cls-56" d="M237.3,47.1c-.9-.8-.8-1.9-.9-2.9,1.7-3.8,4.4-7,6.3-10.6.9-1.8,2.6-2.1,4.4-1.1,1.4.8,3,1.1,4.4,1.8,1.5,1.3,3.2,2.2,5.1,2.8,1.4.4,2.9.7,3.5,2.4,0,2.3-.4,4.4-2.2,6-2.4,1.5-4.4,3.5-6.8,5-1.9.9-3.6.6-5.5-.2-2.6-1.2-5.2-2.5-8.1-3.2h0Z"/>
      <path class="cls-111" d="M236,59.1c2.9-2.9,2.3-6.4,1.7-9.9,1.8-.2,1.8,1.3,2.2,2.4.6,2,.8,4.1.9,6.2.1,1.2-.2,2.4-.2,3.6,0,1.6.3,2.7,2.3,3.1,4.7.9,4.9,1.5,2.9,6-.2.3-.2.7-.3,1-.5,1.3-1.5,2.1-2.6,2.8-1.1.7-2.3,1.4-2.1,3,.4,4.5,0,8.8-1.8,13-1.4,1.4-2.1,3.9-4.8,3.5-1.1-4.4.6-8.6,1.6-12.8.3-1.4,1-2.8.2-4.2.1-2.7.3-5.3-.2-8-.4-2.4-1.2-4.5-3.4-5.7-1-1.6.6-2.4,1.1-3.5.8-.8,1.6-1,2.6-.5h0Z"/>
      <path class="cls-165" d="M236,59.1c-.8.2-1.6.2-2.1,1-4,2.5-4.2,2.4-6.4-1.5-3.2-5.7-6.8-11.3-10-17-1.9-3.4-2.3-6.3.7-9.2,0-.2,0-.5,0-.7,2.8,3.7,3.7,8.4,6.1,12.3,3.3,5.5,5.9,11.5,11.7,15.1h0Z"/>
      <path class="cls-74" d="M234.5,47.5c0,.9.8,2.2-.7,2.7-1.2.4-2-.6-2.7-1.4-4.2-4.3-6.9-9.7-10-14.8-.5-.8-.8-1.7,0-2.4.7-.6,1.5-.5,2.4-.1,3.8,1.8,10.5,11.3,11.1,15.9Z"/>
      <path class="cls-131" d="M251.4,34.7c-1.4.3-2.8,0-3.8-.8-2.6-2.2-3.7-.5-4.9,1.6-1.8,3.1-3.2,6.6-6.3,8.8-.1-.3-.2-.6-.4-.9-.9-2.1.8-3.4,1.6-4.9.6-1.2,1.5-2.2,2-3.4-3.1-.5-3.8,3.1-6.3,3.6-.7-.9-1.3-1.8-2-2.7.3-3.1,2.7-5.3,4-7.9.6-1.3,2.2-.6,2.4.7.4,3.5,2.4,2.1,4.1,1.5,2.4-.9,4-2.8,5.6-4.6,1.1-1.2,2-2.5,3.4-3.4,1.1-.4,1.8-1.8,3.2-1.5,1.4,1.7,0,2.9-.9,4.2-.6.9-1.5,1.6-2.2,2.4-1.8,2-1.7,3.9.3,5.6.4.3.5.8.5,1.3,0,.2-.2.3-.2.5h0Z"/>
      <path class="cls-231" d="M251.3,22.8c-3.4,3.4-5.8,7.7-11,9.1-3.2.8-4.5,1-3.1-2.7,0-.3-.2-.7-.6-1.9-1.6,3.5-2.8,6.5-5.2,8.7-1.8-1.3-1.5-2.6-.3-4.4,2.4-3.7,5.4-6,9.9-6,2,0,3.9-.7,5.4-2.1,1.6-.8,3.1-1.8,5-.7h0Z"/>
      <path class="cls-161" d="M239.8,58.7c-.9-3.1,0-6.6-2-9.5-.1-.7-.3-1.4-.4-2.1,0-.9.3-1.3,1.4-.8,2.5,1.1,5.1,1.9,7.4,3.3,1.6,1,2.9.9,4.4.2-.7,3.3-1.7,3.8-5.2,2.6-.6-.4-1.1-.9-2.2-.9.9,0,1.5.3,2,.7,1.6,3.3-1.2,6.8-5.3,6.5h0Z"/>
      <path class="cls-24" d="M233.3,38.7c1.3-3.5,4.1-4.8,7.8-5.1-.6,3.9-4.1,6.2-5.1,9.8-1.3-1.4-2.4-2.8-2.7-4.7h0Z"/>
      <path class="cls-145" d="M251.3,22.8c-1.7.2-3.3.5-5,.7-.8,0-1.6.1-2.4.2,4.3-1.8,8.9-3.1,12.6-6.1.8,0,1.5-.2,2.3-.3.3.8,0,1.3-.5,1.9-1.3.8-2.6,1.5-4.2,1.5-.9.7-1.9,1.3-2.8,2h0Z"/>
      <path class="cls-87" d="M40.1,120.7c-.3,0-.6-.1-.9-.2-.4-3.8,3.8-3.9,5.1-6.3-.2-2,1.5-2.6,2.5-3.8,1.2-1.4,2.4-2.8,3.2-4.5.7-1.5,1.7-2.4,3.5-2,.2,0,.4.1.6.2.6.6.4,1.3.3,2-.3,1.4-1.5,3,0,4.1,2.2,1.6,4.8,3,7.5,3.6,1.2.3,1.4-1.5,2-2.3,1.5-1.9,1.6-5,4.9-5.1h0c2.3,1.3,1.2,2.7.2,4.2-2.3,3.5-2.3,3.5,1.7,4.5.8.2,1.7.4,2.4.8,2.1,1.2,3.8,1.2,5.4-.9.8-1,1.9-1.5,3.2-.8,0,.3,0,.5,0,.8-.6,1.6-1.4,3.1.4,4.6,1.5,1.4.8,2.3-1,2.6-3.3.5-7.2,5.2-7.1,8.4,0,1,.5,1.3,1.3,1.3,1.2,0,2.5-.2,3.6.4,1.8,1.4.7,2.3-.7,2.7-2.5.6-5.1,1.4-7.8.9-2.4-1.7.1-3.6,0-5.4-.8-2.9,1.6-4.6,2.6-6.9,1.2-2.9,1-3.8-2.1-4.7-3.7-1.1-6,0-7.7,3.4-.5,1.1-1,2.2-1.3,3.4-.3,1.1.6,1.4,1.3,1.9.9.6,1.9,1.1,1.5,2.5-1.9,1.1-3.4,0-5-.7-1.1-.5-2-1.4-3.2-.4-.8.4-1.7.7-2.5,0-.7-1.3.1-2,1-2.8,3.1-1.1,3.7-4,4.9-6.6.3-.7,0-1.4-.4-2.1-2.5-3.6-8.6-4.6-12.1-1.8-2.2,1.8-4.2,3.8-7,4.6h0Z"/>
      <path class="cls-16" d="M60.8,126.2c1.9-9.4,5.3-9.6,12.3-7.2,2,.7,2.9,1.9,1.3,4.2-1.7,2.3-2.8,5.1-4.2,7.6-.5,0-.9.2-1.4.3-2.1-2.5-5.7-2.7-8.1-4.8h0Z"/>
      <path class="cls-78" d="M55.8,128.3c1.1-1.3,2.2-1,3.4,0,1.5,1.2,3.3,2,5.3,2,1.6,1.2,1.2,3.7,3,4.9-.8,3.6-3.1,5.1-6.3,3.3-2.6-1.4-5.4-1.3-7.9-2.4-.5-.3-.7-.7-.9-1.2-.6-3.1,2.8-4.1,3.4-6.5h0Z"/>
      <path class="cls-236" d="M70.4,136.1c2.2-1.8,5-1.3,7.5-1.7,2.2-.4,1-.9.2-1.5,1-1.4,2.2-1.3,3.5-.5.8.5,1.2,1.3.9,2.2-.4,1.4-1.6,1.4-2.7,1.5-2,.2-2.9,1.5-3.4,3.3-.5,1.9.6,2.6,2.1,3.2,1.2.5,2,1.4,1.8,2.8,0,.4-.3.7-.6,1-3.4,0-6.9.7-10.2-.4-.7-1.5.8-2.4.8-3.7s0-2.3-1.7-1.6c-.7-.4-1.5-.9-.1-1.3,1.8-.5,2.2-1.7,1.9-3.3h0Z"/>
      <path class="cls-161" d="M53.3,157c-3.2.1-3.7-2.5-3.9-5.3,0-1.2-.9-2.9,1.3-3.1,2-.2,8.2,2.3,8.3,3.3.1,2.1-2.5,4.7-5.6,5.1h0Z"/>
      <path class="cls-219" d="M59,139.9c2-.4,3.5,1.4,5.6.9,1.2-.3,1.4,1.5,2.3,2-.5.7-.9,1.4-1.5,2-2.6,2.3-5.9,2.6-9.2,2.8-1.2-1.4,0-2.5.7-3.6,1-1.3,1.7-2.6,2.1-4.2Z"/>
      <path class="cls-64" d="M59,139.9c1.2,1.3.5,2.3-.3,3.5-1,1.3-2.4,2.4-2.4,4.3-5.1-.1-6.7-1.5-7.4-6.5,1.4-.8,3.2-1.4,4.5-.4,2.4,1.8,3.1-.2,4.2-1.5l1.5.6h0Z"/>
      <path class="cls-209" d="M57.5,139.3c-.4,4.3-.5,4.3-4.3,2.3-1.2-.6-2.9.6-4.3-.5,0-1,.2-1.9.2-2.9.3-.5.6-1,.9-1.5.4-.6.4-1.5,1.1-2,.6.2,1.2-.3,1.9-.1,0,.4.2.9.2,1.3-.6.9-1.1,1.9.7,1.8,1.5,0,2.6.4,3.6,1.4h0Z"/>
      <path class="cls-96" d="M67.4,135.1c-1.2.7-2.3,1-2.5-1-.1-1.3-.3-2.6-.5-3.9-.8-1.3-2.2-1.7-3.5-2.2-1.5-.6-1.1-1.2,0-1.9,2.9,1.2,7.1.4,8.1,4.8-.5,1.4-1,2.7-1.5,4.1h0Z"/>
      <path class="cls-69" d="M38,144.2c-2.7-2.3-2.1-5.6-2.6-8.6.3-.2.6-.2.9,0,.9,3.2,3.6,2.1,5.6,2.3.7,0,1.5-1,2.3,0,.5,4.1-.8,6.3-4,6.9-.7-.2-1.5-.3-2.3-.5Z"/>
      <path class="cls-88" d="M40.2,144.7c2.9-1.6,3.2-4.4,3.5-7.2-.5-.4-.6-1-.3-1.6,1.8-1.2,3-.5,3.9,1.2,0,2.5-1.8,4.5-2.4,6.8-.5,1.8-2.9,1.6-4.7.8h0Z"/>
      <path class="cls-86" d="M47.3,137c-1.3,0-2.1-1.6-3.6-1.1-1.6.3-2.9-.3-4.2-1.2-1.2-.8-1.6-1.8-.4-3,4.6.2,8.8,1.1,11.5,5.4-.5.4-1.1.8-1.6,1.1-.2-.9-.8-1.4-1.8-1.3h0Z"/>
      <path class="cls-63" d="M258.2,18.8c.2-.5.4-1,.7-1.4.2,0,.4-.2.6-.2,3-1.3,6.4-1.4,9.3-2.7h0c6-.8,12.1-1.6,18.1-2.4,1.8-.2,3.6-.2,5.4,0,2.3.4,4.5,1.3,6.8,1.2,1,0,2.1.2,1.6,1.7-2.1,5.6,1.7,8.6,5.3,11.6,1,.6,1.7,1.5,2.2,2.5.5,1.1,1,2.1.9,3.4-.2,1.6-1,3-2.6,3.1-5.3.5-9.6,3.4-13.9,6.2-.5.3-1.1.5-1.7.6-5,3-14.6,1.3-18.2-3.2-1-1.2-1.4-2.6-1.2-4.1,1.8-3.5,5-5.7,8.3-7.4,2.9-1.5,3.2,1.5,4.1,3.2-.4,1.1-1.6,1.5-2.4,2.2-.9.8-1.9,1.7-1.6,3.1.4,1.6,1.5,2.5,3,3,3.3,1.1,8.9-1.7,10.1-5.1.8-2.2,0-3.5-2.6-3.6-2.1-.1-4.1.9-6.2,0-2.7-3.7-2.6-4.4,1.1-7.1,2.1-1.5,4.3-2.9,6.3-4.5-2.6,2-5.4,3.6-7.9,5.7-1.9,1.6-3.9,1.8-6.2.7-3.7-1.9-7.6-3.4-11.4-5.3-2.1-1.1-4.3-1.9-6.7-.8-.6,0-1.1,0-1.5-.5h0Z"/>
      <path class="cls-137" d="M299.6,11c-3.1-.5-6.2-.9-9.5-2.1,12.6-2.8,24.6-5,32.7,7.9,0,1.2.7,2,1.3,2.9,1,1.5,2.5,3.3,1.2,5-1.5,1.9-3.6.6-5.3-.3-.9-.7-1.5-1.6-2.1-2.5-2.8-3.7-6-6.7-10.9-7.5-2.6-.5-5.2-1.5-7.3-3.3h0Z"/>
      <path class="cls-110" d="M299.6,11c8.1,2.3,16.7,3.9,20.7,12.9,1.8,2.2,2.5,4.8,2.4,7.7,0,.4-.2.7-.4,1-1.9,2-3.8,4.1-6.2,5.6-.5.2-1,.4-1.6.3-2.5-.3-4.7-1.2-5.7-3.8,0-.9-.2-1.8-.3-2.7-.4-1-.7-1.9-1.1-2.9,2.2-.7,3.6,1,5.3,1.9,1.2.7,2.4,1.5,3.7.5,1.3-1,1.1-2.4.6-3.7-.8-1.8-.5-3.9-2-5.4-.3-.2-.5-.4-.8-.7-2.4-2.1-4.8-4.1-8.2-4.2-2.6,0-3.2.8-2.3,3.4.7,2.1,3.1,3.6,1.9,6.3-5.2-2.4-8.1-9.1-5.5-13.2-3,.6-5.4-.8-7.9-2,2.4-.8,5.2,1.6,7.3-1h0Z"/>
      <path class="cls-142" d="M338.3,30.3c1.2.3,2.3-.1,3.3-.8.4.2.7.5,1,.9,1.3,3.2.2,5.3-2.7,6.9-3.8,2.1-7.7,3.8-11.9,4.6-4.4.8-6.2-.5-7.1-5-.3-1.6,0-3,1.2-4.2v-.2c3.5-2.6,7.6-2.3,11.6-2.5,1.5,0,3.2,0,4.7.3h0Z"/>
      <path class="cls-1" d="M342.8,16.4c2.8,3.7,7.2,6.1,8.9,10.6-4.3,1.7-5.5,1.1-6.9-3.1-.3-1.1-.3-2.4-1.4-3.3,1.7,3.5,1.3,4.2-2.4,4.9-3.9-8.2-11.2-12.3-18.9-15.5,0-1,.3-1.4.8-1.4,4.5.7,9.5-.6,13.3,3.6,1.7,1.8,4.2,2.8,6.4,4.2h0Z"/>
      <path class="cls-97" d="M338.3,30.3c-5.5.7-10.9,1.5-16.4,2.2-.5-2.8-1.1-5.7-1.6-8.5,1.5-.3,3.2,2,4.3.4.9-1.3-.8-2.8-1.3-4.2-.3-1.1-1.7-2-.6-3.3,2.8,3.1,5.6,6.2,8.4,9.3,1.9,2.2,4.3,3.5,7.1,4.2h0Z"/>
      <path class="cls-53" d="M325.9,14.1c.2,0,1,.3,1.8.7,4,1.8,6.8,5.1,9.7,8.2.6.7.9,1.5.4,2.4-.5.8-1.2.5-1.9.3-5.4-1.3-7.9-6.2-11.8-9.4-1.3-1,0-1.9,1.9-2.2h0Z"/>
      <path class="cls-138" d="M341.2,25.5c3.3-1.3,2.9-3.6,1.6-6.2,1.4.7,2.2,1.9,2.5,3.2.8,3.7,2.9,5.1,6.5,4.5.4.4.8.8,1.2,1.2-.6,1.2-1.7,1.5-2.9,1.7-2.7-.1-5.5,1.7-8.2,0,0-.2-.1-.3-.2-.4-.1-1.3-.3-2.6-.4-3.9h0Z"/>
      <path class="cls-140" d="M108.1,112.3c-1.4.5-1.9-1.2-3.1-1.2-1-1.8.4-2.9,1.6-3.5,5.2-2.6,10.6-4.8,16.5-5.6,4.7-.6,9.6-.4,13.9-2.7.5-.3,1-.6,1.6-.6.4,0,.7,0,1,.2,1.5.6,3.1,1.1,4.7,1.6,1.8.5,3.3,1.7,4.8,2.7.9,1,2.2.6,3.4.9,1.1.3,1.6,1.1,1.6,2.2-.5,2.6-2.3,3.4-4.7,3.5-1.2,0-2.4-.3-3.6,0-5.2-.2-10.1.8-14.7,3.4-2,.1-3.4,1-4.6,2.6-1,1.4-2.2,3-4.4,3-3.7-4.6-9.2-5.1-14.3-6.4h0Z"/>
      <path class="cls-58" d="M79.9,145.3c-.3-1.2-1-2.1-2.2-2.1-1.9,0-3.4-.6-2.7-2.7.7-2.1.3-5.1,3.8-5.6,1-.1,3.2,1.4,3-1-.2-2-2.2-1.3-3.7-1-1.9,0-4.4,1.5-5.4-.2-1-1.6.7-3.8,1.6-5.7.3-.7.7-1.3,1-1.9,1.3-3,2.9-5.4,7.3-3.6-4.4-2.1-3.5-4.2-.9-6.4.2,2.9,2.5,5,2.6,7.9,1.5,1.1,1.5,2.7,1.2,4.3-.8,4.1-1.2,8.4-2.6,12.4-1.7,1.5.2,4.9-3,5.6h0Z"/>
      <path class="cls-58" d="M81.7,114.3c-.5.1-1.2,0-1.4.3-4.2,7.4-9.3-.3-13.9.9-.9.2-.9-.9-.5-1.6.7-1.4.8-3,2.2-4.1,1.2-.9,1.6-2.1.6-3.5,3.1.1,4.2,4.4,7.7,3.8.6,0,1.2.1,1.8.2,1.3,1.2,3,2.1,3.5,3.9h0Z"/>
      <path class="cls-106" d="M82,139.7c.7-5.6,3-10.9,2.3-16.7,1-1.6,0-3-.4-4.5-.3-1.3-1.2-2.9,0-4.1.7-.7,1.7-.5,2.4.1,1.4,1.1,2.6,2.2,2.2,4.2-1,6.3-1.2,12.8-3,19,.7.5.5,1.1.2,1.8-.8.9-1,2.1-1.7,3.1-.3.2-.7.3-1,.3-1.8-.6-1.5-1.9-1-3.2h0Z"/>
      <path class="cls-35" d="M100.7,123c-.2-.3-.2-.7-.5-1-.8-.9-3.2-1.1-2.4-2.6.7-1.2,2.9-2.3,4.4-2.2,2.7.1,5.5,1,8.1,1.9,1.1.4,2.7,1.1,2.5,2.8-.4,2.4-2.3,2.9-4.4,3.1-1.2,1-2.5.9-3.9.3-1.2-.6-2.5-1-3.6-1.8,0-.1-.2-.3-.3-.4h0Z"/>
      <path class="cls-3" d="M108.1,112.3c6.4-.8,12.1,1.6,14.4,6.2.1,3.5-1.1,4.7-4.9,4.9-1.7-1.6-2.6-3.9-4.4-5.4-.6-.5-.7-1.4-1.5-1.8-.8-1.7-3.1-2-3.6-4h0Z"/>
      <path class="cls-94" d="M85,139.3c.2-.5.4-1,.6-1.6,2.4-3.2,3.4-6.8,3-10.6-.3-3.2,1.5-5.3,3.3-7.4.8-1,1.5-.5,1.8.5,0,.2,0,.3.1.5.3,1,.2,2,0,3-2,4.4-3.1,9.3-5.4,13.6-2.1,4.1-2.6,9-6.4,12.3h-.2c-1.3-3,.7-5,2.1-7.1h0c.4-1,.4-2.2,1.1-3.1h0Z"/>
      <path class="cls-223" d="M137.7,99.5c.9,2.2-1.2,1.4-1.8,1.5-5.7.9-11.4,1.6-17.1,2.4-4.6.6-8.3,3.2-12.2,5.4-.8.5-1.7,1.1-1.6,2.3-1.6-.5-3.1-1-4.7-1.4,10.1-5.4,20.8-8.8,32.2-9.6.9,0,1.7-.2,2.2-1,.3-.5.7-.7,1.3-.7.7.1,1.4.4,1.6,1.2h0Z"/>
      <path class="cls-52" d="M104.7,124.7c1.3,0,2.5.1,3.8.2,0,.2,0,.5,0,.7,0,.2,0,.3.1.5,0,1.2-.2,2.1-1.6,2.3-4-.3-7.5-2.1-10.8-4-1.5-.9-2.6-2.2-2.7-4.1v-.2c2.8.1,4.3,3.2,7.2,2.8h0c1.2.8,2.6,1.1,4,1.7Z"/>
      <path class="cls-52" d="M108.6,125.7c2.5-.3,4.8,1.1,7.3.5.2,0,.3.2.5.2.3.5.4,1,.4,1.6-.3,2.3-1.8,2.6-3.7,2.2-1.5-.3-3.1-.5-4.4-1.6-.4-.9-.4-1.9-.2-2.8v-.2c.1,0,.1,0,.1,0Z"/>
      <path class="cls-121" d="M113.5,117.5c1.9,1.5,3.6,3.1,4.4,5.4-.5,1.1,1.4,3.6-1.8,3.2h-.3c0-.4-.2-.9-.3-1.4-.7-.8-.5-2.1-1.5-2.8-.1-.9-.3-1.9-.4-2.8-.5-.5-.5-1,0-1.6h0Z"/>
      <path class="cls-190" d="M113.5,117.5c0,.5,0,1.1,0,1.6-1.7-.2-1.7-1.5-1.9-2.8.9-.1,1.5.4,1.8,1.2h0Z"/>
      <path class="cls-35" d="M114,121.9c1.7.3,1.5,1.6,1.6,2.8-1.8-.2-1.3-1.7-1.6-2.8Z"/>
      <path class="cls-107" d="M384.3,62.9c-2.8,1.1-4.6-.8-6.3-2.3-1.1-.9-1.2-2.1.4-2.8.4-1.3.5-2-1.1-3-2.8-1.8-5.9-3.6-7.1-7.1-.4-1.3-1.3-1.2-2.3-1.1-2.1.2-4-.5-5.1-2.2-.9-1.4-2-1.9-3.5-2.2-1.7-.3-3.1-1.4-4-3-.3-1.3-.2-2.6-.3-3.9.2-1,.6-1.8,1.7-2.1,3.1,0,4.3,3.2,6.9,4.2h0c2.3,2.3,5,3.8,8,5,.3.2.6.4.9.7,2.7,2.8,5.3,5.6,8,8.3,3.7,1.1,5.6,3.9,6.9,7.3-1,1.5-2.6,2.4-3.2,4.2h0Z"/>
      <path class="cls-224" d="M357.1,33.6c-.8.3-.9,1.1-1.1,1.8-.4,2-1.5,2.7-3.3,1.6-1.3-.7-2.5-1.5-3.7-2.3-1.3-.9-3-1.6-2.8-3.5.2-2.2,2.5-1.4,3.7-2.3,1-.2,2.1-.4,3.1-.6,2.6-.4,2.1,2.8,3.9,3.4.8.6.9,1.3.3,2h0Z"/>
      <path class="cls-210" d="M371.7,42.4c-3.8.2-6.1-2.1-8-5,2.8,1.4,5.8,2.5,8,5Z"/>
      <path class="cls-169" d="M357.1,33.6c0-.7-.2-1.4-.3-2,2.8,1.3,4.9,3.5,6.8,5.8-2.8-.1-4.2-2.8-6.5-3.8h0Z"/>
      <path class="cls-79" d="M53.4,103.9c-.8.2-1.7.3-2,1.3-1.3,3.8-4.3,6.3-7.1,9-4.7-.7-4.8-1-2.8-5.2,1-2.1,1.8-4.2,2.7-6.3,3.1.4,6.2.9,9.2,1.3Z"/>
      <path class="cls-122" d="M24.1,101.3c2,1.6,4.2,2.7,6.9,3-1.2,2.7-3.3,3.2-5.7,2.2-2.5-1.1-2.3-3.1-1.1-5.1h0Z"/>
      <path class="cls-196" d="M35.9,135.5c-.2,0-.4,0-.6.1-1,.1-2.1.2-3.1.3,2.3-3.9,5.9-6.9,7.6-11.1.5-1.3,2.4-2.7.3-4.2,2.3-2,4.5-4,6.9-5.9,3.7-2.8,11.3-1.1,13.8,2.9.2.3.3.7.4,1,.2,2.3-4.1,7.8-6.4,8.2-1.2.2-1.5-1-2.3-1.5-3.3-2.4-6.1-.7-8.8,1.1-3.5,2.1-4.7,6.3-7.6,8.9h0Z"/>
      <path class="cls-37" d="M18.4,148.5c.9-.4,1.6-.9,2-1.8,1.1-.7,2.2-1.4,3.3-2.1,1,1.4,2.3,2.1,4,1.7.6,2.2-1.2,3-2.5,4-2.7,2.1-5.3,4.3-7.8,6.7-.4.4-.9.8-1.1,1.4,2.5-2.1,4.8-4.4,8.3-5,.2,3.1-.7,5.2-4.4,4.7-.5,0-1.2-.1-1.1.4.6,4.6-3.1,3.6-5.5,4.5-.8.3-1.5.7-2.3,1-.6-1,2.4-3.9-1.7-3.1-1.2.2-.9-1.2-.5-1.9,1-2.2,2.1-4.4,4.4-5.7,2-1.2,3.7-2.8,4.9-4.9h0Z"/>
      <path class="cls-158" d="M24.8,153.5c-2.2,2.6-6.1,3-7.6,6.5-.3.8-1.6.9-2.2.1-.8-1.1-.2-2,.7-2.8,3.1-2.7,6.2-5.4,9.4-8,1-.9,2.2-1.6,2.7-2.9h0c1.4-.2,2.9-2.3,4.3,0-.4.5-.7,1.1-1.1,1.6-.6.3-1.2.5-1.3,1.2-1.6,1.4-3.2,2.9-4.9,4.3h0Z"/>
      <path class="cls-37" d="M32.1,146.4c-1.4-.8-2.9,1.1-4.3,0,.8-3.3,4.7-2,6.2-4.4.2,1.9-.2,3.4-1.9,4.4h0Z"/>
      <path class="cls-78" d="M178.3,51.3c-1.8-2.9-1.2-5.8-.4-8.8,2.5-3.5,5.2-7,6.9-11.1.7-1.6,1.7-3,3.7-3.2l.2.2c.1,3.4-2.6,5.6-3.4,8.6h0c-1,2.8-1.7,5.7-2.3,8.7-.5,2.7-1.6,5.1-4.7,5.6Z"/>
      <path class="cls-17" d="M181.4,34.1c-.6,1.1-.9,1.5-1.1,2-1.7,3.6-4.3,6.5-6.7,9.6-.5.6-1,1.2-1.8.8-.9-.4-.6-1.2-.4-1.9,1.3-3.9,3.5-7.2,6.2-10.3.7-.7,1.3-1,2.3-.6.5.2,1,.2,1.4.3Z"/>
      <path class="cls-18" d="M83.9,142.4c.2,2.6-2.1,4.4-2.1,7-3.1,4.5-3.7,10.2-7,15.3-2.3-4.6.4-8,1.6-11.5.2-.3.3-.6.4-.9.4-2.4,1.6-4.4,3.1-6.3,0-.2,0-.4,0-.6,2.1-1.4,0-4.3,2.1-5.6.4,1.1,0,2.8,1.9,2.8h0Z"/>
      <path class="cls-60" d="M77.3,152.7c-.3.1-.6.3-.9.4-2.3-1.5-5-.5-7.5-1.2.2-.5.4-1.1.6-1.6,3.7-2.2,6.4-1.3,7.8,2.3h0Z"/>
      <path class="cls-4" d="M65.6,161.3c2.6-.5,5-.2,7.2,1.3-2.4-.4-5.1.8-7.3-1.3h0Z"/>
      <path class="cls-196" d="M133.2,87.2c4-6.5,10.6-8.2,17.4-9.8.2,0,.3,0,.5,0,1,.5,1.8,1.1,2.6,2,.2.3.4.7.5,1.1,2,3.2,2.7,6.8,3,10.5.1,1.5,0,3-1.6,3.8-4.4,2-9.1,3.3-13.8,4.7-.8.3-1.7.2-2.5-.4h0c-1.2-.8-1.3-2.2-1.6-3.5-1.2-3-3.7-5.2-4.5-8.4h0Z"/>
      <path class="cls-73" d="M150.5,77.4c2-1.3,4.3-1.1,6.4-1.6,1.4-.8,3-1,4.4-1.7,3.7-1.9,5.1-1.3,6.7,2.9-.8,2-.3,4.1,0,6.1,0,1.2.6,2.3.2,3.5-2.7,3.7-6.7,3.2-10.5,3.2-1-.5-1.4-1.3-1.4-2.3,0-3.2-2-5.5-3.4-8.1h0c-.8-.6-1.3-1.6-2.4-1.9h-.1s0,0,0,0Z"/>
      <path class="cls-66" d="M167.4,77.6c-1.7-3.9-2.7-4.3-6.2-2.6-1.4.7-2.8.7-4.2.9,1.8-2.3,5.5-1.7,7-4.5.5-1,.3-2.1.2-3.1,1-2.8.8-6,3-8.9.9,3.7,1.6,7,2.4,10.4.3,2.6,2,4.5,2.9,6.8.9,2.2,2.4,4.7-.4,6.8-1.1.2-1.9-.4-2.6-1.1-.4-.4-.6-.9-.8-1.4-.3-.8-.4-1.6-.9-2.2-.2-.3-.3-.5-.4-.9h0Z"/>
      <path class="cls-55" d="M124.3,98.1c-1.4.2-2.8.4-4.2.7,0-.6-.5-1.4-.2-1.7,2.7-3.9,5-8.2,9.2-10.9.6-.4,1.3-.8,2.2-.1-1.4,4.2-5.7,6.6-7,10.9.3.4.3.8,0,1.2h0Z"/>
      <path class="cls-196" d="M125.8,96.3c1.7-3.1,3.6-6.2,6.7-8.3.8.4,1.2,1.2,1.7,1.8,3.3,4.5,2.7,5.9-2.7,6.9-1.9.2-3.9.9-5.7-.5h0Z"/>
      <path class="cls-21" d="M131.2,95.8c4.9-.7,4.8-.7,2.4-5-.5-.8-.7-1.8-1.1-2.7.2-.3.5-.5.7-.8,2.6,1.9,3.5,5.1,5.4,7.6-.9,1.1.5,3.9-2.6,3.5-1-.5-2.1-.5-3.2-.7-1-.2-2-.4-1.6-1.9h0Z"/>
      <path class="cls-167" d="M131.2,95.8c1,2.2,3.9,0,4.9,2.1.3.3.4.7,0,1-.5,0-.9.1-1.4.2-3.4-1.6-7-1-10.5-1,0-.4,0-.8,0-1.2.5-.2,1-.3,1.5-.5,1.8-.2,3.6-.4,5.4-.6h0Z"/>
      <path class="cls-45" d="M387.5,58.6c-2.3-2.4-4.6-4.8-6.9-7.3.2-2.2,1.5-1.5,2.6-.8,6.9,4.7,13,10.2,18.2,16.8.6.8.4,1.3-.6,1.6-2.2.5-3.2-1.3-4.7-2.2-.2-.2-.5-.5-.7-.7-.3-.4-.6-.8-.9-1.2-1.6-1.9-4.2-2.9-5-5.4-.4-1.1-1.2-.8-2-.7h0Z"/>
      <path class="cls-107" d="M389.5,59.4c2.3,1.3,4,3.2,6,5-.3.6,0,1.1.5,1.5h0c1.4,1.7,2.1,4.2,4.8,4.5,1,.4,2.2-.4,3.2.4-1.9,4.1,1.9,3.1,3.5,4-1.1,3.4-3.3.4-3.8,0-1.6-1.1-3.2-2.1-5.2-2.2-.8,0-2.1-.6-2.2-1.1-.9-4.5-5.3-4.4-8.1-6.5-3.9-2.9.7-3.7,1.3-5.5h0Z"/>
      <path class="cls-145" d="M268.8,14.4c-2.7,2.2-6.1,2.4-9.3,2.7,2.8-2.1,6.1-2.3,9.3-2.7Z"/>
      <path class="cls-178" d="M171.5,82.7c2.5-2.2.6-4.4-.2-6.5-.8-2.2-3.1-3.9-1.7-6.6,0,.2.1.4.2.6,1.7.9,2.6,2.5,3.4,4.1,1,2.2,2.4,2,4,.6,1.6-1.4,2.1-3.2,2.2-5.2.1-1.5-.4-3.2.7-4.6.3-4.6.5-9.1.8-13.8-1.1.8-2.1,1.5-3.1,2.2-.1-.8-.3-1.6.4-2.3,2.4-2.2,4-4.7,4.4-8.1.2-2.2.6-4.6,2.6-6.3.3,1.9-.3,3.6-.8,5.4-1.4,5.3,1.7,11.1,7,12.2,2.7.6,5.6.4,8.4.5,1.5,0,2.4-.7,3.2-2,1-1.8,1.8-3.8,3.8-4.9,1.4,1.9-.5,3.2-.7,4.9-2.2,5.5,0,9.9,6.5,12.3.3.5.4.9.2,1.5-1.1,1-2.2,2-2.4,3.6-.7,1.1-1.5,2.1-3,1.8-.3-4.2-3.1-7.1-5.3-10.3-2.2,3.9-3.5,8.2-5.3,12.5-1.6,3.8-1.2,4.3,2.9,4,.4,0,.7.1,1,.3,1.1,1.5-.2,2.2-1,3-3.1,2.8-5.4,6.4-7.9,9.7-1.9,2.6-1.5,3.7,1.2,5.3,2.4,1.4,5.2,2.2,7,4.6.1,1.2,3.3,1,1.6,2.8-1.2,1.3-1.2,4.7-4.7,3-1.2-.6-2.8,1.2-4.7,1.4-3.4.4-4.4-.8-4.5-3.8,0-1.1-.3-2.1-.9-3.2-.2,2.9-1.6,5.6-.2,8.6.8,1.8,1.4,3.6-1.3,4.4-5.2-1.9-6.8-5.3-5-10.2.5-1.3,1.1-2.5,1.4-3.8,1.2-3.3.8-6-2.2-8.5-2.4-1.9-4.3-4.4-6.8-6.2-.9-.7-2.2-1.5-1.2-3h0Z"/>
      <path class="cls-170" d="M180.1,65.2c.6,4.4,1.4,8.8-3.5,11.7-2,1.2-3,.9-4-1.1-.9-1.9-1.9-3.7-2.9-5.5,2.9.8,5.1-.1,6.9-2.5.8-1.1,1.9-2.2,3.4-2.6h0Z"/>
      <path class="cls-174" d="M171.1,58.2c1.6-1.1,1.7-4.7,4.1-3.8,2.8,1,.7,3.8.7,5.8,0,.8,0,1.7,0,2.5-1.1,1-1,3.6-3.1,2.9-1.7-.5-2.1-2.5-2.3-4.2-.1-1.1,0-2.2.4-3.2h0Z"/>
      <path class="cls-109" d="M381.8,187.1c.9-.9.4-2,.3-3,1.2-1.5,2.3-2.9,3,.3,1.6,1.1,2.8,2.7,5,2.9,1.2,0,1.3,1.1,1.2,1.9-.4,2.7,1.2,4.3,2.7,6,.2.8.1,1.6,1,2,.1,2,2.6,2.6,2.9,4.5.1,1.1.5,2.5-1.1,2.6-2.1.1-.4-1.4-.7-1.9-1.6-2.8-3.4-5.6-5.3-8.3-.7-.9-1.1,0-1.6.6-2,2.4-2.2,5.4-2.3,8.3,0,2-.3,3.7-2,5.2-2,1.7-1.9,4.4-1.5,6.9-3.2-2.6-2.2-6.3-2.4-9.7,0-.5.7-.9,0-1.6-4.1-4.6-4.2-6.5-.7-11.5.7-.9,1.2-1.8,1-3,.1-.8.3-1.5.4-2.3h0Z"/>
      <path class="cls-222" d="M392.7,53.6c3.8-1.5,7.2,0,10.8.5-.4,2.8-4.2,1-4,3.9,0,.7.2,1.4.2,2.1,0,.2,0,.4,0,.7-.1,1.4-.6,1.4-1.4.4-1.9-2.5-3.8-5-5.7-7.5Z"/>
      <path class="cls-177" d="M280,213.2c-1.8-.5-1.7-1.9-1.7-3.3,2,.4,1.6,2,1.7,3.3Z"/>
      <path class="cls-129" d="M401.1,71.1c-4.2.6-4.5-2.4-5.1-5.3,1.6,1,3.2,2.1,4.8,3.2.5.2,1,.5,1.6.7.4,1.1-.5,1.2-1.2,1.4Z"/>
      <path class="cls-172" d="M401.1,71.1c.4-.5.8-1,1.2-1.4.7-.4,1.1-1.3,2.1-1.1-.1.7-.3,1.4-.4,2.2-1,0-1.7,1.6-2.9.4Z"/>
      <path class="cls-151" d="M33.4,99.3c.5.2,1,.4,1.5.6.3,1.4-.1,2.3-1.5,2.8-.2,0-.8-.1-.9-.3-.6-1.2-.3-2.3.8-3.1h0Z"/>
      <path class="cls-77" d="M68.7,106.4c-2.5,1.8-3.7,4.5-4.8,7.1-.9,2.1-1.7,2.3-3.5,1.1-1.4-.9-3-1.7-4.5-2.4-4.4-2-4.4-2-2.5-6.5.2-.6.4-1.2.6-1.7,5,.2,9.9.8,14.7,2.3Z"/>
      <path class="cls-58" d="M77.3,152.7c-1.9-3-4.8-2.6-7.8-2.3-.7-1.4-.1-2.9,0-4.3,3.5-.8,6.9-1.1,10.4,0-.2,2.5-2,4.4-2.6,6.8h0Z"/>
      <path class="cls-48" d="M386.6,238.7c-.3-.5-.6-.9-1-1.4,3.4-8.1,9.9-13.7,16.4-19.3,1.3-1.1,2.6-2,2.6-4.4,1.8,3.5,1.7,3.3-.6,4.9-5.6,3.8-9.9,8.9-13.4,14.7-1.2,2-2.1,4.1-4,5.5h0Z"/>
      <path class="cls-46" d="M349.8,28.9c-4.2,2.4-4.2,2.4,0,5.1,1.1.7,2.3,1.4,3.3,2.2,1.5,1.2,2.1.1,2.9-.8.4,1.3.2,2.5-.3,3.8.5,1.8,0,3.1-1.8,3.8-.5.1-.9.3-1.3.4-3.5-.1-6.2-2.2-8.5-4.5-1.9-1.8-3-1.7-4.4.2-5.3,7.4-13.1,10.3-21.6,11.9-.8.2-1.9.3-2.4.8-2.4,2.6-4.3,5.7-7.3,7.9-1,.3-2,0-3-.3-1.4-1.8.5-3,.8-4.5.6-1.2.5-3,2.4-3.1,5.3.2,7-4.1,9.2-7.5,1.3-2.1,1.7-4.8,2.6-7.2.3-.5.6-.8,1.2-.8,1,4.7,1.8,5.4,6.5,4.4,4.5-.9,8.6-2.9,12.6-5,2.4-1.3,1.2-3.7,1.1-5.7,2.6-.7,5.3-1,8-1h0Z"/>
      <path class="cls-144" d="M353.9,42.9c.2-1.5,1.1-2.6,1.8-3.8,2,.5,3.2,3.4,5.9,1.8.5-.3,1,0,1.1.6.7,3.9,3.4,4.3,6.7,4,.4,0,1.2.3,1.2.5.4,3.3,3.5,4.2,5.3,6.3,1.3,1.5,2.5,3.1,5,1.4-.8,1.3-1.7,2.6-2.5,3.9-1.5-2.1-4.2-1.1-6.3-2.3-5.1-2.9-5.3-2.6-2.6-8.2-2.7,1.5-4.3,5.3-7.8,2.4-2-1.7-.7-3.5-.3-5.7-2.1,1-3,4-5.9,2.3-1.7-.9-1.3-2.1-1.6-3.3h0Z"/>
      <path class="cls-108" d="M335.3,180c1.7-1.2,1.7-3.5,3-4.9,0-1.7.6-3.3,1.2-5-2.6,3.7-6.4,5.4-10.5,6.4-3,.7-5.9,1.5-8.2,3.7-.6.6-1.4,1.1-2.3.3-2-3.3-.8-7.5-2.8-10.9-1.6.8-1.1,2.2-1.1,3.3,0,2.2-.4,4.4-1,6.5-.4,1.2-1.2,2.2-2.6,2.2-1.2,0-2.1-.7-2.6-1.8-.5-1.3-1.2-2.4-1.9-3.5-.4-7.3-3.4-14.3-2.7-21.8,0-1,0-2,.2-2.9,1.7-9,2.6-8.8,9.8-8.4,5.1.3,8-2.2,9.9-8,2.3-6.9,2.1-14,1.5-21.2-.2-2.2-1.2-4.7,1.7-6,.9,6.3,1.8,12.7,2.7,19,2.7,5.2,2.6,10.9,2.8,16.5,0,1.1-.7,2.1-1.6,2.8-4.3,3.5-4.7,8.4-4.6,13.3,0,3.4.8,6.8,1.4,10.2.1.9.4,1.8,1.4,2,1.1.2,1.9-.4,2.4-1.4.4-.9,1-1.7,1.2-2.7.3-2.2,1.8-3.3,3.6-2.7,2.3.8,3.7-2.5,5.9-.9,1,2.2.5,5,3,6.6.7.5,0,1.8-.3,2.8-.1.7-.6,1.5.4,1.9.9.2,1.2-.6,1.7-1.2.8-.8,1-1.7.7-2.7-.5-1.9.1-3.6.9-5.2,1.4-2.2,2.9-4.4,6-2.6,1.3,3.5,3.5,6.7,5.2,10l.2,1.5c0,3-1,5.1-4.2,5.8-1.1.2-2,1-2.5,2-2.1,4.2-5.9,4.3-9.8,3.9-2.2-.2-4.4-.4-6.5.3-1.7.5-3.5.9-4.7-.8-1.2-1.7-.1-3.2.8-4.7.5-.9,1.2-1.6,2.4-1.7h0Z"/>
      <path class="cls-234" d="M324.4,94.9c.3.5.6,1,.9,1.4-.1,9.5-1.8,18.8-3.5,28.1-1.1,6.2-4.6,10.5-11.2,11.6-3.1.5-4.8,2.7-5.8,5.6-1.4,4.3-1.3,8.7-2.1,13.1-.4,2.1,0,5.1-2.7,5.6-2.8.6-3.1-2.6-4.2-4.4-1.9-3.1-4.1-5.8-7.5-7.4-3.7-1.7-5.8-5.2-8.3-8.2-.7-1.5-.8-3.1-1-4.6,0-.6,0-1.1.3-1.6,1.6-1.4,2.6,0,3.8.7,1.5.8,2.5,2.4,4.7,2.5-.1-3.4-3.8-6.4-1-9.9,2.6-1.1,2-3.9,3.2-5.8.9-.8,2-.9,3.1-1.2,4.8-1.3,5.7-.9,7.5,3.7.2.5.3.9,1.1,1.7,1.6-8.6,5.6-15.8,10.7-22.4,2.5-2.7,5.2-5.3,8.1-7.5,1.1-.9,2.2-2.1,3.9-1h0Z"/>
      <path class="cls-203" d="M280.7,140.4c1.6.6,2.4,2.1,3.4,3.3,1.7,1.9,3.5,3.5,6,4.6,3.9,1.7,5.9,5.4,7.7,9.1.5,1,.7,2.5,2,2.4,1.7,0,1.2-1.9,1.5-2.9,1.2-5.1.9-10.5,2.5-15.6,1.2-3.9,3.5-6,7.5-6.5,5.1-.6,7.6-4.1,9.1-8.5,1.8-5.1,1.6-10.6,2.5-15.9.8-4.7,1.7-9.3,2.5-14,.5,3.9,1.1,7.8,1.6,11.7-1.3,1.6-.9,3.5-.7,5.3,1,7,.8,13.9-.9,20.7-.9,3.5-2.7,6.3-5,8.9-1.7,2-4.2,1.6-6.5,1.5-7.3-.6-7.4-.6-8.6,6.6-.9,5.3-.8,10.8,1.2,15.9,1.2,3.2,0,6.3.8,9.5,1.3,2.5,2.1,5,.9,7.7-2.7,1.8-4,0-5-2.2-4.1-9-10.9-16.4-16.3-24.5-.4-.6-1.1-1-1.6-1.5-.7-.8-1.5-1.4-2-2.2-1.2-2.8-2.4-5.7-3-8.7-.3-1.5-.7-3.2.5-4.6h0Z"/>
      <path class="cls-6" d="M342,164.2c-2.4.3-4,3.7-7.1,1.8-.7-.5-1.1.8-1.3,1.8-.4,2.1-1.2,4-2.9,5.4-1.8,1.4-3.5,1-3.8-1.3-1.1-7.5-3.2-14.9-.2-22.4.5-1.3,1-2.8,2.2-3.2,3.3-1.1,2.9-3.4,2.6-6-.6-4.4-1.2-8.8-1.8-13.2.5.2,1,.4,1.5.6,2.5,3.6,2.2,8.1,3.5,12.1.5,1.7.4,3.6,1.3,5.3.2,3.4,2.4,6.7.5,10.2.2,1.9.5,3.8.7,5.7.3,2.5.9,4.1,3.2,1.2.5-.6.9-.6,1.5-.1,0,.7.1,1.5.2,2.2h0Z"/>
      <path class="cls-194" d="M335,145c-2-5.7-2.9-11.6-3.9-17.4-.7-8.2-2.7-16.2-2.6-24.4,0-.6-.2-1.2-.5-1.7-.8-1.6-1.2-3.4.6-4.2,1.5-.7,2.9,1,3.5,2.1,2.3,4.9,4.8,9.8,5.1,15.5.3,5.5,1.2,11,1.9,16.4.4,2.9.4,5.8-.2,8.7-.2-.1-.4-.2-.5-.3-1.2-1.4-1.3-3.2-1.5-4.8-.9-6.7-1.8-13.4-2.8-20.1-.2-1.4,0-2.9-1.9-4.7,0,10.5,2.4,20,3.3,29.7-.2,1.8.9,3.6-.5,5.3h0Z"/>
      <path class="cls-92" d="M342.8,136.4c1.4-1.1-.9-4.4,2-4.3,2.5.1,2,2.9,2.5,4.7,1.9,5.9-1.8,11.2-1.5,16.9.1,2.7,0,5.4-.2,8,0,.8,0,2-1,2.1-1,0-1.2-1.1-1.3-1.9-.2-.8-.3-1.7-.4-2.5-.3-4.7,1.1-9.4-.2-14,.6-1.2-.5-2.6.2-3.8h0c.7-1.5-.6-3,0-4.5,0-.2,0-.5,0-.7h0Z"/>
      <path class="cls-228" d="M324.4,94.9c-3.5,1-5.6,3.9-8.2,6.2-1.1.9-2,2.1-3.2,2.8-3.1-.2-6.2-.7-8.5-3.1-.7-2.4.2-4.5,1.6-6.4.3-.2.7-.3,1.1,0,.9,4.4,2.9,5.2,6.6,2.9,2.2-1.3,4.5-2.4,6.2-4.5,1.7-2.2,3-.1,4.4.6,0,.5.1,1,.2,1.5h0Z"/>
      <path class="cls-28" d="M335,145c-.2-1.8-.4-3.5-.6-5.3,3.2.7,1.5,4,3,5.3.5-1.5-1.1-3.8,1.4-5.1h.2c.6,5.2,1.3,10.3.8,15.5,0,.9.6,2.6-1,2.7-1.2.1-1.2-1.3-1.6-2.2-.1-.3-.5-.6-.7-.8-.5-3.4-1-6.7-1.5-10.1h0Z"/>
      <path class="cls-226" d="M342.9,137.2c0,1.5.9,3,0,4.5,0-1.5-.9-3,0-4.5Z"/>
      <path class="cls-226" d="M342.8,141.7c.1,1.3.7,2.6-.2,3.8-.1-1.3-.8-2.6.2-3.8Z"/>
      <path class="cls-203" d="M334,181.7c-.4.7-.9,1.4-1.3,2.2-.9,1.9.3,3.5,1.8,2.7,4.4-2.3,8.9-.1,13.3-.8,2-.3,3.6-.8,4-3,.3-1.7,1.6-2.7,3-2.8,3-.4,4.3-2.2,5-4.8.1.2.2.5.4.7,0,1.1.1,2.3.2,3.4-1.1.2-1.1,1.1-1.2,2-2.5,1.8-5.7,2.7-7,6-.4,1.2-1.8,1.2-2.8,1.3-2.8.4-5.5.8-8.3,1.1-7.6.8-14.2,4.2-20.6,8-3.7,2.2-7.5,4.2-12.1,3.3-1.2-.3-2.6-.5-3-1.8-.5-1.5,1.4-1.5,1.9-2.3,3.6-5.5,10-5.1,15.2-7,1.5-.6,3.4-.9,4.1-2.8,1.4-3.2,3.5-5.7,7.5-5.5h0Z"/>
      <path class="cls-227" d="M394.1,195.2c-2-1.4-4-2.8-3.1-5.8.1-.4.3-1.3-.7-1.1-3,.4-3.9-1.9-5-3.9,2-.7,3.8,3.1,5.9-.7.4,4.5.9,8.2,3,11.5h0Z"/>
      <path class="cls-21" d="M294.4,88.5c0,.5,0,1,.1,1.5-2.8,5.1-6.4,9.7-10.3,14-5,1.6-14.3-.5-16.9-3.7,1.2-3.2,3.5-5.8,4.7-9,2.2-2.9,4.4-5.8,6.5-8.8.9-1.3,1.7-3.1,3.9-2.7,1.2.8,1.6,2.1,2,3.4,1,3.3,3.1,5.2,6.8,4.7,1.1-.1,2.2,0,3.1.7h0Z"/>
      <path class="cls-67" d="M284.6,103.2c2.7-4.9,6-9.4,10-13.2.9,2.1-1.5,3.9-.6,6,.2,2.9-1.7,4.9-2.9,7.2-6,8.3-13.3,15-23.7,17.4-4.4,1-8.5-1-9.6-4.7,1.8-2,4.4-.8,6.6-1.4,5.7-1.4,10-5.1,14.8-7.7,2.5-.1,3.8-2,5.4-3.5h0Z"/>
      <path class="cls-62" d="M290.4,102.5c1.2-2.2,1.9-4.6,3.6-6.6,1.4,2,2.9,1.1,4.3,0,2.4-1.9,4-4.6,6.8-6,1.8,1.1.6,3.1,1.4,4.5-.2,2.1-1.7,3.8-1.4,6-.7,2.9-2.3,4.8-5.4,5.1-1.6.2-2.5,1.3-3.4,2.5-1.3,1.7-2.6,3.6-4,5.2-.9,1-1.9,2.5-3.5.9,1.4-3.8,1.1-7.8,1.7-11.7h0Z"/>
      <path class="cls-73" d="M294.4,88.5c-1.1.1-2.2.2-3.3.5-3.6.7-5.9-.8-7.1-4.1-.7-1.7-1.3-3.4-1.9-5.1.2-2.9,1.9-4.7,4.4-6,.9-.2,1.9-.3,2.8,0,2.3,1.2,4.1,3,5.4,5.3.1,1.7.2,3.3.3,5-1.2.8.4,2.3-.7,3.1,0,.5,0,1,0,1.5h0Z"/>
      <path class="cls-100" d="M294.8,79c-2.1-1.2-4-2.6-5.2-4.8-1-1.6,0-2.7,1-3.7,1.2-.5,2.6.5,3.7-.3,1.2,2.9,2,5.8.5,8.8h0Z"/>
      <path class="cls-57" d="M306.4,94.5c-.7-.3-2.8.7-1.6-1.5.6-1.1.4-2,.2-3.1,1.6-2.6.7-5.5.7-8.2.4-.3.7-.6,1.1-.8,1.4,1,1.6,3.1,3.4,3.9.1,0,.3,0,.4,0,0,.5,0,1,0,1.5,0,.6-.1,1.2-.7,1.5-1.9,1.7-2.6,4-2.9,6.5h-.4s-.3.2-.3.2h0Z"/>
      <path class="cls-21" d="M294.4,87c-.2-1.1-.6-2.2-.4-3.2.3-1.3.7,0,1.1.1.2,1.1.9,2.4-.7,3.1h0Z"/>
      <path class="cls-173" d="M354,163.9c-2.6-.9-3.6,1.8-5.5,2.4-.4-2.8,0-5.4,1.6-7.8,2.2,1,4.4,2,5.4,4.5-.2.8-.5,1.3-1.5,1h0Z"/>
      <path class="cls-5" d="M354,163.9c.5-.3,1-.6,1.5-1,.1,0,.3.1.5.2,2.8,1.5,3.8,3.9,3.5,7,.2.9.3,1.9.5,2.8,0,.2-.1.5-.2.7-3.3-2.4-5.2-5.7-5.7-9.7h0Z"/>
      <path class="cls-184" d="M310,87.8c.2-.5.5-1,.7-1.5,1.2.8,2.4-.8,3.5,0,1.2.8,2.9,1.7,1.8,3.4-1.2,1.9-1.2,5.5-4.9,4.7-1.3-.3-1.1-1.5-1.2-2.4,0-1.3,0-2.7,0-4h0Z"/>
      <path class="cls-220" d="M390.9,171.2c1.1,2.3-.4,3.6-2.1,4.2-2,.7-6.6-3.2-6.6-5.7,0-2.2,2.3-3.2,4.2-3.9,2-.7,3.8,1.6,4.6,5.4h0Z"/>
      <path class="cls-195" d="M308.9,52.1c-2,.4-.6,2.6-1.8,3.4-4,3.8-8.9,2.8-13.6,2.5-1.7,0-3-1.2-2.2-3.3,0-.2,0-.5,0-.7-.4-.5-.5-1.2-.1-1.7,1.2-1.6,1.6-3,.1-4.7-.5-.6-.2-1.6.5-2.3,4.1-.9,8.2-1.3,11.9-3.5,2.3-1.4,4.8-2.6,4.5-6,0-.7.3-1.5,1.3-1.4.7,2.5,3,2.9,5,3.8,0,.2-.1.3-.2.5-.6.9-1.7,1.4-2.2,2.5-1.4,3.6-.6,7.9-3.2,11.1h0Z"/>
      <path class="cls-131" d="M290.6,70.5c.6,1.5-1,2.4-1,3.7-1,.1-1.9.3-2.9.4-.3-3.1-2.2-.9-3.5-1.1-1.3-3.4-3.5-5.9-6.1-8.4-1.9-1.7-4.2-3.5-3.4-6.8,1.3-2.4,3.9-2.7,6-3.8,2.5-1.3,5.3-1.5,7.8-2.9,1.2-.7,3.2-1.2,3,1.6-1.6,1.6-1.9,3.9-3,5.7-1.1,1.8-1.4,4.5-4.8,3.1-1.2-.5-2.5,1-1.1,2.3,1.9,1.9,3.1,4.9,6.5,4.9.9,0,1.9.4,2.6,1.2Z"/>
      <path class="cls-72" d="M291.4,54.6c.2,2.3,1.8,2.6,3.7,2.5,4.1-.3,8.2.2,12.1-1.7,0,1.6-2.2,2.2-1.7,4-1.6,1.1-2,3.5-4,4.2-3.8.2-7.6,1.9-11.6.3-1.2-.5-2.4-1-1.7-2.2,1.3-2.3,1.3-5.2,3.2-7.2h0Z"/>
      <path class="cls-218" d="M290.4,53.2c-.4-1.6-1.7-1.5-2.5-.8-2.4,2-5.6,1.8-8.3,3.1-.3-.3-.5-.6-.5-1,.2-1.1,1-1.7,1.8-2.2.9-.5,1.8-.9,2.7-1.2,3.6-1.2,6.5-2.6,5.6-7.3-.1-.6,0-1.8,1.3-1.9,1.7.8,2,2,1.2,3.6,0,.5,0,1,.2,1.5,1,2.1.9,3.8-.4,6.2-.1.2-.1.5-.2.7-.3-.2-.6-.5-.9-.7h0Z"/>
      <path class="cls-200" d="M359.4,170.1c-1.2-2.3-2.3-4.7-3.5-7,.1-.3.2-.6.3-.8,5.2-.8,7,0,7,3.5,0,2.6-2,3.4-3.8,4.4h0Z"/>
      <path class="cls-160" d="M310.3,84.8c-3.9,1.1-2.8-2.1-3.4-3.9,0-.8-.1-1.6-.2-2.9,2.9,1.7,4.8,3.4,3.6,6.7h0Z"/>
      <path class="cls-171" d="M290.4,102.5c1.1,4.2,1.8,8.3-1.4,12,0,.8-.4,1.5-.9,2.1-.2.2-.5.4-.8.5-.8.3-1.3.9-1.7,1.5-.6.8-1.3,1.5-2.2,2.1-6,3.7-10.3,8.6-11.7,15.8-.2,1.3-.4,2.7-1.4,3.7-1.6,2.1-.6,4.9-1.9,7.1-2.1,2.1-4.7,1.9-7.1,1.1-1.4-.4-2.8-.5-4.2-1.1-2-.2-3.9-1.6-6.1-.7h-.5c-1.9-1.6-4.1-2.1-6.5-1.9-3.5-1.7-6.6-3.9-10.4-4.8-1.4-1-3.4-1.6-3.5-3.8l3.8-.5c5.2,1.4,10.3,2.7,15.9,1.5-.3-.6-1.1-.7-1.9-.8-.7-.1-1.5,0-2.1-.4-1.3-.7-3.7-.3-3.2-2.9,2.1-3.6,6.2-4.6,9.2-7,.9-.7,2.7-.8,1.7-2.6-.8-1.4-2.1-.6-3.3-.6-3.9,0-7.2,2.2-10.9,3-.7-.6-.5-1.3,0-1.9,2.2-1.6,5.7-1.5,6.9-4.8.2-.3.4-.5.7-.7,1-.3,1.9.3,2.7.7,1.6.9,3.2,1.2,4.7,0,1.5-1.1,1-2.5.5-3.9-.1-.4,0-.7.4-1,1.5-.6,2.7-.5,2.9,1.5,3.9,4.5,8.2,5.5,14.3,2.3,7.2-3.7,13.3-8.9,18-15.6h0Z"/>
      <path class="cls-178" d="M218.2,32.4c-3.7,7.1,2.7,11.4,4.8,16.8,1.1,2.9,3.6,5.3,4.9,8.2,1.3,3,2.9,4.1,5.9,2.8,0,1.2-1.4,1.5-1.9,2.5-.7,3.6-.8,7.3-.9,11,0,3.4.4,3.7,3.7,3.1.5,0,1,0,1.4.2,1.9.2,1.8,1.2,1.1,2.6-2.4,4.5-2.1,9.5-3.2,14.2,1.1,4-.4,7.2-3.2,10-.6.4-1.2.8-1.9,1.2-1.9,1.1-3,.5-3.4-1.6-.2-1.3-.6-2.7-.2-4,1-1.5.5-3.2.9-4.8.5-1,1-2.1.7-3.7,0-.1-.6.5-.1.4.2,0,.3,0,.3.2,0,1-.2,1.9-.7,2.8-.8,1.5.1,3.3-1,4.8-.3.8-.2,1.7-.2,2.5.4,4.6-.1,5.4-4.7,5.5-4.7.1-9.1-.8-12.9-3.8-1.3-2.2,2.6-1.3,1.8-3.1,1-3.2,4.6-4.7,5.7-7.9.7-2.1,2.1-3.8,1.9-6.2,0-1.3.3-2.5,2-2.5,5.1.8,9.1-2.7,8.4-7.6-.4-2.8,0-5.6-.1-9-2.3,1.6-4.2,3-5.8,4.5-1.3,1.2-1.6,2.7-1.1,4.4.4,1.4.8,2.9.5,4.4-.3,1.3-.5,2.8-2.5,1.8-1.4-2.2-1.3-4.7-1.6-7.1-.4-3.8-1.4-7.4-3.4-10.7-.3-.6-.3-1.1,0-1.7.2-.3.5-.6.8-.7,2.5,0,3.2,2,3.7,3.9.6,2,1.3,1.8,2.8.7,6.9-4.9,7-5,2.5-12-2-3.1-3.3-6.6-5.4-9.6-1.3-3-3.1-4.9-6.6-3.2-1.3-1.1,0-1.9.5-2.4,2.3-2.8.9-3.8-1.7-5.1-5.3-2.7-11.1-4.2-16.5-6.8,4.1,0,7.9,1.2,11.6,2.8,2.7,1.2,5.3,2.5,7.9,3.9,2.4,1.4,3.5-1.1,5.2-1.6h0Z"/>
      <path class="cls-143" d="M213.8,63.7c3,2.2,3.4,5.6,3.9,8.9.6,3.2.9,6.5,1.3,9.8.5.4.5.9,0,1.3-.6.3-1,.7-1,1.4.5,7-3.6,11.2-8.6,15.1-3,1.8-6.3,1.1-9.6,1.2-3.2-.7-5.7-2.8-8.5-4.3-2.5-1.3-2.8-3.1-1.2-5.4,3-4.1,5.5-8.5,9.8-11.6.3-.2.3-.8.5-1.3,0-.1.2-.3.2-.4.7-.6,1.6-1,1.9-2,1.4-1.5,2.6-3.3,4.5-4.3,1.4,0,1.7-1.4,2.6-2,.6-1.3,1.4-2.4,2.5-3.3v-1.2c0-.9.4-1.6,1.4-1.9h0Z"/>
      <path class="cls-123" d="M182.6,100.5c0,.4.1.8,0,1.1-1.9,4.9-1,9.2,2.8,12.9-.8,2.5-1.8,4.6-5.1,3.3-.7-.3-1.6,0-2.5,0-3.3-1.5-6.5-3-9.8-4.4-1.3-1.2-3-1.5-4.6-2-.7-.3-1.4-.8-2.1-1.3-.9-.8-2.1-.6-3.2-1-.3-.1-.6-.3-.8-.6-.2-.5-.2-1,0-1.5,1.9-2.1,4.2-3.6,7.1-4.1,1.6-.3,2.4-1,1.5-2.7-.2-.5-.2-1,0-1.5,1.8-1.4,4.3-1.7,6-3.4.3,0,.7,0,1,.1,1,.8,1.3,2.4,3,2.2,1.2,0,2.5-.3,3.2,1.1.1,1-1.4,1-1.1,2.1,1.6.9,3.2-1.4,4.8-.2h0Z"/>
      <path class="cls-99" d="M239.2,109.5c-2.9.4-5.9.8-8.8,1.2-.5-.9-.3-1.7.2-2.4,2.4-3.8,2.9-8.7,6.8-11.5,2.5.5,3.4-1,4.1-3.1.6-1.9.9-4.2,3.5-4.7.4,0,.7.2.9.5,1.2,1.1-.4,3.4,1.4,4.1,1.4.5,2.6-1,4-1.2.7-.1,1.4-.2,2.1.3,1.1,3.5-2.1,4-4.1,5.6,3.8-1.5,6.9.8,10.2,1.4,2.1.6,5,.4,4.8,3.9-.2.8-.8,1.3-1.6,1.5-1.5,0-2.8.8-4.2,1.3-1.6.7-3.3,1-5,1-1.3,0-3.3,0-3.4-1.5-.1-1.8,2-1.3,3.2-1.6.7-.2,1.4-.2,1.4-.2-4.1-1-6.3,2.3-8.7,5.5-.3.1-.7.2-1,.2-1.9.4-3.8-1.3-5.7,0h0Z"/>
      <path class="cls-178" d="M204.9,115.6c-.9-1-1.6-2.2-2.6-3-2.1-1.6-2.4-3.3-.9-5.2,1.4-1.8,2.6-4.2,5.6-3.2,4.4.7,8.5,2.6,13,3,2.1.2,1.5,1.9.7,3.1-1.3,1.9-3,3.5-4.4,5.4-.8,1.2-1.9,2.1-2.1,3.7-.3,1.9-1.9,2.4-3.3,1.7-2.5-1.2-5.1-2.5-6-5.5h0Z"/>
      <path class="cls-202" d="M222.2,159.5c-1.9,6-3.4,12-3.8,18.3-2.2-.1-3.7-1.1-3.2-3.4,1.2-5.4.7-10.8,1.6-16.2,1.4-8.3,2.8-16.3,10.4-21.5.2-.1.3-.2.5,0,2.6,2.2,2.9,6.5.4,8.1-5.8,3.5-6.2,9.1-5.9,14.9h0Z"/>
      <path class="cls-105" d="M239.7,124.3c-.5.4-.6.9-.6,1.5-.7,0-1.7.5-1.9-.5-.5-2.5-1.8-3.2-4.8-2.1-.2-1.9,1.7-3.2,1.6-5.3-1.5.6-1.6,2.6-3.1,2.9-.2-.2-.4-.4-.5-.5-.1-1.1,1.4-1.9.5-3.1-.5-.6-1.2-.1-1.6.2-1.3,1.1-3.7,1-3.5,3.7.2,2.6,1.3,5,2,7.4.2.6.5,1.1.7,1.7.4,1.3,0,2.4-.9,3.4-.4.4-1.1.6-1.2,0-.3-1.2-1.7-1.7-1.2-3.5.7-3,.2-6.3-1.2-9-1.2-2.3.2-3.2,1.3-3.7,5.2-1.8,9.5-6.1,15.6-5.5.2,0,.4,0,.6,0,5.3.3,6.5,2,5,6.8v.2c-4.2-.7-4.7,3.2-6.7,5.2h0Z"/>
      <path class="cls-178" d="M202,121.9c-1-1.4-2.3-1.1-3.7-1-4.3.4-9.2-3.8-9.3-8.2,0-1.7,1.2-2.8,2.9-2.8,3.1,0,6.2,0,8.3,2.8,1.1,1.5,2.5,2.7,4.1,3.7.1,0,.3,0,.4,0,1.5,1.2,4.1,2.3,3.3,4.3-1,2.2-3.6,1.8-5.8,1.1h0Z"/>
      <path class="cls-130" d="M202,121.9c1.8-.3,3.6,0,5.4-1.1-1.1-1.5-2.2-2.9-3.2-4.3.2-.3.5-.6.7-.9,1.8,1.4,3.7,2.8,5.5,4.2,1,.7,2.4,1.3,2.8,0,1.2-4.7,5-7.6,7.5-11.5-4.6-1.7-9.7-1.2-13.7-4.2.2-.3.4-.6.7-.9,3,.8,6,1.5,9,2.5,1.6.5,3.1.3,4.7.2,2.8,0,4.1-1.1,3.3-4.1-.3-1.2-.2-2.5,1-3.2h0c0,.5.1,1,.2,1.4.4,3.1,2,4.1,4.9,3.1.6,1,0,1.7-.7,2.4-4.9,3.5-9.9,6.8-13.9,11.5-2.6,2.2-.4,4.1.6,6.1-4.5,1-8.8-1-13.2,0-.7.1-1.3-.5-1.7-1.2h0Z"/>
      <path class="cls-2" d="M222.2,159.5c-1,0-1.7-.2-1.6-1.4.6-4.7,1.7-9.2,4.4-13.3,1-1.5,3.3,0,3.6-2.4.3-2.1.5-4.1-.9-5.9.7-.1,1.5-.3,2.2-.4.8,1.6,3.2,1.8,3.5,3.8-2.5,0-1.1,3.1-3,3.6-1.2,3.5-4.2,6.2-4.1,10.3,0,.9-.2,2.2-1.7,2.4-2.2,0-.5,3-2.5,3.2h0Z"/>
      <path class="cls-178" d="M216.3,117c1.9-5.1,6.4-7.6,10.6-10.4.9-.6,1.8-1.2,2.7-1.9,1.4,2.9.2,6.3-3.2,9.4-2.4.8-3.6,3.2-6,4.1-1.8.7-3.3,1.1-4-1.3h0Z"/>
      <path class="cls-198" d="M226.3,114.2c.9-3.2,3.8-5.7,3.2-9.4.4-.6.8-1.1,1.2-1.7,2-2.8,2.2-6.2,3.2-9.4,1.8-.6,2.3-2.8,4-3.6,2,2.5.6,4.7-.6,6.9-2.9,4.3-4.6,9.2-7.1,13.7-1.4,1.1-1,4.3-4,3.5h0Z"/>
      <path class="cls-68" d="M242.3,132.9c1.6,1.6,3.6,2.3,5.8,2.2,1.4,0,2.4.7,3.2,1.5.9,1,.8,2.5-.8,2.3-5.5-.8-11.4.5-16.5-2.7-.2-.1-.2-.4-.3-.7,3.2.2,5.6-2.1,8.6-2.7h0Z"/>
      <path class="cls-105" d="M239.2,109.5c0-.8,0-2.2,1.1-1.6,1.4.7,2.9-.2,4.1.8-.9,1.3-1.3,3.1-3.2,3.5,0,0-.2-.1-.2-.1-.1-1.2.2-2.6-1.7-2.6h0Z"/>
      <path class="cls-105" d="M216.6,130.4c-1.7.1-3.5.8-5.2-.2,1.7-.3,3.5-2.2,5.2.3h0s0,0,0,0Z"/>
      <path class="cls-105" d="M216.6,130.4c2,0,4.1-1.1,6.8,0-2.8,1.2-4.8,1-6.8-.1h0s0,0,0,0Z"/>
      <path class="cls-230" d="M108.5,125.9c.2.9.4,1.7.6,2.6,1.1,1,1.2,2.3,1.3,3.7.2,2.4,1,3.7,3.4,1.8.7-.5,1.5-.9,2.3-.2.6.9.7,1.8-.1,2.7-2,2.5-2.3,6-4.9,8.2-2.3-.1-4.7-.4-6.2-2.4-.7-1-1.6-1-2.6-.8-2.4.3-3.9-.7-5.6-2.4-2-2-5.4-1.6-8.3-1.8.3-5.1,2.5-9.6,4.8-14,1.9-.2,1.5,1.2,1.6,2.2.2,2.4,1.1,4.1,3.8,4,1.5,0,2.2.8,2.8,2,.8,1.5,1.9,2.8,3.7,2.5,2-.4,1.3-2.3,1.5-3.7,0-.7.1-1.5.7-2,.4-.8.7-1.5,1.1-2.3h0Z"/>
      <path class="cls-102" d="M115.9,136.5c-.1-.9-.2-1.9-.3-2.8-.8-1.2-.3-1.7.9-2,.8-.7.6,2.6,2.1.4,2-2.8,4-2.5,6.1.4,2.9,3.9,2.9,3.9,7.5,2.2,8.7-3.1,16.3-7.9,22.9-14.4,3-3,6.3-5.8,5-10.8.5-.3,1-.4,1.5,0,.7,0,1.3.3,1.6,1,.8,1,2.7,1,2.6,2.8,0,.6,0,1.2.2,1.8,1.9,5.8-.1,10.3-4.9,13.7-5.7,2.8-10.2,7.5-15.9,10.5-8.9,4.7-17.7,9.4-27.8,11.1-4.2.7-4.7,0-3-3.9,1.5-3.3,2.8-6.5,1.4-10.1h0Z"/>
      <path class="cls-9" d="M165.9,113.4c-.9-.9-2.3-1.4-2.6-2.8,2.2-.2,3.9.5,4.7,2.7-.7,0-1.4,0-2.1.1Z"/>
      <path class="cls-124" d="M244,145.4c1.8,3.4,2,7.1,2.2,10.9-1.7.5-1,1.9-1,3,0,1.8,1,3.6,0,5.3-.8-1.3.6-3.8-2-4.2.6-5-.7-10.1.9-15h0Z"/>
      <path class="cls-124" d="M244.6,171.4c-.4-2.1-.2-4.1.6-6.1.3,2.1.9,4.2-.6,6.1Z"/>
      <path class="cls-235" d="M224.7,156.2c0-1.8,2.6-3.6.2-5.5,0,0,0-.6.2-.6,2.9-1.3,2.8-5,5.4-6.5,0,2.5-1.5,4.9-.6,7.4-2.1,3.9-1.6,8.3-2.3,12.5-1.2,6.6-2.5,13.1-3.8,19.7-.9.6-.7,2.6-2.1,2-1.2-.5-1.1-2.2-.7-3.3,2.2-6.3,1.9-13.1,4.1-19.4.6-1.8-.2-4.1-.3-6.2h0Z"/>
      <path class="cls-115" d="M233.6,155.7c.2-.3.4-.5.6-.8,1-1.1,1.2-3,3.1-3.4,2.3,1.7,1.2,3.8.9,5.9-1.4,5-.7,10.2-1.6,15.2-.2,1,0,2.6-1.3,2.6-1.6,0-1.7-1.7-1.6-2.8.3-3.1,0-6.1-.6-9.1-2-3.1-1.8-4.7.6-7.5h0Z"/>
      <path class="cls-25" d="M239.1,180.4c-1.9,7.9-4,15.8-6.7,23.5-.4,1.1-.8,2.3-1.4,3.7-1.6-1.5-1.5-3-.9-4.5,1-2.9,2.1-5.7,3.2-8.6.4-1,1.2-2-.1-2.9,1.1-3,2.3-5.9,3.1-9,.6-2.2.2-4.6,1.8-6.5.4-.4.6-.8,1.1-.3,1,.9.6,2,.6,3,0,.5-.3,1.1-.7,1.4h0Z"/>
      <path class="cls-216" d="M233.6,155.7c-1.5,2.4-1,5-.6,7.5-.8,2.8-.2,5.6-.2,8.3,0,2.1,0,4.1-.8,6.1-2.5,1.3-3.4,0-3.2-2.2.5-5.9.7-11.9,2.2-17.7.3-1,.5-2.9,2.6-2.1h0Z"/>
      <path class="cls-154" d="M238.2,157.4c-.3-2-.6-3.9-.9-5.9,0-.9-.1-1.7,0-2.6.2-1,.5-2.1,1.8-1.9,1.4.1,1.7,1.1,1.5,2.4-.4,2.8-.7,5.6-2.4,7.9h0Z"/>
      <path class="cls-33" d="M239.1,178.9c0-1,0-2,.1-3,.7-.3,1.4-.7,2.1-1-.1,1.3-.2,2.5-.3,3.8-.6.6-1.2.8-1.9.3h0Z"/>
      <path class="cls-124" d="M243.4,163.3c.1,1.2-.2,2.2-1,3.1-.3-1.2-.2-2.3,1-3.1Z"/>
      <path class="cls-29" d="M239.1,178.9c.6,0,1.3-.2,1.9-.3-.4.8-.7,1.6-1.1,2.4-.3-.2-.6-.5-.9-.7,0-.5,0-1,0-1.5h0Z"/>
      <path class="cls-10" d="M250.4,146.7c.2,0,.3,0,.5,0,2.1,3.8,4.7,7.4,6.1,11.5,1.8,5,3.6,10.4,1.4,15.9-1.9-1.6-1.4-3.8-1.5-5.8-.4-4.8-1.2-9.4-4.8-13,2.4,7.1,6.4,13.9,4.6,21.1,0-.5,0-2,1.8-2.2-.2,6.1.6,12.5-2.8,18.1-.5.7-.6,2.2-2,1.6-1-.4-.7-1.4-.7-2.3,0-4-.2-8-.3-12.1,1.1-.2.4,1.7,1.9,1.4-3.5-9.6-2.9-20-5.8-29.7-.5-1.8-.8-3.8,1.8-4.4h0Z"/>
      <path class="cls-189" d="M256.9,147.4c3.7-.4,7.5,1.4,11.3,0,0,1.2-.2,2.5-.3,3.7-.5.2-1.4.8-1.6.7-2.8-2.2-6.6-2.2-9.4-4.3h0Z"/>
      <path class="cls-146" d="M285.7,155.4c1.1.4,1.9,1,2.6,2,5.3,8.4,12.5,15.5,16.1,25,.6,1.5,2,1.6,3.2,2.2,1.4.8,2.4,1.9,2,3.7-6,5.2-10.6,5.5-17.1.9-2-1.4-4.1-2.7-6.2-3.9-3.2-1.9-5-4.8-6.6-8.1-4.3-9.2-6.6-18.8-6.1-29,2-.5,2.8,1.1,3.6,2.4,1.5,2.4,2.2,5.1,2.6,8,.2,2,.1,4.2,1.6,5.9,1.1,1.8.9,4,2.3,5.7.2.3.3.6.5,1,.9,2,.1,4.5,2.1,6.1,2.8-3.6,2.7-9-.1-13.6-.4-.7-.6-1.4-.7-2.2-.1-1.2-.3-2.4-.4-3.6,0-.9,0-1.7.7-2.3h0Z"/>
      <path class="cls-139" d="M270.1,140.3c.4-9.6,4.7-15.9,13.1-20.3,1,2.7,1,5.6,2.1,8.4-.1.4.8,0,.3,0-.3,0-.3,0-.3-.2.2-1.7.7-2.2,1.7-.4-.9,2.7-.1,5,1.4,7.3.7,1,1.8,2.4.3,3.6-1.2,1-2.3,0-3.3-.7-1.9-1.3-3.8-2.7-5.7-4-1.7-1.2-1.2-3.2-1.6-4.9-1.1,1.3-1.2,3.4-3.1,4.1-1.1,1.7-2.6,3.3-2.7,5.6,0,1.3-1.1,1.7-2.3,1.7h0Z"/>
      <path class="cls-75" d="M309.5,187.9c-1-1-1.9-1.9-2-3.4.1-2.7.3-5.5-.3-8.1,1.3.3,1.6,1.3,1.8,2.5.2,1.2.8,2.2,2.1,2,1.4-.2,1.4-1.4,1.6-2.5.3-2.3,1.1-4.5.6-6.9-.3-1.7.3-3.7,1.8-3.9,1.9-.3,2.3,1.7,2.6,3.3.5,3.3.9,6.5,1.3,9.8.7,2.2-.5,3.4-2.5,4-.2.3-.4.5-.7.8-1.9,1.3-4,2.3-6.3,2.4h0Z"/>
      <path class="cls-156" d="M281,165c-2.8-1.4-1.8-4.3-2.3-6.5-.8-4-1.5-7.9-5.2-10.4.2-3-.2-6.1,1-9.1,1,.4,1.1,1.6,2.1,2.1,2.6-1.1-.1-5.2,3.3-5.8.3,1.7.6,3.4.8,5.1-.1,4.9,2.9,9,3.4,13.7,0,.1-.2.3-.3.4-2.2,1.4-2.6,3.6-2.4,6,.2,1.5.8,3.1-.4,4.5Z"/>
      <path class="cls-203" d="M309.5,187.9c2.1-.8,4.2-1.6,6.3-2.4-4.8,2.7-8.8,6.8-14.1,8.6-3.9,1.3-7.2-.2-10.4-2.2-5.6-3.6-10.8-7.5-11.7-14.8,3.4,4.7,8.2,7.7,12.9,10.9,6,4.1,9.1,4.4,15.2.5.5-.3,1.2-.4,1.7-.6h0Z"/>
      <path class="cls-203" d="M316.5,184.7c.8-1.3,1.6-2.7,2.5-4,2.5-2.8,5.4-4.6,9.4-5.1,4.6-.6,7.1-2.8,11.8-8.6,1,2.6.7,3.9-1.8,8.1-1.3-1.9-2.3-.3-3.3.3-5.8,3.1-11.7,6-17.2,9.7-.5.3-.9,0-1.3-.3h0Z"/>
      <path class="cls-188" d="M334,181.7c-3.1,1-5,3.6-7.5,5.5-3.3-.1-5.7,3-9,2.7-.8,0-1.9.6-2.2-.6-.3-.9.5-1.7,1.3-2,5.5-2.2,10-6.1,15.3-8.6,1.7-.8,3.1-1.2,3.4,1.3-.4.6-.8,1.1-1.3,1.7Z"/>
      <path class="cls-71" d="M279.8,135.3c-1.1.8-1.1,1.8-.9,3,.2,2-.2,4.3-2.1,4.5-2.5.4-1.8-2.3-2.3-3.8-.5-2.1,1.2-4,.6-6,.9-2.5,1.9-4.9,4.4-7.5-.4,3.3-.1,5.8.3,8.3,0,.5,0,1,0,1.5h0Z"/>
      <path class="cls-209" d="M211.2,41.7c2.7-2.4,5.1-1.5,7.2,2.7,2.3,5.6.2,14.6-4.2,17.8h-.1c-3.3,1.7-6.2.8-7.8-2.5-1-2.1-1.6-4.3-.9-6.7.5-1.6,1-3.1,1.5-4.7.1-.8.4-1.5,1.4-1.6,1.7,1.4.5,3.2.5,4.8,0,1.9-.3,4.7,2,4.9,2.6.2,2.6-2.8,2.8-4.7.4-3.2-.7-5.7-4.1-6.7.6-1,1.2-2.1,1.8-3.1h0Z"/>
      <path class="cls-80" d="M209.5,44.8c3.5-.9,4.8.6,5.2,4,.3,2.4-.2,4.6-.9,6.8-.4,1.4-1.3,2.5-2.9,2.4-1.7,0-2.5-1.2-3-2.8-1-3,.4-5.8.3-8.7.4-.6.8-1.2,1.2-1.7h0Z"/>
      <path class="cls-178" d="M185.3,36.9c.2-3.2,2.4-5.7,3.4-8.6,1.3-.2,1.1.7.8,1.3-1.3,2.5-2.2,5.2-4.2,7.2Z"/>
      <path class="cls-131" d="M280.7,53c-.4.6-.8,1.1-1.3,1.7-2.9.9-5.4,3.6-8.9,2.5-.5-.2-1-.5-1.3-.9-.9-1.3-1.4-2.9-2.1-4.3-1.5-3.7-3.8-6.9-6-10.2-.5-.8-1.2-1.5-1.7-2.3-1.8-.7-3.6-1.5-5.4-2.2-1.2-.5-2.5-1-2.7-2.6h0c1.8-1.8,3.7-.5,5,.5,5.2,4.1,9.4,2.5,13.3-1.9,1.6-1.8,3.7-3.3,5.7-4.6,1.9-1.2,1.8-2.1-.3-2.9-4.1-1.6-8-3.6-12.3-4.9-1.3-.4-2.7-.7-3.1-2.2,2.4-2.1,4.6-.5,6.8.4,3.6,1.5,7.2,3.1,10.6,5,2.7,1.5,4.8,1.6,7.2-.7,2-1.9,4.4-3.5,6.7-5,1.1-.7,2.3-1.9,4.3-.7-3.3,2.4-6.4,4.8-9.7,6.7-2.6,1.6-3,3.3-1.2,5.6.1.3.2.7-.2.9-.2,0-.4,0-.6-.2-1.4-2.8-3.2-3.1-5.6-.9-1.9,1.7-3.9,3.4-5.8,5.1-1.4,2.5-1.6,5.6-4,7.7-1.2,1-.7,2.2.5,3.1,2,1.5,3.8,3.2,5.3,5.1,1.8,2.3,4.7,1,6.7,2.4h0Z"/>
      <path class="cls-191" d="M244.8,52c2.4.5,4.5.4,5.6-2.2,2.3-1.7,4.6-3.3,6.9-5,1.4.4.9,1.3.6,2.1-1,1.4-2.3,2.7-3.8,3.5-3.1,1.9-4.5,4.3-3.5,7.9-.1.3-.3.6-.6.8-.6.2-1.3.3-1.7-.2-2-2.1-3.4-.8-4.8.8-1,1.2-1.8,3.2-4.1,2,.1-1,.2-2,.3-3,3.8-1.5,5.6-3.9,5-6.7h0c0,0,0,0,0,0Z"/>
      <path class="cls-49" d="M257.5,46.6c0-.6.8-1.3-.1-1.9,1.7-1.3.9-3.7,2.1-5.2.8.4,1.9.3,2.2,1.4,0,1.3,0,2.5-.6,3.9-2,4.3-.1,6.9,4.5,6.3.9-.1,1.7-.1,2.3.7,1.2,1.1,1.3,2.8,2,4.2-6.4,2.6-12.4-2-12.4-9.4h0Z"/>
      <path class="cls-191" d="M270.7,56.7c3-.5,5.7-2,8.7-2,0,.3,0,.5.1.8-1.9,1-3.7,2-5.6,3-2.2,4.5-2.2,9.5-3.5,14.2-.5,1.6.5,1.9,1.9,1.6,2.4-.6,4.8-1,7.2-1.3,1.3-.2,2.7-.4,3.9.5,1.3-.8,0-2.4,1.7-3.8-1.6,2.8,4.9,1.5,1.5,4.9-2.2,1.1-2.9,3.5-4.5,5.2-3.6,3.6-5.6,8.5-9.4,11.8-.1,0-.3-.2-.4-.3.2-4.3,3.1-7.3,5.4-10.5.8-1.1,2.1-1.7,2.9-3.6-6.5,2.1-13.7,1-17.5,8.4-1.5,3-3.8,5.7-6.5,8-1.7,1.5-1.5,2.7.7,3.4,1.2.4,2.5.5,3,1.8-.1.9-.8,1.1-1.5,1.2-1.1-.3-2.2-.4-3.2-.8-2.9-1-5.9-2.5-8.3,1.7,0-4.7,5.4-4.7,6-8.4,1.7-4.3,5.6-7.2,8.1-12.1-5,1.7-9.3,3.2-12.5,6.8-.9,1-1.5,2.7-3.4,2h0c-.5-.4-1.1-.4-1.7-.5-2.2-.3-2.7-2-1-2.9,5.4-3.1,4.8-9,6.9-13.7-2.3,1-4.2,2.5-6.2,3.8-1.2.8-2.5,1.8-4,.8.5-3,4.1-2.8,5.3-5.1,1-1.8,2.7-2.7,4.4-3.8,1.7-1,2.4-2.3,1.4-4.2-.8-1.5-1.4-3.2-.1-4.8h0c2.2-.3,2.5,1.6,3.2,2.9,1,1.8,2.1,2.3,4.2,1.4,4.5-1.9,9-3.7,13.2-6.3h0Z"/>
      <path class="cls-21" d="M239.3,76.7c3.2-.6,5.3-3.2,8-4.8,1.3-.8,2.6-1.1,4.2-2.2-1.5,5.1-2.6,9.6-4.2,13.8-.7,1.9-3.7,1.7-4.8,3.7.4,1.5,2.8,0,2.9,2-2.9,1.3-2.6,4.4-3.6,6.7-1,2.2-2.2,3.2-4.3,1.1-1.1-2.4,1.3-4.5.6-6.9,1-4.4,2.2-8.8,1.2-13.4h0Z"/>
      <path class="cls-129" d="M250.2,58.7c.2,1.3,0,3,.8,3.9,3.1,3.7.5,5.3-2.3,6.7-1.4.7-2.4,2.2-4.1,2.3,0-.5,0-1,.1-1.4,1.8-4,1.8-4-2.7-4.4-2.8-.2-2.9-2-2.6-4.1,2.4-.1,2.9-2.4,4.2-3.7,1.8-1.8,3.3-3,5,0,.3.6.9.7,1.6.7h0Z"/>
      <path class="cls-41" d="M236.2,76.9c-1.9.3-3.3,3.2-5.2,1.6-1.5-1.3-1.2-3.9-1.1-5.9,0-2.5.7-5.1.3-7.6-.2-1.3.5-2.1,1.8-2.4,2.1-.5,3.5.6,3.9,2.4.7,3.9,2.4,7.9.3,11.9h0Z"/>
      <path class="cls-81" d="M259.7,18.6c5.9,2,11.7,4.3,17.4,6.9,2.1,1,2.6,1.6.3,3-4.2,2.5-7.8,6-11.5,9.2-1.9,1.7-3.4,2-5.8.5-2.6-1.6-5.2-3.7-8.7-3.5-.1-.6-.5-1.1-1.1-1.4-4.1-2.1-4.1-2.1-1-5.8,1.7-2.1,4.6-3.5,4.8-6.7,1-1.4,2.5-1.7,4.1-2,.5,0,1,0,1.5-.1h0Z"/>
      <path class="cls-191" d="M244.8,52c-1.9.5-3.2-.2-4.7-2.1,2.1.2,3.7.4,4.7,2.1h0c0,0,0,0,0,0Z"/>
      <path class="cls-116" d="M53.2,124.9c.5.7,1,1.4,1.5,2.1-.3.8-.5,1.5-.8,2.3,0,.2,0,.4,0,.6-.5,1.1-1.3,1.8-2.6,1.1-1-.5-1.3-1.5-1-2.5.5-1.6.2-3.9,3-3.6Z"/>
      <path class="cls-116" d="M53,134.7c-.5.2-.8.9-1.4.2-1.8-2.8,2-3.4,2.2-5.4v-.2c.7-.3,1.4-.7,2-1,1.3,0,1.5.5.5,1.4-1.5,1.4-3.1,2.7-3.3,5h0Z"/>
      <path class="cls-94" d="M53.8,129.5c.3,2.2-2.4,3.3-2.2,5.4-1.2.4.6,2-.9,2.3-3.3-2.7-7.3-3.9-11.4-5-.6-1.7.5-2.6,1.6-3.6.9-.8,1.7-1.7,1.9-3,3.3-1.9,6.6-4.2,10.4-.8-2,.7-1.4,2.8-2.2,4.2-.3.5,0,1.2.7,1.5,1,.4,1.3-.8,2.1-1.1h0Z"/>
      <path class="cls-153" d="M42.9,125.7c1.1,1.4,0,2.2-.9,3-1.1,1-2.2,2-2.6,3.5-.7,1.2-.2,1.8,1,2.1,1.3.3,2.5.6,3.4,1.7,0,.5,0,1,0,1.5-1,1.1-1.4,3.6-3.7,1.3-1.4-1.4-1.8,1.2-3.5,1.2-.2-1.4-.4-2.9-.6-4.4,1.3-4,3.8-7.1,6.9-9.9h0Z"/>
      <path class="cls-141" d="M280.7,53c-3.7,1.2-6.7,0-8.8-3.2-1.1-1.6-2.7-2.9-4.4-3.8-1.3-.7-1.9-2.6-1.2-3,3.4-1.9,2.6-6.5,6-8.3,0,2.8,1.5,4.7,3.9,5.7,2.8,1.2,5.7,2.1,8.6,2.9,2.2.6,3.9-1,5.6-2,.2.1.3.2.2.3,0,.1,0,.2-.2.2-.2.3-.4.6-.5,1-.3,2.3,1.8,5.4.2,6.6-2.6,1.9-6.2,2.4-9.4,3.5h0Z"/>
      <path class="cls-229" d="M283.7,30.7c.3-.2.5-.5.8-.7,2.2-.2,4.4-.6,6.6-.7,3,0,4.2,1.7,3.5,4.5-1.1,4.2-7.9,7.9-12.1,6.5-2-.7-3.4-2.1-3.8-4.1-.4-1.9,1.1-3.1,2.5-4.2.8-.6,1.7-.9,2.6-1.4h0Z"/>
      <path class="cls-16" d="M290.5,41.9c0-.2,0-.4,0-.6,2.2-.3,3.7-1.8,5.4-3,2.7-1.9,5.6-3.5,9.1-3.5s3.1-1.1,3.7-2.8c.8.5,1,1.2,1,2.1-.1.2-.4.4-.4.6,1.6,5.7-3.1,6.6-6.5,8.6-3.4,1.9-7,2.7-10.9,2.2-.4-1.2-.9-2.4-1.3-3.6h0Z"/>
      <path class="cls-83" d="M305.7,27.3c-.4-2.5-2.3-4.3-3.2-6.5-1.1-2.8,0-4.4,3-4.3,4,.2,7.1,2.2,9.8,5.1-1.8,1.5-3.2,0-4.7-.5-1-.3-2.2-1-3,0-.8,1-.1,2.1.4,3.1.5.9,1.2,1.6,2,2.1,1.3.9,2.6,2.2,4.3,1.3,1.6-.9,1.2-2.5.9-4-.2-.7-.3-1.5.2-2.1,2.9,2.6,3.2,6.2,3.1,9.6,0,2.2-3,2.9-5.3,1.5-1.9-1.1-3.8-2.3-5.7-3.4-.6-.7-1.2-1.3-1.8-2h0Z"/>
      <path class="cls-142" d="M308.9,52.1c.8-4.1.8-8.5,2.9-12.3.9-.5,2.1-.7,2.7-1.8h0c.5,0,1-.1,1.5-.2,1.6-1,3.3-1.9,5.2-.6-1.1,6.1-3.6,11.3-8.6,15.1-1.4,1-2.6,2.2-3.7-.2Z"/>
      <path class="cls-187" d="M321.2,37.2c-1.7.2-3.5.4-5.2.6,1.8-1.9,3.4-4.2,6-5.2,0,1.2-.2,2.4-.3,3.6-.2.3-.3.6-.5.9h0Z"/>
      <path class="cls-22" d="M157.4,107.1c.1.5.2.9.4,1.3.2,2.6-1.9,3.3-3.6,4.3-1.7.5-3.1,1.4-4.1,2.9-3.6,4-7.7,7.2-12.4,9.8-4.1,2.3-8.3,3.8-13,2.4-1.9-.5-3.3.3-4.6,1.6-1.3,1.4-2.6,2-3.7-.3-.2-.5-.3-1.1-.1-1.6,0-.5,0-1,0-1.5,1.9-.3.6-2.4,1.8-3.2,2.4-.5,4.1-1.8,4.6-4.4,3.1-1.6,3.9-6.2,8.1-6.3.7,1.5-.6,2.2-1.2,3.2-1.4,2.2-1,4.3.5,6.1,1.7,2,3.5,1,5.3,0,3-1.7,5.8-3.5,8.4-5.8,2.3-2,3.1-4.1,2.1-7,2.6-.8,6.4,1.7,7.9-2.6,1.6-1.1,2.7,0,3.7,1h0Z"/>
      <path class="cls-14" d="M157.4,107.1c-1.5.5-2.2-1.8-3.7-1-.2-1-.9-1.2-1.7-1.2-.9-.8-2.3-.2-3.2-1.2-1.5-.8-3.1-1.7-4.6-2.5-1.1-1.8.3-3.2,1.5-3.4,4.2-.5,7.6-3.4,11.9-3.4,2.7,2.2,5.5,4.3,8.8,5.5,2.2,1,2.4,3.2.3,3.4-3.6.4-6.2,2.7-9.4,3.8h0Z"/>
      <path class="cls-43" d="M145.8,108.7c3,2.3,2.1,4.3-.2,6.5-3.1,3.1-6.6,5.4-10.3,7.5-2.3,1.3-4.5,1.9-6.2-.3-1.5-2-2.6-4.5-.9-7,.7-1.1,1.6-2.1,2.5-3.1,4.7-2.5,9.7-4,15.2-3.5h0Z"/>
      <path class="cls-218" d="M157.8,95.2c-4.1.2-7.6,2.8-11.7,3.3-1.1.1-1.9,1.5-2.1,2.8-1.5-1-3.8-.2-4.8-2.1,5.2-1.7,10.3-3.5,15.5-5.1,1.4-.5,1.7-1.3,1.4-2.5-.7-3-.2-6.3-2.4-9-.6-.8-.6-2.1-.8-3.1,2.4,1.5,3.2,4,3.9,6.5.3,1.1,0,2.5,1.1,3.4.8.7,1.3,1.6,1.4,2.7,0,1.3-.2,2.5-1.6,3.2h0Z"/>
      <path class="cls-218" d="M136.2,98.9c0-.3,0-.7,0-1,2.2,0,.3-3.1,2.4-3,.2,1.4.5,2.9.7,4.3-.5.1-1,.3-1.5.4-.5-.2-1-.4-1.5-.6h0Z"/>
      <path class="cls-197" d="M148.7,103.7c1.3-.3,2.5,0,3.2,1.2-1.4.5-2.5.3-3.2-1.2Z"/>
      <path class="cls-18" d="M85,139.3c0,1.2-.2,2.2-1.1,3.1-.2-1.2-.1-2.4,1.1-3.1Z"/>
      <path class="cls-125" d="M104.7,124.7c-1.7.4-3-.3-4-1.7,1.5,0,3,.4,4,1.7Z"/>
      <path class="cls-8" d="M107.4,128.1c.1.9.3,1.7.3,2.6.2,1.8.4,4.3-1.8,4.6-2,.2-4.6-.5-5.4-3-.5-1.5-.6-2.1-2.6-1.7-2.6.5-3.8-1.4-4.3-3.9-.2-1.1,1-2.5-.5-3.4,0-1-.5-2,.3-2.8,3.3,4.9,9,5.7,13.8,7.8h0Z"/>
      <path class="cls-168" d="M116.1,127.6c.2.5.3,1,.5,1.5.3,1,1,1.9.2,2.9-.9.2-1.1.9-1.3,1.7-.8.2-1.1.7-1.4,1.5-.6,1.5-1.9,1.3-3.1,1-1.2-.4-2.3-1.2-2-2.6.4-1.7-.1-3.4,0-5.1,1.4.3,2.9.5,4.3.9,1.7.5,2.4-.3,2.8-1.7h0Z"/>
      <path class="cls-218" d="M150.6,77.5c1.6-.4,2.2.4,2.4,1.9-1.4.1-1.8-1-2.4-1.9Z"/>
      <path class="cls-114" d="M182.6,100.5c-.6.2-1.3.2-1.7.6-2.5,2.7-4,1.1-5.5-1.4,1-.3,1.9-.6,2.8-.8,1.1-2.4,0-4.2-1.6-5.9-3-3.3-7.3-5.3-9.5-9.4,0-2-2-4.1.3-6h0c.6,0,.7.6,1,1,.4,1,.2,2.3,1.4,2.9.5.4,1.1.8,1.6,1.3,2.9,2.9,5.6,6.1,8.8,8.5,3.7,2.7,4.3,5.5,2.3,9.3h0Z"/>
      <path class="cls-90" d="M167.1,83.5c3.6,3.1,7.3,6.1,10.7,9.3,1.7,1.7,3.6,3.8.4,6-1.1-.1-2.2-.3-3.4-.4-1-.7-1.7-1.7-2.4-2.6,0-.2-.2-.4-.4-.5-.9-.3-1.4-1-1.7-1.9-.8-2.1-2.1-4-2.5-6.2,0-.3,0-.7.1-1-.3-.9-.6-1.8-.9-2.7h0Z"/>
      <path class="cls-207" d="M168,86.3c.2.2.3.4.3.7.4,2.4,1.4,4.5,2.9,6.4.3.7.6,1.3.9,2-1.3,2.5-3.1,3.8-6,3-1.4-1-.7-2.1-.2-3.2.5-1.2,1.4-2.5,0-3.7-1.2-1-2.7-1-4.2-.7-1.2.2-1.9,1.6-3.3,1.1-.1-.9-.3-1.8-.4-2.7,3.4-.7,7.1-.4,10-2.9Z"/>
      <path class="cls-73" d="M167.9,78.8c-.1-.4-.2-.9-.4-1.3,1.6,0,1.9,1.2,2,2.5-1.4.8-1-1-1.7-1.2h0Z"/>
      <path class="cls-191" d="M167.9,78.8c.6.4,1.1.8,1.7,1.2.1.5.2,1,.3,1.5-1.5-.3-1.9-1.3-2-2.6Z"/>
      <path class="cls-172" d="M395.9,65.8c-.6,0-1.5.1-1.6,0-.3-.9.5-1.1,1.1-1.4.2.5.3,1,.5,1.5Z"/>
      <path class="cls-128" d="M182,67.2c-1-5.4.5-10.6.9-16.2,3.1,3.9,7.7,4.7,11.7,6.5,1.7.8,4.3-1.3,5.1,1,.6,1.8-1.6,3.4-2.1,5.3-.5,2.1-1.7,4-2.5,6.1-3.3,3.2-7.5,3.1-11-.2-.8-.8-1.3-1.8-2-2.6h0Z"/>
      <path class="cls-182" d="M207.3,72.2c-.6,2.2-2.7,3.2-4,4.7-.4,1.2-2.1.8-2.5,2h-.1c-.2,0-.5,0-.7,0-1.5,0-2.5,2.9-4.4.8-1.6-1.7-.7-3.5,0-5.1,2-4.9,3.4-10.1,6.6-14.8,1,1.9,1.8,4,3.5,5.4,2.4,1.9,3,4.2,1.7,7h0Z"/>
      <path class="cls-141" d="M192.8,75.5c-1,3.6-2.2,7.1-3,10.7-.3,1.2-1,1.9-1.4,2.9-.3.7-.9,1.3-1.7,1.1-.9-.2-1-1-1.1-1.7-.3-3.6-1.2-7-2.7-10.2-.4-.7-.7-1.8,0-2.4.8-.8,1.6.2,2.2.6,1.6,1.2,3.2,1.8,4.9,0,.7-1.1,1.6-1.5,2.9-1.1h0Z"/>
      <path class="cls-179" d="M183.9,90.7c-3-2.5-5.1-5.3-7.2-8.1-1.3-1.7-1.8-3,.8-3.7,1.6-.5,2.1-3.5,3.9-2.3,1,.7.7,3.2,1,4.8.5,3,2.2,5.7,1.5,9.3h0Z"/>
      <path class="cls-70" d="M192.8,75.5c-1,.4-1.9.7-2.9,1.1-6-1.5-7.9-3.7-8-9.4.9.6,1.9,1.1,2.7,1.8,3.2,3.1,6.7,2.7,10.4,1-.3,2-1.3,3.7-2.2,5.5h0Z"/>
      <path class="cls-27" d="M205.4,52.9c.5,1.9.9,3.8,1.6,5.7,1.2,3.2,3.8,4.3,7.1,3.7,0,.5-.2,1-.2,1.5-.1.9-.5,1.6-1.4,1.9-.7.1-1.5.6-2.1.4-4.7-1.3-7.5-8.8-5-13.1h0Z"/>
      <path class="cls-44" d="M212.5,66.8c-.2,1.6-1,2.7-2.5,3.3-.5-2.2.3-3.3,2.5-3.3Z"/>
      <path class="cls-155" d="M287.7,116.1c0-.9.4-1.4,1.3-1.6,3.5-1.3,4.5-4.9,6.8-7.3,1.3-1.4,2-3,4.6-2.6,2.5.4,2.8-3,4.7-4,2.4,1.6,5.7,1.3,7.9,3.3-4.7,7-9.1,14.2-10.6,22.7,0,.5-.2,1.2-1.4,1.4-.6-1.5-1.3-3-1.8-4.5-.8-2.7-2-3.7-4.8-2.3-1.3.6-2.9.6-4.3.8-1.7-1.6-2.4-3.6-2.5-5.8h0Z"/>
      <path class="cls-192" d="M287.7,116.1c1.9,1.5,2.3,3.6,2.5,5.8-.2,2.3,1.1,5.5-3,5.7-.8.3-1.3.9-1.7,2.1-1.5-3.3-3.5-6.1-2.1-9.8.6-.6,1.2-1.2,1.9-1.8.7-.6,1.5-1.1,2.2-1.8,0-.1.2-.2.3-.2h0Z"/>
      <path class="cls-76" d="M294.1,142.7c-1.3-.8-2-1.6-1.5-2.8.2-.4.8-.9,1.1-.5.7.9.8,2,.4,3.4h0Z"/>
      <path class="cls-156" d="M285.7,155.4c0,.7.2,1.5.3,2.2-.5.3-1,.2-1.5,0-.3-.2-.5-.5-.7-.8-.3-.9-.4-1.8.3-2.6h0c.9,0,1.5.3,1.6,1.2h0Z"/>
      <path class="cls-211" d="M327.1,163c-.7-2.6-.7-5.5.5-8.3.4-.9.8-1.9,1.9-2,1.1,0,1.9.8,2.1,1.7,1,4.7,2,9.4-.4,14-.4.7-.6,1.7-1.7,1.6-1.2-.1-1.6-1-1.7-2-.2-1.6-.4-3.2-.7-5h0Z"/>
      <path class="cls-26" d="M338.7,139.9c-.2,3.1-.4,6.2-.6,10.1-2.3-3.6-2.1-7.3-3.8-10.3-1.1-8.3-2.3-16.5-3.4-24.8-.2-1.5-.4-2.9,0-4.4.3-1.1,0-2.9,1.6-2.9,1.3,0,2,1.5,2.2,2.7.7,4.2,1.3,8.5,1.8,12.8.7,5.6,1.5,11.2,2.2,16.8h0Z"/>
      <path class="cls-134" d="M258.8,100.1c.3-.6.8-.9,1.4-1,2.2-2,4.5.1,6.7,0,.3.1.6.3.9.6,1.7,2.9,5.2,1.9,7.6,3.2,2.9,1.5,6.1,1,9.2.3-.9,2.8-2.7,4.2-4.7,3.7-5.3-1.7-10.7-2.7-16.2-3.8-.1-3.4-3.3-1.9-4.9-3.1Z"/>
      <path class="cls-164" d="M272.7,91.6c-1,3.1-2.1,6.1-4.9,8.1l-.2-.2c-1.3-3.3.9-7.1,4.8-8.2,0,0,.2.2.3.2h0Z"/>
      <path class="cls-103" d="M263.7,103.2c5.9-1.5,11,1.7,16.4,2.8,0,.3-.2.6-.2,1-4.8,4.7-10.7,7.2-16.9,9.2-1.5.5-3.3-.9-5-.3-.7-1.1-1.8-1.4-3-1.1-.9,0-1.7-.5-2.2-1.3-.3-2.7,1.7-2.9,3.5-2.9,2.6,0,4.1-.8,3.9-3.7,0-1.4.5-2.6,2.2-2.8l1.3-.9h0Z"/>
      <path class="cls-110" d="M314.6,38c-.1,1.8-1.5,1.7-2.7,1.8.6-1,1.5-1.7,2.7-1.8Z"/>
      <path class="cls-73" d="M283.5,73.5c-3.9,1-8.1.8-11.9,2.3-2.5,1-3.3-.7-2.6-2.7,1.4-3.7,1.7-7.6,2.5-11.4.3-1.6.8-2.8,2.5-3.2.7,3.6,3.4,5.8,6,7.8,2.4,1.9,3.6,4.1,3.5,7.1h0Z"/>
      <path class="cls-120" d="M253.2,113.5c.8,0,1.4.5,1.8,1.3,2,1.4,2.1,3.2.6,5-1.5,1.8-3.6,1.7-5.6,1.1-1.2-.4-2.3-1.2-3.5-1.9.5-4.1-2.1-5.6-5.4-6.7,1-1.2.8-3.6,3.2-3.5.2,0,.5,0,.7,0,.3.2.7.3,1,.2,3.2-1.1,5.6-.9,6.1,3.2,0,.6.5,1.1,1.1,1.4h0Z"/>
      <path class="cls-59" d="M239.7,124.3c.3-.9.7-1.8,1-2.7,1.2-4.2,1.7-4.5,5.7-2.5.6,1.3,1.6,2.6-1,3-2,.3-3.4,2.3-5.6,2.2h0Z"/>
      <path class="cls-155" d="M287.3,116.4c-.2,1.3-.5,2.3-2.2,1.8,0-1.5,1.1-1.6,2.2-1.8Z"/>
      <path class="cls-27" d="M214.2,62.1c3.3-5.5,4.9-11.3,4.2-17.8,3.1,5.2,6.2,10.4,9.3,15.6.3.5.5,1.4.3,1.7-2.6,3-5.9,5-9.1,7.3-1.1.8-.9-1-1.3-1.6-1.1-1.8-.7-4.5-3.4-5.2h0Z"/>
      <path class="cls-217" d="M219.1,83.6c0-.4,0-.9,0-1.3,2.2-1.9,1.2-4.3.4-6.1-1.1-2.4-.5-4,1.2-5.5,2-1.8,4.1-3.4,6.2-5.2,1.6-1.3,2-.2,1.9,1.1-.6,4.2-.4,8.3.3,12.4.1.8,0,1.4-.8,1.9-2.2,1.3-4.3,2.7-6.5,4-1.6.9-2.2,0-2.7-1.3h0Z"/>
      <path class="cls-130" d="M225.8,98.6c-.1-1.6-.9-3.3.9-4.6h0c0,1.6,1,3.3-.9,4.6h0Z"/>
      <path class="cls-130" d="M226.6,94c-.2-1.1-.2-2.1.6-3.3,1,1.4.6,2.4-.6,3.3h0Z"/>
      <path class="cls-180" d="M202.5,97.4c-.7,0-1.9-.1-3.1-.3-1.9-.2-3.8-.9-4.5-2.7-.8-1.8,1.2-2.8,2.1-3.9,3.4-3.9,7.4-7.1,12.1-9.5,2.5-1.3,3.1-.4,3,2-.2,4.6-.8,9.1-4.7,12.3-1.2,1-2.6,1.9-4.8,2.1h0Z"/>
      <path class="cls-181" d="M200.8,78.9c-.1-1.9,1.4-1.8,2.5-2,0,1.8-1.3,1.8-2.5,2Z"/>
      <path class="cls-3" d="M116.8,132c0-1-.1-2-.2-2.9.7.2,1.2,1.8,2,.5,2-3.2,4.3-3.4,7.9-2.3,3.5,1.1,7.1-.7,10.4-2.5,4.7-2.6,8.8-6.1,12.6-9.9,1.2-1.2,2.7-1.9,4.1-2.8,1.5-1,3.1-2,4-3.6.2,0,.5,0,.7,0,.5.5,1.5.5,1.6,1.4,2.9,2.5,1.8,4.9-.2,7.2-8.1,9.2-17.9,15.9-29.6,19.7-2.1.7-4.1,1-5.4-1.5-1.9-3.5-4.3-3.8-7.2-1-.9-.5-.5-1.5-.8-2.3h0Z"/>
      <path class="cls-208" d="M158.4,92c1.5-1.7,3.1-2.8,5.6-2.4,4.1.7,5,2.2,2.9,5.8-.5,1-1.3,1.8-.8,3,0,.5.2,1,.2,1.5-4,.5-6.7-1.4-8.5-4.8.2-1.1.4-2.1.6-3.2h0Z"/>
      <path class="cls-207" d="M172.5,95.8c1,.7,2,1.4,2.4,2.6-2,.2-2.1-1.3-2.4-2.6Z"/>
      <path class="cls-112" d="M160.1,109.8c-.5-.5-1.1-1-1.6-1.4,1.3-.2,2.6-.5,3.2,1.2-.5,0-1,.2-1.5.2h0Z"/>
      <path class="cls-21" d="M245.4,89.2c3.2-3.2,6.4-6.3,10.8-8.1,2.2-.9,4.3-1.2,7.8-1.7-4,4.9-6.7,9.5-10.7,13.2-1.7,0-3,.9-4.4,1.7-1.1.7-2.3,1-3.5.3-1.5-.9-.1-1.9,0-2.9.1-.8,0-1.7,0-2.5h0Z"/>
      <path class="cls-134" d="M253.2,113.5c-2.9-.2-3.4-2-2.6-4.7-2.1,1-3.9,1.5-5.6-.1.1,0,.3,0,.3-.1,2.1-6.7,8-5.1,13.5-6.3-2.5,3-5.6,1.7-8,2.8,2.5,1.2,4.4,1.1,7.5-.2,1.2-.5,2.4-2.1,4-.8-2.5,1.1-.1,3.8-1.7,5.2,2.7,2.2-.1,1.7-1,1.8-1.3.3-2.7.4-4,.4s-2.4.3-2.5,2h0Z"/>
      <path class="cls-206" d="M258.3,174c-1.6,1.5-.5,3.8-1.6,6-1-1.7-1-3.2-1-4.7.2-5.9-.9-11.3-4.2-16.3-1.2-1.8-2.2-5.2-.5-6.3,1.6-1,2.6,2.2,3.6,3.7,2.3,3.5,3.1,7.6,3.3,11.8,0,2,.2,3.9.4,5.9h0s0,0,0,0Z"/>
      <path class="cls-135" d="M302.8,182.9c0,.2,0,.5.2.7.5.7.9,1.4,1,2.3.1,1.1.6,2.3-.5,3-1.4,1-2.1-.4-3-1.1-3.3-3.4-6.2-7.1-6.1-12.3,0-1-.2-2.1,1-2.5,1-.3,1.5.6,2,1.3,1.2,1.7,2.4,3.4,3.5,5.1,1,.9.9,2.6,1.9,3.5h0Z"/>
      <path class="cls-163" d="M286.5,161.3c.1.7.3,1.4.4,2.1,1.6,2.6,1.3,5.7,1.8,8.6.2,1.5-.4,2.8-1.9,3.1-1.9.4-2.1-1.2-2.4-2.5-.1-.7-.4-1.4-1-1.9h0c-1.8-3.2-1.7-6.8-2-10.2-.1-1.8.5-3.7,3.1-3.3h0c1.3,1.1.8,3.1,2,4.2h0Z"/>
      <path class="cls-205" d="M283.3,170.6c1.1,0,1.5.6,1.7,1.6.2,1,0,2.6,1.7,2.2,1.6-.3,1.3-1.8,1.2-3-.3-2.7-.7-5.3-1-8,3,2.9,2.4,6.7,2.2,10.3,0,.9-.6,1.8-.5,2.8,0,1.2-.2,2.3-1.6,2.4-1.4,0-2.4-.8-2.7-2.1-.5-2-.7-4.1-1-6.2h0Z"/>
      <path class="cls-205" d="M284.4,157.1c-2.1,1.1-2.6,3-2.2,5.2.4,2.8.7,5.6,1.1,8.3-2.1-1.3-1.9-3.6-2.3-5.7,0-3.2-1.8-6.4,0-9.7.8-1.3,1.5-1.8,2.9-1.1.1,1,.3,2,.4,2.9h0Z"/>
      <path class="cls-85" d="M300.5,187.8c6,1.7,1.4-3,2.5-4.2,1.5.5,1.7,1.8,1.9,3.2s-.4,3-2,3.4c-1.8.4-2.2-1-2.4-2.4h0Z"/>
      <path class="cls-205" d="M286.5,161.3c-2-.7-1.7-2.6-2-4.2.5.2,1,.4,1.5.6.2,1.2.3,2.4.5,3.7Z"/>
      <path class="cls-85" d="M302.8,182.9c-1.7-.6-1.8-2.1-1.9-3.5,1.7.6,1.8,2.1,1.9,3.5Z"/>
      <path class="cls-166" d="M270.7,56.7c-.5,3.4-3.9,3-6,4.3-2.2,1.4-5.3,1.6-7.3,3.1-2.4,1.9-3.1.8-4.5-.9-1.1-1.4-.9-3.7-2.9-4.5-1.4-6.2-.8-7.2,7.3-12.1.3.5.7,1,.9,1.6,2.2,6.6,3.3,7.4,11.5,7.8.3.2.6.5.9.7h0Z"/>
      <path class="cls-157" d="M267.9,51.8c-.6,0-1.3-.1-1.8.1-2,1-3.8,1.8-5.4-.7-1.5-2.3-2.6-4.6-.5-7,.8-1,1-2.2,1.5-3.3,2.3,3.5,5.1,6.7,6.2,10.9h0Z"/>
      <path class="cls-21" d="M272.4,91.4c-2.2,2.4-4.9,4.4-4.8,8.2-2.5,1.4-4.9-1-7.4-.5-1.5-1.5-3.7-.8-5.4-1.9-1.5-1-1.6-1.8-.4-2.8,4.7-4,7.8-9.4,11.6-14.1.7-.9,1.5-1.5,2.7-1.6,4.1-.3,7.9-1.4,11.8-2.6.6-.2,1.1-.6,1.6,0,.4.6.2,1.2-.2,1.7-.7.9-1.4,1.7-2.2,2.4-3.5,3.1-5.2,7.2-7.3,11.2h0Z"/>
      <path class="cls-233" d="M249.5,82.8c.7-5,2.7-9.1,3.9-13.5.8-2.9,4.1-2.9,6.2-4.1,2.7-1.5,5.7-2.6,8.5-4,1.7-.9,2.2.2,1.9,1.4-1.1,4.5-2.5,8.9-3.8,13.4-.3,1.1-1.1,1.6-2.2,1.6-5.2.2-9.8,2.3-14.5,5.1h0Z"/>
      <path class="cls-53" d="M315.3,21.5c.2.6.5,1.1.7,1.7.7,1.9,1.3,3.9-.6,5.3-1.9,1.5-3.6.5-5.3-.8-1.8-1.3-3.3-2.8-4-5-.7-2.6.4-3.9,3.1-3.4,2.2.3,3.7,2.6,6.1,2.2h0Z"/>
      <path class="cls-140" d="M153.7,112.1c-1.1,1.4-2.5,2.3-4.1,2.8.8-1.8,2.3-2.5,4.1-2.8Z"/>
      <path class="cls-113" d="M134.2,120.7c-3.3.4-4.6-1.4-3.4-4,1.7-3.8,7.8-7,11.6-5.9,1.5.4,2.2,1.6,1.2,2.7-2.7,3.2-5.9,5.7-9.4,7.2h0Z"/>
      <path class="cls-208" d="M171.2,93.3c-2.1-1.7-3.5-3.6-2.9-6.4,1,2.1,2,4.3,2.9,6.4Z"/>
      <path class="cls-185" d="M194.1,62.9c.1,2.4,0,4.9-3.3,5.3-2.4.3-5.2-1.9-5.5-4.4-.4-2.6,1.8-5.7,4.3-5.9,3.3-.2,4,2.1,4.5,4.9h0Z"/>
    </g>
    <g id="Layer_2">
      <path class="cls-12" d="M230.2,33.1c2.9,4.3,6.9,11.5,9.2,21,2.7,11.5,1.3,20.7,0,29.3-1.5,10.2-2.7,17.8-8.2,26.1-2.8,4.2-7.6,11.4-16.6,13.9-6.7,1.9-12.4.2-15.6-.7-11.7-3.5-18.1-12.4-21.8-17.4-5.8-7.7-7.9-14.9-9.2-19.1-4.8-16.2-2-29.5-1.1-33.6,1.5-6.2,3.1-13.1,8.9-19.9,2.3-2.7,9.5-11.2,21.9-12.6,10.6-1.2,18.6,3.4,21.2,5.1"/>
      <path class="cls-12" d="M164.2,62.8l-3.6,5.6s-20.8,6.8-23.8,9-9,4.7-12.6,9.5-9.3,13.8-9.3,13.8c0,0,0-1.4-6.6,2.7s-9,6.2-9,6.2h-16.8c0,0-2.4-4-9.4-4s-14.9-4.2-18.4-4.1-12.2-.3-14.5-.7-2.3.2-5.3-1.3-8.8-3.4-11-4.3-5.6-1.4-7.3,1.3-3.9,6,.4,9.4,9.7,5,11.6,5.9,5.6,3.5,6.7,4.9,3.9,4.3,3.9,4.3c0,0,.7,1.8-3.2,6.4s-13.7,18.1-17.6,20.9-9.2,7.1-10.8,8.8-3,6.5-1.7,10.1,7.8,4.2,10.6,1.8,13.1-10.6,13.1-10.6l6.7-3.4"/>
      <path class="cls-12" d="M55.8,128.3s-.9-7.9-6.9-5.3-7,2-9.7,6.6-3.5,5-4.3,8.7-.7,10.2.5,13.4,1,4.4,4.4,5.3,9.3,0,9.3,0"/>
      <path class="cls-12" d="M68.9,131c-2.5-1.9-4.1-3.9-4.1-3.9,0,0-2.7-3-5.9-.9s-4.7,2.5-7.4,8.7-2.6,11.3-2.4,14.1,0,8.8,1.6,9.5,3.9,1.4,6.7,1.4,6.4-.5,6.4-.5"/>
      <path class="cls-12" d="M70.3,139.3c-2.1,5.1-6,11.8-5.8,14.7s-.4,4.6-1.2,8.4-3.2,3.3-.8,6.3,4.9,7.1,7.8,6.1,4.4.9,5.6-3.7,5.3-16.3,5.3-16.3c0,0,4.2-9.8,4.7-11s-1.8-7.1,4.3-10.2"/>
      <path class="cls-12" d="M258.8,119.1c-6.4,4.9-13.4,13.2-19.1,15.2s-23.2,3.8-28.2,2-17.2-4.1-20.8-4.6-21-5.3-23.2-5.6"/>
      <path class="cls-12" d="M172.1,117.2s1,3.2-4.6,8.9-7,9-13.2,12.6-14.2,9.2-26.1,12.6-15.3,2.4-19.9,3.9-8.8,3.9-13.9,3-13.2-3.5-13.2-3.5"/>
      <path class="cls-12" d="M219.5,137.7c0,.5-2.2,2.5-4.3,11.9,0,0-3.7,22.8-5.7,37.4s-.4,31.3.7,36.5,3.8,15.2,5,18.3,3.2,8.1,3.5,8.6-.7.8,2.6,2.9,3.4,3,3.4,3c0,0-.8.8,1.6,3s4.3,4.1,7.2,5.5,8.5,3.6,12.8,1.5,7.9-3.8,10.3-6.3,6.6-7.3,8.6-11.1,2.9-6.3,5.4-10.7,4.1-6.2,6.2-9.1,2.9-4.2,3-5.8,1.3-1.6,2.6-4.6,3.8-11.3,4.1-13.7-.8-2.8.9-5.3,2.2-3.2,2.2-3.2"/>
      <path class="cls-12" d="M277.6,122.8c-4,5.5-6.1,9.5-7,13.3s-.5,2.5-1.5,7.5-1.7,6.7-1.1,12.4,1.7,10,4.9,15.3,3.4,5,7.1,12.4,4.6,8,7.1,10.4.9.8,3.8,4.1,4.7,4.2,7.1,6.3,14.7,10.3,36.4,5.6,24.6-7.5,24.6-7.5c0,0,4.2-3.2,5.9-3.7s-3.7,1.5,3.7-2.2,11-4,11.9-5.2"/>
      <path class="cls-12" d="M366.2,199c.3,1.6,1.8,7.4,1.6,10.9s-.1,10.3.2,15.6.6,11,3.6,14.6,4.3,6.3,10.7,6.9,5,1.8,9-.7,7.5-3.6,10.3-7.6,9-19.4,7.9-23.8-3.6-12.7-5.4-16.8-4.9-11.7-6.1-16.8-2-2.7-2.8-5.3-2.3-8.4-5.6-10.9-5.8-3.4-7.5-4.1-2-1.7-4.4-1.6-4.5.9-7.5,1.8l-3,.8"/>
      <path class="cls-12" d="M376.2,168.3s-.4-.7-1.1-.5-5.8-4.7-5.9-4.8-2.1-1.9-5-3.1-4.9-3.4-8.3-3.9-5.8-3.5-5.8-3.5c0,0,.9-11.6.1-17.2s-4.7-17.4-4.7-17.4c0,0-1.3-2.5-2.3-5.4s-7-13.1-8.6-15-3.5-3.9-4-4.5.7-.5-1.8-2.4-7.6-5.5-11.1-7.9-6.8-4.8-6.8-4.8c0,0-2.2-3.3-4.8-4.6s-1.2-.3-3.8-2.5-3.2-3.9-3.2-3.9"/>
      <path class="cls-12" d="M289.6,69.7c2.8.8,4.3,0,5.5-.7s3.3-1.5,6.7-3.6,4.8-6.1,6.4-6,14.8-3.9,18.7-7.1c0,0,.4-.2,6.9,1.7s25.7,8.2,25.7,8.2c0,0-.6-1.6,2.3,2.2s4.6,6.8,8.5,7.2,5.5,0,8.7.5,8.9,1.8,13.6,2.8,10.1,2,12.2,3.3,7.5,2.5,9,0,2.3-5.8,1.7-6.2,1.7-.3-3.3-1.6-7.2-1-7.8-2-1.4-1.8-1.6-2.6-.3-1.3-.3-1.3c0,0-1.7-3-3-4"/>
      <path class="cls-12" d="M402.6,64.3c-.3.2,14.3-8,15.2-8.8.9-.7,1.4-3.6,1.7-4.3s-.3-3.7-.9-4.4.3-1.7-3.1-.3-9.3,4.5-9.9,4.7c-3,1-3.2,2.5-6,2.1"/>
      <path class="cls-12" d="M222.5,25.9c9.7-2.6,9.4-6,15.3-7.3s19-4.2,19-4.2,5.4-2.8,9.3-3.7,10.1-1.6,12-2.1,9-2.5,11.1-2.9,10.6-1,12.9-1.1,9.2.9,9.7.9,22.9,2.8,25.3,3.7,1,.5,3.1,1.2,2.1,1.9,2.9,2.2-2.1-1.3,2.9,1.4,5,3.5,8,6.6,8.5,8.3,11.4,10.9,5,4.3,7.5,6.4,3.4,3.3,3.4,3.3c0,0-.9-.5,2.8,1.5s4.3,2.8,7.8,4.2,0,.3,4.3,2.2,4.3,3,5.4,2.9"/>
      <path class="cls-12" d="M390.5,48.7c.3-.2,1.4-1.2,3.7-1.1s1.8,1.4,2.9,2,.5,1.2,2.5.3,5.4-3.1,6.7-2.8,3.3,1.9,3.3,1.9"/>
    </g>
  </g>
</svg>