<?xml version="1.0" encoding="UTF-8"?>
<svg id="Layer_2" xmlns="http://www.w3.org/2000/svg" xmlns:xlink="http://www.w3.org/1999/xlink" viewBox="0 0 193.44 86.85">
  <defs>
    <style>
      .cls-1 {
        opacity: .45;
        stroke: #f2f2f2;
      }

      .cls-1, .cls-2 {
        stroke-miterlimit: 10;
      }

      .cls-1, .cls-3 {
        fill: #603813;
      }

      .cls-2 {
        fill: url(#linear-gradient);
        stroke: #603813;
      }

      .cls-3 {
        font-family: ImprintMT-Shadow, 'Imprint MT Shadow';
        font-size: 18px;
      }
    </style>
    <linearGradient id="linear-gradient" x1="-1.16" y1="43.65" x2="194.66" y2="43.65" gradientTransform="translate(59.2 -55.63) rotate(45)" gradientUnits="userSpaceOnUse">
      <stop offset="0" stop-color="#e7dd1f"/>
      <stop offset=".14" stop-color="#e0cf1a"/>
      <stop offset=".72" stop-color="#c89907"/>
      <stop offset="1" stop-color="#bf8500"/>
    </linearGradient>
  </defs>
  <g id="Layer_1-2" data-name="Layer_1">
    <path class="cls-2" d="M192.91,85.96l-.38.38c-.81-.04-1.62-.11-2.42-.11-46.2,0-92.4-.01-138.6,0-16.84,0-33.68.07-50.52.1l-.38-.38c.14-7.1.28-14.21.42-21.28,8.98-1.99,14.43-8.82,15.07-18.46.4-6.15-.66-11.87-4.2-17.01-2.63-3.83-6.24-6.16-11.35-6.56.12-1.77.32-3.3.31-4.83-.04-5.5-.16-10.99-.24-16.49.13-.13.26-.26.38-.38.54.04,1.07.11,1.61.11,44.65,0,89.29,0,133.94-.05,5.95,0,11.89-.24,18.41-.38-.31,3.31-.55,5.92-.77,8.34,2.16.16,3.76.27,6.11.44-.3-2.99-.56-5.59-.89-8.9,11.44.15,22.29.3,33.14.45.13.13.26.26.38.38-.14,7.28-.27,14.56-.41,21.99-3.83-1.08-7.28-.5-10.34,1.81-6.05,4.56-8.16,10.99-8.33,18.22-.15,6.37,1.66,12.2,6.05,16.88,3.36,3.58,7.65,5.21,13.02,3.66-.1,1.95-.25,3.48-.24,5.02.05,5.68.16,11.35.24,17.03ZM155.04,21.87c-.01,4.34-.02,8.46-.03,12.53,1.38.05,2.92.12,4.11.16.08-4.29.15-8.4.23-12.61-1.5-.03-3.03-.06-4.31-.09ZM159.3,59.89c.02-4.28.03-8.4.05-12.48-1.46-.07-3.06-.14-4.07-.18-.08,4.34-.16,8.45-.23,12.51,1.38.05,2.9.1,4.25.15ZM154.76,84.47c1.64.15,3.21.29,4.47.4,0-4.16,0-8.19,0-12.14-1.38-.08-2.97-.18-4.13-.25-.13,4.25-.25,8.3-.35,11.99Z"/>
  </g>
  <g id="Layer_2-2" data-name="Layer_2">
    <polygon class="cls-1" points="74.26 54.14 56.82 63.03 59.89 82.36 46.05 68.52 28.61 77.4 37.49 59.97 23.66 46.13 42.99 49.19 51.87 31.75 54.93 51.08 74.26 54.14"/>
    <text class="cls-3" transform="translate(65.14 28.69)"><tspan x="0" y="0">PARADE</tspan><tspan x="0" y="21.6">MUSEUM</tspan></text>
  </g>
</svg>